<?xml version="1.0" encoding="UTF-8"?>
<svg width="121px" height="120px" viewBox="0 0 121 120" version="1.1" xmlns="http://www.w3.org/2000/svg" xmlns:xlink="http://www.w3.org/1999/xlink">
    <!-- Generator: Sketch 53.2 (72643) - https://sketchapp.com -->
    <title>survey icon</title>
    <desc>Created with Sketch.</desc>
    <g id="Page-1" stroke="none" stroke-width="1" fill="none" fill-rule="evenodd">
        <g id="Final-Error" transform="translate(-96.000000, -96.000000)">
            <g id="Broken-Site-Modal">
                <g id="survey-icon" transform="translate(96.000000, 96.000000)">
                    <g transform="translate(0.000000, -1.420895)">
                        <g id="Group-3" transform="translate(0.000000, 0.364862)">
                            <path d="M98.8656657,106.447535 L98.8656657,29.4739421 C98.8656657,27.1197254 96.9411585,25.2112558 94.5671585,25.2112558 L25.7910432,25.2112558 C23.4170433,25.2112558 21.492536,27.1197254 21.492536,29.4739421 L21.492536,106.447218 C8.35250889,95.4999345 0.000462916153,79.0838574 0.000462916153,60.7336417 C0.000462916153,27.7751605 26.9433983,1.05603334 60.1790985,1.05603334 C93.4147987,1.05603334 120.358665,27.7751605 120.358665,60.7336417 C120.358665,79.0840351 112.006169,95.5002524 98.8656657,106.447535 L98.8656657,106.447535 Z" id="Path" fill="#678FFF"></path>
                            <path d="M98.8656657,106.44715 L98.8656657,94.3968686 C107.004229,88.8960763 113.89053,81.7081748 119.012797,73.34067 C116.154845,86.5186758 108.908685,98.0801942 98.8656657,106.44715 L98.8656657,106.44715 Z M21.492536,106.447603 C11.4495884,98.0807438 4.20350297,86.5192784 1.34549625,73.3412932 C6.46774105,81.7087795 13.3539986,88.8966386 21.4925337,94.3973578 L21.492536,106.447603 L21.492536,106.447603 Z" id="Shape" fill="#5078E9"></path>
                        </g>
                        <path d="M62.4055425,22.7545483 C62.4055425,24.1476582 61.270472,25.2772565 59.8706136,25.2772565 C58.4698293,25.2772565 57.3356847,24.1476582 57.3356847,22.7545483 C57.3356847,21.3614385 58.4698293,20.2318402 59.8706136,20.2318402 C61.270472,20.2318402 62.4055425,21.3614385 62.4055425,22.7545483" id="Fill-16" fill="#678FFF"></path>
                        <path d="M12.9986858,66.341841 C12.9986858,67.7828621 11.8238046,68.9520793 10.3758028,68.9520793 C8.92780108,68.9520793 7.75384569,67.7828621 7.75384569,66.341841 C7.75384569,64.90082 8.92780108,63.7316028 10.3758028,63.7316028 C11.8238046,63.7316028 12.9986858,64.90082 12.9986858,66.341841" id="Fill-36" fill="#B3C7FF"></path>
                        <path d="M40.7913388,15.6760393 C40.7913388,16.6139929 40.0275272,17.3732009 39.0850299,17.3732009 C38.1434584,17.3732009 37.3796467,16.6139929 37.3796467,15.6760393 C37.3796467,14.7380857 38.1434584,13.9779563 39.0850299,13.9779563 C40.0275272,13.9779563 40.7913388,14.7380857 40.7913388,15.6760393" id="Fill-38" fill="#B3C7FF"></path>
                        <path d="M14.3096644,89.1335603 C12.5653963,89.1335603 11.1470211,87.7211017 11.1470211,85.9852426 C11.1470211,84.2503049 12.5653963,82.8378463 14.3096644,82.8378463 C16.0539325,82.8378463 17.4723076,84.2503049 17.4723076,85.9852426 C17.4723076,87.7211017 16.0539325,89.1335603 14.3096644,89.1335603" id="Fill-40" fill="#678FFF"></path>
                        <path d="M14.3096644,81.9169381 C12.0552627,81.9169381 10.2211888,83.7421699 10.2211888,85.9857033 C10.2211888,88.2292367 12.0552627,90.0553899 14.3096644,90.0553899 C16.5640661,90.0553899 18.3981399,88.2292367 18.3981399,85.9857033 C18.3981399,83.7421699 16.5640661,81.9169381 14.3096644,81.9169381 M14.3096644,83.7596759 C15.5447247,83.7596759 16.5464752,84.7565971 16.5464752,85.9857033 C16.5464752,87.2148095 15.5447247,88.212652 14.3096644,88.212652 C13.074604,88.212652 12.0728535,87.2148095 12.0728535,85.9857033 C12.0728535,84.7565971 13.074604,83.7596759 14.3096644,83.7596759" id="Fill-42" fill="#B3C7FF"></path>
                        <path d="M105.403417,37.9387085 C105.403417,38.6251284 104.844215,39.1807138 104.155395,39.1807138 C103.46565,39.1807138 102.907374,38.6251284 102.907374,37.9387085 C102.907374,37.25321 103.46565,36.6967032 104.155395,36.6967032 C104.844215,36.6967032 105.403417,37.25321 105.403417,37.9387085" id="Fill-44" fill="#B3C7FF"></path>
                        <path d="M110.380229,73.5899741 C110.380229,73.0869067 109.020181,72.665841 107.18333,72.5469845 C107.063898,70.7199098 106.640792,69.3664189 106.136214,69.3664189 C105.630709,69.3664189 105.207604,70.7199098 105.088172,72.5469845 C103.252246,72.665841 101.892198,73.0869067 101.892198,73.5899741 C101.892198,74.0921202 103.252246,74.5141071 105.088172,74.6320424 C105.207604,76.4600384 105.630709,77.8135293 106.136214,77.8135293 C106.640792,77.8135293 107.063898,76.4600384 107.18333,74.6320424 C109.020181,74.5141071 110.380229,74.0921202 110.380229,73.5899741" id="Fill-46" fill="#B3C7FF"></path>
                        <path d="M113.893207,61.9239691 C113.893207,63.1245128 112.914603,64.0983998 111.708243,64.0983998 C110.500958,64.0983998 109.523279,63.1245128 109.523279,61.9239691 C109.523279,60.722504 110.500958,59.7495384 111.708243,59.7495384 C112.914603,59.7495384 113.893207,60.722504 113.893207,61.9239691" id="Fill-48" fill="#B3C7FF"></path>
                    </g>
                    <g id="Group-2" transform="translate(21.492536, 24.155222)">
                        <path d="M73.0746225,84.5028438 L73.0746225,5.68358175 C73.0746225,4.89884287 72.4331201,4.26268631 71.6417868,4.26268631 L5.73134294,4.26268631 C4.94000962,4.26268631 4.29850721,4.89884287 4.29850721,5.68358175 L4.29850721,84.503275 C2.81552264,83.4774696 1.38130685,82.3871251 -2.01497224e-15,81.2363474 L-7.10542736e-15,4.26268631 C-7.3961585e-15,1.90846967 1.92450723,4.32462582e-16 4.29850721,0 L73.0746225,0 C75.4486225,-4.32462582e-16 77.3731297,1.90846967 77.3731297,4.26268631 L77.3731297,81.235894 C75.991822,82.3866775 74.5576062,83.4770294 73.0746225,84.5028438 L73.0746225,84.5028438 Z" id="Path" fill="#230545"></path>
                        <path d="M73.0746225,84.5028438 C63.3268603,91.2455989 51.4720715,95.1999943 38.6860996,95.1999943 C25.9004002,95.1999943 14.0459819,91.2457675 4.29850721,84.503275 L4.29850721,5.68358175 C4.29850721,4.89884287 4.94000962,4.26268631 5.73134294,4.26268631 L71.6417868,4.26268631 C72.4331201,4.26268631 73.0746225,4.89884287 73.0746225,5.68358175 L73.0746225,84.5028438 L73.0746225,84.5028438 Z" id="Path" fill="#FFFFFF"></path>
                        <path d="M10.0298501,88.0124309 C8.04972643,86.9470754 6.13665412,85.7747522 4.29850721,84.503275 L4.29850721,5.68358175 C4.29850721,4.89884287 4.94000962,4.26268631 5.73134294,4.26268631 L10.0298501,4.26268631 L10.0298501,88.0124309 L10.0298501,88.0124309 Z" id="Path" fill="#D6D9E4"></path>
                        <path d="M31.6738656,17.6887481 C30.7424783,16.9498102 29.3731723,17.1036788 28.6297289,18.030576 L23.4987662,24.4340901 L20.2250231,21.8358297 C19.2927099,21.0968918 17.9234039,21.2507604 17.1808864,22.1776576 C16.4383689,23.1045547 16.5920571,24.4672594 17.5234444,25.2071187 L22.4914606,29.148735 C23.4228479,29.8876729 24.7921539,29.7347256 25.5355973,28.8078285 L32.0173494,20.7182092 C32.7598669,19.791312 32.6052529,18.427686 31.6738656,17.6887481" id="Fill-20" fill="#D6D9E4"></path>
                        <rect id="Rectangle" fill="#D6D9E4" x="35.8208934" y="21.3134316" width="28.6567147" height="5.68358175" rx="1.5999999"></rect>
                        <rect id="Rectangle-Copy" fill="#678FFF" x="35.8208934" y="38.3641768" width="28.6567147" height="5.68358175" rx="1.5999999"></rect>
                        <rect id="Rectangle-Copy" fill="#D6D9E4" x="35.8208934" y="56.8358175" width="28.6567147" height="5.68358175" rx="1.5999999"></rect>
                        <rect id="Rectangle-Copy" fill="#D6D9E4" x="35.8208934" y="73.8865628" width="28.6567147" height="5.68358175" rx="1.5999999"></rect>
                        <path d="M30.1635553,43.8817008 L27.8721203,41.6013127 L30.1635553,39.3209245 C31.0634643,38.4253539 31.0634643,36.9594559 30.1635553,36.0638853 C29.2636463,35.1673933 27.7906471,35.1673933 26.8898122,36.0638853 L24.5993031,38.3442734 L22.3078681,36.0638853 C21.4070332,35.1673933 19.9349598,35.1673933 19.034125,36.0638853 C18.134216,36.9594559 18.134216,38.4253539 19.034125,39.3209245 L21.32556,41.6013127 L19.034125,43.8817008 C18.134216,44.7781928 18.134216,46.2431694 19.034125,47.1396614 C19.9349598,48.035232 21.4070332,48.035232 22.3078681,47.1396614 L24.5993031,44.8592732 L26.8898122,47.1396614 C27.7906471,48.035232 29.2636463,48.035232 30.1635553,47.1396614 C31.0634643,46.2431694 31.0634643,44.7781928 30.1635553,43.8817008" id="Fill-24" fill="#678FFF"></path>
                        <path d="M31.6738656,53.1327057 C30.7424783,52.3937678 29.3731723,52.5476364 28.6297289,53.4745335 L23.4987662,59.8780477 L20.2250231,57.2797873 C19.2927099,56.5408494 17.9234039,56.694718 17.1808864,57.6216151 C16.4383689,58.5485123 16.5920571,59.911217 17.5234444,60.6510762 L22.4914606,64.5926926 C23.4228479,65.3316305 24.7921539,65.1786832 25.5355973,64.251786 L32.0173494,56.1621667 C32.7598669,55.2352696 32.6052529,53.8716435 31.6738656,53.1327057" id="Fill-30" fill="#D6D9E4"></path>
                        <path d="M31.6738656,70.394 C30.7424783,69.6550621 29.3731723,69.8089307 28.6297289,70.7358278 L23.4987662,77.139342 L20.2250231,74.5410816 C19.2927099,73.8021437 17.9234039,73.9560123 17.1808864,74.8829095 C16.4383689,75.8098066 16.5920571,77.1725113 17.5234444,77.9123705 L22.4914606,81.8539869 C23.4228479,82.5938461 24.7921539,82.4399775 25.5355973,81.5130804 L32.0173494,73.4234611 C32.7598669,72.4965639 32.6052529,71.1329379 31.6738656,70.394" id="Fill-34" fill="#D6D9E4"></path>
                    </g>
                    <g id="Group" transform="translate(37.253729, 14.208954)">
                        <path d="M15.7611931,7.10447719 C15.7611931,3.18078278 18.9687051,0 22.9253718,0 C26.8820384,0 30.0895504,3.18078278 30.0895504,7.10447719 L44.2507436,7.10447719 C45.1343992,7.10447719 45.8507435,7.82082155 45.8507435,8.70447709 L45.8507435,16.8716408 C45.8507435,17.7552963 45.1343992,18.4716407 44.2507436,18.4716407 L1.5999999,18.4716407 C0.716344358,18.4716407 1.08216594e-16,17.7552963 0,16.8716408 L0,8.70447709 C-1.08216594e-16,7.82082155 0.716344358,7.10447719 1.5999999,7.10447719 L15.7611931,7.10447719 Z M22.9253718,9.94626806 C24.5080384,9.94626806 25.7910432,8.67395495 25.7910432,7.10447719 C25.7910432,5.53499943 24.5080384,4.26268631 22.9253718,4.26268631 C21.3427051,4.26268631 20.0597003,5.53499943 20.0597003,7.10447719 C20.0597003,8.67395495 21.3427051,9.94626806 22.9253718,9.94626806 Z" id="Combined-Shape" fill="#E8EAF2"></path>
                        <path d="M45.8507435,15.6298498 C45.8507435,17.1993276 44.5677387,18.4716407 42.9850721,18.4716407 L2.86567147,18.4716407 C1.28300482,18.4716407 0,17.1993276 0,15.6298498 L45.8507435,15.6298498 Z" id="Combined-Shape" fill="#D6D9E4"></path>
                    </g>
                </g>
            </g>
        </g>
    </g>
</svg>