<svg id="Layer_1" data-name="Layer 1" xmlns="http://www.w3.org/2000/svg" viewBox="0 0 240 240"><defs><style>.cls-1{fill:#ccdcff;}.cls-2{fill:#8cabff;}.cls-3{fill:#fff;}.cls-4{fill:#383838;}.cls-5{fill:#ececec;}</style></defs><title>Artboard 1</title><circle class="cls-1" cx="120" cy="120" r="90"/><path class="cls-2" d="M162,72.83H78a8,8,0,0,0-8,8V142l8-7,5.16-4.54L102,136.5l8,2.58,8.32,2.69L133,128.83l6.46-5.69,2.52-2.31h19.9l.1-.09,8-7V80.83A8,8,0,0,0,162,72.83Z"/><path class="cls-2" d="M170,74a8,8,0,0,0-8-8H78a8,8,0,0,0-8,8V86H170Z"/><circle class="cls-3" cx="101" cy="76" r="3"/><circle class="cls-3" cx="91" cy="76" r="3"/><circle class="cls-3" cx="81" cy="76" r="3"/><polygon class="cls-3" points="70 86 70 135.17 78 128.13 78 94 102 94 102 129.67 110 132.25 110 122 133.03 122 139.48 116.32 142 114 161.9 114 110 114 110 94 162 94 162 113.91 170 106.87 170 86 70 86"/><polygon class="cls-4" points="162 125.91 161.9 126 162 126 162 125.91"/><polygon class="cls-5" points="78 128.13 83.16 123.59 102 129.67 102 94 78 94 78 128.13"/><polygon class="cls-5" points="110 94 110 114 161.9 114 162 113.91 162 94 110 94"/><polygon class="cls-5" points="133.03 122 110 122 110 132.25 118.32 134.94 133.03 122"/><path class="cls-2" d="M161.9,134H142l-2.52,2.32L133,142l-14.7,12.94L110,152.26l-8-2.59-18.84-6.08L78,148.13l-8,7V170a8,8,0,0,0,8,8h84a8,8,0,0,0,8-8V126.87l-8,7Z"/><path class="cls-3" d="M162,129.13H142l-2.52,2.32L133,137.13h29v28H110V147.38l-8-2.58v20.33H78V143.26l-8,7v14.83a8,8,0,0,0,8,8h84a8,8,0,0,0,8-8V122l-8,7Z"/><polygon class="cls-5" points="78 143.26 78 165.13 102 165.13 102 144.8 83.16 138.72 78 143.26"/><polygon class="cls-5" points="118.32 150.07 110 147.38 110 165.13 162 165.13 162 137.13 133.03 137.13 118.32 150.07"/></svg>