<svg width="20" height="20" viewBox="0 0 20 20" fill="none" xmlns="http://www.w3.org/2000/svg">
<rect width="20" height="20" fill="white"/>
<path fill-rule="evenodd" clip-rule="evenodd" d="M10 2.5C5.85786 2.5 2.5 5.85786 2.5 10C2.5 11.2289 2.79499 12.3868 3.31737 13.4086C4.55971 15.8389 7.08652 17.5 10 17.5C12.9135 17.5 15.4403 15.8389 16.6826 13.4086C17.205 12.3868 17.5 11.2289 17.5 10C17.5 5.85786 14.1421 2.5 10 2.5ZM1 10C1 5.02944 5.02944 1 10 1C14.9706 1 19 5.02944 19 10C19 11.4718 18.6462 12.863 18.0182 14.0914C16.5295 17.0036 13.4985 19 10 19C6.50145 19 3.47048 17.0036 1.98176 14.0914C1.35384 12.863 1 11.4718 1 10ZM14.75 9C15.1642 9 15.5 9.33579 15.5 9.75V12.25C15.5 12.6642 15.1642 13 14.75 13C14.3358 13 14 12.6642 14 12.25V9.75C14 9.33579 14.3358 9 14.75 9ZM12.5 7.75C12.5 7.33579 12.1642 7 11.75 7C11.3358 7 11 7.33579 11 7.75V12.25C11 12.6642 11.3358 13 11.75 13C12.1642 13 12.5 12.6642 12.5 12.25V7.75ZM8.75 6C9.16421 6 9.5 6.33579 9.5 6.75V12.25C9.5 12.6642 9.16421 13 8.75 13C8.33579 13 8 12.6642 8 12.25V6.75C8 6.33579 8.33579 6 8.75 6ZM6.5 8.75C6.5 8.33579 6.16421 8 5.75 8C5.33579 8 5 8.33579 5 8.75V12.25C5 12.6642 5.33579 13 5.75 13C6.16421 13 6.5 12.6642 6.5 12.25V8.75Z" fill="#333333"/>
</svg>
