<svg width="20" height="20" viewBox="0 0 20 20" fill="none" xmlns="http://www.w3.org/2000/svg">
<path fill-rule="evenodd" clip-rule="evenodd" d="M3.5 4C2.11929 4 1 5.11929 1 6.5V13.5C1 14.8807 2.11929 16 3.5 16H16.5C17.8807 16 19 14.8807 19 13.5V6.5C19 5.11929 17.8807 4 16.5 4H3.5ZM2.50074 6.46107C2.50025 6.47398 2.5 6.48696 2.5 6.5V13.5C2.5 14.0523 2.94772 14.5 3.5 14.5H16.5C17.0523 14.5 17.5 14.0523 17.5 13.5V6.5C17.5 6.48696 17.4998 6.47398 17.4993 6.46107L12.3426 10.5864C10.973 11.682 9.02696 11.682 7.65739 10.5864L2.50074 6.46107ZM16.2994 5.5H3.70058L8.59444 9.41508C9.41618 10.0725 10.5838 10.0725 11.4056 9.41508L16.2994 5.5Z" fill="#333333"/>
</svg>
