<svg width="20" height="20" viewBox="0 0 20 20" fill="none" xmlns="http://www.w3.org/2000/svg">
<rect width="20" height="20" fill="white"/>
<path fill-rule="evenodd" clip-rule="evenodd" d="M1 4.5C1 3.11929 2.11929 2 3.5 2H16.5C17.8807 2 19 3.11929 19 4.5V12.5C19 13.8799 17.8829 15 16.5014 15H12.1335C11.7906 15 11.4375 15.1496 11.1421 15.4268C9.16367 17.2833 6.64815 18.4526 5.20371 19.0249C4.06813 19.4749 3.09958 18.381 3.3928 17.3483C3.59685 16.6297 3.82272 15.739 3.93291 15H3.49975C2.1189 15 1 13.8806 1 12.5V4.5ZM3.5 3.5C2.94772 3.5 2.5 3.94772 2.5 4.5V12.5C2.5 13.0524 2.94761 13.5 3.49975 13.5H4.24999C4.92182 13.5 5.54667 14.0613 5.46701 14.826C5.37874 15.6734 5.12419 16.7174 4.89961 17.5301C6.2972 16.9558 8.44406 15.9016 10.1156 14.333C10.642 13.839 11.3493 13.5 12.1335 13.5H16.5014C17.0529 13.5 17.5 13.0531 17.5 12.5V4.5C17.5 3.94772 17.0523 3.5 16.5 3.5H3.5Z" fill="#333333"/>
</svg>
