<svg xmlns="http://www.w3.org/2000/svg" width="58" height="65"><g fill="none"><ellipse cx="18.445" cy="51.751" fill="#8D9099" rx="13.009" ry="13.006"/><path fill="#FFF" d="M17.209 48.635v1.644H15.41v2.09h1.798v5.258h2.154V52.37h1.67l.268-2.09h-1.97v-1.434c0-.638.166-1.02 1.033-1.02h1.109v-1.867a14.732 14.732 0 0 0-1.613-.077 2.55 2.55 0 0 0-2.651 2.753z"/><ellipse cx="42.123" cy="29.505" fill="#B8BABC" rx="15.539" ry="15.536"/><path fill="#FFF" d="M50.04 23.406a6.597 6.597 0 0 1-2.149.733 3.34 3.34 0 0 0-5.825 2.084c-.009.256.008.512.05.765a9.478 9.478 0 0 1-6.761-3.735 3.39 3.39 0 0 0-.517 1.67 3.345 3.345 0 0 0 1.396 2.836 3.404 3.404 0 0 1-1.498-.478v.044a3.352 3.352 0 0 0 2.55 3.372c-.29.06-.584.087-.88.082a5.023 5.023 0 0 1-.637-.076 3.346 3.346 0 0 0 3.027 2.434 6.744 6.744 0 0 1-4.194 1.275c-.28 0-.535 0-.803-.07a9.51 9.51 0 0 0 14.66-5.532c.164-.642.258-1.3.28-1.962v-.434a7.074 7.074 0 0 0 1.734-1.67 6.566 6.566 0 0 1-1.912.453 3.333 3.333 0 0 0 1.478-1.79z"/><ellipse cx="16.463" cy="16.46" fill="#8D9099" rx="16.463" ry="16.46"/><path fill="#FFF" d="M16.61 15.154v3.135h5.169c-.21 1.338-1.562 3.92-5.17 3.92a5.698 5.698 0 0 1-5.64-5.736c0-5.098 6.03-7.462 9.267-4.333l2.48-2.384a8.745 8.745 0 0 0-6.106-2.383 9.107 9.107 0 0 0 0 18.206c5.258 0 8.814-3.696 8.814-8.89 0-.51-.05-1.02-.146-1.522l-8.668-.013z"/></g></svg>