<svg xmlns="http://www.w3.org/2000/svg" xmlns:xlink="http://www.w3.org/1999/xlink" viewBox="0 0 268.74 216.49"><defs><style>.cls-1{fill:#d4d8d4;}.cls-2{fill:#c9ccc6;opacity:0.75;}.cls-3{fill:url(#linear-gradient);}.cls-4,.cls-9{fill:#fff;}.cls-5{fill:#5f6168;}.cls-6{fill:#dee2ea;}.cls-7{fill:#a7a8ab;}.cls-8{fill:#8d9099;}.cls-9{opacity:0.59;isolation:isolate;}.cls-10{fill:#9b7a56;}.cls-11{fill:#af58c4;}.cls-12{fill:#ce6ce5;}.cls-13{fill:#323335;}.cls-14{fill:#7b5d3f;}.cls-15{fill:#8c6e48;}.cls-16{opacity:0.46;}.cls-17{opacity:0.56;}.cls-18{fill:#4d4f54;}</style><linearGradient id="linear-gradient" x1="50.03" y1="11.33" x2="162.66" y2="206.42" gradientUnits="userSpaceOnUse"><stop offset="0" stop-color="#c7c7c7"/><stop offset="1" stop-color="#8f8f8f"/></linearGradient></defs><title>Null State</title><g id="Layer_2" data-name="Layer 2"><g id="Layer_1-2" data-name="Layer 1"><circle class="cls-1" cx="123.84" cy="108.25" r="108.25"/><path class="cls-2" d="M123.84,0A107.94,107.94,0,0,0,81.77,8.48l1.62,0a115.4,115.4,0,0,1,76.38,201.92A108.26,108.26,0,0,0,123.84,0Z"/><path class="cls-3" d="M232.09,108.25a107.82,107.82,0,0,0-23.76-67.67.07.07,0,0,0-.06,0H18.15c-.06,0-.1-.07-.06-.11a4.8,4.8,0,0,0-.43-6.25h0a4.91,4.91,0,0,0-6.9,0L1.57,43.39A4.74,4.74,0,0,0,.19,46.67,7.79,7.79,0,0,0,0,48.35V167.59a16.86,16.86,0,0,0,16.86,16.87H200.68a.05.05,0,0,0,0,0A107.9,107.9,0,0,0,232.09,108.25Z"/><path class="cls-4" d="M232.09,108.25A107.84,107.84,0,0,0,201,32.34H15.53a7,7,0,0,0-7,7V165.07A11.17,11.17,0,0,0,19.7,176.24H208.06A107.72,107.72,0,0,0,232.09,108.25Z"/><path class="cls-5" d="M201.1,32.44H15.36a6.82,6.82,0,0,0-6.83,6.83V49H214.44A108.09,108.09,0,0,0,201.1,32.44Z"/><path class="cls-6" d="M135.28,132.5H98a2.26,2.26,0,0,1-2.24-2.24V107.65A2.27,2.27,0,0,1,98,105.41h37.31a2.26,2.26,0,0,1,2.24,2.24v22.61A2.15,2.15,0,0,1,135.28,132.5Z"/><path class="cls-6" d="M184.39,132.5H147.07a2.27,2.27,0,0,1-2.24-2.24V107.65a2.27,2.27,0,0,1,2.24-2.24h37.32a2.27,2.27,0,0,1,2.24,2.24v22.61A2.21,2.21,0,0,1,184.39,132.5Z"/><path class="cls-6" d="M158.37,146.92H99.23a3.49,3.49,0,0,1-3.5-3.51h0a3.49,3.49,0,0,1,3.5-3.51h59.14a3.5,3.5,0,0,1,3.51,3.51h0A3.62,3.62,0,0,1,158.37,146.92Z"/><path class="cls-6" d="M192.47,146.92H170.16a3.49,3.49,0,0,1-3.5-3.51h0a3.49,3.49,0,0,1,3.5-3.51h22.31a3.5,3.5,0,0,1,3.51,3.51h0A3.5,3.5,0,0,1,192.47,146.92Z"/><path class="cls-6" d="M121.54,161H99.23a3.49,3.49,0,0,1-3.5-3.51h0a3.49,3.49,0,0,1,3.5-3.51h22.31a3.5,3.5,0,0,1,3.51,3.51h0A3.5,3.5,0,0,1,121.54,161Z"/><path class="cls-6" d="M165.88,161H143.56a3.49,3.49,0,0,1-3.5-3.51h0a3.49,3.49,0,0,1,3.5-3.51h22.32a3.49,3.49,0,0,1,3.5,3.51h0A3.61,3.61,0,0,1,165.88,161Z"/><circle class="cls-6" cx="132.55" cy="157.44" r="3.51"/><circle class="cls-6" cx="187.6" cy="157.44" r="3.51"/><circle class="cls-6" cx="177.47" cy="157.44" r="3.51"/><path class="cls-6" d="M199.3,161h19.11q1.91-3.42,3.57-7c-.12,0-.25,0-.37,0H199.3a3.51,3.51,0,0,0,0,7Z"/><path class="cls-6" d="M196.08,132.5h33.28a108.33,108.33,0,0,0,2.73-24.25c0-1,0-1.9,0-2.84h-36a2.27,2.27,0,0,0-2.24,2.24v22.61A2.26,2.26,0,0,0,196.08,132.5Z"/><path class="cls-6" d="M231.61,98a107.43,107.43,0,0,0-9.17-34.52h-122a4.67,4.67,0,0,0-4.67,4.67V93.43a4.67,4.67,0,0,0,4.67,4.67H231A4.76,4.76,0,0,0,231.61,98Z"/><circle class="cls-7" cx="21.99" cy="40.72" r="3.22"/><circle class="cls-7" cx="33.2" cy="40.72" r="3.22"/><circle class="cls-7" cx="44.4" cy="40.72" r="3.22"/><path class="cls-8" d="M82.48,176.24h-63A11,11,0,0,1,8.53,165.3V48.8h74Z"/><path class="cls-9" d="M60.94,125.58H26.45a3,3,0,0,1-3-3h0a3,3,0,0,1,3-3H60.94a3,3,0,0,1,3,3h0A3,3,0,0,1,60.94,125.58Z"/><path class="cls-9" d="M60.94,140H26.45a3,3,0,0,1-3-3h0a3,3,0,0,1,3-3H60.94a3,3,0,0,1,3,3h0A3,3,0,0,1,60.94,140Z"/><path class="cls-9" d="M52.17,154.52H26.45a3,3,0,0,1-3-3h0a3,3,0,0,1,3-3H52.17a3,3,0,0,1,3,3h0A3,3,0,0,1,52.17,154.52Z"/><path class="cls-9" d="M60.94,154.52h0a3,3,0,0,1-3-3h0a3,3,0,0,1,3-3h0a3,3,0,0,1,3,3h0A3,3,0,0,1,60.94,154.52Z"/><circle class="cls-9" cx="45.69" cy="85.63" r="25.43"/><path class="cls-10" d="M61.67,105.51a8.65,8.65,0,0,0-1.27-3.12c-1.27-1.75-4.19-1.75-6.53-1.85a7.33,7.33,0,0,1-2.82-.29h0c-1.47-.59-1.76-2.53-1.86-3.51-.77-2.43-1.85-3.21-3-2.92l-.58.58L45,93.82c-1.17-.2-1.66,0-2.44,2.92-.1,1-.49,2.92-1.85,3.51a7.39,7.39,0,0,1-2.83.29c-2.34,0-5.36.1-6.53,1.85a6.21,6.21,0,0,0-1.26,3.12,25.51,25.51,0,0,0,16,5.65A24.45,24.45,0,0,0,61.67,105.51Z"/><path class="cls-10" d="M54.94,84c0,6.53-4.09,14.52-9.25,14.52S36.43,90.41,36.43,84s4.09-11.79,9.26-11.79S54.94,77.45,54.94,84Z"/><rect class="cls-11" x="36.24" y="74.04" width="17.73" height="6.82"/><rect class="cls-12" x="45.78" y="74.04" width="8.96" height="6.82"/><path class="cls-13" d="M60.79,77.45h0a3.84,3.84,0,0,0-2.53-5.16,3.43,3.43,0,0,0-3.71-4.19,4,4,0,0,0-5.65-1.66,4.31,4.31,0,0,0-6.53,0,4.12,4.12,0,0,0-5.74,1.66,3.4,3.4,0,0,0-3.71,4.19,3.81,3.81,0,0,0-2.53,5.16,3.77,3.77,0,0,0,1.27,6c-1.46,2-1.17,5.07,1.56,5.94A4,4,0,0,0,37,92.84a4.13,4.13,0,0,0,2.72,2H40a15.71,15.71,0,0,1-3.32-9.55,24.94,24.94,0,0,1,.2-2.82,1.94,1.94,0,0,0,1.17-.78A1.88,1.88,0,0,0,41,81.15,1.87,1.87,0,0,0,44,81a1.87,1.87,0,0,0,3.12,0,1.93,1.93,0,0,0,3,.19,1.92,1.92,0,0,0,2.92.59,1.94,1.94,0,0,0,1.17.78,24.94,24.94,0,0,1,.2,2.82,15.73,15.73,0,0,1-3,9.55h.19a3.73,3.73,0,0,0,2.63-2,3.87,3.87,0,0,0,3.8-3.41c2.54-.78,3.31-3.7,1.56-5.94A3.76,3.76,0,0,0,60.79,77.45ZM38.58,79.3c3.7-6.53,10.32-6.43,14,0A13.25,13.25,0,0,0,38.58,79.3Z"/><path class="cls-14" d="M55.14,84.76a10.35,10.35,0,0,1-.78,5C56.79,88.27,57.18,84.37,55.14,84.76Z"/><path class="cls-15" d="M36,84.76a10.35,10.35,0,0,0,.78,5C34.39,88.27,34,84.37,36,84.76Z"/><path class="cls-12" d="M60.4,102.39c-1.27-1.75-4.19-1.75-6.53-1.85a7.33,7.33,0,0,1-2.82-.29h0c-.1,0-.1-.1-.2-.1a7,7,0,0,1-5.07,2.73,6.62,6.62,0,0,1-5-2.73.1.1,0,0,0-.1.1,7.39,7.39,0,0,1-2.83.29c-2.34,0-5.36.1-6.53,1.85a6.12,6.12,0,0,0-1.26,3.12,24.48,24.48,0,0,0,16,5.65,25.53,25.53,0,0,0,16-5.65A19.91,19.91,0,0,0,60.4,102.39Z"/><path class="cls-14" d="M49.25,97.19a6.13,6.13,0,0,1-3.37,1.49,5.9,5.9,0,0,1-3.41-1.27,6.49,6.49,0,0,1-.6,1.75,5.65,5.65,0,0,0,8,0A6.47,6.47,0,0,1,49.25,97.19Z"/><ellipse class="cls-13" cx="42.86" cy="86.93" rx="0.88" ry="1.07"/><ellipse class="cls-13" cx="48.51" cy="86.93" rx="0.88" ry="1.07"/><rect class="cls-13" x="41.85" y="83.99" width="0.84" height="3.73" rx="0.36" ry="0.36" transform="matrix(0.5, 0.87, -0.87, 0.5, 95.49, 6.32)"/><rect class="cls-13" x="48.65" y="83.98" width="0.84" height="3.53" rx="0.35" ry="0.35" transform="translate(139.71 46.43) rotate(96.33)"/><rect class="cls-13" x="46.58" y="91.48" width="0.81" height="3.97" rx="0.4" ry="0.4" transform="translate(104.43 6.04) rotate(60)"/><g class="cls-16"><path class="cls-5" d="M35.89,109.1l-1.3-5.46c-1.5,1.39-2.77-.47-3.81,1.31-.64,1.09-1.29,2.16-2,3.32l-.62-.5c-2.33-1.86-4.64-3.74-7-5.55-.37-.28-1-.22-1.52-.33-.17,0-.4-.09-.47-.21a3.27,3.27,0,0,0-3-1.94,2,2,0,0,1-.63-.23,10.36,10.36,0,0,0-6.88-.73A5.06,5.06,0,0,0,7,99.84a.81.81,0,0,0,0,1.32c.74.64,1.52,1.24,2.3,1.88,0-.05,0,0-.09.1a10.43,10.43,0,0,0-3.51,4.25,1.18,1.18,0,0,0,0,.9,5.09,5.09,0,0,0,1,1.6c1.13,1.1,1.19,1.7,2.78,1a46.05,46.05,0,0,0,4.41-2.29,32.65,32.65,0,0,0,2.88-2.19l.23.17c1.18,1.12,2.35,2.23,3.51,3.36,1.63,1.59,3.24,3.22,4.9,4.79a5.93,5.93,0,0,0,2,1.42,5.49,5.49,0,0,0,2.28,0c.22,0,.42-.38.61-.6a20.14,20.14,0,0,1,1.64-1.93,31.84,31.84,0,0,1,2.39-2.4C34.49,111,35.64,109.27,35.89,109.1Z"/></g><path class="cls-10" d="M34.72,109.68l-.13-7.83c-1.5,1.39-2.77-.47-3.81,1.31-.64,1.09-1.29,2.16-2,3.32l-.62-.5c-2.33-1.86-4.64-3.74-7-5.55-.37-.28-1-.22-1.52-.33-.17,0-.4-.09-.47-.21a3.27,3.27,0,0,0-3-1.94,2,2,0,0,1-.63-.23A10.36,10.36,0,0,0,8.68,97,5.06,5.06,0,0,0,7,98.05a.81.81,0,0,0,0,1.32c.74.64,1.52,1.24,2.3,1.88,0,0,0,0-.09.1a10.43,10.43,0,0,0-3.51,4.25,1.18,1.18,0,0,0,0,.9,5.09,5.09,0,0,0,1,1.6c1.13,1.1,1.19,1.69,2.78,1a46.05,46.05,0,0,0,4.41-2.29,34.71,34.71,0,0,0,2.88-2.19l.23.17c1.18,1.12,2.35,2.23,3.51,3.36,1.63,1.59,3.24,3.22,4.9,4.79a5.93,5.93,0,0,0,2,1.42,5.33,5.33,0,0,0,2.28,0c.22,0,.42-.37.61-.59a20.14,20.14,0,0,1,1.64-1.93A18.53,18.53,0,0,1,34,110.19Z"/><path class="cls-12" d="M30.78,103.16c-.64,1.09-1.29,2.16-2,3.32l-.62-.5c-2.33-1.86-4.64-3.74-7-5.55a1,1,0,0,0-.42-.17,9.76,9.76,0,0,1-4,4.39.83.83,0,0,1,.15.11c1.18,1.12,2.35,2.23,3.51,3.36,1.63,1.59,3.24,3.22,4.9,4.79a5.93,5.93,0,0,0,2,1.42,5.33,5.33,0,0,0,2.28,0c.22,0,.42-.37.61-.59a20.14,20.14,0,0,1,1.64-1.93A18.53,18.53,0,0,1,34,110.19c.24-.17,1.73-1.07,2-1.24l-1.24-8.23C33,101.07,31.82,101.38,30.78,103.16Z"/><g class="cls-17"><path class="cls-5" d="M55.92,109.14l1.37-5.31c1.49,1.38,2.76-.47,3.81,1.31.64,1.09,1.29,2.16,2,3.32l.62-.5c2.33-1.86,4.64-3.74,7-5.55.38-.29,1-.22,1.53-.33.17,0,.4-.09.47-.21a3.26,3.26,0,0,1,3-1.94,2,2,0,0,0,.63-.23A10.36,10.36,0,0,1,83.2,99,5.16,5.16,0,0,1,84.9,100a.8.8,0,0,1,0,1.32c-.74.64-1.51,1.24-2.29,1.88,0,0,0,0,.09.09a10.62,10.62,0,0,1,3.51,4.26,1.22,1.22,0,0,1,0,.9,5.27,5.27,0,0,1-1,1.6c-1.13,1.1-1.2,1.69-2.78,1a43.8,43.8,0,0,1-4.41-2.29,34.85,34.85,0,0,1-2.89-2.19l-.23.17c-1.17,1.12-2.34,2.22-3.5,3.35-1.64,1.6-3.24,3.23-4.91,4.8a5.83,5.83,0,0,1-2,1.42,5.29,5.29,0,0,1-2.27,0c-.23,0-.42-.37-.61-.59A23.5,23.5,0,0,0,60,113.75a19.93,19.93,0,0,0-1.84-2C57.94,111.52,56.17,109.31,55.92,109.14Z"/></g><path class="cls-10" d="M57.16,109.86l.13-7.82c1.49,1.38,2.76-.48,3.81,1.31.64,1.09,1.29,2.16,2,3.32l.62-.5c2.33-1.86,4.64-3.74,7-5.55.38-.29,1-.22,1.53-.33.17,0,.4-.09.47-.21a3.27,3.27,0,0,1,3-2,1.61,1.61,0,0,0,.63-.23,10.42,10.42,0,0,1,6.88-.72,5,5,0,0,1,1.7,1.06.8.8,0,0,1,0,1.32c-.74.64-1.51,1.24-2.29,1.88,0,0,0,0,.09.09a10.62,10.62,0,0,1,3.51,4.26,1.22,1.22,0,0,1,0,.9,5.27,5.27,0,0,1-1,1.6c-1.13,1.1-1.2,1.69-2.78,1A43.8,43.8,0,0,1,78.06,107a34.85,34.85,0,0,1-2.89-2.19,1.7,1.7,0,0,0-.23.17c-1.17,1.12-2.34,2.22-3.5,3.35-1.64,1.6-3.24,3.23-4.91,4.8a5.83,5.83,0,0,1-2,1.42,5.29,5.29,0,0,1-2.27,0c-.23,0-.42-.37-.61-.6A23.35,23.35,0,0,0,60,112a19.45,19.45,0,0,0-2.12-1.58C57.66,110.2,57.41,110,57.16,109.86Z"/><path class="cls-12" d="M61.1,103.35c.64,1.09,1.29,2.16,2,3.32l.62-.5c2.33-1.86,4.64-3.74,7-5.55a1.19,1.19,0,0,1,.43-.18,9.66,9.66,0,0,0,4,4.39l-.16.12c-1.17,1.12-2.34,2.22-3.5,3.35-1.64,1.6-3.24,3.23-4.91,4.8a5.83,5.83,0,0,1-2,1.42,5.29,5.29,0,0,1-2.27,0c-.23,0-.42-.37-.61-.6A23.35,23.35,0,0,0,60,112a19.45,19.45,0,0,0-2.12-1.58c-.24-.18-1.73-1.07-2-1.24l1.24-8.24C58.85,101.26,60.05,101.56,61.1,103.35Z"/><circle class="cls-18" cx="185.1" cy="97.74" r="72.59"/><circle class="cls-5" cx="193.53" cy="88.89" r="75.22"/><path class="cls-4" d="M185.94,92.5c0-11.19,13.93-12.51,13.93-19,0-2.94-2.27-5.4-7.48-5.4a14.87,14.87,0,0,0-11.66,5.87l-7.67-8.62a26.78,26.78,0,0,1,20.75-9.19c12.22,0,19.71,6.16,19.71,15,0,13.83-15.83,14.88-15.83,22.84a5.46,5.46,0,0,0,1.8,4l-10.42,3A12.35,12.35,0,0,1,185.94,92.5Zm0,21.13a7.68,7.68,0,1,1,7.68,7.67A7.77,7.77,0,0,1,185.94,113.63Z"/></g></g></svg>