<svg xmlns="http://www.w3.org/2000/svg" width="137" height="111"><defs><linearGradient id="a" x1="21.556%" x2="70.085%" y1="-14.159%" y2="114.48%"><stop offset="0%" stop-color="#C7C7C7"/><stop offset="100%" stop-color="#8F8F8F"/></linearGradient></defs><g fill="none"><ellipse cx="63.071" cy="55.372" fill="#D4D8D4" rx="55.131" ry="55.372"/><path fill="#C9CCC6" d="M63.07 0a54.766 54.766 0 0 0-21.425 4.338h.825c24.44-.004 46.332 15.185 54.98 38.144 8.646 22.96 2.244 48.898-16.08 65.142 25.359-8.948 40.598-34.958 36.074-61.569C112.919 19.445 89.949-.012 63.07 0z" opacity=".75"/><path fill="url(#a)" d="M118.202 55.372a55.303 55.303 0 0 0-12.1-34.614.036.036 0 0 0-.031 0H9.244c-.03 0-.051-.036-.03-.057a2.463 2.463 0 0 0-.22-3.197 2.493 2.493 0 0 0-3.514 0L.8 22.194a2.43 2.43 0 0 0-.703 1.679c-.063.282-.096.57-.097.859v60.994a8.643 8.643 0 0 0 2.513 6.101 8.568 8.568 0 0 0 6.074 2.528h93.618a55.317 55.317 0 0 0 15.997-38.983z"/><path fill="#FFF" d="M118.202 55.372a55.287 55.287 0 0 0-15.834-38.83H7.909a3.573 3.573 0 0 0-3.565 3.581v64.314c0 3.155 2.547 5.713 5.69 5.713h95.93a55.251 55.251 0 0 0 12.238-34.778z"/><path fill="#5F6168" d="M102.419 16.594H7.823a3.466 3.466 0 0 0-2.461 1.022 3.496 3.496 0 0 0-1.018 2.471v4.978h104.869a55.247 55.247 0 0 0-6.794-8.471z"/><path fill="#DEE2EA" d="M68.897 67.776H49.911a1.154 1.154 0 0 1-1.141-1.145V55.065a1.159 1.159 0 0 1 1.14-1.146h19.003a1.154 1.154 0 0 1 1.14 1.146v11.566a1.092 1.092 0 0 1-1.156 1.146zm25.012 0H74.902a1.159 1.159 0 0 1-1.141-1.145V55.065a1.159 1.159 0 0 1 1.14-1.146H93.91a1.159 1.159 0 0 1 1.14 1.146v11.566c.005.305-.114.599-.33.814a1.123 1.123 0 0 1-.81.331zm-13.252 7.377h-30.12a1.774 1.774 0 0 1-1.264-.525 1.79 1.79 0 0 1-.518-1.27 1.79 1.79 0 0 1 .518-1.272c.335-.337.79-.526 1.264-.524h30.12c.474-.002.93.187 1.265.524.336.337.524.795.522 1.271a1.848 1.848 0 0 1-1.787 1.796zm17.367 0H86.66a1.774 1.774 0 0 1-1.263-.525 1.79 1.79 0 0 1-.52-1.27 1.79 1.79 0 0 1 .52-1.272 1.77 1.77 0 0 1 1.263-.524h11.363c.474-.002.93.187 1.265.524.336.337.524.795.522 1.271.002.477-.186.934-.522 1.271a1.779 1.779 0 0 1-1.265.525zM61.9 82.355H50.537a1.774 1.774 0 0 1-1.264-.525 1.79 1.79 0 0 1-.518-1.27 1.79 1.79 0 0 1 .518-1.271c.335-.338.79-.526 1.264-.525H61.9c.474-.001.93.187 1.265.524.336.337.524.795.522 1.271.002.477-.186.934-.522 1.271a1.779 1.779 0 0 1-1.265.525zm22.582 0H73.114a1.774 1.774 0 0 1-1.264-.525 1.79 1.79 0 0 1-.518-1.27 1.79 1.79 0 0 1 .518-1.271c.335-.338.79-.526 1.264-.525h11.368c.474-.001.929.187 1.263.525.335.337.522.794.52 1.27a1.843 1.843 0 0 1-1.783 1.796z"/><ellipse cx="67.507" cy="80.534" fill="#DEE2EA" rx="1.788" ry="1.795"/><ellipse cx="95.543" cy="80.534" fill="#DEE2EA" rx="1.788" ry="1.795"/><ellipse cx="90.384" cy="80.534" fill="#DEE2EA" rx="1.788" ry="1.795"/><path fill="#DEE2EA" d="M101.502 82.355h9.733a53.567 53.567 0 0 0 1.818-3.58h-11.551a1.792 1.792 0 0 0-1.653 1.79c0 .939.72 1.719 1.653 1.79zm-1.64-14.579h16.95a55.645 55.645 0 0 0 1.39-12.404V53.92H99.867a1.159 1.159 0 0 0-1.14 1.146v11.566c.005.628.51 1.137 1.135 1.145zm18.096-17.647a55.143 55.143 0 0 0-4.67-17.658H51.152c-.63 0-1.235.252-1.681.7a2.394 2.394 0 0 0-.697 1.69v12.93c0 .634.25 1.242.697 1.69.446.448 1.05.7 1.681.7h66.494c.104-.011.208-.028.31-.052z"/><ellipse cx="11.199" cy="20.829" fill="#A7A8AB" rx="1.64" ry="1.647"/><ellipse cx="16.909" cy="20.829" fill="#A7A8AB" rx="1.64" ry="1.647"/><ellipse cx="22.613" cy="20.829" fill="#A7A8AB" rx="1.64" ry="1.647"/><path fill="#3FA140" d="M42.007 90.15H9.92c-3.072-.014-5.56-2.51-5.577-5.596V24.962h37.688l-.025 65.188z"/><path fill="#FFF" d="M31.036 64.237H13.471a1.531 1.531 0 0 1-1.528-1.535c0-.847.684-1.534 1.528-1.534h17.565c.844 0 1.528.687 1.528 1.534 0 .848-.684 1.535-1.528 1.535zm0 7.376H13.471a1.531 1.531 0 0 1-1.528-1.535c0-.847.684-1.534 1.528-1.534h17.565c.844 0 1.528.687 1.528 1.534 0 .848-.684 1.535-1.528 1.535zM26.57 79.04h-13.1a1.531 1.531 0 0 1-1.527-1.534c0-.848.684-1.535 1.528-1.535H26.57c.844 0 1.528.687 1.528 1.535 0 .847-.684 1.534-1.528 1.534zm4.466 0a1.531 1.531 0 0 1-1.528-1.534c0-.848.685-1.535 1.528-1.535.844 0 1.528.687 1.528 1.535 0 .847-.684 1.534-1.528 1.534z" opacity=".59"/><ellipse cx="94.25" cy="49.111" fill="#8E2626" rx="36.97" ry="37.131"/><ellipse cx="98.538" cy="44.589" fill="#CE2828" rx="38.309" ry="38.477"/><ellipse cx="23.229" cy="43.761" fill="#FFF" opacity=".59" rx="12.951" ry="13.008"/><path fill="#9B7A56" d="M31.286 53.873a3.996 3.996 0 0 0-.565-1.534c-.647-.895-2.134-.895-3.326-.947a3.708 3.708 0 0 1-1.436-.148c-.749-.297-.897-1.294-.948-1.795-.397-1.243-.942-1.642-1.527-1.494l-.296.297-.3-.297c-.596-.102-.84 0-1.238 1.494-.05.511-.25 1.498-.942 1.795a3.748 3.748 0 0 1-1.441.148c-1.192 0-2.73.052-3.326.947a3.076 3.076 0 0 0-.662 1.586 12.957 12.957 0 0 0 8.149 2.89 12.243 12.243 0 0 0 7.858-2.942z"/><path fill="#CE6CE5" d="M30.72 52.283c-.646-.9-2.133-.9-3.325-.947a3.59 3.59 0 0 1-1.436-.153c-.051 0-.051-.046-.102-.046a3.56 3.56 0 0 1-2.582 1.391 3.398 3.398 0 0 1-2.547-1.391.046.046 0 0 0-.046.046 3.62 3.62 0 0 1-1.44.153c-1.193 0-2.73.046-3.327.947a3.544 3.544 0 0 0-.636 1.734 12.95 12.95 0 0 0 8.149 2.798 12.7 12.7 0 0 0 8.077-3.07 8.406 8.406 0 0 0-.784-1.462z"/><path fill="#7B5D3F" d="M25.042 49.669a3.114 3.114 0 0 1-1.767.67 3.007 3.007 0 0 1-1.737-.65 3.373 3.373 0 0 1-.244.952 2.784 2.784 0 0 0 1.98.777 3.049 3.049 0 0 0 2.038-.839 3.187 3.187 0 0 1-.27-.91z"/><path fill="#9B7A56" d="M27.94 42.911c0 3.34-2.083 7.428-4.711 7.428s-4.716-4.138-4.716-7.428c0-3.289 2.083-6.03 4.716-6.03s4.71 2.69 4.71 6.03z"/><path fill="#AF58C4" d="M18.416 37.827h9.03v3.489h-9.03z"/><path fill="#CE6CE5" d="M23.275 37.827h4.563v3.489h-4.563z"/><path fill="#323335" d="M30.92 39.571c.21-.52.189-1.107-.058-1.61a1.963 1.963 0 0 0-1.236-1.03 1.755 1.755 0 0 0-.387-1.565 1.738 1.738 0 0 0-1.498-.583 2.03 2.03 0 0 0-2.878-.85 2.191 2.191 0 0 0-3.325.001 2.09 2.09 0 0 0-2.923.85 1.728 1.728 0 0 0-1.505.573 1.745 1.745 0 0 0-.385 1.57 1.942 1.942 0 0 0-1.242 1.025 1.957 1.957 0 0 0-.046 1.614 1.934 1.934 0 0 0 .646 3.07c-.748.997-.595 2.593.795 3.043a2.04 2.04 0 0 0 1.935 1.744c.295.524.8.897 1.386 1.023h.173a8.058 8.058 0 0 1-1.691-4.885c.007-.482.04-.964.102-1.442.224-.05.425-.174.57-.353a.954.954 0 0 0 1.487-.302.95.95 0 0 0 1.528-.097.951.951 0 0 0 1.59 0 .982.982 0 0 0 1.527.097.973.973 0 0 0 1.487.302.988.988 0 0 0 .596.399c.061.478.095.96.102 1.442a8.07 8.07 0 0 1-1.528 4.885h.097a1.921 1.921 0 0 0 1.34-1.023 1.984 1.984 0 0 0 1.96-1.765c1.289-.399 1.686-1.897.795-3.043a1.929 1.929 0 0 0 .586-3.09zm-11.317.947c1.89-3.34 5.26-3.29 7.13 0a6.723 6.723 0 0 0-7.13 0z"/><path fill="#7B5D3F" d="M28.042 43.31a5.377 5.377 0 0 1-.398 2.558c1.238-.762 1.437-2.757.398-2.558z"/><path fill="#8C6E48" d="M18.335 43.31a5.32 5.32 0 0 0 .397 2.558c-1.263-.762-1.462-2.757-.397-2.558z"/><ellipse cx="21.691" cy="44.154" fill="#323335" rx="1" ry="1"/><ellipse cx="24.568" cy="44.154" fill="#323335" rx="1" ry="1"/><rect width="2.338" height="1" x="22.108" y="47.387" fill="#323335" rx=".41"/><rect width="2.338" height="1" x="20.493" y="43.276" fill="#323335" rx=".41" transform="rotate(-19.3 21.661 43.776)"/><rect width="2.338" height="1" x="23.677" y="43.389" fill="#323335" rx=".41" transform="rotate(19.2 24.846 43.889)"/><path fill="#FFF" d="M85.872 60.794V28.38h12.732c10.11 0 17.128 6.466 17.128 16.185 0 9.816-7.018 16.23-17.082 16.23H85.872zm22.837-16.23c0-5.688-3.484-10.108-10.064-10.108h-5.903v20.277H98.6c6.387 0 10.11-4.604 10.11-10.17z"/></g></svg>