<svg xmlns="http://www.w3.org/2000/svg" width="48" height="65"><g fill="none"><path fill="#B8BABC" d="M24.442 58.014L34.8 64.407a1.08 1.08 0 0 0 1.655-.922v-28.84c0-.599-.487-1.085-1.087-1.085h-22.99c-.599 0-1.085.486-1.085 1.086v28.84a1.079 1.079 0 0 0 1.654.92l10.358-6.392a1.087 1.087 0 0 1 1.137 0z"/><path fill="#8D9099" d="M23.874 44.654c-2.527 0-5.135 1.793-7.402 1.073-2.268-.72-3.455-3.786-5.369-5.244-1.914-1.458-5.248-1.552-6.568-3.458-1.428-1.893-.474-5.01-1.194-7.396C2.627 27.363 0 25.457 0 22.946c0-2.512 2.627-4.418 3.341-6.677.714-2.26-.12-5.49 1.194-7.396 1.433-1.893 4.654-2.026 6.568-3.458C13.017 3.982 14.084.883 16.472.17c2.267-.719 4.9 1.092 7.402 1.092 2.5 0 5.134-1.811 7.402-1.092 2.267.72 3.46 3.818 5.356 5.245 1.894 1.426 5.254 1.552 6.568 3.458 1.427 1.893.474 5.01 1.194 7.396.713 2.26 3.34 4.171 3.34 6.677 0 2.505-2.627 4.417-3.34 6.683-.714 2.265.12 5.49-1.194 7.396-1.434 1.893-4.655 2.025-6.568 3.458-1.914 1.433-2.981 4.531-5.369 5.244-2.255.72-4.882-1.073-7.39-1.073z"/><path fill="#FFF" d="M26.798 23.514l5.905-5.9a2.065 2.065 0 0 0-.927-3.457 2.069 2.069 0 0 0-1.997.534l-5.905 5.894-5.906-5.894a2.069 2.069 0 0 0-3.459.926 2.065 2.065 0 0 0 .535 1.996l5.905 5.9-5.905 5.895a2.069 2.069 0 0 0 .892 3.527 2.073 2.073 0 0 0 2.032-.6l5.906-5.9 5.905 5.9a2.073 2.073 0 0 0 3.528-.898 2.069 2.069 0 0 0-.604-2.03l-5.905-5.893z"/></g></svg>