<svg xmlns="http://www.w3.org/2000/svg" width="140" height="116"><g fill="none" fill-rule="evenodd"><ellipse cx="62.798" cy="57.849" fill="#DDD" fill-rule="nonzero" rx="57.448" ry="57.849"/><path fill="#C7C7C7" fill-rule="nonzero" d="M99.52 18.872L4.226 17.479C1.422 18.875.02 20.586.02 22.613l-.006 66.37a6.89 6.89 0 0 0 6.896 6.89l96.358-.1a57.817 57.817 0 0 0 12.753-36.335c.021-15.183-5.908-29.76-16.5-40.566z"/><path fill="#C7C7C7" fill-rule="nonzero" d="M62.798 0a56.94 56.94 0 0 0-22.326 4.532h.86c25.467-.004 48.279 15.864 57.29 39.851 9.01 23.987 2.338 51.085-16.756 68.056 26.425-9.349 42.305-36.522 37.59-64.323C114.74 20.315 90.806-.012 62.798 0z"/><path fill="#FFF" fill-rule="nonzero" d="M120.246 57.85c.022-15.184-5.908-29.762-16.5-40.567H5.32c-2.052 0-3.715 1.674-3.715 3.74v67.191c0 3.297 2.654 5.97 5.928 5.97h99.961a57.817 57.817 0 0 0 12.753-36.335z"/><path fill="#5F6168" fill-rule="nonzero" d="M103.8 17.336H5.229a3.607 3.607 0 0 0-2.565 1.068 3.658 3.658 0 0 0-1.06 2.582v5.2H110.88a57.693 57.693 0 0 0-7.08-8.85z"/><path fill="#DDD" fill-rule="nonzero" d="M68.87 70.809H49.085a1.204 1.204 0 0 1-1.188-1.197V57.529a1.209 1.209 0 0 1 1.188-1.197h19.8a1.204 1.204 0 0 1 1.19 1.197v12.083c.013.324-.11.64-.34.867a1.137 1.137 0 0 1-.865.33z"/><path fill="#DEE2EA" fill-rule="nonzero" d="M94.932 70.809H75.126a1.209 1.209 0 0 1-1.188-1.197V57.529a1.209 1.209 0 0 1 1.188-1.197h19.806a1.21 1.21 0 0 1 1.189 1.197v12.083c.004.318-.12.625-.344.85a1.17 1.17 0 0 1-.845.347z"/><path fill="#DDD" fill-rule="nonzero" d="M81.123 78.515H49.738a1.846 1.846 0 0 1-1.317-.548 1.872 1.872 0 0 1-.54-1.328 1.872 1.872 0 0 1 .54-1.328c.349-.352.823-.55 1.317-.548h31.385a1.85 1.85 0 0 1 1.319.548c.35.352.545.83.544 1.328a1.928 1.928 0 0 1-1.863 1.876z"/><path fill="#DEE2EA" fill-rule="nonzero" d="M99.22 78.515H87.38a1.846 1.846 0 0 1-1.317-.548 1.872 1.872 0 0 1-.54-1.328 1.872 1.872 0 0 1 .54-1.328c.349-.352.823-.55 1.317-.548h11.84a1.85 1.85 0 0 1 1.319.548c.35.352.545.83.544 1.328.001.498-.195.976-.544 1.328a1.85 1.85 0 0 1-1.32.548z"/><path fill="#DDD" fill-rule="nonzero" d="M61.578 86.04h-11.84a1.846 1.846 0 0 1-1.317-.549 1.872 1.872 0 0 1-.54-1.328 1.872 1.872 0 0 1 .54-1.327c.349-.352.823-.55 1.317-.548h11.84a1.85 1.85 0 0 1 1.318.547c.35.353.546.83.545 1.328 0 .498-.195.976-.545 1.328a1.85 1.85 0 0 1-1.318.548zm23.531 0H73.264a1.846 1.846 0 0 1-1.317-.549 1.872 1.872 0 0 1-.54-1.328 1.872 1.872 0 0 1 .54-1.327c.349-.352.823-.55 1.317-.548h11.845c.494-.002.968.196 1.317.548.348.352.543.83.54 1.327a1.923 1.923 0 0 1-1.857 1.876z"/><ellipse cx="67.421" cy="84.137" fill="#DDD" fill-rule="nonzero" rx="1.863" ry="1.876"/><ellipse cx="96.635" cy="84.137" fill="#DEE2EA" fill-rule="nonzero" rx="1.863" ry="1.876"/><ellipse cx="91.259" cy="84.137" fill="#DEE2EA" fill-rule="nonzero" rx="1.863" ry="1.876"/><path fill="#DEE2EA" fill-rule="nonzero" d="M102.845 86.04h10.141a56.02 56.02 0 0 0 1.895-3.742h-12.037a1.87 1.87 0 0 0-1.722 1.87 1.87 1.87 0 0 0 1.723 1.871zm-1.709-15.231h17.661a58.28 58.28 0 0 0 1.449-12.96v-1.517h-19.105a1.21 1.21 0 0 0-1.189 1.197v12.083a1.204 1.204 0 0 0 1.184 1.197z"/><path fill="#DDD" fill-rule="nonzero" d="M119.991 52.372a57.729 57.729 0 0 0-4.866-18.448H50.38a2.47 2.47 0 0 0-1.752.731 2.505 2.505 0 0 0-.726 1.765v13.51a2.5 2.5 0 0 0 .726 1.764 2.47 2.47 0 0 0 1.752.731h69.287a2.51 2.51 0 0 0 .324-.053z"/><ellipse cx="8.747" cy="21.761" fill="#AAA" fill-rule="nonzero" rx="1.709" ry="1.721"/><ellipse cx="14.696" cy="21.761" fill="#AAA" fill-rule="nonzero" rx="1.709" ry="1.721"/><ellipse cx="20.64" cy="21.761" fill="#AAA" fill-rule="nonzero" rx="1.709" ry="1.721"/><path fill="#DDD" fill-rule="nonzero" d="M40.849 94.184H7.415c-3.201-.015-5.793-2.623-5.81-5.847V26.08h39.27l-.026 68.105z"/><path fill="#FFF" fill-rule="nonzero" d="M29.418 67.11H11.114c-.88 0-1.592-.717-1.592-1.603 0-.885.713-1.603 1.592-1.603h18.304c.879 0 1.592.718 1.592 1.603 0 .886-.713 1.604-1.592 1.604zm0 7.707H11.114c-.88 0-1.592-.718-1.592-1.604 0-.885.713-1.603 1.592-1.603h18.304c.879 0 1.592.718 1.592 1.603 0 .886-.713 1.604-1.592 1.604zm-4.654 7.759h-13.65c-.88 0-1.592-.718-1.592-1.603s.713-1.603 1.592-1.603h13.65c.879 0 1.592.718 1.592 1.603s-.713 1.603-1.592 1.603zm4.654 0c-.88 0-1.592-.718-1.592-1.603s.712-1.603 1.592-1.603c.879 0 1.592.718 1.592 1.603s-.713 1.603-1.592 1.603z" opacity=".59"/><path fill="#F1F1F1" d="M21.336 32.388c7.365 0 13.335 6.192 13.335 13.83 0 7.639-5.97 13.83-13.335 13.83-7.365 0-13.335-6.191-13.335-13.83 0-7.638 5.97-13.83 13.335-13.83"/><path fill="#9A7A56" d="M29.715 57.028c-.102-.53-.306-1.166-.664-1.696-.664-.953-2.197-.953-3.423-1.007-.665 0-1.175 0-1.482-.159-.766-.318-.92-1.377-.97-1.907-.41-1.325-.971-1.749-1.584-1.59l-.307.318-.307-.318c-.613-.106-.868 0-1.277 1.59-.051.53-.255 1.59-.97 1.907-.307.16-.818.16-1.482.16-1.226 0-2.81.053-3.424 1.006a3.37 3.37 0 0 0-.663 1.696c2.298 1.908 5.211 3.073 8.378 3.073 3.168 0 5.876-1.165 8.175-3.073"/><path fill="#9A7A56" d="M26.19 45.317c0 3.55-2.146 7.896-4.854 7.896s-4.854-4.398-4.854-7.896c0-3.497 2.146-6.411 4.854-6.411s4.854 2.861 4.854 6.411"/><path fill="#AF58C4" d="M16.38 43.621h9.299v-3.708H16.38z"/><path fill="#CE6CE5" d="M21.387 43.621h4.7v-3.708h-4.7z"/><path fill="#323335" d="M17.606 42.774c1.942-3.55 5.416-3.498 7.358 0-2.198-1.431-5.11-1.484-7.358 0m11.65-1.007a2.11 2.11 0 0 0-1.33-2.809c.256-1.43-.766-2.331-1.94-2.278-.512-1.166-1.89-1.484-2.964-.9-.869-1.166-2.657-1.008-3.423 0-1.124-.637-2.503-.212-3.015.9-1.226-.053-2.196.848-1.94 2.278a2.092 2.092 0 0 0-1.33 2.809c-.97 1.06-.561 2.702.665 3.285-.766 1.06-.613 2.756.818 3.233.101 1.006.97 1.8 1.992 1.854.307.583.817.954 1.43 1.113h.154c-.869-1.219-1.738-2.915-1.738-5.193 0-.53.052-1.06.103-1.537.255-.053.46-.212.613-.424.46.424 1.175.319 1.533-.317.46.529 1.175.477 1.584-.107.409.584 1.175.636 1.635 0 .357.53 1.124.636 1.584.107.306.582 1.021.741 1.532.317.154.212.358.371.614.424.05.477.102 1.007.102 1.537 0 2.278-.715 3.974-1.584 5.193h.102c.613-.159 1.124-.53 1.38-1.113 1.073-.053 1.89-.848 1.992-1.854 1.329-.424 1.738-2.014.818-3.233 1.226-.635 1.583-2.225.612-3.285"/><path fill="#7B5D40" d="M26.292 45.741c.051.848 0 1.696-.408 2.702 1.276-.794 1.48-2.914.408-2.702"/><path fill="#8C6E49" d="M16.278 45.741c-.051.848 0 1.696.409 2.702-1.278-.794-1.482-2.914-.409-2.702"/><path fill="#CE6CE5" d="M29.051 55.332c-.664-.954-2.197-.954-3.423-1.007-.664 0-1.175 0-1.482-.159-.051 0-.051-.052-.102-.052-.766.9-1.686 1.483-2.657 1.483-.97 0-1.89-.583-2.606-1.483 0 0-.051 0-.051.052-.307.16-.818.16-1.481.16-1.227 0-2.81.052-3.424 1.006a3.376 3.376 0 0 0-.664 1.696c2.236 1.982 5.211 3.073 8.38 3.073 3.167 0 6.079-1.166 8.378-3.073-.255-.53-.46-1.113-.868-1.696"/><path fill="#7B5D40" d="M23.204 52.504c-.563.424-1.153.806-1.766.806s-1.226-.264-1.788-.688a3.46 3.46 0 0 1-.317.95c.613.583 1.339.904 2.105.904.767 0 1.424-.311 2.088-.894-.192-.318-.271-.813-.322-1.078"/><path fill="#323335" d="M19.854 46.338c.254 0 .46.26.46.582 0 .323-.206.584-.46.584s-.46-.261-.46-.584c0-.322.206-.582.46-.582m2.964 0c.254 0 .46.26.46.582 0 .323-.206.584-.46.584s-.46-.261-.46-.584c0-.322.206-.582.46-.582"/><path fill="#323335" d="M18.713 46.872l-.03-.054a.203.203 0 0 1 .07-.27l1.365-.817a.188.188 0 0 1 .261.073l.03.053a.202.202 0 0 1-.07.271l-1.365.817a.188.188 0 0 1-.261-.073m5.314-.45l.008-.07a.19.19 0 0 0-.164-.213l-1.472-.17a.186.186 0 0 0-.205.17l-.008.072a.19.19 0 0 0 .164.212l1.472.17a.186.186 0 0 0 .205-.17m-2.911 4.59a.224.224 0 0 1 .077-.3l1.436-.859a.208.208 0 0 1 .289.08.223.223 0 0 1-.078.3l-1.435.86a.209.209 0 0 1-.289-.08"/><ellipse cx="97.106" cy="49.957" fill="#C7C7C7" fill-rule="nonzero" rx="39.285" ry="39.559"/><ellipse cx="40.058" cy="40.228" rx="39.919" ry="40.198" fill="#DDD" fill-rule="nonzero" transform="translate(59.698 6.356)"/><circle cx="81" cy="47" r="5" fill="#FFF" fill-rule="nonzero"/><circle cx="100" cy="47" r="5" fill="#FFF" fill-rule="nonzero"/><circle cx="119" cy="47" r="5" fill="#FFF" fill-rule="nonzero"/></g></svg>