<svg xmlns="http://www.w3.org/2000/svg" width="140" height="116"><g fill="none" fill-rule="evenodd"><ellipse cx="62.798" cy="57.849" fill="#DDD" fill-rule="nonzero" rx="57.448" ry="57.849"/><path fill="#C7C7C7" fill-rule="nonzero" d="M99.52 18.872L4.226 17.479C1.422 18.875.02 20.586.02 22.613l-.006 66.37a6.89 6.89 0 0 0 6.896 6.89l96.358-.1a57.817 57.817 0 0 0 12.753-36.335c.021-15.183-5.908-29.76-16.5-40.566z"/><path fill="#C7C7C7" fill-rule="nonzero" d="M62.798 0a56.94 56.94 0 0 0-22.326 4.532h.86c25.467-.004 48.279 15.864 57.29 39.851 9.01 23.987 2.338 51.085-16.756 68.056 26.425-9.349 42.305-36.522 37.59-64.323C114.74 20.315 90.806-.012 62.798 0z"/><path fill="#FFF" fill-rule="nonzero" d="M120.246 57.85c.022-15.184-5.908-29.762-16.5-40.567H5.32c-2.052 0-3.715 1.674-3.715 3.74v67.191c0 3.297 2.654 5.97 5.928 5.97h99.961a57.817 57.817 0 0 0 12.753-36.335z"/><path fill="#5F6168" fill-rule="nonzero" d="M103.8 17.336H5.229a3.607 3.607 0 0 0-2.565 1.068 3.658 3.658 0 0 0-1.06 2.582v5.2H110.88a57.693 57.693 0 0 0-7.08-8.85z"/><path fill="#DDD" fill-rule="nonzero" d="M68.87 70.809H49.085a1.204 1.204 0 0 1-1.188-1.197V57.529a1.209 1.209 0 0 1 1.188-1.197h19.8a1.204 1.204 0 0 1 1.19 1.197v12.083c.013.324-.11.64-.34.867a1.137 1.137 0 0 1-.865.33z"/><path fill="#DEE2EA" fill-rule="nonzero" d="M94.932 70.809H75.126a1.209 1.209 0 0 1-1.188-1.197V57.529a1.209 1.209 0 0 1 1.188-1.197h19.806a1.21 1.21 0 0 1 1.189 1.197v12.083c.004.318-.12.625-.344.85a1.17 1.17 0 0 1-.845.347z"/><path fill="#DDD" fill-rule="nonzero" d="M81.123 78.515H49.738a1.846 1.846 0 0 1-1.317-.548 1.872 1.872 0 0 1-.54-1.328 1.872 1.872 0 0 1 .54-1.328c.349-.352.823-.55 1.317-.548h31.385a1.85 1.85 0 0 1 1.319.548c.35.352.545.83.544 1.328a1.928 1.928 0 0 1-1.863 1.876z"/><path fill="#DEE2EA" fill-rule="nonzero" d="M99.22 78.515H87.38a1.846 1.846 0 0 1-1.317-.548 1.872 1.872 0 0 1-.54-1.328 1.872 1.872 0 0 1 .54-1.328c.349-.352.823-.55 1.317-.548h11.84a1.85 1.85 0 0 1 1.319.548c.35.352.545.83.544 1.328.001.498-.195.976-.544 1.328a1.85 1.85 0 0 1-1.32.548z"/><path fill="#DDD" fill-rule="nonzero" d="M61.578 86.04h-11.84a1.846 1.846 0 0 1-1.317-.549 1.872 1.872 0 0 1-.54-1.328 1.872 1.872 0 0 1 .54-1.327c.349-.352.823-.55 1.317-.548h11.84a1.85 1.85 0 0 1 1.318.547c.35.353.546.83.545 1.328 0 .498-.195.976-.545 1.328a1.85 1.85 0 0 1-1.318.548zm23.531 0H73.264a1.846 1.846 0 0 1-1.317-.549 1.872 1.872 0 0 1-.54-1.328 1.872 1.872 0 0 1 .54-1.327c.349-.352.823-.55 1.317-.548h11.845c.494-.002.968.196 1.317.548.348.352.543.83.54 1.327a1.923 1.923 0 0 1-1.857 1.876z"/><ellipse cx="67.421" cy="84.137" fill="#DDD" fill-rule="nonzero" rx="1.863" ry="1.876"/><ellipse cx="96.635" cy="84.137" fill="#DEE2EA" fill-rule="nonzero" rx="1.863" ry="1.876"/><ellipse cx="91.259" cy="84.137" fill="#DEE2EA" fill-rule="nonzero" rx="1.863" ry="1.876"/><path fill="#DEE2EA" fill-rule="nonzero" d="M102.845 86.04h10.141a56.02 56.02 0 0 0 1.895-3.742h-12.037a1.87 1.87 0 0 0-1.722 1.87 1.87 1.87 0 0 0 1.723 1.871zm-1.709-15.231h17.661a58.28 58.28 0 0 0 1.449-12.96v-1.517h-19.105a1.21 1.21 0 0 0-1.189 1.197v12.083a1.204 1.204 0 0 0 1.184 1.197z"/><path fill="#DDD" fill-rule="nonzero" d="M119.991 52.372a57.729 57.729 0 0 0-4.866-18.448H50.38a2.47 2.47 0 0 0-1.752.731 2.505 2.505 0 0 0-.726 1.765v13.51a2.5 2.5 0 0 0 .726 1.764 2.47 2.47 0 0 0 1.752.731h69.287a2.51 2.51 0 0 0 .324-.053z"/><ellipse cx="8.747" cy="21.761" fill="#AAA" fill-rule="nonzero" rx="1.709" ry="1.721"/><ellipse cx="14.696" cy="21.761" fill="#AAA" fill-rule="nonzero" rx="1.709" ry="1.721"/><ellipse cx="20.64" cy="21.761" fill="#AAA" fill-rule="nonzero" rx="1.709" ry="1.721"/><path fill="#3FA140" fill-rule="nonzero" d="M40.849 94.184H7.415c-3.201-.015-5.793-2.623-5.81-5.847V26.08h39.27l-.026 68.105z"/><path fill="#FFF" fill-rule="nonzero" d="M29.418 67.11H11.114c-.88 0-1.592-.717-1.592-1.603 0-.885.713-1.603 1.592-1.603h18.304c.879 0 1.592.718 1.592 1.603 0 .886-.713 1.604-1.592 1.604zm0 7.707H11.114c-.88 0-1.592-.718-1.592-1.604 0-.885.713-1.603 1.592-1.603h18.304c.879 0 1.592.718 1.592 1.603 0 .886-.713 1.604-1.592 1.604zm-4.654 7.759h-13.65c-.88 0-1.592-.718-1.592-1.603s.713-1.603 1.592-1.603h13.65c.879 0 1.592.718 1.592 1.603s-.713 1.603-1.592 1.603zm4.654 0c-.88 0-1.592-.718-1.592-1.603s.712-1.603 1.592-1.603c.879 0 1.592.718 1.592 1.603s-.713 1.603-1.592 1.603z" opacity=".59"/><ellipse cx="21.282" cy="45.74" fill="#FFF" fill-rule="nonzero" opacity=".59" rx="13.496" ry="13.59"/><path fill="#9B7A56" fill-rule="nonzero" d="M29.752 56.257a4.125 4.125 0 0 0-.663-1.56c-.674-.936-2.224-.936-3.466-.99a3.854 3.854 0 0 1-1.496-.154c-.78-.316-.934-1.352-.987-1.876-.414-1.299-.982-1.715-1.592-1.56l-.308.31-.313-.31c-.621-.107-.876 0-1.29 1.56-.053.534-.26 1.56-.982 1.876a3.914 3.914 0 0 1-1.502.155c-1.241 0-2.844.053-3.465.988a3.218 3.218 0 0 0-.69 1.668 13.48 13.48 0 0 0 8.491 3.02 13.018 13.018 0 0 0 8.263-3.127z"/><path fill="#9B7A56" fill-rule="nonzero" d="M26.191 44.858c0 3.49-2.17 7.76-4.909 7.76-2.738 0-4.914-4.324-4.914-7.76s2.17-6.3 4.914-6.3c2.744 0 4.91 2.81 4.91 6.3z"/><path fill="#AF58C4" fill-rule="nonzero" d="M16.267 39.546h9.409v3.645h-9.409z"/><path fill="#CE6CE5" fill-rule="nonzero" d="M21.33 39.546h4.755v3.645H21.33z"/><path fill="#323335" fill-rule="nonzero" d="M29.296 41.368a2.07 2.07 0 0 0-.06-1.683 2.047 2.047 0 0 0-1.288-1.074 1.837 1.837 0 0 0-.406-1.632 1.808 1.808 0 0 0-1.558-.607 2.127 2.127 0 0 0-1.306-1.107 2.11 2.11 0 0 0-1.692.22 2.28 2.28 0 0 0-1.733-.8 2.28 2.28 0 0 0-1.733.8 2.173 2.173 0 0 0-1.712-.216 2.19 2.19 0 0 0-1.334 1.103 1.798 1.798 0 0 0-1.568.599 1.826 1.826 0 0 0-.4 1.64 2.02 2.02 0 0 0-1.298 1.07 2.044 2.044 0 0 0-.045 1.687 2.025 2.025 0 0 0 .674 3.207c-.78 1.069-.621 2.71.827 3.174a2.128 2.128 0 0 0 2.017 1.822c.307.548.833.938 1.444 1.07h.18a8.433 8.433 0 0 1-1.762-5.104 13.42 13.42 0 0 1 .106-1.507 1.06 1.06 0 0 0 .595-.37.993.993 0 0 0 1.55-.314.99.99 0 0 0 1.591-.102.99.99 0 0 0 1.656 0 1.023 1.023 0 0 0 1.592.102 1.014 1.014 0 0 0 1.57.315c.149.212.37.36.622.417.064.5.099 1.003.106 1.507a8.447 8.447 0 0 1-1.592 5.103h.1a1.992 1.992 0 0 0 1.397-1.069 2.06 2.06 0 0 0 2.022-1.849c1.342-.416 1.756-1.977.827-3.174a2.019 2.019 0 0 0 .61-3.228zm-11.792.989c1.969-3.49 5.482-3.436 7.43 0a6.99 6.99 0 0 0-7.43 0z"/><path fill="#7B5D3F" fill-rule="nonzero" d="M26.297 45.275a5.63 5.63 0 0 1-.414 2.672c1.29-.802 1.497-2.88.414-2.672z"/><path fill="#8C6E48" fill-rule="nonzero" d="M16.182 45.275a5.58 5.58 0 0 0 .414 2.672c-1.316-.802-1.523-2.88-.414-2.672z"/><path fill="#CE6CE5" fill-rule="nonzero" d="M29.089 54.648c-.674-.94-2.224-.94-3.466-.994a3.854 3.854 0 0 1-1.496-.155c-.053 0-.053-.053-.106-.053a3.708 3.708 0 0 1-2.691 1.459 3.528 3.528 0 0 1-2.653-1.46.048.048 0 0 0-.048.053c-.486.15-.996.203-1.502.156-1.242 0-2.845.054-3.466.994a3.756 3.756 0 0 0-.69 1.817 13.467 13.467 0 0 0 8.492 2.918 13.283 13.283 0 0 0 8.416-3.206 8.61 8.61 0 0 0-.79-1.529z"/><path fill="#7B5D3F" fill-rule="nonzero" d="M23.166 51.923a3.219 3.219 0 0 1-1.836.695 3.011 3.011 0 0 1-1.804-.61 3.223 3.223 0 0 1-.276.962c.563.53 1.31.814 2.08.791a3.173 3.173 0 0 0 2.123-.882 3.422 3.422 0 0 1-.287-.956z"/><ellipse cx="97.106" cy="49.957" fill="#8F2725" fill-rule="nonzero" rx="39.285" ry="39.559"/><ellipse cx="40.058" cy="40.228" fill="#CE2828" fill-rule="nonzero" rx="39.919" ry="40.198" transform="translate(59.698 6.356)"/><path fill="#FEFEFE" d="M22.752 50.106v-.309c0-.671-.566-1.187-1.235-1.187h-.515c-.669 0-1.235.516-1.235 1.187v.31h2.985z"/><path fill="#323335" d="M19.66 45.359c.255 0 .463.254.463.567 0 .314-.208.569-.464.569-.255 0-.463-.255-.463-.569 0-.313.208-.567.463-.567m2.986 0c.256 0 .463.254.463.567 0 .314-.207.569-.463.569s-.463-.255-.463-.569c0-.313.207-.567.463-.567m-4.358.161a.21.21 0 0 1 0-.297l.903-.904a.208.208 0 0 1 .295 0 .21.21 0 0 1 0 .296l-.902.904a.21.21 0 0 1-.296 0m4.199-1.224a.208.208 0 0 1 .295-.011l.937.867a.21.21 0 0 1 .012.295.208.208 0 0 1-.295.012l-.937-.867a.21.21 0 0 1-.012-.296"/><path fill="#FFF" d="M96.87 61.634h-6.002V33.37h19.949v5.297H96.869v5.932h13.652v5.297H96.869z"/></g></svg>