<svg xmlns="http://www.w3.org/2000/svg" width="60" height="54"><g fill="none" fill-rule="evenodd"><path fill="#3FA140" d="M55.59 53.82H4.06C1.827 53.82 0 52.046 0 49.877v-45.4C0 2.31 1.827.536 4.06.536h51.53c2.232 0 4.058 1.774 4.058 3.943v45.399c0 2.169-1.826 3.943-4.058 3.943"/><path fill="#60AB57" d="M0 30.086V49.08c0 2.606 1.52 4.74 3.377 4.74h52.896c1.857 0 3.376-2.134 3.376-4.74V24.519l-8.465-4.076-5.627 13.56-8.982-11.984-16.715 8.5-11.522-3.373L0 30.086z"/><path fill="#FFF" d="M59.65 21.633l-7.14-3.397c-.698-.332-1.55-.048-1.891.63-.18.358-.18.754-.042 1.1a1.36 1.36 0 0 0-.43.508L44.401 32.49l-7.71-11.15a1.444 1.444 0 0 0-1.962-.375c-.045.03-.082.065-.123.098l-13.61 7.132c-.056.03-.105.066-.155.101a1.406 1.406 0 0 0-.332-.129L8.722 25.411a1.414 1.414 0 0 0-1.094.195 1.623 1.623 0 0 0-1.71-.46L0 27.272v3.257l6.93-2.457c.204-.066.384-.17.537-.3.165.144.363.255.593.309l11.787 2.756a1.41 1.41 0 0 0 1.144-.231c.406.214.911.234 1.347.007l12.742-6.676 8.024 11.603c.26.375.68.581 1.112.6.705.317 1.548.017 1.876-.667l6.619-13.841c.032-.067.053-.137.074-.206l6.865 3.266v-3.059z"/><path fill="#3FA140" d="M52.131 22.89c-1.875 0-3.4-1.483-3.4-3.305 0-1.821 1.525-3.303 3.4-3.303s3.4 1.482 3.4 3.303c0 1.822-1.525 3.304-3.4 3.304"/><path fill="#FFF" d="M52.131 15.053c-2.572 0-4.665 2.033-4.665 4.533 0 2.499 2.093 4.532 4.665 4.532s4.665-2.033 4.665-4.532c0-2.5-2.093-4.533-4.665-4.533m0 2.458c1.174 0 2.135.934 2.135 2.075 0 1.14-.96 2.074-2.135 2.074-1.175 0-2.135-.933-2.135-2.074 0-1.141.96-2.075 2.135-2.075"/><path fill="#3FA140" d="M7.369 29.573c-1.875 0-3.4-1.482-3.4-3.303 0-1.822 1.525-3.304 3.4-3.304 1.874 0 3.4 1.482 3.4 3.304 0 1.821-1.526 3.303-3.4 3.303"/><path fill="#FFF" d="M7.368 21.737c-2.572 0-4.664 2.033-4.664 4.533 0 2.498 2.092 4.532 4.664 4.532 2.573 0 4.665-2.034 4.665-4.532 0-2.5-2.092-4.533-4.665-4.533m0 2.457c1.175 0 2.136.934 2.136 2.076 0 1.14-.961 2.074-2.136 2.074-1.174 0-2.135-.934-2.135-2.074 0-1.142.961-2.076 2.135-2.076"/><path fill="#3FA140" d="M21.077 33.016c-1.875 0-3.4-1.482-3.4-3.303 0-1.822 1.525-3.304 3.4-3.304 1.874 0 3.4 1.482 3.4 3.304 0 1.821-1.526 3.303-3.4 3.303"/><path fill="#FFF" d="M21.077 25.18c-2.573 0-4.666 2.033-4.666 4.533 0 2.5 2.093 4.532 4.666 4.532 2.572 0 4.665-2.033 4.665-4.532 0-2.5-2.093-4.533-4.665-4.533m0 2.458c1.174 0 2.135.934 2.135 2.075 0 1.14-.96 2.074-2.135 2.074-1.175 0-2.136-.933-2.136-2.074 0-1.141.96-2.075 2.136-2.075"/><path fill="#3FA140" d="M35.388 25.822c-1.874 0-3.4-1.482-3.4-3.304 0-1.821 1.526-3.303 3.4-3.303 1.875 0 3.4 1.482 3.4 3.303 0 1.822-1.525 3.304-3.4 3.304"/><path fill="#FFF" d="M35.388 17.986c-2.572 0-4.665 2.033-4.665 4.532 0 2.5 2.093 4.533 4.665 4.533 2.573 0 4.666-2.034 4.666-4.532 0-2.5-2.093-4.533-4.666-4.533m0 2.457c1.175 0 2.136.934 2.136 2.075s-.96 2.075-2.136 2.075c-1.174 0-2.135-.934-2.135-2.074v-.001c0-1.14.96-2.075 2.135-2.075"/><path fill="#3FA140" d="M44.578 38.513c-1.875 0-3.4-1.482-3.4-3.304 0-1.822 1.525-3.304 3.4-3.304s3.4 1.482 3.4 3.304c0 1.822-1.525 3.304-3.4 3.304"/><path fill="#FFF" d="M44.578 30.677c-2.573 0-4.665 2.032-4.665 4.532 0 2.499 2.092 4.532 4.665 4.532 2.572 0 4.665-2.033 4.665-4.532 0-2.5-2.093-4.532-4.665-4.532m0 2.457c1.174 0 2.135.934 2.135 2.075s-.96 2.075-2.135 2.075c-1.174 0-2.135-.934-2.135-2.075s.96-2.075 2.135-2.075"/></g></svg>