<svg xmlns="http://www.w3.org/2000/svg" xmlns:xlink="http://www.w3.org/1999/xlink" viewBox="0 0 268.7 216.49"><defs><style>.cls-1{fill:#d4d8d4;}.cls-2{fill:#c9ccc6;opacity:0.75;}.cls-3{fill:url(#linear-gradient);}.cls-4,.cls-9{fill:#fff;}.cls-5{fill:#5f6168;}.cls-6{fill:#dee2ea;}.cls-7{fill:#a7a8ab;}.cls-8{fill:#3fa140;}.cls-9{opacity:0.59;isolation:isolate;}.cls-10{fill:#b7783d;}.cls-11{fill:#ec9f40;}.cls-12{fill:#9b7a56;}.cls-13{fill:#ce6ce5;}.cls-14{fill:#7b5d3f;}.cls-15{fill:#af58c4;}.cls-16{fill:#323335;}.cls-17{fill:#8c6e48;}</style><linearGradient id="linear-gradient" x1="50.03" y1="11.33" x2="162.66" y2="206.42" gradientUnits="userSpaceOnUse"><stop offset="0" stop-color="#c7c7c7"/><stop offset="1" stop-color="#8f8f8f"/></linearGradient></defs><title>Extension ON- Grade D</title><g id="Layer_2" data-name="Layer 2"><g id="Layer_1-2" data-name="Layer 1"><circle class="cls-1" cx="123.84" cy="108.25" r="108.25"/><path class="cls-2" d="M123.84,0A107.94,107.94,0,0,0,81.77,8.48l1.62,0a115.4,115.4,0,0,1,76.38,201.92A108.26,108.26,0,0,0,123.84,0Z"/><path class="cls-3" d="M232.09,108.25a107.82,107.82,0,0,0-23.76-67.67.07.07,0,0,0-.06,0H18.15c-.06,0-.1-.07-.06-.11a4.8,4.8,0,0,0-.43-6.25h0a4.91,4.91,0,0,0-6.9,0L1.57,43.39A4.74,4.74,0,0,0,.19,46.67,7.79,7.79,0,0,0,0,48.35V167.59a16.86,16.86,0,0,0,16.86,16.87H200.68a.05.05,0,0,0,0,0A107.9,107.9,0,0,0,232.09,108.25Z"/><path class="cls-4" d="M232.09,108.25A107.84,107.84,0,0,0,201,32.34H15.53a7,7,0,0,0-7,7V165.07A11.17,11.17,0,0,0,19.7,176.24H208.06A107.72,107.72,0,0,0,232.09,108.25Z"/><path class="cls-5" d="M201.1,32.44H15.36a6.82,6.82,0,0,0-6.83,6.83V49H214.44A108.09,108.09,0,0,0,201.1,32.44Z"/><path class="cls-6" d="M135.28,132.5H98a2.26,2.26,0,0,1-2.24-2.24V107.65A2.27,2.27,0,0,1,98,105.41h37.31a2.26,2.26,0,0,1,2.24,2.24v22.61A2.15,2.15,0,0,1,135.28,132.5Z"/><path class="cls-6" d="M184.39,132.5H147.07a2.27,2.27,0,0,1-2.24-2.24V107.65a2.27,2.27,0,0,1,2.24-2.24h37.32a2.27,2.27,0,0,1,2.24,2.24v22.61A2.21,2.21,0,0,1,184.39,132.5Z"/><path class="cls-6" d="M158.37,146.92H99.23a3.49,3.49,0,0,1-3.5-3.51h0a3.49,3.49,0,0,1,3.5-3.51h59.14a3.5,3.5,0,0,1,3.51,3.51h0A3.62,3.62,0,0,1,158.37,146.92Z"/><path class="cls-6" d="M192.47,146.92H170.16a3.49,3.49,0,0,1-3.5-3.51h0a3.49,3.49,0,0,1,3.5-3.51h22.31a3.5,3.5,0,0,1,3.51,3.51h0A3.5,3.5,0,0,1,192.47,146.92Z"/><path class="cls-6" d="M121.54,161H99.23a3.49,3.49,0,0,1-3.5-3.51h0a3.49,3.49,0,0,1,3.5-3.51h22.31a3.5,3.5,0,0,1,3.51,3.51h0A3.5,3.5,0,0,1,121.54,161Z"/><path class="cls-6" d="M165.88,161H143.56a3.49,3.49,0,0,1-3.5-3.51h0a3.49,3.49,0,0,1,3.5-3.51h22.32a3.49,3.49,0,0,1,3.5,3.51h0A3.61,3.61,0,0,1,165.88,161Z"/><circle class="cls-6" cx="132.55" cy="157.44" r="3.51"/><circle class="cls-6" cx="187.6" cy="157.44" r="3.51"/><circle class="cls-6" cx="177.47" cy="157.44" r="3.51"/><path class="cls-6" d="M199.3,161h19.11q1.91-3.42,3.57-7c-.12,0-.25,0-.37,0H199.3a3.51,3.51,0,0,0,0,7Z"/><path class="cls-6" d="M196.08,132.5h33.28a108.33,108.33,0,0,0,2.73-24.25c0-1,0-1.9,0-2.84h-36a2.27,2.27,0,0,0-2.24,2.24v22.61A2.26,2.26,0,0,0,196.08,132.5Z"/><path class="cls-6" d="M231.61,98a107.43,107.43,0,0,0-9.17-34.52h-122a4.67,4.67,0,0,0-4.67,4.67V93.43a4.67,4.67,0,0,0,4.67,4.67H231A4.76,4.76,0,0,0,231.61,98Z"/><circle class="cls-7" cx="21.99" cy="40.72" r="3.22"/><circle class="cls-7" cx="33.2" cy="40.72" r="3.22"/><circle class="cls-7" cx="44.4" cy="40.72" r="3.22"/><path class="cls-8" d="M82.48,176.24h-63A11,11,0,0,1,8.53,165.3V48.8h74Z"/><path class="cls-9" d="M60.94,125.58H26.45a3,3,0,0,1-3-3h0a3,3,0,0,1,3-3H60.94a3,3,0,0,1,3,3h0A3,3,0,0,1,60.94,125.58Z"/><path class="cls-9" d="M60.94,140H26.45a3,3,0,0,1-3-3h0a3,3,0,0,1,3-3H60.94a3,3,0,0,1,3,3h0A3,3,0,0,1,60.94,140Z"/><path class="cls-9" d="M52.17,154.52H26.45a3,3,0,0,1-3-3h0a3,3,0,0,1,3-3H52.17a3,3,0,0,1,3,3h0A3,3,0,0,1,52.17,154.52Z"/><path class="cls-9" d="M60.94,154.52h0a3,3,0,0,1-3-3h0a3,3,0,0,1,3-3h0a3,3,0,0,1,3,3h0A3,3,0,0,1,60.94,154.52Z"/><circle class="cls-10" cx="185.06" cy="96.01" r="72.59"/><circle class="cls-11" cx="193.48" cy="87.17" r="75.22"/><circle class="cls-9" cx="45.61" cy="85.55" r="25.43"/><path class="cls-12" d="M61.43,105.32a7.79,7.79,0,0,0-1.11-3c-1.27-1.75-4.19-1.75-6.53-1.85a7.31,7.31,0,0,1-2.82-.29h0c-1.47-.58-1.76-2.53-1.86-3.51-.78-2.43-1.85-3.21-3-2.92l-.58.58-.59-.58c-1.17-.2-1.65,0-2.43,2.92-.1,1-.49,2.93-1.85,3.51a7.39,7.39,0,0,1-2.83.29c-2.34,0-5.36.1-6.53,1.85A6,6,0,0,0,30,105.42a25.51,25.51,0,0,0,16,5.65A24.1,24.1,0,0,0,61.43,105.32Z"/><path class="cls-13" d="M60.32,102.21c-1.27-1.76-4.19-1.76-6.53-1.85a7.08,7.08,0,0,1-2.82-.3h0c-.1,0-.1-.09-.2-.09a7,7,0,0,1-5.07,2.72,6.68,6.68,0,0,1-5-2.72.09.09,0,0,0-.09.09,7.16,7.16,0,0,1-2.83.3c-2.34,0-5.36.09-6.53,1.85A6.91,6.91,0,0,0,30,105.6a25.5,25.5,0,0,0,16,5.47,25,25,0,0,0,15.86-6A16.41,16.41,0,0,0,60.32,102.21Z"/><path class="cls-14" d="M49.17,97.1a6.13,6.13,0,0,1-3.47,1.31,5.92,5.92,0,0,1-3.41-1.27A6.57,6.57,0,0,1,41.81,99a5.48,5.48,0,0,0,3.89,1.52,6,6,0,0,0,4-1.64A6.21,6.21,0,0,1,49.17,97.1Z"/><path class="cls-12" d="M54.86,83.89c0,6.53-4.09,14.52-9.25,14.52s-9.26-8.09-9.26-14.52S40.44,72.1,45.61,72.1,54.86,77.36,54.86,83.89Z"/><rect class="cls-15" x="36.16" y="73.95" width="17.73" height="6.82"/><rect class="cls-13" x="45.7" y="73.95" width="8.96" height="6.82"/><path class="cls-16" d="M60.71,77.36h0a3.85,3.85,0,0,0-2.54-5.16A3.42,3.42,0,0,0,54.47,68a4,4,0,0,0-5.65-1.66,4.31,4.31,0,0,0-6.53,0A4.12,4.12,0,0,0,36.55,68a3.4,3.4,0,0,0-3.71,4.19,3.81,3.81,0,0,0-2.53,5.16,3.77,3.77,0,0,0,1.27,6c-1.47,1.95-1.17,5.07,1.56,5.95a4,4,0,0,0,3.8,3.41,4.12,4.12,0,0,0,2.72,2H40a15.71,15.71,0,0,1-3.32-9.55,24.94,24.94,0,0,1,.2-2.82A2,2,0,0,0,38,81.65a1.88,1.88,0,0,0,2.92-.59,1.87,1.87,0,0,0,3-.19,1.87,1.87,0,0,0,3.12,0,1.93,1.93,0,0,0,3,.19,1.91,1.91,0,0,0,2.92.59,1.94,1.94,0,0,0,1.17.78,24.94,24.94,0,0,1,.2,2.82,15.73,15.73,0,0,1-3,9.55h.19a3.77,3.77,0,0,0,2.63-2A3.89,3.89,0,0,0,58,89.35c2.53-.78,3.31-3.71,1.56-5.95A3.76,3.76,0,0,0,60.71,77.36ZM38.49,79.21c3.71-6.53,10.33-6.43,14,0A13.25,13.25,0,0,0,38.49,79.21Z"/><path class="cls-14" d="M55.06,84.67a10.47,10.47,0,0,1-.78,5C56.71,88.18,57.1,84.28,55.06,84.67Z"/><path class="cls-17" d="M36,84.67a10.35,10.35,0,0,0,.78,5C34.3,88.18,33.91,84.28,36,84.67Z"/><ellipse class="cls-16" cx="42.59" cy="86.32" rx="0.88" ry="1.07"/><ellipse class="cls-16" cx="48.24" cy="86.32" rx="0.88" ry="1.07"/><rect class="cls-16" x="43.41" y="92.64" width="4.59" height="0.81" rx="0.41" ry="0.41"/><rect class="cls-16" x="40.05" y="84.64" width="4.59" height="0.81" rx="0.41" ry="0.41" transform="translate(-25.73 18.77) rotate(-19.3)"/><rect class="cls-16" x="46.68" y="84.85" width="4.59" height="0.81" rx="0.41" ry="0.41" transform="translate(30.76 -11.36) rotate(19.2)"/><path class="cls-4" d="M168.61,118.85V55.48h25c19.85,0,33.63,12.64,33.63,31.64,0,19.19-13.78,31.73-33.54,31.73Zm44.84-31.73c0-11.12-6.84-19.76-19.76-19.76H182.1V107h11.5C206.14,107,213.45,98,213.45,87.12Z"/></g></g></svg>