<svg xmlns="http://www.w3.org/2000/svg" width="48" height="65"><g fill="none"><path fill="#84C77A" d="M24.422 58.014l10.35 6.393a1.08 1.08 0 0 0 1.653-.922v-28.84c0-.599-.486-1.085-1.085-1.085H12.369c-.6 0-1.086.486-1.086 1.086v28.84a1.08 1.08 0 0 0 1.654.92l10.35-6.392a1.085 1.085 0 0 1 1.135 0z"/><path fill="#3FA140" d="M23.854 44.654c-2.524 0-5.13 1.793-7.396 1.073-2.265-.72-3.452-3.786-5.364-5.244-1.912-1.458-5.244-1.552-6.563-3.458-1.426-1.893-.473-5.01-1.193-7.396C2.625 27.363 0 25.457 0 22.946c0-2.512 2.625-4.418 3.338-6.677.713-2.26-.12-5.49 1.193-7.396 1.433-1.893 4.651-2.026 6.563-3.458C13.006 3.982 14.073.883 16.458.17c2.266-.719 4.897 1.092 7.396 1.092 2.5 0 5.131-1.811 7.396-1.092 2.266.72 3.459 3.818 5.352 5.245 1.893 1.426 5.25 1.552 6.563 3.458 1.426 1.893.473 5.01 1.193 7.396.713 2.26 3.338 4.171 3.338 6.677 0 2.505-2.625 4.417-3.338 6.683-.713 2.265.12 5.49-1.193 7.396-1.432 1.893-4.65 2.025-6.563 3.458-1.912 1.433-2.979 4.531-5.364 5.244-2.253.72-4.878-1.073-7.384-1.073z"/><path fill="#FFF" d="M36.242 14.426a1.975 1.975 0 0 0-2.783 0L20.585 27.3l-6.31-6.31a1.969 1.969 0 0 0-3.358 1.388c.002.52.208 1.019.575 1.388l7.705 7.705c.77.765 2.013.765 2.783 0L36.242 17.21a1.975 1.975 0 0 0 0-2.783zm-.46.227zM11.8 21.293zm9.845 9.844a1.496 1.496 0 0 1-1.414.391 1.52 1.52 0 0 0 1.414-.391l4.752-4.752-4.752 4.752zM36.26 15.36c.085.248.105.513.057.77.052-.265.033-.54-.057-.795v.025z"/></g></svg>