<svg width="99" height="80" viewBox="0 0 99 80" version="1.1" xmlns="http://www.w3.org/2000/svg" xmlns:xlink="http://www.w3.org/1999/xlink">
<title>Loading State</title>
<desc>Created using Figma</desc>
<g id="Canvas" transform="translate(-2006 -387)">
<g id="Loading State">
<g id="Layer 2">
<g id="Layer 1">
<g id="Vector">
<use xlink:href="#path0_fill" transform="translate(2011.74 387)" fill="#D4D8D4"/>
</g>
<g id="Vector" opacity="0.75">
<use xlink:href="#path1_fill" transform="translate(2036.12 387)" fill="#C9CCC6"/>
</g>
<g id="Vector">
<use xlink:href="#path2_fill" transform="translate(2006 399.121)" fill="url(#paint2_linear)"/>
</g>
<g id="Vector">
<use xlink:href="#path3_fill" transform="translate(2009.14 398.95)" fill="#FFFFFF"/>
</g>
<g id="Vector">
<use xlink:href="#path4_fill" transform="translate(2009.14 398.987)" fill="#5F6168"/>
</g>
<g id="Vector">
<use xlink:href="#path5_fill" transform="translate(2041.28 425.951)" fill="#DEE2EA"/>
</g>
<g id="Vector">
<use xlink:href="#path6_fill" transform="translate(2059.35 425.951)" fill="#DEE2EA"/>
</g>
<g id="Vector">
<use xlink:href="#path7_fill" transform="translate(2041.26 438.695)" fill="#DEE2EA"/>
</g>
<g id="Vector">
<use xlink:href="#path8_fill" transform="translate(2067.39 438.695)" fill="#DEE2EA"/>
</g>
<g id="Vector">
<use xlink:href="#path9_fill" transform="translate(2041.26 443.898)" fill="#DEE2EA"/>
</g>
<g id="Vector">
<use xlink:href="#path10_fill" transform="translate(2057.59 443.898)" fill="#DEE2EA"/>
</g>
<g id="Vector">
<use xlink:href="#path11_fill" transform="translate(2053.53 443.879)" fill="#DEE2EA"/>
</g>
<g id="Vector">
<use xlink:href="#path12_fill" transform="translate(2073.81 443.879)" fill="#DEE2EA"/>
</g>
<g id="Vector">
<use xlink:href="#path13_fill" transform="translate(2070.08 443.879)" fill="#DEE2EA"/>
</g>
<g id="Vector">
<use xlink:href="#path14_fill" transform="translate(2078.22 443.905)" fill="#DEE2EA"/>
</g>
<g id="Vector">
<use xlink:href="#path15_fill" transform="translate(2077.41 425.951)" fill="#DEE2EA"/>
</g>
<g id="Vector">
<use xlink:href="#path16_fill" transform="translate(2041.28 410.457)" fill="#DEE2EA"/>
</g>
<g id="Vector">
<use xlink:href="#path17_fill" transform="translate(2012.91 400.857)" fill="#A7A8AB"/>
</g>
<g id="Vector">
<use xlink:href="#path18_fill" transform="translate(2017.04 400.857)" fill="#A7A8AB"/>
</g>
<g id="Vector">
<use xlink:href="#path19_fill" transform="translate(2021.17 400.857)" fill="#A7A8AB"/>
</g>
<g id="Vector">
<use xlink:href="#path20_fill" transform="translate(2009.14 405.032)" fill="#8D9099"/>
</g>
<g id="Vector" opacity="0.59">
<use xlink:href="#path21_fill" transform="translate(2014.64 431.187)" fill="#FFFFFF"/>
</g>
<g id="Vector" opacity="0.59">
<use xlink:href="#path22_fill" transform="translate(2014.64 436.515)" fill="#FFFFFF"/>
</g>
<g id="Vector" opacity="0.59">
<use xlink:href="#path23_fill" transform="translate(2014.64 441.88)" fill="#FFFFFF"/>
</g>
<g id="Vector" opacity="0.59">
<use xlink:href="#path24_fill" transform="translate(2027.34 441.88)" fill="#FFFFFF"/>
</g>
<g id="Vector" opacity="0.59">
<use xlink:href="#path25_fill" transform="translate(2013.46 409.245)" fill="#FFFFFF"/>
</g>
<g id="Vector">
<use xlink:href="#path26_fill" transform="translate(2017.08 421.647)" fill="#9B7A56"/>
</g>
<g id="Vector">
<use xlink:href="#path27_fill" transform="translate(2019.42 413.683)" fill="#9B7A56"/>
</g>
<g id="Vector">
<use xlink:href="#path28_fill" transform="translate(2019.35 414.359)" fill="#AF58C4"/>
</g>
<g id="Vector">
<use xlink:href="#path29_fill" transform="translate(2022.86 414.359)" fill="#CE6CE5"/>
</g>
<g id="Vector">
<use xlink:href="#path30_fill" transform="translate(2016.83 410.998)" fill="#323335"/>
</g>
<g id="Vector">
<use xlink:href="#path31_fill" transform="translate(2026.02 418.31)" fill="#7B5D3F"/>
</g>
<g id="Vector">
<use xlink:href="#path32_fill" transform="translate(2018.79 418.31)" fill="#8C6E48"/>
</g>
<g id="Vector">
<use xlink:href="#path33_fill" transform="translate(2017.07 424.007)" fill="#CE6CE5"/>
</g>
<g id="Vector">
<use xlink:href="#path34_fill" transform="translate(2021.42 422.913)" fill="#7B5D3F"/>
</g>
<g id="Vector">
<use xlink:href="#path35_fill" transform="translate(2021.46 418.727)" fill="#323335"/>
</g>
<g id="Vector">
<use xlink:href="#path36_fill" transform="translate(2023.55 418.727)" fill="#323335"/>
</g>
<g id="Vector">
<use xlink:href="#path37_fill" transform="matrix(0.498836 0.870668 -0.869329 0.501165 2021.97 418.307)" fill="#323335"/>
</g>
<g id="Vector">
<use xlink:href="#path38_fill" transform="matrix(-0.109918 0.993941 -0.993866 -0.110593 2024.74 418.602)" fill="#323335"/>
</g>
<g id="Vector">
<use xlink:href="#path39_fill" transform="matrix(0.498839 0.866695 -0.865353 0.501162 2023.86 421.04)" fill="#323335"/>
</g>
<g id="Vector">
<use xlink:href="#path40_fill" transform="translate(2047.45 396.293)" fill="#999999"/>
</g>
<g id="Vector">
<use xlink:href="#path41_fill" transform="translate(2049.58 392.051)" fill="#BBBBBB"/>
</g>
<g id="Ellipse">
<use xlink:href="#path42_fill" transform="translate(2062 416)" fill="#FFFFFF"/>
</g>
<g id="Ellipse">
<use xlink:href="#path42_fill" transform="translate(2073 416)" fill="#FFFFFF"/>
</g>
<g id="Ellipse">
<use xlink:href="#path42_fill" transform="translate(2084 416)" fill="#FFFFFF"/>
</g>
</g>
</g>
</g>
</g>
<defs>
<linearGradient id="paint2_linear" x1="0" y1="0" x2="1" y2="0" gradientUnits="userSpaceOnUse" gradientTransform="matrix(41.4897 72.0886 -71.8656 41.6185 54.3625 -28.7441)">
<stop offset="0" stop-color="#C7C7C7"/>
<stop offset="1" stop-color="#8F8F8F"/>
</linearGradient>
<path id="path0_fill" d="M 39.8762 80C 61.8993 80 79.7525 62.0914 79.7525 40C 79.7525 17.9086 61.8993 0 39.8762 0C 17.8532 0 0 17.9086 0 40C 0 62.0914 17.8532 80 39.8762 80Z"/>
<path id="path1_fill" d="M 15.4974 2.99765e-05C 10.1746 -0.00651585 4.90464 1.05904 -1.2366e-06 3.13352L 0.596762 3.13352C 9.23055 3.13231 17.66 5.76822 24.7637 10.6905C 31.8674 15.6129 37.3086 22.5883 40.3632 30.6887C 43.4179 38.7891 43.9412 47.6305 41.8637 56.0366C 39.7861 64.4427 35.2061 72.015 28.733 77.7459C 37.6165 74.6153 45.1092 68.4327 49.8847 60.2926C 54.6601 52.1525 56.4103 42.58 54.8253 33.2698C 53.2403 23.9595 48.4224 15.5121 41.2245 9.42307C 34.0267 3.33399 24.9132 -0.00400204 15.4974 2.99765e-05L 15.4974 2.99765e-05Z"/>
<path id="path2_fill" d="M 85.4954 27.8785C 85.5079 18.7859 82.4195 9.96243 76.7429 2.87348C 76.7394 2.87183 76.7357 2.87098 76.7318 2.87098C 76.728 2.87098 76.7242 2.87183 76.7208 2.87348L 6.68595 2.87348C 6.66385 2.87348 6.64911 2.84761 6.66385 2.83283C 6.91755 2.49265 7.0411 2.07243 7.01203 1.6486C 6.98296 1.22477 6.8032 0.82548 6.50545 0.523362L 6.50545 0.523362C 6.16692 0.188034 5.71032 -5.47868e-07 5.23456 -5.47868e-07C 4.7588 -5.47868e-07 4.3022 0.188034 3.96368 0.523362L 0.578345 3.91181C 0.258407 4.23426 0.0760946 4.66892 0.0699917 5.12382C 0.0242783 5.32759 0.000809941 5.53574 1.09254e-06 5.74461L 1.09254e-06 49.8056C -0.000482844 50.624 0.159806 51.4345 0.471708 52.1908C 0.783611 52.9471 1.24101 53.6343 1.81778 54.2132C 2.39455 54.7921 3.07938 55.2514 3.83315 55.5647C 4.58691 55.878 5.39483 56.0393 6.21075 56.0393L 73.9248 56.0393C 81.345 48.5583 85.5058 38.4316 85.4954 27.8785L 85.4954 27.8785Z"/>
<path id="path3_fill" d="M 82.3532 28.0499C 82.3682 17.5516 78.2525 7.47161 70.9005 5.63835e-08L 2.5786 5.63835e-08C 1.89471 5.63835e-08 1.23884 0.272516 0.755255 0.757598C 0.271673 1.24268 -9.83659e-08 1.90059 -9.83659e-08 2.5866L -9.83659e-08 49.0457C -9.83659e-08 50.1404 0.433513 51.1902 1.20517 51.9643C 1.97683 52.7383 3.02342 53.1732 4.11471 53.1732L 73.5012 53.1732C 79.2416 46.0676 82.3675 37.1957 82.3532 28.0499L 82.3532 28.0499Z"/>
<path id="path4_fill" d="M 70.9373 2.20583e-06L 2.51598 2.20583e-06C 2.18544 -0.000484317 1.85806 0.0644641 1.55258 0.191124C 1.24711 0.317784 0.969561 0.503665 0.735834 0.738117C 0.502107 0.972569 0.3168 1.25098 0.190532 1.5574C 0.0642644 1.86382 -0.000482412 2.19222 2.60652e-06 2.52379L 2.60652e-06 6.11917L 75.8514 6.11917C 74.4179 3.92239 72.7719 1.87275 70.9373 2.20583e-06L 70.9373 2.20583e-06Z"/>
<path id="path5_fill" d="M 14.558 10.0102L 0.825153 10.0102C 0.606904 10.0082 0.398139 9.9204 0.243808 9.76559C 0.0894763 9.61078 0.0019238 9.40137 7.86927e-07 9.18244L 7.86927e-07 0.827714C 0.0028627 0.609083 0.0907173 0.400213 0.244847 0.245605C 0.398978 0.0909966 0.607198 0.00287214 0.825153 1.3532e-06L 14.5691 1.3532e-06C 14.7873 0.00193033 14.9961 0.0897546 15.1504 0.244565C 15.3048 0.399375 15.3923 0.608788 15.3943 0.827714L 15.3943 9.18244C 15.3991 9.29337 15.3806 9.40409 15.3402 9.50744C 15.2997 9.61079 15.2381 9.70448 15.1593 9.78247C 15.0805 9.86046 14.9863 9.92102 14.8827 9.96023C 14.7792 9.99945 14.6686 10.0165 14.558 10.0102Z"/>
<path id="path6_fill" d="M 14.5728 10.0102L 0.825155 10.0102C 0.607201 10.0073 0.398977 9.91916 0.244847 9.76455C 0.0907172 9.60994 0.00286258 9.40107 6.74509e-07 9.18244L 6.74509e-07 0.827714C 0.00286258 0.609083 0.0907172 0.400213 0.244847 0.245605C 0.398977 0.0909966 0.607201 0.00287214 0.825155 1.3532e-06L 14.5728 1.3532e-06C 14.7907 0.00287214 14.999 0.0909966 15.1531 0.245605C 15.3072 0.400213 15.3951 0.609083 15.3979 0.827714L 15.3979 9.18244C 15.3994 9.29155 15.3791 9.39986 15.3382 9.50095C 15.2972 9.60205 15.2365 9.69389 15.1596 9.77105C 15.0826 9.84821 14.9911 9.90912 14.8903 9.95019C 14.7895 9.99126 14.6816 10.0116 14.5728 10.0102L 14.5728 10.0102Z"/>
<path id="path7_fill" d="M 23.0748 2.594L 1.28932 2.594C 1.11956 2.59449 0.951385 2.56125 0.794498 2.4962C 0.637611 2.43114 0.49512 2.33557 0.375252 2.21498C 0.255383 2.0944 0.160512 1.9512 0.096109 1.79364C 0.0317059 1.63608 -0.000951173 1.46729 2.23793e-05 1.297L 2.23793e-05 1.297C -0.000951173 1.12672 0.0317059 0.957925 0.096109 0.800367C 0.160512 0.642808 0.255383 0.499602 0.375252 0.379019C 0.49512 0.258435 0.637611 0.162858 0.794498 0.0978059C 0.951385 0.0327538 1.11956 -0.000487633 1.28932 3.1e-06L 23.0748 3.1e-06C 23.2448 -0.000484631 23.4131 0.0327308 23.5702 0.0977382C 23.7273 0.162746 23.87 0.258264 23.9902 0.378799C 24.1104 0.499333 24.2056 0.642506 24.2704 0.800085C 24.3352 0.957664 24.3683 1.12654 24.3678 1.297C 24.3576 1.63776 24.2181 1.96175 23.9778 2.20281C 23.7375 2.44387 23.4145 2.58379 23.0748 2.594L 23.0748 2.594Z"/>
<path id="path8_fill" d="M 9.50769 2.594L 1.28932 2.594C 1.11956 2.59449 0.951385 2.56125 0.794498 2.4962C 0.637611 2.43114 0.49512 2.33557 0.375252 2.21498C 0.255383 2.0944 0.160509 1.9512 0.0961063 1.79364C 0.0317032 1.63608 -0.00095106 1.46729 2.24917e-05 1.297L 2.24917e-05 1.297C -0.00095106 1.12672 0.0317032 0.957925 0.0961063 0.800367C 0.160509 0.642808 0.255383 0.499602 0.375252 0.379019C 0.49512 0.258435 0.637611 0.162858 0.794498 0.0978059C 0.951385 0.0327538 1.11956 -0.000487633 1.28932 3.1e-06L 9.50769 3.1e-06C 9.67763 -0.000484631 9.84598 0.0327308 10.0031 0.0977382C 10.1602 0.162746 10.3029 0.258264 10.4231 0.378799C 10.5432 0.499333 10.6384 0.642506 10.7032 0.800085C 10.7681 0.957664 10.8012 1.12654 10.8007 1.297C 10.8012 1.46746 10.7681 1.63634 10.7032 1.79392C 10.6384 1.9515 10.5432 2.09467 10.4231 2.2152C 10.3029 2.33574 10.1602 2.43126 10.0031 2.49626C 9.84598 2.56127 9.67763 2.59449 9.50769 2.594Z"/>
<path id="path9_fill" d="M 9.50769 2.594L 1.28932 2.594C 1.11956 2.59449 0.951385 2.56125 0.794498 2.4962C 0.637611 2.43114 0.49512 2.33557 0.375252 2.21498C 0.255383 2.0944 0.160512 1.9512 0.0961089 1.79364C 0.0317059 1.63608 -0.000951172 1.46729 2.23793e-05 1.297L 2.23793e-05 1.297C -0.000951172 1.12672 0.0317059 0.957926 0.0961089 0.800367C 0.160512 0.642809 0.255383 0.499603 0.375252 0.379019C 0.49512 0.258435 0.637611 0.162859 0.794498 0.0978066C 0.951385 0.0327544 1.11956 -0.000486957 1.28932 3.7766e-06L 9.50769 3.7766e-06C 9.67763 -0.000483954 9.84598 0.0327315 10.0031 0.0977389C 10.1602 0.162746 10.3029 0.258265 10.4231 0.378799C 10.5432 0.499334 10.6384 0.642506 10.7032 0.800085C 10.7681 0.957665 10.8012 1.12654 10.8007 1.297C 10.8012 1.46747 10.7681 1.63634 10.7032 1.79392C 10.6384 1.9515 10.5432 2.09467 10.4231 2.2152C 10.3029 2.33574 10.1602 2.43126 10.0031 2.49626C 9.84598 2.56127 9.67763 2.59449 9.50769 2.594L 9.50769 2.594Z"/>
<path id="path10_fill" d="M 9.51138 2.594L 1.28932 2.594C 1.11956 2.59449 0.951383 2.56125 0.794496 2.4962C 0.637609 2.43114 0.495123 2.33557 0.375255 2.21498C 0.255387 2.0944 0.160513 1.9512 0.0961096 1.79364C 0.0317066 1.63608 -0.000953309 1.46729 2.02434e-05 1.297L 2.02434e-05 1.297C -0.000953309 1.12672 0.0317066 0.957926 0.0961096 0.800367C 0.160513 0.642809 0.255387 0.499603 0.375255 0.379019C 0.495123 0.258435 0.637609 0.162859 0.794496 0.0978066C 0.951383 0.0327544 1.11956 -0.000486957 1.28932 3.7766e-06L 9.51138 3.7766e-06C 9.68114 -0.000486957 9.84932 0.0327544 10.0062 0.0978066C 10.1631 0.162859 10.3056 0.258435 10.4254 0.379019C 10.5453 0.499603 10.6402 0.642809 10.7046 0.800367C 10.769 0.957926 10.8017 1.12672 10.8007 1.297L 10.8007 1.297C 10.7914 1.63743 10.6527 1.9614 10.413 2.20255C 10.1733 2.4437 9.85072 2.58375 9.51138 2.594L 9.51138 2.594Z"/>
<path id="path11_fill" d="M 1.29299 2.59399C 2.00708 2.59399 2.58597 2.01331 2.58597 1.297C 2.58597 0.580686 2.00708 -2.70641e-06 1.29299 -2.70641e-06C 0.57889 -2.70641e-06 -2.4732e-06 0.580686 -2.4732e-06 1.297C -2.4732e-06 2.01331 0.57889 2.59399 1.29299 2.59399Z"/>
<path id="path12_fill" d="M 1.29299 2.59399C 2.00708 2.59399 2.58597 2.01331 2.58597 1.297C 2.58597 0.580686 2.00708 -2.70641e-06 1.29299 -2.70641e-06C 0.578891 -2.70641e-06 0 0.580686 0 1.297C 0 2.01331 0.578891 2.59399 1.29299 2.59399Z"/>
<path id="path13_fill" d="M 1.29299 2.59399C 2.00708 2.59399 2.58597 2.01331 2.58597 1.297C 2.58597 0.580686 2.00708 -2.70641e-06 1.29299 -2.70641e-06C 0.578889 -2.70641e-06 2.4732e-06 0.580686 2.4732e-06 1.297C 2.4732e-06 2.01331 0.578889 2.59399 1.29299 2.59399Z"/>
<path id="path14_fill" d="M 1.19545 2.5866L 8.23504 2.5866C 8.7041 1.74411 9.14246 0.881909 9.55012 0C 9.50592 0 9.45803 0 9.41383 0L 1.19545 0C 0.870346 0.0246698 0.566526 0.171631 0.344848 0.411453C 0.12317 0.651275 -9.2812e-08 0.966253 -9.2812e-08 1.2933C -9.2812e-08 1.62035 0.12317 1.93533 0.344848 2.17515C 0.566526 2.41497 0.870346 2.56193 1.19545 2.5866L 1.19545 2.5866Z"/>
<path id="path15_fill" d="M 0.82147 10.0102L 13.0809 10.0102C 13.7515 7.07077 14.0888 4.06479 14.0865 1.04942C 14.0865 0.679907 14.0865 0.347345 14.0865 1.3532e-06L 0.825151 1.3532e-06C 0.607197 0.00287214 0.398979 0.0909966 0.244849 0.245605C 0.0907188 0.400213 0.00286416 0.609083 2.24836e-06 0.827714L 2.24836e-06 9.18244C 0.00190908 9.40074 0.0889531 9.60961 0.242494 9.76431C 0.396034 9.91902 0.603862 10.0073 0.82147 10.0102L 0.82147 10.0102Z"/>
<path id="path16_fill" d="M 50.0396 12.7557C 49.6311 8.34448 48.4893 4.03302 46.6616 -1.6915e-07L 1.7203 -1.6915e-07C 1.49438 -1.6915e-07 1.27068 0.0446352 1.06197 0.131356C 0.853252 0.218078 0.663607 0.345186 0.503862 0.505426C 0.344118 0.665666 0.217402 0.855899 0.130949 1.06526C 0.044496 1.27463 -1.2366e-06 1.49902 -1.2366e-06 1.72563L -1.2366e-06 11.067C -1.2366e-06 11.2936 0.044496 11.518 0.130949 11.7273C 0.217402 11.9367 0.344118 12.1269 0.503862 12.2872C 0.663607 12.4474 0.853252 12.5745 1.06197 12.6612C 1.27068 12.748 1.49438 12.7926 1.7203 12.7926L 49.8149 12.7926C 49.8905 12.7852 49.9656 12.7728 50.0396 12.7557L 50.0396 12.7557Z"/>
<path id="path17_fill" d="M 1.18616 2.37967C 1.84125 2.37967 2.37231 1.84697 2.37231 1.18984C 2.37231 0.532709 1.84125 0 1.18616 0C 0.53106 0 0 0.532709 0 1.18984C 0 1.84697 0.53106 2.37967 1.18616 2.37967Z"/>
<path id="path18_fill" d="M 1.18616 2.37967C 1.84125 2.37967 2.37231 1.84697 2.37231 1.18984C 2.37231 0.532709 1.84125 0 1.18616 0C 0.531061 0 0 0.532709 0 1.18984C 0 1.84697 0.531061 2.37967 1.18616 2.37967Z"/>
<path id="path19_fill" d="M 1.18616 2.37967C 1.84125 2.37967 2.37231 1.84697 2.37231 1.18984C 2.37231 0.532709 1.84125 0 1.18616 0C 0.531061 0 0 0.532709 0 1.18984C 0 1.84697 0.531061 2.37967 1.18616 2.37967Z"/>
<path id="path20_fill" d="M 27.2411 47.091L 4.03367 47.091C 2.966 47.0861 1.94339 46.6588 1.18808 45.9018C 0.43277 45.1448 0.00581265 44.1195 -9.83659e-08 43.0485L -9.83659e-08 -2.81917e-07L 27.2595 -2.81917e-07L 27.2411 47.091Z"/>
<path id="path21_fill" d="M 13.8103 2.21709L 1.10512 2.21709C 0.812021 2.21709 0.53093 2.10029 0.323681 1.8924C 0.116432 1.68451 2.81045e-07 1.40255 2.81045e-07 1.10855L 2.81045e-07 1.10855C 2.81045e-07 0.814541 0.116432 0.532577 0.323681 0.324685C 0.53093 0.116793 0.812021 6.76602e-07 1.10512 6.76602e-07L 13.8103 6.76602e-07C 14.1033 6.76602e-07 14.3844 0.116793 14.5917 0.324685C 14.7989 0.532577 14.9154 0.814541 14.9154 1.10855C 14.9154 1.40255 14.7989 1.68451 14.5917 1.8924C 14.3844 2.10029 14.1033 2.21709 13.8103 2.21709Z"/>
<path id="path22_fill" d="M 13.8103 2.21709L 1.10512 2.21709C 0.812021 2.21709 0.53093 2.1003 0.323681 1.8924C 0.116432 1.68451 2.81045e-07 1.40255 2.81045e-07 1.10854L 2.81045e-07 1.10854C 2.81045e-07 0.81454 0.116432 0.532577 0.323681 0.324684C 0.53093 0.116792 0.812021 0 1.10512 0L 13.8103 0C 14.1033 0 14.3844 0.116792 14.5917 0.324684C 14.7989 0.532577 14.9154 0.81454 14.9154 1.10854C 14.9154 1.40255 14.7989 1.68451 14.5917 1.8924C 14.3844 2.1003 14.1033 2.21709 13.8103 2.21709Z"/>
<path id="path23_fill" d="M 10.5796 2.21709L 1.10512 2.21709C 0.812021 2.21709 0.53093 2.1003 0.323681 1.89241C 0.116432 1.68451 2.81045e-07 1.40255 2.81045e-07 1.10855L 2.81045e-07 1.10855C 2.81045e-07 0.814542 0.116432 0.532578 0.323681 0.324686C 0.53093 0.116793 0.812021 1.57874e-06 1.10512 1.57874e-06L 10.5796 1.57874e-06C 10.8727 1.57874e-06 11.1538 0.116793 11.3611 0.324686C 11.5683 0.532578 11.6847 0.814542 11.6847 1.10855C 11.6847 1.40255 11.5683 1.68451 11.3611 1.89241C 11.1538 2.1003 10.8727 2.21709 10.5796 2.21709Z"/>
<path id="path24_fill" d="M 1.10511 2.21709C 0.81202 2.21709 0.53093 2.1003 0.323681 1.89241C 0.116432 1.68451 -5.05882e-07 1.40255 -5.05882e-07 1.10855C -5.05882e-07 0.814542 0.116432 0.532578 0.323681 0.324686C 0.53093 0.116793 0.81202 1.57874e-06 1.10511 1.57874e-06C 1.39821 1.57874e-06 1.6793 0.116793 1.88655 0.324686C 2.0938 0.532578 2.21023 0.814542 2.21023 1.10855C 2.21023 1.40255 2.0938 1.68451 1.88655 1.89241C 1.6793 2.1003 1.39821 2.21709 1.10511 2.21709Z"/>
<path id="path25_fill" d="M 9.36769 18.7935C 14.5413 18.7935 18.7354 14.5864 18.7354 9.39676C 18.7354 4.20707 14.5413 0 9.36769 0C 4.19406 0 0 4.20707 0 9.39676C 0 14.5864 4.19406 18.7935 9.36769 18.7935Z"/>
<path id="path26_fill" d="M 11.6332 4.34091C 11.5541 3.92957 11.3951 3.53785 11.1653 3.18802C 10.6975 2.54137 9.62187 2.54137 8.75988 2.50442C 8.40996 2.53684 8.05709 2.50044 7.72107 2.39726L 7.72107 2.39726C 7.17956 2.17924 7.07274 1.46238 7.0359 1.10026C 6.75225 0.202338 6.35441 -0.085883 5.93078 0.0212763L 5.71713 0.235596L 5.49242 0.0212763C 5.06143 -0.0526267 4.88093 0.0212756 4.5936 1.10026C 4.55676 1.46977 4.41309 2.17924 3.91211 2.39726C 3.57481 2.50037 3.22075 2.53676 2.86962 2.50442C 2.00763 2.50442 0.895143 2.54137 0.464148 3.18802C 0.206612 3.52214 0.0459993 3.92109 5.62091e-08 4.34091C 1.6696 5.69107 3.74936 6.42777 5.89395 6.42867C 7.99098 6.42418 10.0207 5.68581 11.6332 4.34091L 11.6332 4.34091Z"/>
<path id="path27_fill" d="M 6.81856 4.35658C 6.81856 6.76951 5.31192 9.72193 3.41112 9.72193C 1.51032 9.72193 1.12418e-07 6.72517 1.12418e-07 4.35658C 1.12418e-07 1.98799 1.50664 -3.38301e-07 3.41112 -3.38301e-07C 5.3156 -3.38301e-07 6.81856 1.93626 6.81856 4.35658Z"/>
<path id="path28_fill" d="M 6.53123 0L 0 0L 0 2.52009L 6.53123 2.52009L 6.53123 0Z"/>
<path id="path29_fill" d="M 3.30061 0L 0 0L 0 2.52009L 3.30061 2.52009L 3.30061 0Z"/>
<path id="path30_fill" d="M 11.563 4.62133C 11.639 4.43568 11.6748 4.23596 11.6682 4.03538C 11.6616 3.83479 11.6126 3.6379 11.5245 3.4577C 11.4365 3.2775 11.3113 3.11809 11.1572 2.99C 11.0032 2.86192 10.8239 2.76806 10.631 2.71464C 10.6769 2.51743 10.675 2.31206 10.6256 2.11573C 10.5761 1.9194 10.4804 1.73782 10.3466 1.5862C 10.2127 1.43459 10.0446 1.31735 9.85634 1.2443C 9.66805 1.17125 9.46505 1.14453 9.26434 1.16637C 9.17424 0.982895 9.04715 0.820179 8.89113 0.688511C 8.7351 0.556843 8.55353 0.459089 8.35791 0.401435C 8.16228 0.34378 7.95685 0.327481 7.75463 0.353565C 7.5524 0.379649 7.35776 0.447551 7.18304 0.552974C 7.03399 0.379472 6.84939 0.240257 6.64183 0.144828C 6.43427 0.0493987 6.20863 1.14893e-06 5.98031 1.14893e-06C 5.75198 1.14893e-06 5.52634 0.0493987 5.31878 0.144828C 5.11122 0.240257 4.92662 0.379472 4.77757 0.552974C 4.59989 0.448604 4.40288 0.381595 4.19856 0.356026C 3.99423 0.330458 3.78685 0.346866 3.58905 0.404248C 3.39124 0.461631 3.20715 0.558787 3.04797 0.689808C 2.88878 0.820829 2.75785 0.982971 2.66312 1.16637C 2.46182 1.1419 2.2576 1.16682 2.06802 1.23899C 1.87843 1.31117 1.70916 1.42844 1.57473 1.58073C 1.44031 1.73302 1.34475 1.91577 1.29628 2.11328C 1.24781 2.31079 1.24787 2.51715 1.29646 2.71464C 1.10261 2.76647 0.922088 2.8594 0.767068 2.98714C 0.612049 3.11489 0.486134 3.27449 0.397811 3.45519C 0.309489 3.63588 0.260812 3.83347 0.255063 4.03463C 0.249313 4.23579 0.286625 4.43586 0.364481 4.62133C 0.215299 4.78477 0.10714 4.98156 0.0489842 5.19534C -0.00917123 5.40912 -0.0156446 5.63374 0.0301021 5.85054C 0.0758489 6.06734 0.172496 6.27006 0.312017 6.44187C 0.451538 6.61368 0.629907 6.74963 0.832314 6.83842C 0.294491 7.57745 0.401319 8.71186 1.40697 9.03334C 1.45397 9.37557 1.61898 9.69048 1.87335 9.92336C 2.12773 10.1562 2.45539 10.2924 2.79942 10.3082C 2.90511 10.4952 3.04901 10.6577 3.22168 10.7851C 3.39436 10.9124 3.59191 11.0018 3.80139 11.0472L 3.90453 11.0472C 3.12035 10.0382 2.69041 8.79766 2.68154 7.51833C 2.68644 7.16987 2.71103 6.82196 2.75521 6.4763C 2.92976 6.43767 3.08353 6.33483 3.18621 6.18808C 3.2651 6.26066 3.35968 6.31391 3.46255 6.34365C 3.56541 6.37339 3.67374 6.37881 3.77904 6.35947C 3.88434 6.34014 3.98374 6.29658 4.06943 6.23222C 4.15512 6.16786 4.22477 6.08445 4.27291 5.98854C 4.34122 6.07187 4.42803 6.13799 4.5264 6.18162C 4.62477 6.22525 4.73195 6.24517 4.83937 6.23978C 4.94679 6.23439 5.05145 6.20385 5.14499 6.1506C 5.23853 6.09734 5.31834 6.02286 5.37802 5.93311C 5.44081 6.02839 5.52616 6.10658 5.62644 6.16067C 5.72673 6.21476 5.83882 6.24307 5.95268 6.24307C 6.06654 6.24307 6.17863 6.21476 6.27892 6.16067C 6.3792 6.10658 6.46455 6.02839 6.52734 5.93311C 6.58861 6.02014 6.66855 6.0923 6.76127 6.14428C 6.85399 6.19625 6.95715 6.22673 7.06315 6.23346C 7.16916 6.2402 7.27532 6.22302 7.37384 6.18319C 7.47236 6.14337 7.56073 6.0819 7.63245 6.00332C 7.68131 6.09666 7.7503 6.17791 7.83439 6.24116C 7.91848 6.3044 8.01557 6.34805 8.11859 6.36893C 8.22161 6.38981 8.32798 6.3874 8.42995 6.36187C 8.53192 6.33633 8.62695 6.28833 8.7081 6.22133C 8.81078 6.36809 8.96455 6.47092 9.13909 6.50955C 9.18327 6.85522 9.20787 7.20312 9.21277 7.55158C 9.2373 8.8172 8.84927 10.0563 8.10765 11.0805L 8.17764 11.0805C 8.38487 11.0402 8.58006 10.9526 8.74808 10.8244C 8.91609 10.6962 9.05241 10.531 9.14646 10.3414C 9.4925 10.3376 9.82534 10.2077 10.0829 9.97581C 10.3405 9.74396 10.5052 9.42605 10.5463 9.08137C 11.4819 8.79315 11.7656 7.71417 11.1209 6.88646C 11.3307 6.7982 11.5155 6.6595 11.6591 6.48261C 11.8027 6.30571 11.9007 6.09607 11.9444 5.87219C 11.9881 5.64831 11.9761 5.41708 11.9096 5.19892C 11.8431 4.98077 11.724 4.7824 11.563 4.62133L 11.563 4.62133ZM 3.38145 5.30494C 4.74442 2.892 7.18304 2.92895 8.53865 5.30494C 7.76477 4.82191 6.87151 4.56591 5.96005 4.56591C 5.04858 4.56591 4.15533 4.82191 3.38145 5.30494Z"/>
<path id="path31_fill" d="M 0.28757 0.0100724C 0.34572 0.640292 0.246911 1.27512 2.25024e-07 1.85765C 0.895891 1.30707 1.03968 -0.134038 0.28757 0.0100724Z"/>
<path id="path32_fill" d="M 0.473889 0.0100724C 0.415738 0.640292 0.514548 1.27512 0.761458 1.85765C -0.119685 1.30707 -0.26347 -0.134038 0.473889 0.0100724Z"/>
<path id="path33_fill" d="M 11.1764 0.827713C 10.7086 0.181062 9.63292 0.181063 8.77093 0.144111C 8.42101 0.176539 8.06814 0.140138 7.73212 0.0369515L 7.73212 0.0369515C 7.69528 0.0369515 7.69528 5.63835e-07 7.65845 5.63835e-07C 7.43626 0.291383 7.15482 0.532024 6.83282 0.705947C 6.51082 0.87987 6.15562 0.983096 5.7908 1.00877C 5.4283 0.988763 5.07482 0.887812 4.75617 0.713288C 4.43752 0.538765 4.16173 0.295074 3.94894 5.63835e-07C 3.93917 5.63835e-07 3.92981 0.00389363 3.9229 0.0108234C 3.91599 0.0177531 3.91211 0.0271513 3.91211 0.0369515C 3.57481 0.14006 3.22075 0.176455 2.86961 0.144111C 2.00763 0.144111 0.895143 0.181062 0.464148 0.827713C 0.205085 1.16096 0.0442909 1.56035 -1.96732e-07 1.9806C 1.65369 3.35912 3.744 4.09955 5.89395 4.06836C 8.03843 4.06687 10.118 3.33024 11.7879 1.9806C 11.6185 1.57888 11.4139 1.19307 11.1764 0.827713L 11.1764 0.827713Z"/>
<path id="path34_fill" d="M 2.71858 9.02136e-07C 2.37086 0.306889 1.93747 0.4991 1.47717 0.550577C 1.01962 0.530813 0.579991 0.366573 0.221023 0.0812946C 0.178511 0.306326 0.10408 0.524088 -3.93463e-07 0.727946C 0.193332 0.922349 0.422996 1.07658 0.67584 1.18182C 0.928685 1.28706 1.19974 1.34123 1.47349 1.34123C 1.74723 1.34123 2.01829 1.28706 2.27113 1.18182C 2.52398 1.07658 2.75364 0.922349 2.94697 0.727946C 2.83248 0.49913 2.75537 0.253351 2.71858 9.02136e-07Z"/>
<path id="path35_fill" d="M 0.324438 0.790762C 0.50362 0.790762 0.648876 0.613744 0.648876 0.395381C 0.648876 0.177018 0.50362 0 0.324438 0C 0.145256 0 0 0.177018 0 0.395381C 0 0.613744 0.145256 0.790762 0.324438 0.790762Z"/>
<path id="path36_fill" d="M 0.324437 0.790762C 0.503619 0.790762 0.648875 0.613744 0.648875 0.395381C 0.648875 0.177018 0.503619 0 0.324437 0C 0.145255 0 0 0.177018 0 0.395381C 0 0.613744 0.145255 0.790762 0.324437 0.790762Z"/>
<path id="path37_fill" d="M 0.177268 0L 0.13295 0C 0.0595237 0 0 0.0594557 0 0.132799L 0 1.24315C 0 1.31649 0.0595237 1.37595 0.13295 1.37595L 0.177268 1.37595C 0.250695 1.37595 0.310218 1.31649 0.310218 1.24315L 0.310218 0.132799C 0.310218 0.0594557 0.250695 0 0.177268 0Z"/>
<path id="path38_fill" d="M 0.181055 0L 0.129325 0C 0.0579009 0 0 0.0577268 0 0.128936L 0 1.17147C 0 1.24268 0.0579009 1.3004 0.129325 1.3004L 0.181055 1.3004C 0.25248 1.3004 0.310381 1.24268 0.310381 1.17147L 0.310381 0.128936C 0.310381 0.0577268 0.25248 0 0.181055 0Z"/>
<path id="path39_fill" d="M 0.151416 0L 0.147722 0C 0.0661374 0 0 0.0660618 0 0.147554L 0 1.31693C 0 1.39843 0.0661374 1.46449 0.147722 1.46449L 0.151416 1.46449C 0.233001 1.46449 0.299138 1.39843 0.299138 1.31693L 0.299138 0.147554C 0.299138 0.0660618 0.233001 0 0.151416 0Z"/>
<path id="path40_fill" d="M 26.7401 53.6462C 41.5083 53.6462 53.4802 41.6371 53.4802 26.8231C 53.4802 12.0091 41.5083 0 26.7401 0C 11.972 0 0 12.0091 0 26.8231C 0 41.6371 11.972 53.6462 26.7401 53.6462Z"/>
<path id="path41_fill" d="M 27.7089 55.5898C 43.0121 55.5898 55.4178 43.1456 55.4178 27.7949C 55.4178 12.4442 43.0121 0 27.7089 0C 12.4057 0 0 12.4442 0 27.7949C 0 43.1456 12.4057 55.5898 27.7089 55.5898Z"/>
<path id="path42_fill" d="M 8 4C 8 6.20914 6.20914 8 4 8C 1.79086 8 0 6.20914 0 4C 0 1.79086 1.79086 0 4 0C 6.20914 0 8 1.79086 8 4Z"/>
</defs>
</svg>
