<svg xmlns="http://www.w3.org/2000/svg" xmlns:xlink="http://www.w3.org/1999/xlink" viewBox="0 0 268.7 216.49"><defs><style>.cls-1{fill:#d4d8d4;}.cls-2{fill:#c9ccc6;opacity:0.75;}.cls-3{fill:url(#linear-gradient);}.cls-4,.cls-9{fill:#fff;}.cls-5{fill:#5f6168;}.cls-6{fill:#dee2ea;}.cls-7{fill:#a7a8ab;}.cls-8{fill:#3fa140;}.cls-9{opacity:0.59;isolation:isolate;}.cls-10{fill:#4c863e;}.cls-11{fill:#9b7a56;}.cls-12{fill:#af58c4;}.cls-13{fill:#ce6ce5;}.cls-14{fill:#323335;}.cls-15{fill:#7b5d3f;}.cls-16{fill:#8c6e48;}</style><linearGradient id="linear-gradient" x1="50.03" y1="11.33" x2="162.66" y2="206.42" gradientUnits="userSpaceOnUse"><stop offset="0" stop-color="#c7c7c7"/><stop offset="1" stop-color="#8f8f8f"/></linearGradient></defs><title>Extension ON- Grade A</title><g id="Layer_2" data-name="Layer 2"><g id="Layer_1-2" data-name="Layer 1"><circle class="cls-1" cx="123.84" cy="108.25" r="108.25"/><path class="cls-2" d="M123.84,0A107.94,107.94,0,0,0,81.77,8.48l1.62,0a115.4,115.4,0,0,1,76.38,201.92A108.26,108.26,0,0,0,123.84,0Z"/><path class="cls-3" d="M232.09,108.25a107.82,107.82,0,0,0-23.76-67.67.07.07,0,0,0-.06,0H18.15c-.06,0-.1-.07-.06-.11a4.8,4.8,0,0,0-.43-6.25h0a4.91,4.91,0,0,0-6.9,0L1.57,43.39A4.74,4.74,0,0,0,.19,46.67,7.79,7.79,0,0,0,0,48.35V167.59a16.86,16.86,0,0,0,16.86,16.87H200.68a.05.05,0,0,0,0,0A107.9,107.9,0,0,0,232.09,108.25Z"/><path class="cls-4" d="M232.09,108.25A107.84,107.84,0,0,0,201,32.34H15.53a7,7,0,0,0-7,7V165.07A11.17,11.17,0,0,0,19.7,176.24H208.06A107.72,107.72,0,0,0,232.09,108.25Z"/><path class="cls-5" d="M201.1,32.44H15.36a6.82,6.82,0,0,0-6.83,6.83V49H214.44A108.09,108.09,0,0,0,201.1,32.44Z"/><path class="cls-6" d="M135.28,132.5H98a2.26,2.26,0,0,1-2.24-2.24V107.65A2.27,2.27,0,0,1,98,105.41h37.31a2.26,2.26,0,0,1,2.24,2.24v22.61A2.15,2.15,0,0,1,135.28,132.5Z"/><path class="cls-6" d="M184.39,132.5H147.07a2.27,2.27,0,0,1-2.24-2.24V107.65a2.27,2.27,0,0,1,2.24-2.24h37.32a2.27,2.27,0,0,1,2.24,2.24v22.61A2.21,2.21,0,0,1,184.39,132.5Z"/><path class="cls-6" d="M158.37,146.92H99.23a3.49,3.49,0,0,1-3.5-3.51h0a3.49,3.49,0,0,1,3.5-3.51h59.14a3.5,3.5,0,0,1,3.51,3.51h0A3.62,3.62,0,0,1,158.37,146.92Z"/><path class="cls-6" d="M192.47,146.92H170.16a3.49,3.49,0,0,1-3.5-3.51h0a3.49,3.49,0,0,1,3.5-3.51h22.31a3.5,3.5,0,0,1,3.51,3.51h0A3.5,3.5,0,0,1,192.47,146.92Z"/><path class="cls-6" d="M121.54,161H99.23a3.49,3.49,0,0,1-3.5-3.51h0a3.49,3.49,0,0,1,3.5-3.51h22.31a3.5,3.5,0,0,1,3.51,3.51h0A3.5,3.5,0,0,1,121.54,161Z"/><path class="cls-6" d="M165.88,161H143.56a3.49,3.49,0,0,1-3.5-3.51h0a3.49,3.49,0,0,1,3.5-3.51h22.32a3.49,3.49,0,0,1,3.5,3.51h0A3.61,3.61,0,0,1,165.88,161Z"/><circle class="cls-6" cx="132.55" cy="157.44" r="3.51"/><circle class="cls-6" cx="187.6" cy="157.44" r="3.51"/><circle class="cls-6" cx="177.47" cy="157.44" r="3.51"/><path class="cls-6" d="M199.3,161h19.11q1.91-3.42,3.57-7c-.12,0-.25,0-.37,0H199.3a3.51,3.51,0,0,0,0,7Z"/><path class="cls-6" d="M196.08,132.5h33.28a108.33,108.33,0,0,0,2.73-24.25c0-1,0-1.9,0-2.84h-36a2.27,2.27,0,0,0-2.24,2.24v22.61A2.26,2.26,0,0,0,196.08,132.5Z"/><path class="cls-6" d="M231.61,98a107.43,107.43,0,0,0-9.17-34.52h-122a4.67,4.67,0,0,0-4.67,4.67V93.43a4.67,4.67,0,0,0,4.67,4.67H231A4.76,4.76,0,0,0,231.61,98Z"/><circle class="cls-7" cx="21.99" cy="40.72" r="3.22"/><circle class="cls-7" cx="33.2" cy="40.72" r="3.22"/><circle class="cls-7" cx="44.4" cy="40.72" r="3.22"/><path class="cls-8" d="M82.48,176.24h-63A11,11,0,0,1,8.53,165.3V48.8h74Z"/><path class="cls-9" d="M60.94,125.58H26.45a3,3,0,0,1-3-3h0a3,3,0,0,1,3-3H60.94a3,3,0,0,1,3,3h0A3,3,0,0,1,60.94,125.58Z"/><path class="cls-9" d="M60.94,140H26.45a3,3,0,0,1-3-3h0a3,3,0,0,1,3-3H60.94a3,3,0,0,1,3,3h0A3,3,0,0,1,60.94,140Z"/><path class="cls-9" d="M52.17,154.52H26.45a3,3,0,0,1-3-3h0a3,3,0,0,1,3-3H52.17a3,3,0,0,1,3,3h0A3,3,0,0,1,52.17,154.52Z"/><path class="cls-9" d="M60.94,154.52h0a3,3,0,0,1-3-3h0a3,3,0,0,1,3-3h0a3,3,0,0,1,3,3h0A3,3,0,0,1,60.94,154.52Z"/><circle class="cls-10" cx="185.06" cy="96.01" r="72.59"/><circle class="cls-8" cx="193.48" cy="87.17" r="75.22"/><path class="cls-4" d="M211.06,118.85l-4-10.74H179.9l-4,10.74h-15.3L185,55.48h16.91l24.41,63.37ZM193.48,69,183.6,96.24h19.76Z"/><circle class="cls-9" cx="45.53" cy="85.57" r="25.43"/><path class="cls-11" d="M61.48,105.24a7.47,7.47,0,0,0-1.24-2.91c-1.27-1.75-4.19-1.75-6.53-1.85a7.39,7.39,0,0,1-2.83-.29h0c-1.46-.59-1.75-2.54-1.85-3.51-.78-2.44-1.85-3.22-3-2.92l-.58.58-.59-.58c-1.17-.2-1.65,0-2.43,2.92-.1,1-.49,2.92-1.85,3.51a7.39,7.39,0,0,1-2.83.29c-2.34,0-5.36.1-6.53,1.85a6,6,0,0,0-1.26,3.12,25.48,25.48,0,0,0,16,5.65A24.54,24.54,0,0,0,61.48,105.24Z"/><path class="cls-11" d="M54.78,83.92c0,6.52-4.09,14.51-9.25,14.51s-9.26-8.08-9.26-14.51,4.09-11.79,9.26-11.79S54.78,77.39,54.78,83.92Z"/><rect class="cls-12" x="36.07" y="73.98" width="17.73" height="6.82"/><rect class="cls-13" x="45.62" y="73.98" width="8.96" height="6.82"/><path class="cls-14" d="M60.63,77.39h0a3.86,3.86,0,0,0-2.54-5.17A3.43,3.43,0,0,0,54.39,68a4,4,0,0,0-5.65-1.65,4.3,4.3,0,0,0-6.53,0A4.14,4.14,0,0,0,36.46,68a3.4,3.4,0,0,0-3.7,4.19,3.82,3.82,0,0,0-2.53,5.17,3.77,3.77,0,0,0,1.27,6c-1.47,1.95-1.17,5.06,1.55,5.94a4,4,0,0,0,3.8,3.41,4.18,4.18,0,0,0,2.73,2h.29a15.77,15.77,0,0,1-3.31-9.55,25.3,25.3,0,0,1,.2-2.83,2,2,0,0,0,1.17-.78,1.88,1.88,0,0,0,2.92-.58,1.88,1.88,0,0,0,3-.19,1.87,1.87,0,0,0,3.12,0,1.93,1.93,0,0,0,3,.19,1.92,1.92,0,0,0,2.92.58,1.9,1.9,0,0,0,1.17.78,25.3,25.3,0,0,1,.2,2.83,15.66,15.66,0,0,1-3,9.55h.2a3.78,3.78,0,0,0,2.63-2,3.89,3.89,0,0,0,3.8-3.41c2.53-.78,3.31-3.7,1.56-5.94A3.76,3.76,0,0,0,60.63,77.39ZM38.41,79.24c3.71-6.53,10.33-6.43,14,0A13.25,13.25,0,0,0,38.41,79.24Z"/><path class="cls-15" d="M55,84.69a10.47,10.47,0,0,1-.78,5C56.63,88.2,57,84.31,55,84.69Z"/><path class="cls-16" d="M35.88,84.69a10.35,10.35,0,0,0,.78,5C34.22,88.2,33.83,84.31,35.88,84.69Z"/><path class="cls-4" d="M42.8,91.42V92a2.28,2.28,0,0,0,2.34,2.24h1A2.28,2.28,0,0,0,48.45,92v-.58Z"/><ellipse class="cls-14" cx="42.5" cy="85.86" rx="0.88" ry="1.07"/><ellipse class="cls-14" cx="48.16" cy="85.86" rx="0.88" ry="1.07"/><path class="cls-13" d="M60.24,102.23c-1.27-1.75-4.19-1.75-6.53-1.85a7.39,7.39,0,0,1-2.83-.29h0c-.09,0-.09-.1-.19-.1a7,7,0,0,1-5.07,2.73,6.66,6.66,0,0,1-5-2.73.09.09,0,0,0-.09.1,7.39,7.39,0,0,1-2.83.29c-2.34,0-5.36.1-6.53,1.85a7.09,7.09,0,0,0-1.3,3.41,25.52,25.52,0,0,0,16,5.46,25.14,25.14,0,0,0,15.87-6A16.14,16.14,0,0,0,60.24,102.23Z"/><path class="cls-15" d="M49.08,97.14a6.07,6.07,0,0,1-3.46,1.29,5.68,5.68,0,0,1-3.4-1.13,6.12,6.12,0,0,1-.52,1.8,5.51,5.51,0,0,0,3.92,1.48,6,6,0,0,0,4-1.65A6.78,6.78,0,0,1,49.08,97.14Z"/></g></g></svg>