<svg xmlns="http://www.w3.org/2000/svg" width="27" height="30"><g fill="none"><circle cx="8.517" cy="23.9" r="6.007" fill="#3FA140"/><path fill="#FFF" d="M7.946 22.46v.76h-.83v.965h.83v2.428h.995v-2.428h.77l.124-.965h-.909v-.662c0-.294.077-.47.477-.47h.512v-.863a6.801 6.801 0 0 0-.745-.035 1.177 1.177 0 0 0-1.224 1.27z"/><circle cx="19.45" cy="13.626" r="7.175" fill="#84C77A"/><path fill="#FFF" d="M23.105 10.81a3.056 3.056 0 0 1-.991.338 1.542 1.542 0 0 0-2.667 1.316 4.376 4.376 0 0 1-3.122-1.725 1.545 1.545 0 0 0 .406 2.08 1.572 1.572 0 0 1-.692-.22v.02a1.548 1.548 0 0 0 1.177 1.557c-.133.028-.27.04-.406.039a2.32 2.32 0 0 1-.294-.036c.178.635.74 1.086 1.398 1.125a3.114 3.114 0 0 1-1.937.588c-.129 0-.247 0-.37-.032a4.39 4.39 0 0 0 6.769-2.555c.076-.296.119-.6.129-.906v-.2c.309-.21.58-.47.8-.771-.282.113-.58.184-.882.209a1.54 1.54 0 0 0 .682-.827z"/><circle cx="7.602" cy="7.602" r="7.602" fill="#3FA140"/><path fill="#FFF" d="M7.67 6.998v1.448h2.386c-.097.618-.72 1.81-2.387 1.81a2.631 2.631 0 0 1-2.604-2.648c0-2.355 2.784-3.447 4.279-2.002l1.145-1.1a4.038 4.038 0 0 0-2.82-1.101 4.206 4.206 0 0 0 0 8.408c2.428 0 4.07-1.707 4.07-4.105 0-.236-.022-.472-.067-.704l-4.003-.006z"/></g></svg>