<svg xmlns="http://www.w3.org/2000/svg" xmlns:xlink="http://www.w3.org/1999/xlink" width="48" height="65"><defs><path id="a" d="M25.72 31.25H.555V.535H25.72V31.25z"/><path id="c" d="M0 .422h47.748v45.455H0V.422z"/></defs><g fill="none" fill-rule="evenodd"><g transform="translate(10.737 33.328)"><mask id="b" fill="#fff"><use xlink:href="#a"/></mask><path fill="#CE2828" d="M13.708 24.752l10.356 6.336c.723.442 1.657-.073 1.657-.914V1.61A1.08 1.08 0 0 0 24.635.535H1.64c-.6 0-1.086.481-1.086 1.075v28.564c0 .841.933 1.356 1.657.914l10.355-6.336a1.1 1.1 0 0 1 1.142 0" mask="url(#b)"/></g><g transform="translate(0 .203)"><mask id="d" fill="#fff"><use xlink:href="#c"/></mask><path fill="#8E2626" d="M23.874 44.648c-2.509 0-5.133 1.772-7.4 1.061-2.266-.71-3.46-3.78-5.372-5.195-1.912-1.417-5.25-1.537-6.565-3.424-1.431-1.892-.476-4.96-1.194-7.323C2.625 27.524 0 25.632 0 23.15c0-2.483 2.625-4.37 3.343-6.617.718-2.243-.121-5.436 1.194-7.323 1.431-1.892 4.653-2.008 6.565-3.424 1.912-1.416 2.984-4.49 5.372-5.196 2.267-.71 4.896 1.062 7.4 1.062 2.509 0 5.134-1.772 7.4-1.062 2.266.711 3.46 3.78 5.372 5.196s5.25 1.536 6.565 3.424c1.432 1.892.476 4.96 1.194 7.323.718 2.242 3.343 4.134 3.343 6.617 0 2.482-2.625 4.37-3.343 6.617-.718 2.242.121 5.435-1.194 7.323-1.431 1.892-4.653 2.007-6.565 3.424-1.912 1.416-2.984 4.489-5.372 5.195-2.266.71-4.891-1.061-7.4-1.061" mask="url(#d)"/></g><path fill="#FFF" d="M26.8 23.91l5.904-5.842c.805-.797.805-2.1 0-2.895a2.09 2.09 0 0 0-2.926 0l-5.904 5.842-5.903-5.842a2.09 2.09 0 0 0-2.927 0 2.037 2.037 0 0 0 0 2.895l5.904 5.842-5.904 5.843a2.037 2.037 0 0 0 0 2.895 2.09 2.09 0 0 0 2.927 0l5.903-5.842 5.904 5.842a2.09 2.09 0 0 0 2.926 0 2.038 2.038 0 0 0 0-2.895L26.8 23.91z"/></g></svg>