<svg width="65" height="65" viewBox="0 0 65 65" fill="none" xmlns="http://www.w3.org/2000/svg">
<path d="M4.33337 7.80004C4.33337 5.88545 5.88545 4.33337 7.80004 4.33337H42.4667C44.3813 4.33337 45.9334 5.88545 45.9334 7.80004V44.2C45.9334 46.1146 44.3813 47.6667 42.4667 47.6667H7.80004C5.88545 47.6667 4.33337 46.1146 4.33337 44.2V7.80004Z" fill="#CCCCCC"/>
<path fill-rule="evenodd" clip-rule="evenodd" d="M7.8 0H42.4667C46.7745 0 50.2667 3.49218 50.2667 7.8V44.2C50.2667 48.5078 46.7745 52 42.4667 52H7.8C3.49218 52 0 48.5078 0 44.2V7.8C0 3.49218 3.49218 0 7.8 0ZM7.8 4.33333C5.88541 4.33333 4.33333 5.88541 4.33333 7.8V44.2C4.33333 46.1146 5.88541 47.6667 7.8 47.6667H42.4667C44.3813 47.6667 45.9333 46.1146 45.9333 44.2V7.8C45.9333 5.88541 44.3813 4.33333 42.4667 4.33333H7.8Z" fill="#CCCCCC"/>
<path d="M45.9334 24.2667H4.33337V7.95762C4.33337 5.96428 5.9612 4.33337 7.95077 4.33337H42.316C44.3055 4.33337 45.9334 5.96428 45.9334 7.95762V24.2667Z" fill="#F2F2F2"/>
<path d="M4.33337 27.7333H45.9334V44.0424C45.9334 46.0357 44.3055 47.6666 42.316 47.6666H7.95077C5.9612 47.6666 4.33337 46.0357 4.33337 44.0424V27.7333Z" fill="white"/>
<path d="M32.0525 27.7333H38.9932C38.7645 34.9518 32.8408 40.7333 25.5667 40.7333C18.2927 40.7333 12.369 34.9518 12.1403 27.7333H19.081C19.3039 31.1211 22.1225 33.7999 25.5667 33.7999C29.011 33.7999 31.8295 31.1211 32.0525 27.7333Z" fill="#977DE3"/>
<path d="M12.1402 27.7334C12.1356 27.5895 12.1333 27.445 12.1333 27.3V23.8334C12.1333 16.4143 18.1476 10.4 25.5666 10.4C32.9857 10.4 39 16.4143 39 23.8334V27.3C39 27.445 38.9977 27.5895 38.9931 27.7334H32.0524C32.0618 27.5901 32.0666 27.4456 32.0666 27.3V23.8334C32.0666 20.2435 29.1565 17.3334 25.5666 17.3334C21.9768 17.3334 19.0666 20.2435 19.0666 23.8334V27.3C19.0666 27.4456 19.0714 27.5901 19.0809 27.7334H12.1402Z" fill="#7455D1"/>
<path d="M47.5 65C57.165 65 65 57.165 65 47.5C65 37.835 57.165 30 47.5 30C37.835 30 30 37.835 30 47.5C30 57.165 37.835 65 47.5 65Z" fill="#21C000"/>
<path fill-rule="evenodd" clip-rule="evenodd" d="M56.1749 41.8877C56.8584 42.5711 56.8584 43.6791 56.1749 44.3626L45.6749 54.8626C44.9915 55.546 43.8835 55.546 43.2001 54.8626L38.8251 50.4876C38.1416 49.8041 38.1416 48.6961 38.8251 48.0127C39.5085 47.3293 40.6165 47.3293 41.2999 48.0127L44.4375 51.1502L53.7001 41.8877C54.3835 41.2043 55.4915 41.2043 56.1749 41.8877Z" fill="white"/>
</svg>
