<svg xmlns="http://www.w3.org/2000/svg" width="27" height="30"><g fill="none"><circle cx="8.458" cy="23.729" r="5.963" fill="#8D9099"/><path fill="#FFF" d="M7.874 22.303v.756h-.822v.957h.822v2.409h.99v-2.409h.773l.123-.957h-.896v-.662c0-.275.074-.464.473-.464h.526v-.859a6.575 6.575 0 0 0-.736-.037 1.155 1.155 0 0 0-1.253 1.266z"/><circle cx="19.311" cy="13.529" r="7.126" fill="#B8BABC"/><path fill="#FFF" d="M22.944 10.734c-.307.168-.64.28-.986.333a1.533 1.533 0 0 0-2.688.958 1.99 1.99 0 0 0 .025.353 4.36 4.36 0 0 1-3.1-1.693 1.512 1.512 0 0 0-.237.764c-.014.51.226.994.64 1.29a1.537 1.537 0 0 1-.686-.217 1.529 1.529 0 0 0 1.176 1.545 1.668 1.668 0 0 1-.699.004c.171.64.735 1.098 1.397 1.134a3.037 3.037 0 0 1-1.923.588 3.641 3.641 0 0 1-.37-.029 4.332 4.332 0 0 0 2.33.769c2.06.101 3.9-1.28 4.377-3.288.079-.3.123-.607.132-.916v-.202a3.27 3.27 0 0 0 .793-.764 2.942 2.942 0 0 1-.888.205c.33-.18.582-.478.707-.834z"/><circle cx="7.549" cy="7.549" r="7.549" fill="#8D9099"/><path fill="#FFF" d="M7.615 6.95v1.434h2.371a2.26 2.26 0 0 1-2.37 1.8A2.614 2.614 0 0 1 5.03 7.549c0-2.346 2.762-3.423 4.25-1.989l1.134-1.093a4.015 4.015 0 0 0-2.799-1.093 4.175 4.175 0 0 0 0 8.35c2.408 0 4.04-1.697 4.04-4.076a3.48 3.48 0 0 0-.066-.699H7.615z"/></g></svg>