<svg xmlns="http://www.w3.org/2000/svg" width="128" height="128" viewBox="0 0 128 128">
    <g fill="none" fill-rule="evenodd" transform="translate(12 21)">
        <ellipse cx="52.325" cy="81.395" fill="#AAA" fill-opacity=".3" rx="19.536" ry="6.515"/>
        <g fill="#AAA" fill-opacity=".6" fill-rule="nonzero">
            <path d="M94.497 37.073h5.92a2.5 2.5 0 1 0 0-5h-5.92a2.5 2.5 0 0 0 0 5zM91.16 51.066l4.026 2.842a2.5 2.5 0 1 0 2.884-4.084l-4.026-2.843a2.5 2.5 0 1 0-2.884 4.085zM94.044 21.572l4.026-2.843a2.5 2.5 0 0 0-2.884-4.084l-4.026 2.843a2.5 2.5 0 0 0 2.884 4.084zM8.8 32.073H2.88a2.5 2.5 0 0 0 0 5H8.8a2.5 2.5 0 1 0 0-5zM9.253 46.981l-4.026 2.843a2.5 2.5 0 0 0 2.884 4.084l4.026-2.842a2.5 2.5 0 0 0-2.884-4.085zM12.137 17.488l-4.026-2.843a2.5 2.5 0 0 0-2.884 4.084l4.026 2.843a2.5 2.5 0 0 0 2.884-4.084z"/>
        </g>
        <path fill="#DE5833" d="M51.244 78.112c-.278 0-.555 0-.833-.138C31.255 68.3 20.705 52.685 20.705 34.029V13.992c0-1.105.694-1.935 1.527-2.21l26.236-8.154c.832-.276 1.804-.415 2.776-.415.972 0 1.804.139 2.776.415l26.236 8.015c.833.276 1.527 1.244 1.527 2.21v20.038c0 18.656-10.55 34.271-29.706 43.944-.278.277-.556.277-.833.277z"/>
        <path fill="#BC4A2B" d="M52 78.112V3.213c1.128.092 2.016.23 2.664.415L80.9 11.643c.832.276 1.526 1.244 1.526 2.21v20.038c0 18.656-10.55 34.271-29.706 43.944-.185.185-.425.277-.72.277z"/>
        <g transform="translate(31.705 17.213)">
            <ellipse cx="20.259" cy="20.16" fill="#9B3D23" rx="20.259" ry="20.16"/>
            <path fill="#FFF" d="M23.791 21l4.424 4.423a2.68 2.68 0 0 1-3.792 3.792L20 24.79l-4.423 4.424a2.68 2.68 0 0 1-3.792-3.792L16.21 21l-4.424-4.423a2.68 2.68 0 0 1 3.792-3.792L20 17.21l4.423-4.424a2.68 2.68 0 0 1 3.792 3.792L23.79 21z"/>
        </g>
        <path fill="#E7896F" fill-rule="nonzero" d="M54.39 5.581l26.97 8.32v20.51c0 18.07-10.295 33.274-29 42.884-18.705-9.467-29-24.67-29-42.885V13.9l26.97-8.175c.725-.287 1.305-.43 2.03-.43.725 0 1.305.143 2.03.286zm-5.605-3.737L22.797 9.817c-2.062.687-3.437 2.612-3.437 4.948v19.932c0 19.93 11.55 36.426 30.937 46.185a5.519 5.519 0 0 0 2.063.413c.688 0 1.375-.138 2.063-.413C73.81 71.122 85.36 54.628 85.36 34.697V14.765c0-2.199-1.375-4.26-3.438-4.81L55.936 1.981c-1.238-.413-2.338-.687-3.575-.687-1.238 0-2.337.137-3.575.55z"/>
    </g>
</svg>
