<svg width="24" height="24" viewBox="0 0 24 24" fill="none" xmlns="http://www.w3.org/2000/svg">
<path fill-rule="evenodd" clip-rule="evenodd" d="M11.85 22.85C17.9251 22.85 22.85 17.9251 22.85 11.85C22.85 5.77484 17.9251 0.849976 11.85 0.849976C5.77487 0.849976 0.850006 5.77484 0.850006 11.85C0.850006 17.9251 5.77487 22.85 11.85 22.85Z" fill="white"/>
<path fill-rule="evenodd" clip-rule="evenodd" d="M11.9365 2.04022C17.4088 2.04022 21.845 6.47538 21.845 11.9465C21.845 17.4177 17.4088 21.8528 11.9365 21.8528C6.46414 21.8528 2.02802 17.4177 2.02802 11.9465C2.02802 6.47538 6.46414 2.04022 11.9365 2.04022Z" fill="#DE5833"/>
<mask id="mask0" mask-type="alpha" maskUnits="userSpaceOnUse" x="6" y="4" width="11" height="19">
<path fill-rule="evenodd" clip-rule="evenodd" d="M16.0608 21.0987C14.8079 21.68 13.4145 22.0044 11.9461 22.0044C9.89112 22.0044 7.98126 21.3674 6.39926 20.2773L6.39926 4.27576H16.0608V21.0987L16.0608 21.0987Z" fill="white"/>
</mask>
<g mask="url(#mask0)">
<path fill-rule="evenodd" clip-rule="evenodd" d="M15.99 26.8738C15.6433 25.2571 13.6213 21.6149 12.8703 20.0567C12.1 18.5179 11.349 16.3363 11.6956 14.9341C11.7534 14.6809 11.0409 12.7331 11.2335 12.5968C12.8511 11.5255 13.2745 12.7137 13.9295 12.2267C14.2568 11.9735 14.7188 12.4215 14.8345 12.0125C15.2582 10.5322 14.2568 7.96116 13.1399 6.85094C12.774 6.48087 12.2154 6.24714 11.5994 6.13028C11.349 5.79916 10.9639 5.46804 10.4247 5.17588C9.80845 4.84476 8.47972 4.41626 7.78646 4.29939C7.30504 4.22148 7.1895 4.35783 6.99693 4.39678C7.1895 4.41626 8.09458 4.86424 8.26789 4.88372C8.09458 5.00058 7.57464 4.88372 7.24727 5.02006C7.07395 5.09797 6.95841 5.39013 6.95841 5.52647C7.90201 5.42909 9.3848 5.52647 10.2514 5.91602C9.55811 5.99393 8.49897 6.09132 8.05606 6.32505C6.74658 7.02624 6.14962 8.66234 6.49624 10.6296C6.84287 12.5968 8.36418 19.7448 8.86486 22.1407C9.34628 24.5365 7.82498 26.075 6.84287 26.5037L7.88275 26.5816L7.53612 27.3607C8.78783 27.497 10.1743 27.088 10.1743 27.088C9.90474 27.8671 8.01755 28.1398 8.01755 28.1398C8.01755 28.1398 8.92263 28.4123 10.3862 27.8671C11.8497 27.3023 12.7548 26.9515 12.7548 26.9515L13.448 28.7826L14.7768 27.4581L15.3352 28.8605C15.2965 28.841 16.3366 28.4904 15.99 26.8738Z" fill="#D5D7D8"/>
</g>
<mask id="mask1" mask-type="alpha" maskUnits="userSpaceOnUse" x="6" y="4" width="11" height="19">
<path fill-rule="evenodd" clip-rule="evenodd" d="M16.4845 20.8896C15.1253 21.6017 13.5822 22.0044 11.9461 22.0044C10.0512 22.0044 8.27966 21.4628 6.77481 20.5237L6.77482 4.21777H16.4845V20.8896H16.4845Z" fill="white"/>
</mask>
<g mask="url(#mask1)">
<path fill-rule="evenodd" clip-rule="evenodd" d="M16.4137 26.5426C16.0668 24.926 14.0448 21.2837 13.294 19.7255C12.5237 18.1868 11.7725 16.0053 12.1191 14.603C12.1771 14.3497 12.1771 13.298 12.3889 13.1616C14.0063 12.0904 13.8908 13.1227 14.5457 12.6552C14.8729 12.402 15.1425 12.1098 15.258 11.7008C15.6817 10.2205 14.6803 7.6495 13.5634 6.53929C13.1977 6.16921 12.6391 5.93549 12.0229 5.81862C11.7725 5.4875 11.3874 5.15639 10.8484 4.86423C9.80849 4.29938 8.51827 4.08513 7.32414 4.29938C7.51671 4.31886 7.95982 4.70841 8.13313 4.74736C7.86353 4.92266 7.15083 4.90318 7.17028 5.31221C8.11368 5.21482 9.15356 5.37064 10.0201 5.76019C9.32707 5.8381 8.67214 6.01339 8.22942 6.24712C6.90068 6.94831 6.55386 8.35069 6.90068 10.3179C7.24712 12.2851 8.76842 19.4528 9.2691 21.8291C9.75053 24.2248 8.22942 25.7635 7.26657 26.192L8.30625 26.2699L7.95982 27.049C9.21153 27.1854 10.5978 26.7764 10.5978 26.7764C10.3282 27.5555 8.44124 27.8281 8.44124 27.8281C8.44124 27.8281 9.34613 28.1008 10.8097 27.5555C12.2732 26.9906 13.1783 26.64 13.1783 26.64L13.8717 28.4709L15.2003 27.127L15.7589 28.5293C15.7202 28.5099 16.7603 28.1593 16.4137 26.5426Z" fill="white"/>
</g>
<path fill-rule="evenodd" clip-rule="evenodd" d="M8.42188 10.4153C8.42188 10.0063 8.74924 9.67517 9.15364 9.67517C9.55804 9.67517 9.88541 10.0063 9.88541 10.4153C9.88541 10.8243 9.55804 11.1555 9.15364 11.1555C8.74924 11.1555 8.42188 10.8243 8.42188 10.4153Z" fill="#2D4F8E"/>
<path fill-rule="evenodd" clip-rule="evenodd" d="M9.28845 10.2173C9.28845 10.0923 9.38845 9.96729 9.53845 9.96729C9.66345 9.96729 9.78845 10.0673 9.78845 10.2173C9.78845 10.3423 9.68845 10.4673 9.53845 10.4673C9.38845 10.4673 9.28845 10.3673 9.28845 10.2173Z" fill="white"/>
<path fill-rule="evenodd" clip-rule="evenodd" d="M13.4095 9.96727C13.4095 9.61668 13.6983 9.34399 14.0449 9.34399C14.3918 9.34399 14.6806 9.63616 14.6806 9.96727C14.6806 10.3179 14.3918 10.61 14.0449 10.61C13.6791 10.61 13.4095 10.3179 13.4095 9.96727Z" fill="#2D4F8E"/>
<path fill-rule="evenodd" clip-rule="evenodd" d="M14.1412 9.8667C14.1412 9.71045 14.2661 9.6167 14.3913 9.6167C14.5475 9.6167 14.6412 9.7417 14.6412 9.8667C14.6412 10.0229 14.5159 10.1167 14.3913 10.1167C14.2661 10.1167 14.1412 9.9917 14.1412 9.8667Z" fill="white"/>
<path fill-rule="evenodd" clip-rule="evenodd" d="M8.27893 8.00281C7.49659 8.29906 7.78997 8.91008 7.78997 8.91008C7.78997 8.91008 7.77041 8.5768 8.31804 8.26203C8.84612 7.92874 9.41331 8.16945 9.41331 8.16945C9.41331 8.16945 9.19993 7.90375 8.76495 7.90375C8.6257 7.90375 8.46375 7.93097 8.27893 8.00281Z" fill="#2D4F8E"/>
<path fill-rule="evenodd" clip-rule="evenodd" d="M12.9355 8.23919C12.9355 8.23919 13.1097 7.97613 13.7483 7.97613C14.0388 7.97613 14.445 8.18661 14.445 8.18661C14.445 8.18661 14.2902 7.81857 13.8453 7.74847C13.7793 7.73988 13.7181 7.73602 13.6612 7.73602C13.0173 7.73602 12.9355 8.23919 12.9355 8.23919Z" fill="#2D4F8E"/>
<path fill-rule="evenodd" clip-rule="evenodd" d="M11.3091 13.1497C11.3866 12.704 12.5297 11.8709 13.3435 11.8128C14.1572 11.7547 14.4091 11.7741 15.0872 11.6191C15.7653 11.4641 17.5091 11.0184 17.9934 10.8053C18.4778 10.5728 20.5317 10.9216 19.0786 11.7159C18.4584 12.0647 16.7728 12.704 15.5522 13.0722C14.351 13.4403 13.6147 12.7234 13.2078 13.324C12.8978 13.789 13.1497 14.4478 14.5835 14.5834C16.5209 14.7578 18.4005 13.7115 18.5942 14.2734C18.8072 14.8353 16.9278 15.5328 15.7849 15.5521C14.6416 15.5715 12.336 14.7965 11.9872 14.564C11.6772 14.2928 11.2122 13.7309 11.3091 13.1497Z" fill="#FDD20A"/>
<path fill-rule="evenodd" clip-rule="evenodd" d="M12.181 19.0202C12.181 19.0202 9.44913 17.5671 9.41038 18.1483C9.37163 18.7492 9.41038 21.1514 9.72038 21.3452C10.0304 21.5196 12.3166 20.1633 12.3166 20.1633L12.181 19.0202Z" fill="#65BC46"/>
<path fill-rule="evenodd" clip-rule="evenodd" d="M13.2273 18.9233C13.2273 18.9233 15.0873 17.509 15.5135 17.6058C15.9202 17.7027 16.0171 20.6089 15.6492 20.7446C15.281 20.8804 13.1498 20.0085 13.1498 20.0085L13.2273 18.9233Z" fill="#65BC46"/>
<path fill-rule="evenodd" clip-rule="evenodd" d="M11.5222 19.1753C11.5222 20.1245 11.3866 20.5316 11.7935 20.6285C12.2004 20.7253 12.9754 20.6285 13.2466 20.4541C13.5179 20.2795 13.2854 19.0397 13.2079 18.8072C13.111 18.5745 11.5222 18.7683 11.5222 19.1753Z" fill="#43A244"/>
<path fill-rule="evenodd" clip-rule="evenodd" d="M11.6966 18.9621C11.6966 19.9115 11.561 20.338 11.9679 20.4153C12.3747 20.5121 13.1497 20.4153 13.421 20.2411C13.6922 20.0665 13.4599 18.8265 13.3822 18.5942C13.2854 18.3615 11.6966 18.5553 11.6966 18.9621Z" fill="#65BC46"/>
</svg>
