<svg fill="none" height="24" viewBox="0 0 44 44" width="24" xmlns="http://www.w3.org/2000/svg" xmlns:xlink="http://www.w3.org/1999/xlink"><linearGradient id="a"><stop offset=".01" stop-color="#6176b9"/><stop offset=".69" stop-color="#394a9f"/></linearGradient><linearGradient id="b" gradientUnits="userSpaceOnUse" x1="13.9297" x2="17.072" xlink:href="#a" y1="16.398" y2="16.398"/><linearGradient id="c" gradientUnits="userSpaceOnUse" x1="23.8115" x2="26.6752" xlink:href="#a" y1="14.9679" y2="14.9679"/><mask id="d" height="40" maskUnits="userSpaceOnUse" width="40" x="2" y="2"><path clip-rule="evenodd" d="m22.0003 41.0669c10.5302 0 19.0666-8.5364 19.0666-19.0666 0-10.5303-8.5364-19.06671-19.0666-19.06671-10.5303 0-19.06671 8.53641-19.06671 19.06671 0 10.5302 8.53641 19.0666 19.06671 19.0666z" fill="#fff" fill-rule="evenodd"/></mask><path clip-rule="evenodd" d="m22 44c12.1503 0 22-9.8497 22-22 0-12.15026-9.8497-22-22-22-12.15026 0-22 9.84974-22 22 0 12.1503 9.84974 22 22 22z" fill="#de5833" fill-rule="evenodd"/><g mask="url(#d)"><path clip-rule="evenodd" d="m26.0813 41.6386c-.9203-1.7893-1.8003-3.4356-2.3466-4.5246-1.452-2.9077-2.9114-7.007-2.2477-9.6507.121-.4803-1.3677-17.78699-2.42-18.34432-1.1697-.62333-3.7107-1.44467-5.027-1.66467-.9167-.14666-1.1257.11-1.5107.16867.363.03667 2.09.88733 2.4237.935-.3337.22733-1.32-.00733-1.9507.27133-.319.14667-.5573.68934-.55.946 1.7967-.18333 4.6054-.00366 6.27.73329-1.3236.1504-3.333.319-4.1983.7737-2.508 1.32-3.6153 4.411-2.9553 8.1143.6563 3.696 3.564 17.1784 4.4916 21.681.924 4.499 11.5537 3.5567 10.0174.561z" fill="#d5d7d8" fill-rule="evenodd"/><path d="m22.2865 26.8439c-.66 2.6436.792 6.7393 2.2476 9.6506.4891.9727 1.2438 2.3921 2.0558 3.9637-1.894.4693-6.4895 1.1264-9.7191 0-.924-4.4917-3.8317-17.9777-4.4953-21.681-.66-3.7033 0-6.347 2.5153-7.667.8617-.4547 2.0937-.7847 3.4137-.9313-1.6647-.7407-3.6374-1.0267-5.4414-.84336-.0073-.76267 1.3384-.71867 1.8444-1.06334-.3337-.04766-1.1624-.79566-1.529-.83233 2.2883-.39244 4.6423-.02138 6.699 1.056 1.0486.561 1.7893 1.16233 2.2476 1.79303 1.1954.2273 2.2514.66 2.9407 1.3493 2.1193 2.1157 4.0113 6.952 3.2193 9.7313-.2236.77-.7333 1.331-1.3713 1.7967-1.2393.902-1.0193-1.045-4.103.9717-.3997.2603-.3997 2.2256-.5243 2.706z" fill="#fff"/></g><g clip-rule="evenodd" fill-rule="evenodd"><path d="m16.6724 20.354c.7675 0 1.3896-.6221 1.3896-1.3896s-.6221-1.3897-1.3896-1.3897-1.3897.6222-1.3897 1.3897.6222 1.3896 1.3897 1.3896z" fill="#2d4f8e"/><path d="m17.2924 18.8617c.1985 0 .3594-.1608.3594-.3593s-.1609-.3593-.3594-.3593c-.1984 0-.3593.1608-.3593.3593s.1609.3593.3593.3593z" fill="#fff"/><path d="m25.9568 19.3311c.6581 0 1.1917-.5335 1.1917-1.1917 0-.6581-.5336-1.1916-1.1917-1.1916s-1.1917.5335-1.1917 1.1916c0 .6582.5336 1.1917 1.1917 1.1917z" fill="#2d4f8e"/><path d="m26.4882 18.0511c.1701 0 .308-.1379.308-.308s-.1379-.308-.308-.308-.308.1379-.308.308.1379.308.308.308z" fill="#fff"/><path d="m17.072 14.942s-1.0486-.4766-2.0643.165c-1.0157.638-.979 1.2907-.979 1.2907s-.539-1.2027.8983-1.793c1.441-.5867 2.145.3373 2.145.3373z" fill="url(#b)"/><path d="m26.6752 14.8467s-.7517-.429-1.3383-.4217c-1.199.0147-1.5254.5427-1.5254.5427s.2017-1.2614 1.7344-1.0084c.4997.0914.9223.4234 1.1293.8874z" fill="url(#c)"/><path d="m20.9258 24.321c.1393-.8433 2.31-2.431 3.85-2.53 1.54-.0953 2.0167-.0733 3.3-.3813 1.287-.3043 4.598-1.1293 5.511-1.5547.9167-.4216 4.8033.209 2.0643 1.738-1.1843.6637-4.378 1.881-6.6623 2.563-2.2807.682-3.663-.6526-4.422.4694-.6013.891-.121 2.112 2.6033 2.365 3.6814.341 7.2087-1.6574 7.5974-.594.3886 1.0633-3.1607 2.3833-5.324 2.4273-2.1634.0403-6.5194-1.43-7.172-1.8847-.6564-.451-1.5254-1.5143-1.3457-2.618z" fill="#fdd20a"/><path d="m28.8825 31.8386c-.7773-.1724-4.312 2.5006-4.312 2.5006h.0037l-.165 2.0534s4.0406 1.6536 4.73 1.397c.6893-.264.517-5.775-.2567-5.951zm-11.5463 1.034c.0843-1.1184 5.2543 1.6426 5.2543 1.6426l.0037-.0036.2566 2.156s-4.3083 2.5813-4.9133 2.2366c-.6013-.3446-.6893-4.9096-.6013-6.0316z" fill="#65bc46"/><path d="m21.34 34.8049c0 1.8077-.2604 2.585.5133 2.7574.7773.1723 2.2403 0 2.761-.3447.5133-.3447.0843-2.6693-.088-3.102s-3.19-.088-3.19.6893z" fill="#43a244"/><path d="m21.6701 34.4051c0 1.8076-.2604 2.5813.5133 2.7536.7737.176 2.2367 0 2.7573-.3446.517-.3447.088-2.6694-.0843-3.102-.1723-.4327-3.19-.0844-3.19.6893z" fill="#65bc46"/><path d="m22.0002 40.4481c10.1885 0 18.4479-8.2594 18.4479-18.4479s-8.2594-18.44795-18.4479-18.44795-18.44795 8.25945-18.44795 18.44795 8.25945 18.4479 18.44795 18.4479zm0 1.7187c11.1377 0 20.1666-9.0289 20.1666-20.1666 0-11.1378-9.0289-20.1667-20.1666-20.1667-11.1378 0-20.1667 9.0289-20.1667 20.1667 0 11.1377 9.0289 20.1666 20.1667 20.1666z" fill="#fff"/></g></svg>
