<svg fill="none" viewBox="0 0 24 24" xmlns="http://www.w3.org/2000/svg">
    <g clip-path="url(#DuckDuckGo-Greyscale-24FullFrame_svg__a)">
        <path fill="#666" fill-rule="evenodd" d="M12 24c6.627 0 12-5.373 12-12S18.627 0 12 0 0 5.373 0 12s5.373 12 12 12Z" clip-rule="evenodd"/>
        <path fill="#fff" d="M13.517 20.167c.226.442.522 1.003.842 1.618 0 0-.365.905-2.756.882-2.39-.024-2.484-1.024-2.484-1.024-.58-2.782-2.02-9.483-2.364-11.397-.354-1.993-.01-3.423 1.318-4.152l.053-.029c.427-.224 1.019-.394 1.662-.483l.2-.025a5.988 5.988 0 0 0-2.967-.46c-.002-.171.122-.268.287-.335.183-.075.417-.115.588-.18.05-.02.094-.04.13-.065-.18-.026-.629-.43-.83-.454h-.004a5.773 5.773 0 0 1 3.653.576c.572.307.976.634 1.225.978.652.124 1.228.36 1.604.736 1.155 1.152 2.185 3.784 1.757 5.3l-.012.004-.103.024c-.7.168-.96.156-1.8.208-.668.043-1.552.599-1.925 1.056a.766.766 0 0 0-.174.324c-.058.35.08.694.275.968.138.194.306.355.454.457-.229 1 .077 2.365.548 3.63a2.62 2.62 0 0 0-.512.129.863.863 0 0 0-.282.157c-.789-.392-2.406-1.139-2.44-.678-.049.612 0 3.101.327 3.289.211.12 1.245-.41 1.965-.81a.386.386 0 0 0 .17.079c.295.065.77.04 1.128-.045.157-.037.291-.086.378-.143a.254.254 0 0 0 .089-.135Z"/>
        <path fill="#D5D7D8" fill-rule="evenodd" d="M8.025 4.517a.636.636 0 0 1-.13.064 19.7 19.7 0 0 1-.347-.147c-.296-.128-.606-.261-.71-.272a.913.913 0 0 0 .168-.046c.056-.02.115-.04.188-.053.105.012.276.127.442.238.153.103.302.203.39.216Zm-1.23.82c.84-.086 2.082-.027 2.993.244h.002c.065-.009.13-.018.197-.025a5.991 5.991 0 0 0-2.967-.46c-.002-.171.122-.268.287-.335a.895.895 0 0 0-.211.059c-.174.08-.304.376-.3.516Zm-.48 5.246C6.561 11.98 7.4 15.94 8.06 19.058l.507 2.402c.18.065.365.126.55.182-.163-.786-.395-1.885-.653-3.101-.652-3.087-1.464-6.923-1.71-8.296-.355-1.993-.01-3.423 1.317-4.152-.053.02-.102.042-.145.065-1.368.72-1.971 2.406-1.612 4.425Z" clip-rule="evenodd"/>
        <path fill="#444" d="M13.936 7.618c-.836-.138-.946.55-.946.55s.178-.288.832-.296c.32-.004.73.23.73.23a.837.837 0 0 0-.616-.484Zm-5.746.626c.554-.35 1.126-.09 1.126-.09s-.384-.504-1.17-.184c-.784.322-.49.978-.49.978s-.02-.356.534-.704Z"/>
        <path fill="#444" fill-rule="evenodd" d="M13.51 9.897a.65.65 0 1 0 1.3 0 .65.65 0 0 0-1.3 0Zm.94-.383a.168.168 0 1 1 0 .337.168.168 0 0 1 0-.337Zm-5.353 1.591a.758.758 0 1 0 0-1.515.758.758 0 0 0 0 1.515Zm.338-1.206a.196.196 0 1 1 0 .393.196.196 0 0 1 0-.393Z" clip-rule="evenodd"/>
        <path fill="#DDD" d="M16.062 15.723c1.18-.024 3.115-.743 2.903-1.323-.212-.58-2.136.51-4.143.324-1.486-.138-1.748-.803-1.42-1.29.414-.611 1.169.116 2.412-.256 1.245-.372 2.987-1.036 3.632-1.397 1.494-.834-.626-1.178-1.126-.948-.472.22-2.122.636-2.89.82l-.115.028c-.7.168-.96.156-1.8.208-.667.043-1.552.598-1.925 1.055a.745.745 0 0 0-.174.324c-.057.35.08.694.275.969.14.194.307.354.455.457l.004.002c.356.247 2.732 1.05 3.912 1.027Z"/>
        <path fill="#ABABAB" d="M11.643 18.985h-.002c0-.087.07-.164.18-.23v.01l.002.001c0 .932-.127 1.36.215 1.483.02.007.042.014.065.019.225.05.556.048.86.004.207-.028.4-.076.538-.137l.028-.012a.642.642 0 0 0 .078-.043.219.219 0 0 0 .07-.088c.64.248 1.939.724 2.219.62.375-.144.282-3.15-.14-3.245-.339-.076-1.631.835-2.142 1.208a1.36 1.36 0 0 0-.054-.186c-.046-.115-.456-.13-.866-.065a2.62 2.62 0 0 0-.511.128.871.871 0 0 0-.283.157c-.789-.393-2.406-1.138-2.44-.678-.048.612 0 3.1.327 3.289.21.12 1.246-.41 1.966-.81-.208-.177-.11-.607-.11-1.425Z"/>
        <path fill="#888" d="M13.5 20.137c-.137.06-.33.108-.537.136-.304.043-.636.047-.86-.004a.483.483 0 0 1-.065-.019c-.343-.124-.216-.551-.216-1.483l-.001-.002v-.01c-.111.067-.18.143-.18.23h.001c0 .818-.097 1.25.11 1.426a.38.38 0 0 0 .17.078c.294.066.77.04 1.127-.044.157-.037.292-.086.379-.144a.255.255 0 0 0 .088-.134.676.676 0 0 0 .013-.042l-.028.012Z"/>
        <circle cx="12" cy="12" r="10.2" stroke="#fff" stroke-width="1.2"/>
    </g>
    <defs>
        <clipPath id="DuckDuckGo-Greyscale-24FullFrame_svg__a">
            <path fill="#fff" d="M0 0h24v24H0z"/>
        </clipPath>
    </defs>
</svg>
