<svg fill="none" viewBox="0 0 128 128" xmlns="http://www.w3.org/2000/svg">
    <path clip-rule="evenodd" d="m64 128c35.346 0 64-28.654 64-64s-28.654-64-64-64-64 28.654-64 64 28.654 64 64 64z" fill="#de5833" fill-rule="evenodd"/>
    <path clip-rule="evenodd" d="m73 111.75c0-.5.123-.614-1.466-3.782-4.224-8.459-8.47-20.384-6.54-28.075.353-1.397-3.978-51.744-7.04-53.365-3.402-1.813-7.588-4.69-11.418-5.33-1.943-.31-4.49-.164-6.482.105-.353.047-.368.683-.03.798 1.308.443 2.895 1.212 3.83 2.375.178.22-.06.566-.342.577-.882.032-2.482.402-4.593 2.195-.244.207-.041.592.273.53 4.536-.897 9.17-.455 11.9 2.027.177.16.084.45-.147.512-23.694 6.44-19.003 27.05-12.696 52.344 5.619 22.53 7.733 29.792 8.4 32.004a.718.718 0 0 0 .423.467c8.156 3.248 25.928 3.392 25.928-2.132z" fill="#ddd" fill-rule="evenodd"/>
    <path d="m76.25 116.5c-2.875 1.125-8.5 1.625-11.75 1.625-4.764 0-11.625-.75-14.125-1.875-1.544-4.751-6.164-19.48-10.727-38.185l-.447-1.827-.004-.015c-5.424-22.157-9.855-40.253 14.427-45.938.222-.052.33-.317.184-.492-2.786-3.305-8.005-4.388-14.605-2.111-.27.093-.506-.18-.337-.412 1.294-1.783 3.823-3.155 5.071-3.756.258-.124.242-.502-.03-.588a27.877 27.877 0 0 0 -3.772-.9c-.37-.059-.403-.693-.032-.743 9.356-1.259 19.125 1.55 24.028 7.726a.326.326 0 0 0 .186.114c17.952 3.856 19.238 32.235 17.17 33.528-.408.255-1.715.108-3.438-.085-6.986-.781-20.818-2.329-9.402 18.948.113.21-.036.488-.272.525-6.438 1 1.812 21.173 7.875 34.461z" fill="#fff"/>
    <path d="m84.28 90.698c-1.367-.633-6.621 3.135-10.11 6.028-.728-1.031-2.103-1.78-5.203-1.242-2.713.472-4.211 1.126-4.88 2.254-4.283-1.623-11.488-4.13-13.229-1.71-1.902 2.646.476 15.161 3.003 16.786 1.32.849 7.63-3.208 10.926-6.005.532.749 1.388 1.178 3.148 1.137 2.662-.062 6.979-.681 7.649-1.921.04-.075.075-.164.105-.266 3.388 1.266 9.35 2.606 10.682 2.406 3.47-.521-.484-16.723-2.09-17.467z" fill="#3ca82b"/>
    <path d="m74.49 97.097c.144.256.26.526.358.8.483 1.352 1.27 5.648.674 6.709-.595 1.062-4.459 1.574-6.843 1.615s-2.92-.831-3.403-2.181c-.387-1.081-.577-3.621-.572-5.075-.098-2.158.69-2.916 4.334-3.506 2.696-.436 4.121.071 4.944.94 3.828-2.857 10.215-6.889 10.838-6.152 3.106 3.674 3.499 12.42 2.826 15.939-.22 1.151-10.505-1.139-10.505-2.38 0-5.152-1.337-6.565-2.65-6.71zm-22.53-1.609c.843-1.333 7.674.325 11.424 1.993 0 0-.77 3.491.456 7.604.359 1.203-8.627 6.558-9.8 5.637-1.355-1.065-3.85-12.432-2.08-15.234z" fill="#4cba3c"/>
    <path clip-rule="evenodd" d="m55.269 68.406c.553-2.403 3.127-6.932 12.321-6.822 4.648-.019 10.422-.002 14.25-.436a51.312 51.312 0 0 0 12.726-3.095c3.98-1.519 5.392-1.18 5.887-.272.544.999-.097 2.722-1.488 4.309-2.656 3.03-7.431 5.38-15.865 6.076-8.433.698-14.02-1.565-16.425 2.118-1.038 1.589-.236 5.333 7.92 6.512 11.02 1.59 20.072-1.917 21.19.201 1.119 2.118-5.323 6.428-16.362 6.518s-17.934-3.865-20.379-5.83c-3.102-2.495-4.49-6.133-3.775-9.279z" fill="#fc3" fill-rule="evenodd"/>
    <g fill="#14307e" opacity=".8">
      <path d="m69.327 42.127c.616-1.008 1.981-1.786 4.216-1.786 2.234 0 3.285.889 4.013 1.88.148.202-.076.44-.306.34a59.869 59.869 0 0 1 -.168-.073c-.817-.357-1.82-.795-3.54-.82-1.838-.026-2.997.435-3.727.831-.246.134-.634-.133-.488-.372zm-25.157 1.29c2.17-.907 3.876-.79 5.081-.504.254.06.43-.213.227-.377-.935-.755-3.03-1.692-5.76-.674-2.437.909-3.585 2.796-3.592 4.038-.002.292.6.317.756.07.42-.67 1.12-1.646 3.289-2.553z"/>
      <path clip-rule="evenodd" d="m75.44 55.92a3.47 3.47 0 0 1 -3.474-3.462 3.47 3.47 0 0 1 3.475-3.46 3.47 3.47 0 0 1 3.474 3.46 3.47 3.47 0 0 1 -3.475 3.462zm2.447-4.608a.899.899 0 0 0 -1.799 0c0 .494.405.895.9.895.499 0 .9-.4.9-.895zm-25.464 3.542a4.042 4.042 0 0 1 -4.049 4.037 4.045 4.045 0 0 1 -4.05-4.037 4.045 4.045 0 0 1 4.05-4.037 4.045 4.045 0 0 1 4.05 4.037zm-1.193-1.338a1.05 1.05 0 0 0 -2.097 0 1.048 1.048 0 0 0 2.097 0z" fill-rule="evenodd"/>
    </g>
    <path clip-rule="evenodd" d="m64 117.75c29.685 0 53.75-24.065 53.75-53.75s-24.065-53.75-53.75-53.75-53.75 24.065-53.75 53.75 24.065 53.75 53.75 53.75zm0 5c32.447 0 58.75-26.303 58.75-58.75s-26.303-58.75-58.75-58.75-58.75 26.303-58.75 58.75 26.303 58.75 58.75 58.75z" fill="#fff" fill-rule="evenodd"/>
</svg>