<svg xmlns="http://www.w3.org/2000/svg" xmlns:xlink="http://www.w3.org/1999/xlink" width="22" height="22" viewBox="0 0 22 22">
    <defs>
        <path id="a" d="M9.666 16.858a9.75 9.75 0 0 1-4.114.905 9.741 9.741 0 0 1-5.547-1.727V.035h9.661v16.823z"/>
        <path id="c" d="M9.714 16.676a9.75 9.75 0 0 1-4.538 1.114 9.735 9.735 0 0 1-5.171-1.48V.004h9.71v16.672z"/>
    </defs>
    <g fill="none" fill-rule="evenodd">
        <circle cx="11" cy="11" r="11" fill="#FFF"/>
        <path fill="#DE5833" d="M11.086 1.19c5.473 0 9.909 4.435 9.909 9.907 0 5.47-4.436 9.906-9.909 9.906-5.472 0-9.908-4.435-9.908-9.906 0-5.472 4.436-9.907 9.908-9.907"/>
        <g transform="translate(5.544 3.391)">
            <mask id="b" fill="#fff">
                <use xlink:href="#a"/>
            </mask>
            <path fill="#D5D7D8" d="M9.596 22.633c-.347-1.617-2.369-5.26-3.12-6.817-.77-1.539-1.521-3.72-1.175-5.123.058-.253-.654-2.2-.462-2.337 1.618-1.071 2.041.117 2.696-.37.328-.253.79.195.905-.214.424-1.48-.577-4.052-1.694-5.162-.366-.37-.925-.604-1.541-.72-.25-.332-.635-.663-1.175-.955C3.414.604 2.085.175 1.392.058.911-.019.795.117.602.156.796.176 1.7.623 1.875.643 1.7.76 1.18.643.853.779c-.173.078-.289.37-.289.507.944-.098 2.426 0 3.293.39-.693.077-1.752.174-2.195.408C.352 2.785-.245 4.421.102 6.39c.347 1.967 1.868 9.115 2.369 11.51.481 2.397-1.04 3.935-2.022 4.364l1.04.078-.347.779c1.252.136 2.638-.273 2.638-.273-.27.78-2.157 1.052-2.157 1.052s.905.272 2.369-.273l2.368-.915.694 1.83 1.328-1.324.559 1.403c-.039-.02 1.001-.37.655-1.987" mask="url(#b)"/>
        </g>
        <g transform="translate(5.92 3.364)">
            <mask id="d" fill="#fff">
                <use xlink:href="#c"/>
            </mask>
            <path fill="#FFF" d="M9.644 22.329c-.347-1.617-2.37-5.26-3.12-6.817-.77-1.54-1.521-3.72-1.175-5.123.058-.253.058-1.305.27-1.441 1.617-1.072 1.502-.04 2.157-.507.327-.253.596-.545.712-.954.424-1.48-.578-4.051-1.695-5.162-.365-.37-.924-.603-1.54-.72-.25-.331-.636-.663-1.175-.955A5.499 5.499 0 0 0 .554.085c.193.02.636.41.81.448C1.093.71.38.69.4 1.098a5.72 5.72 0 0 1 2.85.448c-.693.078-1.348.254-1.79.487C.13 2.734-.217 4.137.13 6.104c.347 1.967 1.868 9.135 2.37 11.511.48 2.396-1.04 3.935-2.003 4.363l1.04.078-.347.78c1.252.135 2.638-.274 2.638-.274-.27.78-2.157 1.052-2.157 1.052s.905.273 2.369-.272l2.368-.916.694 1.831 1.328-1.344.559 1.402c-.039-.019 1.001-.37.655-1.986" mask="url(#d)"/>
        </g>
        <path fill="#2D4F8E" d="M7.572 9.565c0-.409.327-.74.732-.74.404 0 .731.331.731.74 0 .41-.327.74-.731.74a.736.736 0 0 1-.732-.74"/>
        <path fill="#FFF" d="M8.438 9.367a.25.25 0 0 1 .5 0c0 .125-.1.25-.25.25s-.25-.1-.25-.25"/>
        <path fill="#2D4F8E" d="M12.56 9.117c0-.35.288-.623.635-.623.347 0 .636.292.636.623 0 .35-.29.643-.636.643a.632.632 0 0 1-.636-.643"/>
        <path fill="#FFF" d="M13.291 9.017c0-.157.125-.25.25-.25.156 0 .25.125.25.25 0 .156-.125.25-.25.25a.269.269 0 0 1-.25-.25"/>
        <path fill="#2D4F8E" d="M7.429 7.153c-.782.296-.489.907-.489.907s-.02-.333.528-.648c.528-.333 1.095-.093 1.095-.093s-.213-.265-.648-.265c-.14 0-.301.027-.486.099M12.085 7.39s.175-.264.813-.264c.29 0 .697.21.697.21s-.155-.367-.6-.437a1.425 1.425 0 0 0-.184-.013c-.644 0-.726.503-.726.503"/>
        <g>
            <path fill="#FDD20A" d="M10.46 12.3c.077-.446 1.22-1.279 2.033-1.337.814-.058 1.066-.039 1.744-.194.678-.155 2.422-.6 2.906-.814.485-.232 2.539.117 1.086.911-.62.349-2.306.988-3.527 1.356-1.201.368-1.937-.349-2.344.252-.31.465-.058 1.124 1.375 1.26 1.938.174 3.818-.872 4.011-.31.213.561-1.666 1.259-2.81 1.278-1.142.02-3.448-.755-3.797-.988-.31-.271-.775-.833-.678-1.414"/>
            <path fill="#65BC46" d="M11.331 18.17s-2.732-1.453-2.77-.872c-.04.601 0 3.003.31 3.197.31.175 2.596-1.182 2.596-1.182l-.136-1.143zM12.377 18.073s1.86-1.414 2.287-1.317c.406.097.503 3.003.135 3.139-.368.135-2.5-.736-2.5-.736l.078-1.086z"/>
            <path fill="#43A244" d="M10.672 18.325c0 .95-.135 1.357.272 1.454.406.096 1.181 0 1.453-.175.27-.174.038-1.414-.04-1.647-.096-.232-1.685-.039-1.685.368"/>
            <path fill="#65BC46" d="M10.847 18.112c0 .95-.136 1.376.27 1.453.408.097 1.183 0 1.454-.174.271-.174.039-1.414-.039-1.647-.097-.232-1.685-.039-1.685.368"/>
        </g>
    </g>
</svg>
