<svg fill="none" viewBox="0 0 24 24" xmlns="http://www.w3.org/2000/svg"><path clip-rule="evenodd" d="m12 22c5.523 0 10-4.477 10-10s-4.477-10-10-10-10 4.477-10 10 4.477 10 10 10z" fill="#666" fill-rule="evenodd"/><path d="m13.264 18.806c.189.368.435.835.702 1.348 0 0-.304.755-2.297.735-1.992-.02-2.07-.853-2.07-.853-.482-2.319-1.684-7.903-1.97-9.498-.295-1.66-.008-2.852 1.098-3.46a.956.956 0 0 1 .045-.024c.355-.187.849-.328 1.385-.402.054-.008.11-.015.166-.02a4.99 4.99 0 0 0 -2.472-.384c-.002-.143.101-.224.239-.28.152-.062.347-.095.49-.15a.548.548 0 0 0 .109-.054c-.151-.022-.525-.359-.693-.378h-.002a4.811 4.811 0 0 1 3.043.48c.477.256.814.528 1.022.815.543.103 1.023.3 1.336.613.962.96 1.82 3.154 1.464 4.417l-.01.003-.086.02c-.583.14-.8.13-1.5.174-.556.035-1.293.498-1.604.88a.637.637 0 0 0 -.145.27c-.048.291.066.577.23.806.114.162.254.296.378.381-.19.834.064 1.97.456 3.026-.15.023-.301.059-.426.106a.717.717 0 0 0 -.236.132c-.657-.328-2.004-.95-2.033-.566-.04.51 0 2.584.273 2.741.176.1 1.038-.342 1.638-.675a.33.33 0 0 0 .142.066c.245.054.64.033.939-.038a.983.983 0 0 0 .315-.12.212.212 0 0 0 .074-.111z" fill="#fff"/><path clip-rule="evenodd" d="m8.688 5.764a.53.53 0 0 1 -.108.054 12.852 12.852 0 0 1 -.29-.123c-.247-.106-.505-.218-.592-.227a.76.76 0 0 0 .14-.038c.047-.016.096-.033.157-.044.088.01.23.106.368.198.128.086.252.17.325.18zm-1.025.683c.7-.072 1.735-.022 2.493.204h.002c.055-.008.11-.015.165-.02a4.993 4.993 0 0 0 -2.473-.384c-.001-.143.102-.224.24-.28a.746.746 0 0 0 -.177.05c-.145.067-.253.313-.25.43zm1.053 11.435.423 2.001c.15.055.304.105.459.152a917.65 917.65 0 0 0 -.544-2.584c-.544-2.572-1.22-5.77-1.425-6.914-.296-1.66-.008-2.852 1.097-3.46a1.039 1.039 0 0 0 -.121.055c-1.14.6-1.643 2.004-1.343 3.687.207 1.164.905 4.465 1.454 7.063z" fill="#d5d7d8" fill-rule="evenodd"/><path d="m13.613 8.348c-.696-.115-.788.458-.788.458s.148-.24.693-.246c.267-.004.608.191.608.191a.698.698 0 0 0 -.513-.403zm-4.788.522c.462-.292.938-.075.938-.075s-.32-.42-.975-.153c-.653.268-.408.815-.408.815s-.017-.297.445-.587z" fill="#444"/><path clip-rule="evenodd" d="m13.258 10.248a.542.542 0 1 0 1.084 0 .542.542 0 0 0 -1.084 0zm.783-.32a.14.14 0 1 1 0 .28.14.14 0 0 1 0-.28zm-4.461 1.326a.631.631 0 1 0 0-1.263.631.631 0 0 0 0 1.263zm.283-1.005a.164.164 0 1 1 0 .328.164.164 0 0 1 0-.328z" fill="#444" fill-rule="evenodd"/><path d="m15.385 15.103c.983-.02 2.596-.62 2.42-1.103-.178-.484-1.78.425-3.454.27-1.237-.115-1.456-.67-1.182-1.075.345-.51.973.097 2.01-.213s2.488-.863 3.026-1.165c1.245-.695-.521-.982-.938-.79-.394.184-1.769.53-2.408.684l-.096.023c-.584.14-.8.13-1.5.173-.556.036-1.294.5-1.604.88a.62.62 0 0 0 -.145.27c-.048.292.066.578.229.807.115.162.255.295.379.38l.003.003c.297.206 2.276.874 3.26.856z" fill="#ddd"/><path d="m11.702 17.82h-.001c0-.072.058-.136.15-.19v.007l.001.002c0 .776-.105 1.132.18 1.235a.396.396 0 0 0 .054.016c.187.042.463.04.717.004a1.81 1.81 0 0 0 .448-.114l.023-.011a.518.518 0 0 0 .065-.036.183.183 0 0 0 .058-.073c.535.207 1.616.603 1.85.516.313-.12.235-2.624-.117-2.704-.282-.063-1.36.696-1.785 1.007a1.135 1.135 0 0 0 -.045-.155c-.038-.096-.38-.108-.721-.054-.151.023-.302.06-.427.107a.72.72 0 0 0 -.235.13c-.658-.327-2.005-.948-2.034-.565-.04.51 0 2.585.273 2.741.176.1 1.038-.342 1.638-.675-.173-.147-.092-.506-.092-1.187z" fill="#ababab"/><path d="m13.25 18.78a1.79 1.79 0 0 1 -.448.115c-.253.035-.53.038-.717-.005a.427.427 0 0 1 -.054-.015c-.285-.103-.18-.46-.18-1.236v-.009c-.093.055-.15.119-.15.191 0 .681-.08 1.04.092 1.188.036.03.082.052.142.066.245.054.641.033.939-.038a.999.999 0 0 0 .316-.12.213.213 0 0 0 .073-.111.606.606 0 0 0 .011-.036l-.023.01z" fill="#888"/><path clip-rule="evenodd" d="m12 20a8 8 0 1 0 0-16 8 8 0 0 0 0 16zm0 1a9 9 0 1 0 0-18 9 9 0 0 0 0 18z" fill="#fff" fill-rule="evenodd"/></svg>