<svg width="128" height="128" viewBox="0 0 128 128" fill="none" xmlns="http://www.w3.org/2000/svg">
    <path fill-rule="evenodd" clip-rule="evenodd" d="M64 128C99.3586 128 128 99.3586 128 64C128 28.6414 99.3586 0 64 0C28.6414 0 0 28.6414 0 64C0 99.3586 28.6414 128 64 128Z" fill="#444444"/>
    <path d="M76.9991 52.2137C77.4966 52.2137 77.9009 51.8094 77.9009 51.3118C77.9009 50.8143 77.4966 50.41 76.9991 50.41C76.5015 50.41 76.0972 50.8143 76.0972 51.3118C76.0972 51.8094 76.5015 52.2137 76.9991 52.2137Z" fill="white"/>
    <path d="M50.1924 54.546C50.7833 54.546 51.2497 54.0796 51.2497 53.4887C51.2497 52.8978 50.7833 52.4314 50.1924 52.4314C49.6015 52.4314 49.1351 52.8978 49.1351 53.4887C49.1351 54.0796 49.6015 54.546 50.1924 54.546Z" fill="white"/>
    <path fill-rule="evenodd" clip-rule="evenodd" d="M122.75 64C122.75 96.4468 96.4467 122.75 64 122.75C31.5533 122.75 5.25 96.4468 5.25 64C5.25 31.5533 31.5533 5.25 64 5.25C96.4467 5.25 122.75 31.5533 122.75 64ZM46.7837 114.934C45.5229 110.558 42.6434 100.26 38.2507 82.659C31.9378 57.3762 27.2419 36.7581 50.9387 30.3208C51.1875 30.2586 51.2808 29.9787 51.0942 29.8232C48.3576 27.3353 43.724 26.9 39.1836 27.8018C38.9659 27.8329 38.8105 27.6774 38.8105 27.4908C38.8105 27.4286 38.8105 27.3664 38.8726 27.3042C39.9611 25.7804 41.9203 24.5987 43.2575 23.8834C42.3245 23.0438 41.0806 22.484 40.0233 22.1109C39.7123 21.9865 39.7123 21.4578 39.9922 21.3334C40.0233 21.3023 40.0544 21.2712 40.1166 21.2712C49.446 20.0273 59.2419 22.8261 64.0622 28.9835C64.1243 29.0457 64.1865 29.0768 64.2487 29.1079C80.0777 32.4976 82.9698 54.9194 82.0058 61.1079C87.5724 60.4549 91.7395 59.0866 94.5072 58.0292C98.4878 56.5054 99.8872 56.8475 100.385 57.7493C100.913 58.7756 100.292 60.486 98.8921 62.072C96.2487 65.0885 91.4596 67.452 83.032 68.1361C80.1189 68.3726 77.544 68.2598 75.3225 68.1625C71.1174 67.9784 68.1791 67.8497 66.6122 70.2508C65.586 71.8368 66.3945 75.5686 74.5422 76.7503C80.3586 77.5883 85.6281 77.0026 89.4701 76.5755C92.8998 76.1943 95.192 75.9395 95.7201 76.9369C96.8396 79.0827 90.4023 83.3742 79.3624 83.4675C78.5228 83.4675 77.6831 83.4364 76.8746 83.4053C70.033 83.0633 64.9951 81.1974 61.8542 79.487C61.7609 79.4559 61.6987 79.4248 61.6676 79.3937C61.1078 79.0827 60.0194 79.6424 60.6725 80.8242C61.0456 81.5394 63.0359 83.3742 66.0213 84.9602C65.7104 87.4481 66.4878 91.2732 67.825 95.6269C67.9804 95.601 68.1357 95.5697 68.2955 95.5376C68.5196 95.4924 68.7526 95.4455 69.0068 95.4092C71.7123 94.9738 73.1428 95.4714 73.9514 96.3422C77.7764 93.4811 84.1516 89.4384 84.7735 90.1847C87.8833 93.8854 88.2876 102.624 87.6035 106.138C87.5724 106.2 87.5102 106.262 87.3858 106.325C85.9242 106.947 77.8698 104.746 77.8698 103.596C77.5588 97.866 76.4937 97.3373 75.2498 97.0574H74.4178C74.4489 97.0885 74.48 97.1507 74.5111 97.2129L74.791 97.866C75.2886 99.2343 76.066 103.526 75.4752 104.583C74.8843 105.641 71.0281 106.169 68.6336 106.2C66.2701 106.231 65.7415 105.361 65.2439 104.023C64.8707 102.935 64.6841 100.416 64.6841 98.9544C64.653 98.519 64.6841 98.1459 64.7463 97.8038C64.0311 98.1148 62.9816 98.83 62.6395 99.2964C62.5462 100.696 62.5462 102.935 63.2925 105.423C63.6657 106.605 55.1992 111.642 54.0174 110.71C52.8046 109.745 50.6278 100.292 51.5607 96.4666C50.5656 96.5599 49.757 96.8708 49.3216 97.4928C47.3624 100.198 49.8192 113.135 52.4314 114.814C53.7998 115.716 60.6414 111.86 64.0311 108.968C64.5908 109.745 65.6638 109.808 66.9854 109.808C68.7269 109.745 71.1525 109.497 72.8629 108.968C73.8867 111.367 75.1219 114.157 76.1353 116.374C99.9759 110.873 117.75 89.5121 117.75 64C117.75 34.3147 93.6853 10.25 64 10.25C34.3147 10.25 10.25 34.3147 10.25 64C10.25 87.664 25.5423 107.756 46.7837 114.934ZM77.1275 42.5198C77.168 42.5379 77.2081 42.5558 77.2478 42.5734C77.4655 42.6667 77.7142 42.418 77.5587 42.2314C76.8435 41.2673 75.7862 40.3655 73.5471 40.3655C71.308 40.3655 69.9397 41.1429 69.3177 42.1381C69.1933 42.3869 69.5665 42.6356 69.8153 42.5112C70.5617 42.107 71.7123 41.6405 73.5471 41.6716C75.2952 41.7012 76.3094 42.1543 77.1275 42.5198ZM75.4441 55.9146C77.3722 55.9146 78.9271 54.3596 78.9271 52.4627C78.9271 50.5346 77.3722 49.0108 75.4441 49.0108C73.516 49.0108 71.9611 50.5657 71.9611 52.4627C71.9611 54.3596 73.516 55.9146 75.4441 55.9146ZM52.4314 54.8572C52.4314 52.6181 50.6278 50.8145 48.3887 50.8145C46.1496 50.8145 44.3148 52.6181 44.3459 54.8572C44.3459 57.0963 46.1496 58.9 48.3887 58.9C50.6278 58.9 52.4314 57.0963 52.4314 54.8572ZM40.8629 45.9631C41.2983 45.3101 41.9825 44.3149 44.1593 43.4131C46.3362 42.5112 48.0466 42.6356 49.2283 42.9155C49.4771 42.9777 49.6637 42.6978 49.446 42.5423C48.5131 41.7649 46.4295 40.8319 43.6929 41.8582C41.2672 42.76 40.1166 44.657 40.1166 45.9009C40.1166 46.1808 40.7074 46.2119 40.8629 45.9631Z" fill="white"/>
</svg>