<svg xmlns="http://www.w3.org/2000/svg" height="32" width="32"><path d="M31.401 27.591l-5.835-5.82c3.547-5.257 2.992-12.448-1.673-17.097-5.301-5.283-13.899-5.283-19.206 0-5.301 5.283-5.301 13.847 0 19.132 4.629 4.612 11.765 5.193 17.035 1.759.003.003.003.006.006.011l5.846 5.828a1.806 1.806 0 0 0 2.551 0l1.274-1.269a1.79 1.79 0 0 0 .001-2.543zM6.704 21.793a10.66 10.66 0 0 1 0-15.117c4.188-4.174 10.98-4.174 15.169 0a10.658 10.658 0 0 1 0 15.117c-4.188 4.174-10.982 4.174-15.169 0z" fill="#f0f0f0"/></svg>