<svg width="20" height="20" viewBox="0 0 20 20" fill="none" xmlns="http://www.w3.org/2000/svg">
<path d="M18.33 10C18.33 14.6005 14.6005 18.33 9.99999 18.33C5.39946 18.33 1.66999 14.6005 1.66999 10C1.66999 5.39947 5.39946 1.67 9.99999 1.67C14.6005 1.67 18.33 5.39947 18.33 10Z" stroke="#878E96" stroke-width="1.67"/>
<path d="M11.0291 8.36044L8.97021 8.69332C8.90718 9.19163 8.81652 9.69563 8.72444 10.2076C8.54671 11.1957 8.36365 12.2134 8.36365 13.2768C8.36365 14.3328 8.99515 14.9091 9.99381 14.9091C11.1344 14.9091 11.3296 14.1932 11.3738 13.5447C10.4283 13.6818 10.2206 13.255 10.3751 12.2506C10.5296 11.2461 11.0291 8.36044 11.0291 8.36044Z" fill="#878E96"/>
<path d="M9.19674 6.38941C9.19674 5.76482 9.70627 5.09091 10.5445 5.09091C11.0376 5.09091 11.6129 5.38677 11.6129 6.10999C11.6129 6.68527 11.2184 7.39205 10.2816 7.39205C9.77202 7.39205 9.19674 7.1455 9.19674 6.38941Z" fill="#878E96"/>
</svg>
