<svg xmlns="http://www.w3.org/2000/svg" viewBox="0 0 83 83"><defs><style>.cls-1{fill:#a8a8ab;}</style></defs><title>appnexus</title><g id="Layer_2" data-name="Layer 2"><g id="Layer_1-2" data-name="Layer 1"><path class="cls-1" d="M-1152.5-1396a41.5,41.5,0,0,0-41.5,41.5,41.5,41.5,0,0,0,41.5,41.5,41.5,41.5,0,0,0,41.5-41.5A41.5,41.5,0,0,0-1152.5-1396Zm-25.13,17.57c0-.8.24-1.13,1.06-1.12,3.42,0,6.85,0,10.27,0,.58,0,1,0,1.08.84a38.63,38.63,0,0,0,3.54,14.92,40.28,40.28,0,0,0-15.93-3.68v-4.21C-1177.61-1373.92-1177.58-1376.18-1177.63-1378.43Zm12.29,48.92h-12.17v-12.11C-1172.3-1343.15-1164.71-1335.72-1165.34-1329.51Zm4.91,0c-1.17-10.18-6.77-15.94-17.09-17.15v-16a32.19,32.19,0,0,1,21.7,8.34,32.93,32.93,0,0,1,11.46,24.8Zm33-.07a6.06,6.06,0,0,1-.82.13c-3.46,0-6.93,0-10.39,0-.69,0-1.1-.11-1.1-.93a36.63,36.63,0,0,0-3.17-14.42,3.46,3.46,0,0,1-.09-.54,39.92,39.92,0,0,0,15.57,3.51Zm0-16.89a33.68,33.68,0,0,1-12.47-2.64c-11.35-5.07-18.14-13.78-20.37-26a20.36,20.36,0,0,1-.3-3.48,1.24,1.24,0,0,1,.82-.88q7.26-.07,14.52,0a1.4,1.4,0,0,1,1,1c.32,6.94,5.78,13.46,12.71,15.19,1.09.27,2.22.35,3.31.61.31.07.8.44.8.68C-1127.39-1356.9-1127.4-1351.78-1127.4-1346.49Zm-1.23-21a12.54,12.54,0,0,1-11-11.21c-.08-.7.29-.86.89-.85h5.26c1.67,0,3.34,0,5,0,.74,0,1.15.18,1.14,1,0,3.34-.05,6.68,0,10C-1127.36-1367.47-1127.86-1367.41-1128.63-1367.48Z" transform="translate(1194 1396)"/></g></g></svg>