<svg xmlns="http://www.w3.org/2000/svg" viewBox="0 0 83 83"><defs><style>.cls-1{fill:#a8a8ab;}</style></defs><title>adtech</title><g id="Layer_2" data-name="Layer 2"><g id="Layer_1-2" data-name="Layer 1"><path class="cls-1" d="M41.5,0A41.5,41.5,0,1,0,83,41.5,41.5,41.5,0,0,0,41.5,0ZM23.79,57.57c-.24,1.11-.53,1.16-1.4.61-1.31-.84-2.69-1.54-4-2.35a4.9,4.9,0,0,1-2.45-4.4q0-11.79,0-23.58A4.54,4.54,0,0,1,18,23.74c5-3,10.12-5.91,15.54-9.06L27.65,40.55C26.36,46.22,25,51.88,23.79,57.57Zm25.43,7.1c-1.76.9-3.44,1.94-5.14,3a5,5,0,0,1-2.13.7,5.46,5.46,0,0,1-3.06-.74c-1.71-1-3.39-2-5.15-2.94a1.52,1.52,0,0,1-.85-2q4-17.28,7.94-34.58c.1-.44,0-1.12.63-1.15s.68.69.79,1.19c2.62,11.48,5.21,23,7.87,34.44C50.37,63.58,50.24,64.15,49.22,64.67Zm17.84-13a4.61,4.61,0,0,1-2.39,4.09c-1.32.81-2.71,1.5-4,2.36-.92.62-1.21.42-1.44-.59q-2.16-9.7-4.38-19.38L49.81,16c-.07-.31-.12-.61-.25-1.28,5.36,3.11,10.42,6,15.41,9a4.37,4.37,0,0,1,2.1,3.94Q67.09,39.66,67.06,51.71Z"/></g></g></svg>