<svg width="18" height="7" xmlns="http://www.w3.org/2000/svg"><g fill-rule="nonzero" fill="#FFF"><path d="M2.684 0C2.602.149 0 6.758 0 6.84h1.812l.356-.97h2.379c.115.328.224.653.329.974.246.027 1.764 0 1.847 0L4.058 0H2.684zm-.031 4.46l.704-2.347h.02c.235.783.466 1.565.704 2.348H2.653zM10.534 1.667A3.029 3.029 0 0 0 9 1.585c-.4.068-.777.236-1.096.489a2.77 2.77 0 0 0-.927 3.013 2.579 2.579 0 0 0 1.69 1.76c.422.14.87.182 1.311.122a2.477 2.477 0 0 0 1.785-.974 2.74 2.74 0 0 0 .39-2.794 2.485 2.485 0 0 0-1.62-1.534zm-.325 3.721a1.193 1.193 0 0 1-1.663-.473 1.381 1.381 0 0 1 .137-1.51 1.197 1.197 0 0 1 2.03.297c.08.176.118.367.114.56.018.46-.22.893-.618 1.126zM13.23 0v6.84h1.538c.023-.149 0-6.758 0-6.836L13.23 0z"/><circle cx="16.599" cy="5.854" r="1.013"/></g></svg>