<svg width="12" height="13" xmlns="http://www.w3.org/2000/svg"><g fill-rule="nonzero" fill="#FFF"><path d="M5.2 6.42a7.672 7.672 0 0 0-5.18-2v3.816c2.464.292 3.8 1.664 4.08 4.096h3.836A7.868 7.868 0 0 0 5.2 6.42zM11.796 4.42c-.26-.06-.532-.08-.8-.144A4.088 4.088 0 0 1 7.968.648.328.328 0 0 0 7.744.4H4.276a.292.292 0 0 0-.196.208c.002.279.026.557.072.832a8 8 0 0 0 4.864 6.224A8.04 8.04 0 0 0 12 8.296V4.584c0-.056-.128-.144-.204-.164zM8.288 8.7a8.8 8.8 0 0 1 .756 3.44c0 .196.096.224.26.224h2.48a1.54 1.54 0 0 0 .196-.032v-2.92a9.6 9.6 0 0 1-3.716-.84.596.596 0 0 0 .024.128zM2.964.604c0-.192-.12-.2-.26-.2H.252C.056.4 0 .476 0 .668v2.62a9.524 9.524 0 0 1 3.804.88 9.2 9.2 0 0 1-.84-3.564z"/><path d="M.028 9.456v2.892h2.904c.152-1.48-1.66-3.256-2.904-2.892zM11.7 3.28c.184 0 .304 0 .3-.236v-2.4c0-.208-.092-.252-.272-.252H9.276c-.14 0-.232.036-.212.208A2.988 2.988 0 0 0 11.7 3.28z"/></g></svg>