<svg width="13" height="14" xmlns="http://www.w3.org/2000/svg"><g fill-rule="nonzero" fill="#FFF"><path d="M.936 2.6a1.096 1.096 0 0 0-.503.992v5.69c-.013.435.215.842.594 1.057.316.2.65.369.966.568.208.134.278.121.338-.147.295-1.37.62-2.739.932-4.104.464-2.045.932-4.086 1.421-6.24C3.376 1.192 2.167 1.889.936 2.6zM12.77 3.553a1.057 1.057 0 0 0-.507-.949C11.06 1.885 9.841 1.192 8.545.438c.035.16.044.234.061.307l1.218 5.356c.35 1.556.71 3.112 1.057 4.672.052.242.126.294.347.143.307-.208.645-.373.966-.568.357-.2.578-.578.576-.988.005-1.933 0-3.87 0-5.807zM6.782 3.662c-.026-.117 0-.295-.191-.286-.19.008-.126.173-.147.277-.642 2.782-1.282 5.563-1.92 8.342a.373.373 0 0 0 .208.49c.433.212.828.467 1.24.706a1.3 1.3 0 0 0 .74.177c.181-.014.356-.07.512-.164.411-.243.819-.499 1.243-.711.243-.126.273-.264.217-.52-.641-2.769-1.27-5.542-1.902-8.311z"/></g></svg>