<?xml version="1.0" encoding="UTF-8"?>
<svg width="14px" height="15px" viewBox="0 0 14 15" version="1.1" xmlns="http://www.w3.org/2000/svg" xmlns:xlink="http://www.w3.org/1999/xlink">
    <!-- Generator: sketchtool 47.1 (45422) - http://www.bohemiancoding.com/sketch -->
    <title>29AB9982-1716-4A56-B415-AB794265F6DF</title>
    <desc>Created with sketchtool.</desc>
    <defs></defs>
    <g id="V4--RC-Updates" stroke="none" stroke-width="1" fill="none" fill-rule="evenodd">
        <g id="ASSETS--Pill-Icons" transform="translate(-181.000000, -498.000000)" fill-rule="nonzero" fill="#FFFFFF">
            <g id="amazon" transform="translate(181.000000, 498.000000)">
                <path d="M7.9630303,4.16181818 C6.41454545,4.2169697 2.56666667,4.66666667 2.56666667,7.89939394 C2.56666667,11.3866667 6.97030303,11.5266667 8.40848485,9.27393939 C8.85281164,9.80438604 9.33487407,10.3020446 9.85090909,10.7630303 L11.6581818,8.98121212 C11.6581818,8.98121212 10.6315152,8.17515152 10.6315152,7.28424242 L10.6315152,2.61757576 C10.6315152,1.81575758 9.85090909,0 7.05515152,0 C4.25939394,0 2.77030303,1.75212121 2.77030303,3.32181818 L5.09090909,3.53818182 C5.60848485,1.96 6.81757576,1.96 6.81757576,1.96 C8.11151515,1.96 7.94606061,2.91030303 7.94606061,4.16181818 L7.9630303,4.16181818 Z M7.9630303,6.92363636 C7.9630303,9.46909091 5.28181818,9.08727273 5.28181818,7.47090909 C5.28181818,5.96909091 6.88969697,5.66363636 7.9630303,5.62969697 L7.9630303,6.92363636 Z M12.3030303,12.1290909 C12.0612121,12.4472727 10.0757576,14.250303 6.74969697,14.250303 C3.42363636,14.250303 0.848484848,11.9848485 0.0848484848,11.030303 C-0.131515152,10.7884848 0.118787879,10.6739394 0.258787879,10.7672727 C2.59212121,12.1842424 6.23636364,14.5175758 12.1375758,11.730303 C12.3539394,11.6284848 12.5406061,11.8109091 12.3030303,12.1290909 Z M13.5757576,12.1969697 C13.4283821,12.573145 13.1977719,12.9110831 12.9012121,13.1854545 C12.7272727,13.3254545 12.6,13.270303 12.6933333,13.0624242 C12.7866667,12.8545455 13.3084848,11.5818182 13.0963636,11.310303 C12.8842424,11.0387879 11.9212121,11.1745455 11.5690909,11.2084848 C11.2169697,11.2424242 11.1448485,11.2721212 11.1236364,11.2084848 C11.030303,11.030303 11.7981818,10.7078788 12.3030303,10.6442424 C12.8078788,10.5806061 13.6054545,10.6187879 13.7666667,10.8266667 C13.9278788,11.0345455 13.7666667,11.6751515 13.5587879,12.1969697 L13.5757576,12.1969697 Z" id="Shape"></path>
            </g>
        </g>
    </g>
</svg>