<svg width="14" height="15" xmlns="http://www.w3.org/2000/svg"><path d="M7.963 4.162c-1.548.055-5.396.505-5.396 3.737 0 3.488 4.403 3.628 5.841 1.375.445.53.927 1.028 1.443 1.489l1.807-1.782s-1.026-.806-1.026-1.697V2.618C10.632 1.816 9.85 0 7.055 0S2.77 1.752 2.77 3.322l2.32.216C5.609 1.96 6.819 1.96 6.819 1.96c1.294 0 1.128.95 1.128 2.202h.017zm0 2.762c0 2.545-2.681 2.163-2.681.547 0-1.502 1.608-1.807 2.681-1.841v1.294zm4.34 5.205c-.242.318-2.227 2.121-5.553 2.121S.848 11.985.085 11.03c-.217-.242.034-.356.174-.263 2.333 1.417 5.977 3.75 11.879.963.216-.102.403.08.165.4zm1.273.068a2.677 2.677 0 0 1-.675.988c-.174.14-.301.085-.208-.123.094-.207.615-1.48.403-1.752-.212-.271-1.175-.135-1.527-.102-.352.034-.424.064-.445 0-.094-.178.674-.5 1.179-.564.505-.063 1.302-.025 1.464.183.16.208 0 .848-.208 1.37h.017z" fill-rule="nonzero" fill="#FFF"/></svg>