<svg width="15" height="14" xmlns="http://www.w3.org/2000/svg"><path d="M14.683.683a.63.63 0 0 0-.62-.683c-.281.035-.56.087-.834.158-.312.054-.604.138-.9.2-.504.113-1.012.213-1.517.325l-1.52.342-1.734.38-1.566.34-1.038.23-.833.188c-.371.083-.788.158-1.146.254a.592.592 0 0 0-.417.52v1.884l-.058.012c-.417.054-.863.1-1.292.159a1.096 1.096 0 0 0-.446.091.417.417 0 0 0-.229.167.738.738 0 0 0-.116.492v5.445c.039.254.226.459.475.521l1.212.213 2.008.35 1.846.333 1.334.242c.616.108 1.25.204 1.854.329A.65.65 0 0 0 10 12.5v-2-.18l.03-.028c.362.05.724.062 1.09.095.226.021.45.03.676.055.417.041.812.066 1.216.104.305.029.613.037.917.083a.667.667 0 0 0 .78-.67V.837c-.03-.059-.026-.105-.026-.155zM8.671 8.9h-.754c-.417-.03-.804-.046-1.209-.058l-.696-.034c-.474-.029-.97-.058-1.462-.058-.263 0-.53 0-.796-.042-.075 0-.108-.037-.104-.112V5.95a.417.417 0 0 0 0-.188H3.6v-.024c.072.006.145.006.217 0 .041 0 .091 0 .116-.046.078.008.156.008.234 0l.862-.071c.492-.042.984-.08 1.475-.125.375-.038.754-.054 1.13-.092.258-.02.516-.054.774-.062.259-.009.221 0 .221.216V8.75c.001.053.015.104.042.15zm-.038 1.287h.042a.33.33 0 0 0-.02.167v1.338c0 .137-.022.154-.155.137-.313-.037-.617-.083-.925-.129-.883-.137-1.767-.254-2.65-.383-.746-.113-1.492-.213-2.233-.325L1.5 10.833c-.125 0-.146-.037-.142-.154 0-.22 0-.437-.025-.658V6.554c0-.179.034-.354.025-.533 0-.063.021-.104.088-.104.111-.002.223-.01.333-.025l.763-.059V5.9a.05.05 0 0 0 0 .02.48.48 0 0 0 0 .188v3.013a.67.67 0 0 0 .604.62c.25.03.5.046.75.067.417.038.804.067 1.204.1l1.438.125 1.537.125c.188.025.377.038.567.038l-.009-.008zm4.584-1.195c0 .1-.03.129-.13.116a6.932 6.932 0 0 0-.587-.029c-.667 0-1.33-.07-1.996-.075a2.654 2.654 0 0 1-.546-.041c.046-.046.034-.109.034-.167v-4.08a.904.904 0 0 0-.055-.316.588.588 0 0 0-.495-.392 1.508 1.508 0 0 0-.388 0l-1.433.175-2.084.25c-.358.042-.712.092-1.07.13-.288.029-.575.062-.859.116v-.02a.2.2 0 0 0 .038-.159V3.475c0-.138 0-.163.158-.18l.542-.1c.329-.053.658-.12.983-.174.325-.054.7-.13 1.05-.188a.546.546 0 0 0 .263-.075v-.025c.064-.004.128-.012.191-.025l.996-.183c.321-.054.642-.104.958-.17a.887.887 0 0 1 .105 0c.059 0 .118-.01.175-.026.575-.104 1.15-.212 1.729-.312.729-.13 1.454-.271 2.183-.417.246-.042.242-.05.242.2v7.092a.8.8 0 0 1 .012.1h-.016z" fill-rule="nonzero" fill="#FFF"/></svg>