<svg xmlns="http://www.w3.org/2000/svg" viewBox="0 0 83 83"><defs><style>.cls-1{fill:#a8a8ab}</style></defs><g id="Layer_2" data-name="Layer 2"><g id="Layer_1-2" data-name="Layer 1"><path class="cls-1" d="M73.48 34.07L73.3 34l-.37.13c-2.34 2.12-4.21 6.88-5.62 9.68l-.55 1.42.92-1c1-1.16 7.93-8.45 5.8-10.16zM56.64 44.81l-.24-.19-.25-.12h-.8c-3.05 1.39-7 6.37-6.23 9.87l.06.18h.12l.31-.12c1.83-.81 3.16-2.4 4.69-3.64l.55-.62L56 49l.56-.74.37-.74.19-.74v-.68l-.12-.74-.12-.3zM77.25 46.72l.37-.31.24-.31.31-.37.31-.31.19-.3.12-.25.06-.25-.06-.12-.25-.19h-.24l-.31.07c-1.26.77-1.65 2.19-2.22 3.45l-.07.25h.13l.37-.37.37-.31z"/><path class="cls-1" d="M25.86 19.45l.55-.12h.93l.43.06c3.44.57 2.95 4.48 2 6.91l-.49 1.11-.56 1.11c-2.47 4.35-6.05 6.49-10.42 8.39l-.62.25-.61.18v.06l-.07.07-.49.12-.56.12-.43-.06-.37-.12-.37-.19-.18-.24-.06-.37.06-.37.18-.31.25-.37c2.12-1.37 4.14-2 6.35-3.58l1.48-1v-.06l1.24-1 1-1c2.12-1.88 5.5-8.54-.37-6.42l-.49.19-.55.18C16.41 26.52 8.26 37.15 4.57 44l-.49 1.05-.49.95-.37.86-.22.72c-1.76 6.55 4 6.76 8.82 6.3l1.05-.13 1-.12.92-.19C18 52.59 18.3 51.36 20 49l1.17-1.48 1.11-1.29c1.64-2 4.63-4.83 7.46-4.32l.62.18.62.31.49.5.43.55.31-.12.37-.13H33l.31.13.31.24.24.31.13.31.06.43-.12.5-.62 1.29-.56 1.17a22.17 22.17 0 0 0-2.15 5.86l-.07.37-.06.31 1-.68 1.05-.8 1-1 1-1 .93-1.18 1-1.17.82-1.29.93-1.18.86-1.23.8-1.17.8-1L41 42l.31-.12.37-.13.37.07.31.18.18.19.19.43.12.49.06.5.19 1.23.37 2.34a21.39 21.39 0 0 1-.06 5.12l-.19.81-.31.74-.37.55.25-.18c3.35-2.66 10.4-16.17 15.76-11.22l.44.55.3-.18H60l.31.06.37.25.19.24.18.37v.43l-.06.5-.68 1.36-.61 1.17-.5 1.11a19.06 19.06 0 0 0-1.66 5.12l-.07.31v.18l.31-.06c1.74-1.17 3-2.93 4.45-4.38h.06l.06-.12.06-.37c1.2-3.25 8-24 13.45-16.48l.31.5.12.43.13.43c.78 4.77-9 13.66-11.79 16.91v1.23c-.21 4.63 3.78 1.66 5.62.25l.95-.81 1-.93 1.11-1 .06-1.29.25-1.17c.16-2.16 2.87-6.92 5.61-5.49l.74.3.5.5c2.71 2.29-1 5.06-2.66 6.54l-.92.86-1 .86.11.82c.55 3 1.79 3.77 4.34 4.3A41.5 41.5 0 1 0 0 41.5 40.91 40.91 0 0 0 .24 46c4.16-8.49 16.03-24.35 25.62-26.55z"/><path class="cls-1" d="M73.85 54.25l-.24-.87-1.24 1c-2.85 2.66-8.37 5.63-10.05.19l-.19-.68-.24.31c-2 2.56-6.74 5.17-7 .06l.07-.68-1.4 1.22c-1.9 1.61-6.26 4.16-7.1.13l-.12-.62-.62.74c-1.47 1.43-3.35 2.83-5.37 1.54l-.12-.25-.92.37-1 .25-1 .12-1 .07-.87-.07-.8-.06-.74-.12-.56-.12-.34-.13-.31-.06h-.49l-.25.12-.37.13-.8.24-.74.13c-1.37-.34-2-.82-2.16-2.35v-.61l.06-.68-1.47 1.23c-2 1.46-5.95 4.05-7.15.25l-.13-.62-1 .37-1.11.37c-3.59 1.42-10.19 2.59-14.39 1.09a41.5 41.5 0 0 0 77.31.65c-2.69.44-5.1.64-6.15-2.66z"/><path class="cls-1" d="M40.85 46.23l-.56.68a60 60 0 0 1-5.61 6.53l-.62.62.62.06c6.82.57 7.17-1 6.35-7.21zM29.25 44.56L29 44.5l-.18-.06h-.31l-.25.06-.3.06-.31.12c-1.69.94-2.22 2-3.52 3.4l-.74.92-.43.74-.43.81-.25.86-.25 1-.12.92.06 1 .06.12.19.06.24-.06.37-.18.37-.27.5-.31a38.33 38.33 0 0 0 4.07-3.58l1.17-1.17.56-.74c.67-.94.96-2.99-.25-3.64z"/></g></g></svg>