<svg xmlns="http://www.w3.org/2000/svg" viewBox="0 0 83 83"><g data-name="Layer 2"><path d="M41.5 0A41.5 41.5 0 0 0 0 41.5 41.5 41.5 0 0 0 41.5 83 41.5 41.5 0 0 0 83 41.5 41.5 41.5 0 0 0 41.5 0zM9.86 34a3.47 3.47 0 0 1-3.47-3.47 3.47 3.47 0 0 1 3.47-3.48 3.47 3.47 0 0 1 3.46 3.48 3.47 3.47 0 0 1-3.46 3.52zm57.19 20.72h-7a5.52 5.52 0 0 1-5.51-5.51V33.82a1 1 0 0 0-.94-.95H16V28.1h37.9a5.51 5.51 0 0 1 5.51 5.5V49a.94.94 0 0 0 .94 1h6.73zm6.1 1.13a3.48 3.48 0 0 1-3.47-3.48 3.48 3.48 0 0 1 3.47-3.48 3.47 3.47 0 0 1 3.46 3.48 3.47 3.47 0 0 1-3.46 3.53z" fill="#a8a8ab" data-name="Layer 1"/></g></svg>