<svg width="18" height="7" xmlns="http://www.w3.org/2000/svg"><g fill-rule="nonzero" fill="#FFF"><path d="M11.785 4.055a3.155 3.155 0 0 0-.293-2.047A3.264 3.264 0 0 0 8.512.114a3.05 3.05 0 0 0-1.037.165A3.401 3.401 0 0 0 5.22 4.012c.079.54.285 1.053.602 1.497a3.316 3.316 0 0 0 3.571 1.27 3.273 3.273 0 0 0 2.392-2.724zm-2.667.843a.616.616 0 0 1-.08.289.606.606 0 0 1-.659.284.583.583 0 0 1-.435-.568V3.482 2.06a.592.592 0 0 1 .634-.588c.31.04.54.304.54.616.005.947.005 1.876 0 2.809z"/><path d="M17.948 6.85l-1.975-3.402a.18.18 0 0 1 0-.199c.544-.947 1.08-1.894 1.62-2.813.075-.128.146-.26.227-.403h-2.032c-.085 0-.119.048-.152.11l-.696 1.273a.677.677 0 0 1-.076.114 1.189 1.189 0 0 1-.066-.1c-.227-.426-.474-.847-.677-1.274a.204.204 0 0 0-.2-.123h-2.065c.02.042.042.083.067.123.596 1.038 1.198 2.07 1.8 3.108a.175.175 0 0 1 0 .213l-1.635 2.842-.364.644h2.022a.161.161 0 0 0 .161-.095c.28-.52.569-1.042.853-1.567.022-.037.045-.071.071-.105.02.028.04.056.057.086.289.52.583 1.046.867 1.572.026.07.096.113.17.104H18l-.052-.109zM2.117 1.895h2.051c.157 0 .161 0 .147-.17C4.277 1.197 4.24.672 4.206.141c0-.1-.033-.133-.137-.133H.152C.033.01 0 .038 0 .161V6.968h1.809c.114 0 .147-.029.147-.147V4.893c0-.199 0-.199.204-.199h1.587c.123 0 .151-.042.151-.156V2.96c0-.114-.033-.147-.146-.147H1.975v-.796c-.01-.1.033-.123.142-.123z"/></g></svg>