<svg xmlns="http://www.w3.org/2000/svg" width="24" height="24"><g fill="#A8A8AB"><path d="M18.327 6.65a7.671 7.671 0 0 0-5.41-2.272h-.055a7.694 7.694 0 1 0 7.103 10.652 7.697 7.697 0 0 0-1.638-8.38zm-2.18 11.856c-.099.052-.2.098-.304.145h-.032a7.087 7.087 0 0 1-.578.23l-.107.039-.255.078-.289.075-.182.04-.17.035c-.11.023-.22.04-.33.058l-.24.029c-.264.03-.53.045-.795.046a7.24 7.24 0 0 1-1.362-.13l-.171-.035a7.168 7.168 0 0 1-2.45-1.026l-.077-.052a7.552 7.552 0 0 1-.234-.165l-.04-.03a8.472 8.472 0 0 1-.498-.407l-.145-.136a7.209 7.209 0 0 1-2.258-5.155v-.376a.315.315 0 0 0 0-.052v-.321a.356.356 0 0 1 0-.058v-.127a.356.356 0 0 1 0-.055l.017-.128v-.055c0-.04 0-.083.02-.127v-.052c0-.04.015-.084.024-.127a.29.29 0 0 1 0-.05l.026-.13a.272.272 0 0 1 0-.046c0-.043.02-.086.029-.13a.24.24 0 0 0 0-.043l.034-.13v-.04c0-.012.026-.09.038-.134l.014-.04c0-.044.026-.087.04-.13a.188.188 0 0 0 0-.038c.018-.043.033-.09.047-.133l.014-.035c.015-.043.032-.086.05-.133.017-.046 0-.02 0-.031 0-.012.034-.09.055-.133.02-.044 0-.02 0-.032l.057-.13.015-.03c.017-.045.037-.09.06-.132v-.03l.067-.13v-.025l.07-.13a.119.119 0 0 1 .014-.026l.07-.13a.101.101 0 0 0 .014-.024c.026-.043.049-.086.075-.127V8.32l.078-.124v-.023c.026-.044.055-.084.081-.125l.017-.023.084-.121V7.88l.087-.119.017-.023.09-.119.017-.02.093-.116.017-.02.096-.113.017-.023c.032-.034.064-.072.098-.107a.078.078 0 0 1 .02-.023c.032-.035.064-.072.099-.107l.02-.023.101-.101.023-.023.102-.099.026-.023c.031-.034.066-.066.1-.098L7.79 6.7l.104-.093.029-.023.104-.09.032-.023.104-.086.035-.024.104-.08.037-.027.104-.078.038-.026.107-.075.04-.026.107-.07.044-.025.104-.067.046-.026.324-.078.046-.026c.035-.02.07-.04.107-.058l.05-.029.106-.055.052-.026.105-.052.057-.026.104-.046.058-.026.104-.046.061-.026.104-.04.064-.024.101-.04.067-.023.1-.035.073-.023.098-.032.073-.02.1-.03.076-.02a.974.974 0 0 1 .098-.026l.078-.02.096-.023.08-.017.1-.02.08-.018.098-.017.084-.015h1.235a7.209 7.209 0 0 1 4.846 1.816c.084.075.162.153.24.232l.13.133a7.243 7.243 0 0 1-1.978 11.401z"/><path d="M11.419 6.29a5.526 5.526 0 0 0-4.416 2.205l-.046.07c-.1.139-.197.283-.289.434a1.318 1.318 0 0 0-.05.086c-.051.09-.1.182-.144.275 0 .029-.026.055-.037.084v.023l-.035.078a.087.087 0 0 0 0 .023 3.909 3.909 0 0 0-.104.255v.031l-.026.073a.226.226 0 0 0-.015.04.65.65 0 0 0-.023.07.29.29 0 0 0-.014.046c-.015.04-.026.08-.04.121a.243.243 0 0 1-.015.05l-.018.063c0 .017 0 .038-.014.055l-.017.06a.463.463 0 0 1-.015.061v.058l-.017.076a.359.359 0 0 1 0 .046c0 .037-.015.075-.02.115v.254a.29.29 0 0 1 0 .047v.379a.249.249 0 0 0 0 .046v.44a.758.758 0 0 1 0 .08v.195a.68.68 0 0 0 .017.217v.117c0 .035 0 .07.014.101A5.543 5.543 0 1 0 11.42 6.29z"/><path d="M12 0C5.373 0 0 5.373 0 12s5.373 12 12 12 12-5.373 12-12A12 12 0 0 0 12 0zm6.758 18a12.723 12.723 0 0 1-5.387 2.313c-.976.187-1.97.26-2.961.217-2.207-.107-4.254-.708-6.038-2.053a7.128 7.128 0 0 1-2.637-3.73 6.966 6.966 0 0 1 .454-5.11 10.14 10.14 0 0 1 4.048-4.305 12.882 12.882 0 0 1 6.801-1.862 11.21 11.21 0 0 1 5.41 1.295 7.747 7.747 0 0 1 3.349 3.311 6.81 6.81 0 0 1 .237 5.76A9.502 9.502 0 0 1 18.758 18z"/></g></svg>