<svg xmlns="http://www.w3.org/2000/svg" width="24" height="24"><g fill="#A8A8AB"><path d="M11.497 9.643a.694.694 0 0 0-.743.691v3.323a.685.685 0 0 0 .509.665.708.708 0 0 0 .775-.33.77.77 0 0 0 .095-.344V10.37a.732.732 0 0 0-.636-.726z"/><path d="M12 0C5.373 0 0 5.373 0 12s5.373 12 12 12 12-5.373 12-12S18.627 0 12 0zM4.858 11.222h2.079c.133 0 .176.04.176.174v1.847c0 .136-.034.185-.179.185H5.072c-.24 0-.24 0-.24.235v2.264c0 .136-.038.17-.17.17H2.535V8.082c0-.145.04-.18.18-.18h4.6c.118 0 .153.038.159.16.038.618.08 1.237.127 1.856 0 .19 0 .2-.174.2H5.023c-.128 0-.18.031-.174.17.015.304.009.607.009.934zm3.406 3.138a4.008 4.008 0 0 1-.704-1.76 3.99 3.99 0 0 1 2.64-4.376 3.47 3.47 0 0 1 1.22-.194 3.834 3.834 0 0 1 3.5 2.23c.38.74.502 1.585.346 2.402a3.854 3.854 0 0 1-2.807 3.18 3.866 3.866 0 0 1-4.196-1.482zm10.763 1.734a.2.2 0 0 1-.203-.127c-.335-.619-.68-1.232-1.018-1.845l-.066-.104c-.032.052-.064.087-.084.13-.336.61-.67 1.222-1.003 1.837a.182.182 0 0 1-.186.112h-2.223c-.044 0-.087 0-.153-.017l.43-.755c.64-1.113 1.276-2.23 1.92-3.342a.217.217 0 0 0-.02-.252l-2.116-3.65c-.024-.037-.04-.08-.076-.144h2.424a.223.223 0 0 1 .234.145c.26.5.529.995.798 1.492.017.035.043.07.075.121.038-.055.07-.092.093-.135l.815-1.498c.04-.073.078-.125.176-.125h2.386c-.093.168-.177.321-.266.475a613.506 613.506 0 0 1-1.9 3.305.211.211 0 0 0 0 .231l2.313 3.993c.023.038.04.078.073.139h-.154c-.751.012-1.509.009-2.27.014z"/></g></svg>