<svg width="13" height="12" xmlns="http://www.w3.org/2000/svg"><path d="M12.259 8.214c-.338-2.62-.673-5.238-1.007-7.858A1.998 1.998 0 0 0 11.108 0C9.509 2.923 7.958 5.778 6.36 8.667a2346.443 2346.443 0 0 0-4.574-8.6l-.14.049C1.104 3.736.555 7.362 0 11.074c.207-.015.414-.015.621 0 .433.067.597-.125.655-.544.226-1.599.481-3.197.722-4.815.106-.693.217-1.386.347-2.21l3.996 7.598 4.083-7.564c.048.183.072.25.082.318.294 2.22.616 4.439.867 6.668.067.55.356.55.741.55s.535-.083.482-.482c-.155-.814-.236-1.599-.337-2.379z" fill-rule="nonzero" fill="#FFF"/></svg>