<svg xmlns="http://www.w3.org/2000/svg" viewBox="0 0 83 83"><defs><style>.cls-1{fill:#a8a8ab;}</style></defs><title>mixpanel</title><g id="Layer_2" data-name="Layer 2"><g id="Layer_1-2" data-name="Layer 1"><path class="cls-1" d="M41.5,0A41.5,41.5,0,1,0,83,41.5,41.5,41.5,0,0,0,41.5,0ZM20.24,49.8a8.3,8.3,0,1,1,8.2-8.33A8.29,8.29,0,0,1,20.24,49.8Zm26.67-2.21a5.82,5.82,0,1,1,5.69-5.87A5.83,5.83,0,0,1,46.91,47.59Zm21.42-3.37a2.52,2.52,0,0,1-2.61-2.63c0-1.74,1-2.63,2.7-2.87,1.67.22,2.78,1.08,2.74,2.82A2.53,2.53,0,0,1,68.33,44.22Z"/></g></g></svg>