<svg width="13" height="13" xmlns="http://www.w3.org/2000/svg"><g fill-rule="nonzero" fill="#FFF"><path d="M12.404 12.063a6.339 6.339 0 0 1-.7-.12c-.488-.117-.596-.26-.596-.759V4.357a6.374 6.374 0 0 0-.224-1.694 2.815 2.815 0 0 0-3.877-2 5.872 5.872 0 0 0-2.825 2.363.224.224 0 0 0-.026.26c.206-.18.403-.35.6-.53a2.766 2.766 0 0 1 2.363-.698 1.87 1.87 0 0 1 1.524 1.147c.202.442.32.918.35 1.403.085 1.368.022 2.74.035 4.106v2.529c0 .417-.107.565-.51.663-.252.058-.512.08-.767.117-.256.036-.233.12-.135.287.091.06.202.083.31.062h4.316a.412.412 0 0 0 .305-.062c.117-.175.005-.207-.143-.247zM4.644 12.036l-.417-.054c-.542-.04-.744-.255-.744-.802V3.81.704c0-.224-.063-.296-.282-.202-.22.094-.386.139-.579.206-.762.27-1.52.534-2.277.807-.094.036-.242.04-.246.17-.005.13.148.144.233.193.233.13.47.26.717.368.257.1.414.362.381.636V11.131c0 .47-.09.605-.542.757-.27.094-.556.148-.834.22-.157.318.103.26.25.26h4.179c.098.019.2-.006.278-.067.09-.144.067-.238-.117-.265z"/></g></svg>