<svg xmlns="http://www.w3.org/2000/svg" viewBox="0 0 83 83"><defs><style>.cls-1{fill:#a8a8ab;}</style></defs><title>newrelic</title><g id="Layer_2" data-name="Layer 2"><g id="Layer_1-2" data-name="Layer 1"><path class="cls-1" d="M63.38,23a26.53,26.53,0,0,0-18.71-7.86h-.19a26.61,26.61,0,1,0,0,53.22h0A26.62,26.62,0,0,0,63.38,23ZM55.84,64h0c-.34.18-.69.34-1.05.5l-.11,0c-.65.3-1.33.56-2,.8l-.37.13-.88.27-1,.26-.63.14-.59.12c-.38.08-.76.14-1.14.2l-.83.1a24.92,24.92,0,0,1-2.75.16,25.24,25.24,0,0,1-4.71-.45l-.59-.12a24.79,24.79,0,0,1-8.47-3.55l-.27-.18q-.4-.27-.81-.57l-.14-.1c-.59-.45-1.17-.92-1.72-1.41l-.5-.47A24.93,24.93,0,0,1,19.47,42v-.65s0-.09,0-.13,0-.35,0-.52a1.09,1.09,0,0,0,0-.18l0-.47c0-.07,0-.13,0-.2s0-.29,0-.44a1.23,1.23,0,0,1,0-.2c0-.15,0-.29,0-.44a1.23,1.23,0,0,1,0-.19l.06-.44,0-.19c0-.14,0-.29.07-.44l0-.18c0-.14.05-.29.08-.44a1,1,0,0,1,0-.17l.09-.45a.94.94,0,0,1,0-.16c0-.15.07-.3.1-.45a.83.83,0,0,0,0-.15l.12-.45s0-.1,0-.14.09-.31.13-.46l.05-.14c0-.15.09-.3.14-.45a.65.65,0,0,0,0-.13c.06-.15.11-.31.16-.46l.05-.12c.05-.15.11-.3.17-.46s0-.07,0-.11.12-.31.19-.46,0-.07,0-.11l.2-.45a.93.93,0,0,1,.05-.1,3.82,3.82,0,0,1,.21-.46l0-.1.23-.45,0-.09.24-.45a.41.41,0,0,1,.05-.09l.24-.45a.35.35,0,0,0,.05-.08c.09-.15.17-.3.26-.44l0-.09.27-.43,0-.08c.09-.15.19-.29.28-.43l.06-.08.29-.42a.35.35,0,0,1,0-.08l.3-.41.06-.08.31-.41.06-.07.32-.4.06-.07.33-.39.06-.08c.11-.12.22-.25.34-.37a.27.27,0,0,1,.07-.08c.11-.12.22-.25.34-.37l.07-.08.35-.35.08-.08.35-.34.09-.08c.11-.12.23-.23.35-.34l.09-.08.36-.32.1-.08.36-.31.11-.08.36-.3.12-.08.36-.28.13-.09.36-.27.13-.09.37-.26.14-.09.37-.24.15-.09.36-.23.16-.09L32,20l.16-.09c.12-.07.24-.14.37-.2l.17-.1.37-.19.18-.09.36-.18.2-.09.36-.16.2-.09.36-.16.21-.09.36-.14.22-.08.35-.14.23-.08.35-.12.25-.08.34-.11.25-.07.35-.1.26-.07a3.37,3.37,0,0,1,.34-.09l.27-.07.33-.08.28-.06.34-.07.28-.06.34-.06.29-.05.33,0,.3,0,.33,0,.31,0,.32,0,.32,0,.32,0,.32,0,.33,0h1.39A24.93,24.93,0,0,1,61.4,23.31c.29.26.56.53.83.8h0l.45.46c.24.26.49.53.72.8A25.05,25.05,0,0,1,55.84,64Z"/><path class="cls-1" d="M39.49,21.75a19.11,19.11,0,0,0-15.27,7.63l-.16.24q-.52.72-1,1.5v0c-.06.1-.12.2-.17.3v0c-.18.31-.35.63-.5.95h0c0,.1-.09.19-.13.29l0,.08-.12.27a.3.3,0,0,0,0,.08c-.13.29-.25.58-.36.88,0,0,0,.07,0,.11l-.09.25a.78.78,0,0,0-.05.14,2.25,2.25,0,0,0-.08.24,1,1,0,0,0-.05.16c-.05.14-.09.28-.14.42a.84.84,0,0,1-.05.17l-.06.22c0,.06,0,.13-.05.19l-.06.21a1.6,1.6,0,0,1-.05.21c0,.07,0,.14,0,.2l-.06.26a1.24,1.24,0,0,1,0,.16c0,.13-.05.26-.07.4l0,.16c0,.09,0,.18,0,.27l0,.17c0,.09,0,.18,0,.28a1,1,0,0,1,0,.16c0,.12,0,.23,0,.35s0,0,0,.08,0,.29,0,.43,0,.1,0,.14,0,.21,0,.31a.86.86,0,0,0,0,.16c0,.1,0,.21,0,.31v.14c0,.15,0,.3,0,.45v.62a2.62,2.62,0,0,1,0,.28,1.48,1.48,0,0,1,0,.21c0,.07,0,.15,0,.22s0,.16,0,.24a.34.34,0,0,0,0,.1c0,.22,0,.44.06.65v0c0,.12,0,.23,0,.35v.06c0,.12,0,.24.05.35A19.17,19.17,0,1,0,39.49,21.75Z"/><path class="cls-1" d="M41.5,0A41.5,41.5,0,1,0,83,41.5,41.5,41.5,0,0,0,41.5,0ZM64.87,62.25a44,44,0,0,1-18.63,8A44.36,44.36,0,0,1,36,71c-7.63-.37-14.71-2.45-20.88-7.1A24.65,24.65,0,0,1,6,51,24.09,24.09,0,0,1,7.57,33.33a35.07,35.07,0,0,1,14-14.89A44.55,44.55,0,0,1,38,12.5,45.45,45.45,0,0,1,45.09,12,38.81,38.81,0,0,1,63.8,16.48,26.79,26.79,0,0,1,75.38,27.93a23.55,23.55,0,0,1,.82,19.92A32.86,32.86,0,0,1,64.87,62.25Z"/></g></g></svg>