<svg xmlns="http://www.w3.org/2000/svg" viewBox="0 0 83 83"><g data-name="Layer 2"><path d="M41.5 0A41.5 41.5 0 1 0 83 41.5 41.5 41.5 0 0 0 41.5 0zm.06 13.59a4 4 0 1 1-4 4 4 4 0 0 1 4-4zM36.9 24.15a10.42 10.42 0 0 1 9.47 6.09 11.74 11.74 0 0 1 .5 1.33v.06a8.58 8.58 0 0 1 .27 1.22v.32a10.24 10.24 0 0 1 .1 1.36 10 10 0 0 1-.06 1.1.59.59 0 0 1 0 .14c0 .32-.08.63-.15.94v.06a10.34 10.34 0 0 1-.65 2 10.23 10.23 0 0 1-.83 1.53 10.47 10.47 0 0 1-1.1 1.37 10.41 10.41 0 0 1-3.85 2.63l-.15.06a9.12 9.12 0 0 1-.93.28l-.25.07a8.72 8.72 0 0 1-.89.16l-.29.05a11.53 11.53 0 0 1-1.19.08c-.32 0-.64 0-1-.05h-.34c-.2 0-.4 0-.59-.09l-.42-.09-.46-.11-.47-.14-.24-.09a10.4 10.4 0 0 1-2-.94 7.31 7.31 0 0 1-.65-.43 10.41 10.41 0 0 1 6.17-18.91zM50.11 42.9a15.19 15.19 0 0 0-3.7 5.73 15.4 15.4 0 0 1-2.64-4A12.23 12.23 0 0 0 47.2 41a15.17 15.17 0 0 1 2.91 1.9zM16 44.74a6 6 0 1 1 6-6 6 6 0 0 1-6 6zm24.48 24.67a15 15 0 0 1-11-25.22 12 12 0 0 0 12.76 1.27 16.87 16.87 0 0 0 3.58 5.09 14.74 14.74 0 0 0-.33 3.14 15 15 0 0 0 5.37 11.5 14.92 14.92 0 0 1-10.38 4.22zm17.24-15.74A15.15 15.15 0 0 1 48 50.12a14.34 14.34 0 0 1 1.25-3.35 13.08 13.08 0 0 1 2.09-2.62 1.7 1.7 0 0 0 .51-1 15 15 0 0 1 20.63-.75 15.29 15.29 0 0 1-14.76 11.27zm4.81-16.75a16.65 16.65 0 0 0-11.43 4.55 17.1 17.1 0 0 0-3.08-2 12.07 12.07 0 0 0-1.14-11.82A15.25 15.25 0 0 1 73 38.38a14.79 14.79 0 0 1-.16 2.12 16.68 16.68 0 0 0-10.31-3.58z" fill="#a8a8ab" data-name="Layer 1"/></g></svg>