<svg xmlns="http://www.w3.org/2000/svg" viewBox="0 0 83 83"><defs><style>.cls-1{fill:#a8a8ab;}</style></defs><title>outbrain</title><g id="Layer_2" data-name="Layer 2"><g id="Layer_1-2" data-name="Layer 1"><path class="cls-1" d="M-1165-1348.61a4.46,4.46,0,0,0,4.42,4.42,4.36,4.36,0,0,0,4.36-4.36,4.26,4.26,0,0,0-4.3-4.36A4.34,4.34,0,0,0-1165-1348.61Z" transform="translate(1194 1396)"/><path class="cls-1" d="M-1148.9-1348.55a4.44,4.44,0,0,0,4.41,4.35,4.28,4.28,0,0,0,4.37-4.4,4.21,4.21,0,0,0-4.34-4.31A4.39,4.39,0,0,0-1148.9-1348.55Z" transform="translate(1194 1396)"/><path class="cls-1" d="M-1132.93-1348.15c-.81,0-1.63,0-2.44,0a3.4,3.4,0,0,0-1.62.15c-.31.19-.28.91-.4,1.39l0,.07a7.42,7.42,0,0,1-11.43,3.8,6.76,6.76,0,0,1-2.74-4.23c-.13-.67-.53-.62-1-.62s-.77,0-.84.61a4.76,4.76,0,0,1-.51,1.5,7.17,7.17,0,0,1-7.79,4,6.88,6.88,0,0,1-5.78-4.84c-.21-.59-.18-1.45-.57-1.71s-1.27-.12-1.93-.14h-.23c-.56,0-1.12,0-1.68,0s-.93.18-.82.83c.23,1.47.38,3,.73,4.41a18.14,18.14,0,0,0,5.38,9.07,19.71,19.71,0,0,0,11.64,5.33,20.2,20.2,0,0,0,11.62-1.91c6.94-3.55,10.63-9.27,11-17.09C-1132.3-1348-1132.49-1348.16-1132.93-1348.15Z" transform="translate(1194 1396)"/><path class="cls-1" d="M-1152.5-1396a41.5,41.5,0,0,0-41.5,41.5,41.5,41.5,0,0,0,41.5,41.5,41.5,41.5,0,0,0,41.5-41.5A41.5,41.5,0,0,0-1152.5-1396Zm21.7,63.38a29.78,29.78,0,0,1-11,6.75,29.3,29.3,0,0,1-10.71,1.71,29.23,29.23,0,0,1-13.13-2.67,29.33,29.33,0,0,1-13.72-12.42,28.83,28.83,0,0,1-3.4-9.21,33.14,33.14,0,0,1-.1-11.37,29.15,29.15,0,0,1,7.4-15.3,29.83,29.83,0,0,1,12.66-8.13,24,24,0,0,1,6.43-1.34,54.31,54.31,0,0,1,6.37-.21,29,29,0,0,1,7.13,1.33,31.17,31.17,0,0,1,9.31,4.75,29.46,29.46,0,0,1,9.31,11.82,30.79,30.79,0,0,1,2.37,15.41A29.26,29.26,0,0,1-1130.8-1332.62Z" transform="translate(1194 1396)"/><path class="cls-1" d="M-1171.85-1351.23c1.3,0,2.59,0,3.89,0a1.15,1.15,0,0,0,.8-.52,7.34,7.34,0,0,1,4.79-3.76,7.24,7.24,0,0,1,8.59,4.28c.27.71.68.73,1.27.75s1-.08,1.28-.74a6.44,6.44,0,0,1,.8-1.54c3-4.28,10.09-3.87,12.41.83a1.2,1.2,0,0,0,1.26.74c1.09,0,2.19,0,3.28,0,.93,0,1.11-.13.87-1-.46-1.62-1-3.22-1.6-4.81a1,1,0,0,0-.58-.53c-2.51-.88-5-1.72-7.53-2.62-3.43-1.22-6.6-2.84-8.92-5.79a1.07,1.07,0,0,0-.26-.19c-.72.74-1.31,1.47-2,2.07-2.85,2.39-6.27,3.65-9.74,4.81-2.4.79-4.81,1.54-7.21,2.33a1,1,0,0,0-.61.5c-.49,1.51-1,3-1.39,4.55C-1172.59-1351.45-1172.35-1351.23-1171.85-1351.23Z" transform="translate(1194 1396)"/></g></g></svg>