<svg xmlns="http://www.w3.org/2000/svg" width="24" height="24"><path fill="#A8A8AB" d="M12 0C5.373 0 0 5.373 0 12s5.373 12 12 12 12-5.373 12-12A12 12 0 0 0 12 0zm.017 3.93a1.157 1.157 0 1 1 0 2.313 1.157 1.157 0 0 1 0-2.313zM10.67 6.983a3.013 3.013 0 0 1 2.883 2.146v.017c.034.116.06.233.078.353v.092a2.961 2.961 0 0 1 .011.752c0 .093-.023.182-.043.272v.017a2.99 2.99 0 0 1-.746 1.417 3.01 3.01 0 0 1-1.113.76l-.044.018a2.637 2.637 0 0 1-.269.081l-.072.02c-.085.02-.17.035-.257.046l-.084.015c-.114.014-.23.021-.344.023-.093 0-.185 0-.29-.014h-.098c-.057 0-.115 0-.17-.026l-.122-.026-.133-.032-.136-.04-.069-.027a3.007 3.007 0 0 1-.766-.396 3.01 3.01 0 0 1 1.784-5.468zm3.82 5.422a4.392 4.392 0 0 0-1.07 1.657 4.453 4.453 0 0 1-.764-1.157c.4-.278.737-.635.992-1.05.3.15.583.335.842.55zm-9.863.532a1.735 1.735 0 1 1 0-3.47 1.735 1.735 0 0 1 0 3.47zm7.078 7.133a4.337 4.337 0 0 1-3.18-7.292 3.47 3.47 0 0 0 3.689.367c.25.55.602 1.05 1.035 1.472a4.337 4.337 0 0 0 1.457 4.233 4.314 4.314 0 0 1-3 1.22zm4.985-4.551a4.38 4.38 0 0 1-2.81-1.026c.08-.337.2-.663.361-.97a3.8 3.8 0 0 1 .604-.757.492.492 0 0 0 .148-.289 4.337 4.337 0 0 1 5.965-.217 4.421 4.421 0 0 1-4.268 3.259zm1.391-4.843c-1.23 0-2.412.47-3.305 1.315a4.945 4.945 0 0 0-.89-.578 3.49 3.49 0 0 0-.33-3.418 4.41 4.41 0 0 1 7.506 3.716 4.823 4.823 0 0 0-2.981-1.035z"/></svg>