<svg width="16" height="16" xmlns="http://www.w3.org/2000/svg"><path d="M8.113 15.53a7.219 7.219 0 0 1-3.257-.66 7.247 7.247 0 0 1-3.407-3.082 7.153 7.153 0 0 1-.847-2.282A8.362 8.362 0 0 1 .58 6.682a7.228 7.228 0 0 1 1.84-3.797A7.393 7.393 0 0 1 5.558.865 6.028 6.028 0 0 1 7.153.533 13.69 13.69 0 0 1 8.734.47c.6.039 1.195.15 1.77.329.83.262 1.611.66 2.31 1.181a7.318 7.318 0 0 1 2.31 2.937 7.614 7.614 0 0 1 .589 3.82 7.252 7.252 0 0 1-2.217 4.707 7.421 7.421 0 0 1-2.724 1.675 7.355 7.355 0 0 1-2.66.41zM3.708 9.58h-.414c-.136 0-.23.047-.207.207.061.367.094.734.184 1.097a4.494 4.494 0 0 0 1.336 2.244 4.861 4.861 0 0 0 2.89 1.323 4.979 4.979 0 0 0 2.88-.47 4.739 4.739 0 0 0 2.738-4.236c0-.122-.037-.16-.146-.155h-.607a.814.814 0 0 0-.404.037c-.076.047-.066.221-.1.344a1.84 1.84 0 0 1-2.823.94 1.661 1.661 0 0 1-.696-1.03c-.033-.164-.132-.155-.25-.155-.117 0-.188 0-.207.155-.023.13-.066.255-.127.372a1.784 1.784 0 0 1-1.934.998 1.718 1.718 0 0 1-1.412-1.205c-.051-.146-.042-.358-.14-.423-.1-.066-.316-.029-.471-.033l-.09-.01zm4.65-4.48c-.18.184-.325.367-.5.513-.72.55-1.54.956-2.413 1.195l-1.793.58a.264.264 0 0 0-.15.122c-.123.376-.236.753-.344 1.134-.033.117 0 .174.15.17h.965a.278.278 0 0 0 .198-.133 1.821 1.821 0 0 1 1.19-.94 1.798 1.798 0 0 1 2.132 1.063c.066.174.17.179.315.188a.278.278 0 0 0 .32-.188c.048-.136.115-.264.198-.381a1.835 1.835 0 0 1 3.078.207c.051.125.18.2.315.183h.814c.273 0 .273-.033.212-.25-.113-.404-.254-.8-.396-1.195a.24.24 0 0 0-.145-.131c-.622-.222-1.248-.429-1.883-.65a4.659 4.659 0 0 1-2.197-1.44.287.287 0 0 0-.066-.047zm2.823 4.367A1.045 1.045 0 0 0 10.104 8.4a1.082 1.082 0 0 0-1.097 1.082c.01.597.495 1.076 1.092 1.078a1.054 1.054 0 0 0 1.082-1.092zm-3.981 0A1.059 1.059 0 0 0 6.118 8.4a1.082 1.082 0 0 0-1.11 1.068 1.11 1.11 0 0 0 1.11 1.097A1.092 1.092 0 0 0 7.2 9.482v-.014z" fill-rule="nonzero" fill="#FFF"/></svg>