<svg xmlns="http://www.w3.org/2000/svg" viewBox="0 0 83 83"><defs><style>.cls-1{fill:#a8a8ab;}</style></defs><title>quantcast</title><g id="Layer_2" data-name="Layer 2"><g id="Layer_1-2" data-name="Layer 1"><path class="cls-1" d="M45.76,24.26a14.38,14.38,0,0,0-16.41,7.38,15.21,15.21,0,0,0,3.52,19c4.83,4,10.32,4.67,16.05,2.25,4.9-2.07,8-5.4,6.61-11.25-.13-2.07-.12-4.16-.41-6.21C54.32,29.73,50.71,25.48,45.76,24.26Z"/><path class="cls-1" d="M41.5,0a41.5,41.5,0,1,0,14,80.57V59C48.8,63.42,42.15,64.68,35,62.65a24.53,24.53,0,0,1,8-48c12.07.39,21.5,9.07,22,21.85s.3,25.86.2,39A41.5,41.5,0,0,0,41.5,0Z"/></g></g></svg>