<svg xmlns="http://www.w3.org/2000/svg" width="24" height="24"><path fill="#A8A8AB" d="M12 0C5.373 0 0 5.373 0 12s5.373 12 12 12 12-5.373 12-12A12 12 0 0 0 12 0zm6.162 15.476c-.457.07-.922.062-1.376-.023a.084.084 0 0 0-.105.049 3.065 3.065 0 0 1-3.909 1.243c-.066-.029-.087-.02-.119.046a3.432 3.432 0 0 1-2.62 2.024 3.487 3.487 0 0 1-3.83-2.174c-.027-.067-.056-.078-.12-.067a3.14 3.14 0 0 1-2.613-.67 3.16 3.16 0 0 1-1.19-2.024 3.262 3.262 0 0 1 .666-2.603c.231-.302.518-.558.844-.755.055-.034.063-.063.037-.124a3.808 3.808 0 0 1 .657-3.93 3.64 3.64 0 0 1 2.047-1.211 3.71 3.71 0 0 1 3.18.749c.216.168.41.362.58.578.045.06.068.046.112 0a3.395 3.395 0 0 1 4.282-.442c.45.294.825.69 1.093 1.156.04.07.073.07.136.044a4.106 4.106 0 0 1 3.27.02 4.196 4.196 0 0 1 2.461 3.039c.062.285.092.576.09.867a4.245 4.245 0 0 1-1.157 2.947 4.118 4.118 0 0 1-2.417 1.26z"/></svg>