<svg xmlns="http://www.w3.org/2000/svg" width="24" height="24"><g fill="#A8A8AB"><path d="M13.099 15.739c-.194 0-.387-.012-.579-.038l-1.596-.133-1.495-.127c-.416-.038-.835-.067-1.252-.104-.26-.023-.52-.038-.78-.07a.688.688 0 0 1-.625-.647v-3.13a.492.492 0 0 1 .017-.194l.02-.023v-.07c-.262.027-.529.047-.792.064-.115 0-.228.026-.347.026-.069 0-.095.044-.092.105 0 .185-.023.37-.023.555v3.606c0 .225.026.45.023.679 0 .124.017.142.147.162.41.058.824.116 1.235.18.772.115 1.547.219 2.313.335.917.136 1.84.257 2.756.396.318.049.639.098.96.136.142.017.162 0 .162-.142v-1.388c-.008-.06 0-.12.023-.176a.052.052 0 0 1-.046 0l-.03-.003z"/><path d="M7.943 11.326v2.739c0 .078.029.107.107.115.29.032.552.026.83.044.512.029 1.024.043 1.533.066l.725.032c.419.011.838.032 1.258.06h.764a.379.379 0 0 1-.018-.17v-3.293c0-.229 0-.235-.231-.226-.231.009-.538.043-.804.07-.393.034-.784.054-1.174.092-.509.05-1.02.087-1.53.13l-.899.075c-.08.007-.16.007-.24 0h-.017c-.026.04-.075.04-.119.047a.98.98 0 0 1-.225 0v.028h.031c.017.063.02.128.01.191z"/><path d="M17.653 6.841c-.758.13-1.512.29-2.27.411-.598.104-1.197.217-1.796.327a.77.77 0 0 1-.182.026.67.67 0 0 0-.11-.015c-.33.07-.662.122-.994.18-.333.057-.691.127-1.035.19l-.2.027v.026a.578.578 0 0 1-.275.075c-.361.063-.723.136-1.087.196-.364.061-.68.125-1.02.183-.191.031-.377.075-.579.1-.142.021-.162.047-.162.186v1.073c0 .057 0 .118-.035.164a.07.07 0 0 1 0 .023c.29-.052.596-.09.894-.118.37-.04.74-.093 1.11-.136l2.178-.257 1.5-.185c.134-.018.269-.018.402 0a.61.61 0 0 1 .515.407c.04.105.06.217.058.33v4.239c0 .058 0 .124-.035.17.19.038.385.052.578.044.692 0 1.383.072 2.074.081.202 0 .407 0 .61.029.104 0 .13-.017.136-.122V7.047c-.023-.255-.023-.252-.275-.206z"/><path d="M12 0C5.373 0 0 5.373 0 12s5.373 12 12 12 12-5.373 12-12A12 12 0 0 0 12 0zm7.408 15.481a.685.685 0 0 1-.81.712c-.315-.046-.636-.052-.95-.084-.423-.04-.845-.064-1.264-.11-.235-.023-.469-.035-.703-.055-.379-.035-.758-.046-1.136-.101l-.032.032v2.264a.677.677 0 0 1-.868.711c-.642-.13-1.286-.231-1.928-.344l-1.383-.252-1.917-.344-2.087-.367-1.261-.22a.653.653 0 0 1-.471-.552V11.11a.772.772 0 0 1 .135-.512.43.43 0 0 1 .238-.171c.145-.063.301-.095.46-.095.448-.058.896-.11 1.344-.162l.032-.015v-1.96a.633.633 0 0 1 .442-.541c.393-.095.787-.176 1.18-.263l.867-.194 1.079-.24 1.63-.356 1.8-.39 1.581-.356 1.576-.338c.306-.066.61-.153.917-.208.285-.073.575-.128.867-.162a.65.65 0 0 1 .648.708v.15c.006 3.158.01 6.317.014 9.476z"/></g></svg>