<svg xmlns="http://www.w3.org/2000/svg" width="24" height="24"><path fill="#A8A8AB" d="M12 0C5.373 0 0 5.373 0 12s5.373 12 12 12 12-5.373 12-12S18.627 0 12 0zM2.851 9.831a1.003 1.003 0 0 1-.71-1.714 1.003 1.003 0 0 1 1.419 0c.187.19.292.445.292.711a1.003 1.003 0 0 1-1 1.018V9.83zm16.537 5.992h-2.024a1.596 1.596 0 0 1-1.593-1.594V9.78a.29.29 0 0 0-.272-.274H4.627v-1.38h10.959c.878 0 1.591.712 1.593 1.59v4.454a.272.272 0 0 0 .272.289h1.946l-.009 1.365zm1.764.326a1.006 1.006 0 0 1 0-2.012 1.003 1.003 0 0 1 1 1.006 1.003 1.003 0 0 1-1 1.02v-.014z"/></svg>