<svg viewBox="0 0 24 24" fill="none" xmlns="http://www.w3.org/2000/svg">
  <path d="M14.331 11.998c0-1.289-1.044-2.333-2.333-2.333-1.288 0-2.332 1.044-2.332 2.333 0 1.288 1.044 2.332 2.332 2.332 1.289 0 2.333-1.044 2.333-2.332z" fill="#A8A8AB"/>
  <path fill-rule="evenodd" clip-rule="evenodd" d="M11.765 6.261h-.394V6.26c-1.305.002-1.555.01-2.2.04-.683.031-1.053.145-1.3.24-.326.128-.56.28-.804.525-.245.245-.397.478-.524.804-.096.247-.21.617-.241 1.3-.034.737-.04.958-.04 2.826 0 1.87.006 2.09.04 2.828.03.683.145 1.053.24 1.3.128.326.28.559.525.804.244.245.478.396.804.523.247.096.617.21 1.3.241.737.034.959.041 2.827.041 1.869 0 2.09-.007 2.828-.04.682-.032 1.053-.146 1.3-.242.326-.127.559-.278.803-.523.245-.245.397-.477.524-.804.096-.246.21-.617.241-1.3.034-.737.041-.958.041-2.826 0-1.867-.007-2.089-.04-2.827-.032-.682-.146-1.052-.242-1.299-.127-.326-.279-.56-.523-.804-.245-.245-.478-.397-.805-.524-.246-.096-.617-.21-1.299-.24-.738-.034-.96-.04-2.828-.04l-.233-.001zm3.13 2.001c0-.463.375-.839.839-.839.463 0 .84.376.84.84 0 .463-.377.84-.84.84-.464 0-.84-.377-.84-.84zm-6.49 3.736c0-1.985 1.609-3.594 3.593-3.594 1.985 0 3.594 1.61 3.594 3.594 0 1.984-1.609 3.593-3.594 3.593-1.984 0-3.593-1.609-3.593-3.593z" fill="#A8A8AB"/>
  <path fill-rule="evenodd" clip-rule="evenodd" d="M12 24c6.627 0 12-5.373 12-12S18.627 0 12 0 0 5.373 0 12s5.373 12 12 12zM9.113 5.042c.746-.034.985-.042 2.885-.042h-.002c1.901 0 2.139.008 2.885.042.745.034 1.254.152 1.7.325.46.179.85.418 1.24.807.389.39.628.78.807 1.24.172.445.29.953.325 1.698.034.747.043.985.043 2.886 0 1.9-.01 2.138-.043 2.885-.035.744-.153 1.253-.325 1.698-.18.46-.418.85-.808 1.24-.388.389-.778.628-1.238.807-.445.173-.955.291-1.7.325-.746.034-.984.043-2.884.043s-2.14-.009-2.886-.043c-.744-.034-1.253-.152-1.698-.325-.46-.179-.85-.418-1.24-.808-.389-.389-.628-.779-.807-1.24-.173-.444-.29-.953-.325-1.698-.034-.746-.042-.984-.042-2.884s.009-2.14.042-2.886c.034-.744.152-1.253.325-1.698.18-.46.419-.85.808-1.24.389-.389.78-.628 1.24-.807.444-.173.953-.29 1.698-.325z" fill="#A8A8AB"/>
</svg>
