<svg viewBox="0 0 24 24" fill="none" xmlns="http://www.w3.org/2000/svg">
  <path d="M14.627 12.089l-4.179-2.396v4.793l4.179-2.397z" fill="#A8A8AB"/>
  <path fill-rule="evenodd" clip-rule="evenodd" d="M12 24c6.627 0 12-5.373 12-12S18.627 0 12 0 0 5.373 0 12s5.373 12 12 12zm7.645-15.751c-.186-.69-.724-1.23-1.413-1.414-.926-.357-9.893-.532-12.495.01-.689.187-1.229.725-1.413 1.414-.418 1.833-.45 5.796.01 7.67.187.69.724 1.23 1.414 1.414 1.833.422 10.548.481 12.494 0 .69-.187 1.229-.724 1.413-1.413.446-1.998.477-5.715-.01-7.681z" fill="#A8A8AB"/>
</svg>
