<svg xmlns="http://www.w3.org/2000/svg" width="24" height="24"><path fill="#A8A8AB" d="M12 0C5.373 0 0 5.373 0 12s5.373 12 12 12 12-5.373 12-12A12 12 0 0 0 12 0zm-1.735 18.656a.385.385 0 0 1-.31.073H5.217c-.167 0-.46.063-.289-.29.315-.08.636-.141.943-.245.509-.174.607-.324.61-.868V8.015a.685.685 0 0 0-.408-.717c-.289-.121-.543-.271-.806-.416-.102-.055-.27-.067-.266-.214.002-.148.173-.156.289-.194.867-.31 1.714-.607 2.57-.91.22-.076.443-.142.654-.235.21-.092.32-.026.318.229v11.829c0 .613.228.867.838.905.16 0 .316.043.472.06.2.027.225.137.136.304h-.012zm8.779 0a.477.477 0 0 1-.347.07h-4.864a.454.454 0 0 1-.344-.07c-.113-.185-.07-.289.15-.323.292-.03.581-.074.868-.133.457-.11.578-.29.578-.75V14.6c0-1.545.052-3.092-.04-4.627a4.5 4.5 0 0 0-.396-1.587 2.12 2.12 0 0 0-1.735-1.296 3.111 3.111 0 0 0-2.666.79c-.223.199-.448.393-.68.598a.263.263 0 0 1 .03-.29c.812-1.188 1.806-2.16 3.18-2.665 1.99-.726 3.814.217 4.38 2.258.17.623.254 1.266.252 1.912v7.697c0 .56.119.723.674.867.26.064.526.099.79.136.21.015.312.067.181.266l-.011-.003z"/></svg>