<svg viewBox="0 0 24 24" fill="none" xmlns="http://www.w3.org/2000/svg">
  <path fill-rule="evenodd" clip-rule="evenodd" d="M12 24c6.627 0 12-5.373 12-12S18.627 0 12 0 0 5.373 0 12s5.373 12 12 12zm0-11.817L9.12 17.138c-.758 1.302-2.435 1.749-3.747.997-1.312-.752-1.761-2.418-1.004-3.72l.017-.03 5.248-9.023c.757-1.302 2.434-1.749 3.746-.997.518.297.901.736 1.13 1.239l5.123 8.811c.758 1.302.308 2.968-1.004 3.72-1.312.752-2.989.305-3.746-.997l-.005-.009L12 12.183zm-.578-.995l-2.111 3.63c-.216-.57-.624-1.072-1.196-1.4-.573-.328-1.215-.428-1.82-.328l3.14-5.398c.053.143.119.284.198.42l1.789 3.076z" fill="#A8A8AB"/>
</svg>
