<svg xmlns="http://www.w3.org/2000/svg" width="24" height="24"><g fill="#A8A8AB"><path d="M20.994 9.734l-.051-.02-.106.037c-.668.606-1.203 1.966-1.606 2.766l-.157.406.263-.286c.286-.331 2.266-2.414 1.657-2.903zm-4.811 3.069l-.069-.054-.071-.035h-.229c-.871.397-2 1.82-1.78 2.82l.017.052h.035l.088-.035c.523-.231.903-.685 1.34-1.04l.157-.177L16 14l.16-.211.106-.212.054-.211v-.195l-.034-.211-.035-.086-.068-.071zm5.888.546l.106-.089.069-.089.088-.105.089-.089.054-.086.034-.071.018-.071-.018-.035-.071-.054h-.069l-.088.02c-.36.22-.472.626-.634.986l-.02.071h.037l.105-.106.106-.088.194-.194z"/><path d="M7.389 5.557l.157-.034h.265l.123.017c.983.163.843 1.28.572 1.974l-.14.317-.16.318C7.5 9.39 6.477 10.003 5.229 10.546l-.178.071-.174.052v.017l-.02.02-.14.034-.16.034-.123-.017-.105-.034-.106-.054-.052-.069-.017-.106.017-.105.052-.089.071-.106c.606-.391 1.183-.571 1.815-1.023l.422-.285v-.017l.355-.286.285-.286c.606-.537 1.572-2.44-.105-1.834l-.14.054-.157.052c-2.08 1.008-4.409 4.045-5.463 6.002l-.14.3-.14.272-.106.246-.063.205c-.503 1.872 1.143 1.932 2.52 1.8l.3-.037.286-.034.263-.054c.917-.243 1.003-.595 1.488-1.269l.335-.423.317-.368c.468-.572 1.323-1.38 2.131-1.235l.177.052.177.088.14.143.123.157.089-.034.106-.037h.12l.088.037.089.069.068.088.037.089.018.123-.035.142-.177.369-.16.334a6.334 6.334 0 0 0-.614 1.675l-.02.105-.017.089.285-.194.3-.229.286-.286.286-.285.266-.338.285-.334.235-.368.265-.338.246-.351.229-.334.228-.286.097-.12.089-.034.106-.037.105.02.089.051.051.054.055.123.034.14.017.143.054.351.106.669a6.12 6.12 0 0 1-.017 1.463l-.054.231-.089.212-.106.157.072-.052c.957-.76 2.971-4.62 4.503-3.205l.125.157.086-.052h.203l.088.018.106.071.054.069.052.105v.123l-.017.143-.195.389-.174.334-.143.317a5.446 5.446 0 0 0-.474 1.463l-.02.088v.052l.089-.017c.497-.335.857-.837 1.271-1.252h.017l.017-.034.017-.106c.343-.928 2.286-6.857 3.843-4.708l.089.143.034.122.037.123c.223 1.363-2.571 3.903-3.368 4.832v.351c-.06 1.323 1.08.474 1.605.072l.272-.232.286-.266.317-.285.017-.369.071-.334c.046-.617.82-1.977 1.603-1.569l.212.086.142.143c.775.654-.285 1.446-.76 1.868l-.262.246-.286.246.031.234c.157.857.512 1.077 1.24 1.229A11.857 11.857 0 1 0 0 11.857c0 .43.022.859.069 1.286 1.188-2.426 4.58-6.957 7.32-7.586z"/><path d="M21.1 15.5l-.069-.249-.354.286c-.814.76-2.391 1.609-2.871.054l-.055-.194-.068.089c-.572.731-1.926 1.477-2 .017l.02-.194-.4.348c-.543.46-1.789 1.189-2.029.037l-.034-.177-.177.212c-.42.408-.957.808-1.534.44l-.035-.072-.263.106-.285.071-.286.035-.286.02-.248-.02-.229-.018-.211-.034-.16-.034-.097-.037-.089-.017H9.2l-.071.034-.106.037-.229.069-.211.037c-.392-.097-.572-.235-.617-.672V15.5l.017-.194-.42.351c-.572.417-1.7 1.157-2.043.072l-.037-.178-.286.106-.317.106c-1.026.406-2.911.74-4.111.311a11.857 11.857 0 0 0 22.088.186c-.768.126-1.457.183-1.757-.76z"/><path d="M11.671 13.209l-.16.194a17.143 17.143 0 0 1-1.602 1.866l-.178.177.178.017c1.948.163 2.048-.286 1.814-2.06l-.052-.194zm-3.314-.478l-.071-.017-.052-.017h-.088l-.072.017-.085.017-.089.035c-.483.268-.634.571-1.006.971L6.683 14l-.123.211-.123.232-.071.246-.072.285-.034.263.017.286.017.034.055.017.068-.017.106-.051.106-.077.142-.089c.412-.313.8-.655 1.163-1.023l.335-.334.16-.212c.191-.268.274-.854-.072-1.04z"/></g></svg>