<svg xmlns="http://www.w3.org/2000/svg" width="24" height="24"><path fill="#A8A8AB" d="M12 0C5.373 0 0 5.373 0 12s5.373 12 12 12 12-5.373 12-12A12 12 0 0 0 12 0zm5.584 17.283c-.373 0-.651.023-.712-.515-.243-2.137-.55-4.265-.832-6.396 0-.066-.035-.133-.079-.29-1.315 2.441-2.602 4.795-3.92 7.262-1.293-2.458-2.53-4.818-3.832-7.29-.124.79-.228 1.446-.332 2.12-.235 1.532-.475 3.065-.691 4.603-.058.399-.214.578-.634.517a3.999 3.999 0 0 0-.592 0L7.538 6.798l.133-.046 4.393 8.24c1.526-2.798 3.018-5.516 4.554-8.321.056.108.101.221.136.338.326 2.516.645 5.031.968 7.544.096.75.171 1.501.29 2.244.083.405-.052.497-.428.486z"/></svg>