<svg xmlns="http://www.w3.org/2000/svg" width="24" height="24"><g fill="#A8A8AB"><path d="M10.265 12.364c0 1.735 2.863 2.134 2.863-.578V10.41c-1.145.026-2.863.35-2.863 1.954z"/><path d="M12 0C5.373 0 0 5.373 0 12s5.373 12 12 12 12-5.373 12-12A12 12 0 0 0 12 0zm-.078 6.477s-1.29 0-1.842 1.683l-2.501-.231c0-1.675 1.59-3.545 4.58-3.545s3.82 1.937 3.82 2.799v5.002c0 .934 1.099 1.793 1.099 1.793l-1.932 1.905a15.846 15.846 0 0 1-1.541-1.59c-1.536 2.406-6.24 2.253-6.24-1.469 0-3.47 4.109-3.935 5.763-3.996 0-1.336.173-2.354-1.206-2.35zm5.832 10.872c-.263.342-2.382 2.279-5.933 2.279-3.551 0-6.275-2.443-7.108-3.435-.231-.26.035-.385.188-.29 2.493 1.513 6.385 4.005 12.665 1.03.255-.127.451.067.188.416zm1.353.076c-.159.4-.406.762-.722 1.055-.185.15-.321.09-.22-.13s.656-1.579.43-1.868c-.225-.29-1.257-.145-1.63-.11-.373.035-.443.07-.477 0-.078-.194.737-.526 1.275-.596.538-.069 1.394-.026 1.564.194.127.15 0 .9-.22 1.443v.012z"/></g></svg>