<svg xmlns="http://www.w3.org/2000/svg" width="24" height="24"><g fill="#A8A8AB"><path d="M13.232 7.015a4.158 4.158 0 0 0-4.745 2.134 4.398 4.398 0 0 0 1.018 5.494c1.396 1.157 2.984 1.35 4.64.65 1.417-.598 2.314-1.561 1.912-3.253-.038-.598-.035-1.202-.119-1.795-.231-1.648-1.275-2.877-2.706-3.23z"/><path d="M12 0a12 12 0 1 0 4.048 23.297V17.06c-1.937 1.278-3.86 1.643-5.928 1.056a7.093 7.093 0 0 1 2.314-13.88c3.49.113 6.217 2.623 6.361 6.318.145 3.696.087 7.478.058 11.277A12 12 0 0 0 12 0z"/></g></svg>