<svg xmlns="http://www.w3.org/2000/svg" width="24" height="24"><g fill="#A8A8AB"><path d="M5.884 10.17c-.26.867-.523 1.735-.79 2.622h1.603c-.266-.885-.526-1.755-.79-2.625l-.023.003z"/><path d="M12 0C5.373 0 0 5.373 0 12s5.373 12 12 12 12-5.373 12-12A12 12 0 0 0 12 0zM7.59 15.461l-.37-1.093H4.551c-.133.365-.266.729-.402 1.096H2.125c0-.095 2.918-7.518 3.013-7.677H6.68l2.978 7.657c-.09.035-1.793.046-2.068.017zm7.735-.945a2.81 2.81 0 0 1-2.024 1.098 3.33 3.33 0 0 1-1.446-.144 2.892 2.892 0 0 1-1.894-1.978 3.117 3.117 0 0 1 1.027-3.372c.36-.28.785-.467 1.235-.546a3.438 3.438 0 0 1 1.735.093A2.81 2.81 0 0 1 15.77 11.4a3.085 3.085 0 0 1-.446 3.115zm3.369.945h-1.735V7.79h1.72c.027.087.035 7.506.006 7.671h.009zm2.056.032a1.14 1.14 0 1 1 .802-.329 1.136 1.136 0 0 1-.81.329h.008z"/><path d="M11.855 11.604a1.553 1.553 0 0 0-.15 1.697 1.342 1.342 0 0 0 1.868.532 1.53 1.53 0 0 0 .578-1.89 1.345 1.345 0 0 0-2.296-.34z"/></g></svg>