<svg xmlns="http://www.w3.org/2000/svg" width="24" height="24"><g fill="#A8A8AB"><path d="M8.386 13.703a1.29 1.29 0 0 0 1.278 1.278 1.26 1.26 0 0 0 1.26-1.26 1.232 1.232 0 0 0-1.243-1.261 1.255 1.255 0 0 0-1.295 1.243zm4.655.017c.014.696.58 1.254 1.275 1.258a1.238 1.238 0 0 0 1.264-1.272 1.217 1.217 0 0 0-1.255-1.246 1.27 1.27 0 0 0-1.284 1.26z"/><path d="M17.659 13.836h-.706a.983.983 0 0 0-.468.044c-.09.054-.081.263-.116.401v.02a2.146 2.146 0 0 1-3.305 1.1 1.955 1.955 0 0 1-.792-1.224c-.038-.193-.153-.179-.29-.179-.135 0-.222 0-.242.176a1.376 1.376 0 0 1-.148.434 2.073 2.073 0 0 1-2.252 1.157 1.99 1.99 0 0 1-1.672-1.4c-.06-.17-.052-.419-.164-.494-.113-.075-.368-.035-.558-.04h-.553c-.162 0-.269.051-.237.24.067.424.11.867.211 1.275a5.245 5.245 0 0 0 1.556 2.622 5.7 5.7 0 0 0 3.366 1.541 5.841 5.841 0 0 0 3.36-.552c2.006-1.026 3.073-2.68 3.18-4.942.012-.135-.043-.182-.17-.179z"/><path d="M12 0C5.373 0 0 5.373 0 12s5.373 12 12 12 12-5.373 12-12S18.627 0 12 0zm6.275 18.327a8.611 8.611 0 0 1-3.181 1.952 8.472 8.472 0 0 1-3.097.494 8.452 8.452 0 0 1-3.797-.772 8.481 8.481 0 0 1-3.967-3.591 8.336 8.336 0 0 1-.983-2.663 9.583 9.583 0 0 1-.029-3.288 8.429 8.429 0 0 1 2.14-4.424 8.626 8.626 0 0 1 3.66-2.351 6.94 6.94 0 0 1 1.86-.388 15.704 15.704 0 0 1 1.842-.06c.7.041 1.393.17 2.062.384a9.013 9.013 0 0 1 2.692 1.374 8.519 8.519 0 0 1 2.692 3.418 8.903 8.903 0 0 1 .685 4.455 8.46 8.46 0 0 1-2.58 5.46z"/><path d="M6.405 12.946H7.53a.333.333 0 0 0 .231-.15 2.122 2.122 0 0 1 1.385-1.088 2.093 2.093 0 0 1 2.484 1.238c.078.205.197.21.367.216.17.006.29-.023.37-.214.057-.158.135-.308.232-.445.867-1.237 2.917-1.119 3.588.24a.347.347 0 0 0 .364.214h.949c.269 0 .32-.037.251-.289a17.538 17.538 0 0 0-.462-1.39.29.29 0 0 0-.168-.154c-.726-.255-1.446-.497-2.177-.758-.992-.353-1.909-.82-2.58-1.674a.31.31 0 0 0-.075-.055c-.208.214-.379.425-.578.599-.824.69-1.813 1.055-2.817 1.39-.694.229-1.39.446-2.084.674a.29.29 0 0 0-.177.145c-.141.436-.289.867-.402 1.315-.04.122.03.186.174.186z"/></g></svg>