<svg xmlns="http://www.w3.org/2000/svg" width="24" height="24"><g fill="none" fill-rule="evenodd"><circle cx="12" cy="12" r="12" fill="#A8A8AB"/><path d="M16.57 6.267c-.631-.072-.82.333-.866.842-.248 2.704-.483 5.408-.725 8.158l.41.125c.608-2.725 1.216-5.443 1.811-8.152.115-.547-.147-.91-.63-.973zm-1.77.163h-1.445c-.08.111-.153.228-.219.349-.87 1.49-1.765 2.954-2.715 4.554-.154-.237-.24-.365-.317-.496-.84-1.413-1.67-2.829-2.525-4.226a.95.95 0 0 0-.155-.182H6l.021.046C7.15 8.4 8.296 10.33 9.387 12.285c.23.443.355.933.365 1.432.048 1.395.016 2.792.016 4.174h1.253v-2.952c-.074-1.568.424-2.95 1.294-4.283.869-1.333 1.658-2.79 2.485-4.227zm.115 9.906a.813.813 0 1 0 .8.813.8.8 0 0 0-.8-.813z" fill="#F0F0F0" fill-rule="nonzero"/></g></svg>