<svg width="16" height="13" xmlns="http://www.w3.org/2000/svg"><g fill-rule="nonzero" fill="#FFF"><path d="M15.773 3.642a3.465 3.465 0 0 0-2.3-2.871 5.183 5.183 0 0 0-2.627-.236 3.63 3.63 0 0 0-2.244 1.124c-.16.173-.299.362-.467.573A3.516 3.516 0 0 0 6.118.657 5.31 5.31 0 0 0 3.789.476 3.575 3.575 0 0 0 .842 2.442 4.392 4.392 0 0 0 .505 5.23 3.453 3.453 0 0 0 2.686 8a5.204 5.204 0 0 0 2.834.253A3.57 3.57 0 0 0 8.046 6.66a.813.813 0 0 1 .101-.084 3.465 3.465 0 0 0 2.047 1.587 5.314 5.314 0 0 0 2.913.047 3.453 3.453 0 0 0 2.501-2.316c.246-.725.302-1.5.165-2.253zM5.62 5.5a1.048 1.048 0 0 1-1.095.762c-.5.026-.95-.302-1.078-.787a3.499 3.499 0 0 1 0-2.177 1.061 1.061 0 0 1 1.184-.8c.51-.012.955.342 1.056.842.089.324.114.67.177 1.044-.058.377-.14.75-.244 1.116zm7.204-.025a1.07 1.07 0 0 1-1.107.842 1.099 1.099 0 0 1-1.124-.868 3.726 3.726 0 0 1-.03-1.924 1.12 1.12 0 0 1 1.263-.968c.569.04 1.021.492 1.061 1.06.047.262.055.531.089.893a7.07 7.07 0 0 1-.152.965z"/><path d="M14.602 8.724v-.328a17.368 17.368 0 0 1-13.099-.06v2.346c0 .076.11.169.19.21a14.417 14.417 0 0 0 7.991 1.39 14.114 14.114 0 0 0 4.741-1.314.286.286 0 0 0 .194-.315 42.016 42.016 0 0 1-.017-1.929z"/></g></svg>