<svg width="14" height="12" xmlns="http://www.w3.org/2000/svg"><path d="M12.246 3.15v.366c0 3.698-2.815 7.956-7.957 7.956A7.898 7.898 0 0 1 0 10.216c.225.026.45.037.677.035a5.604 5.604 0 0 0 3.472-1.194 2.804 2.804 0 0 1-2.617-1.944 3.045 3.045 0 0 0 1.264-.05 2.796 2.796 0 0 1-2.24-2.746v-.04c.387.219.82.34 1.264.355A2.8 2.8 0 0 1 .953.898 7.941 7.941 0 0 0 6.72 3.827a3.181 3.181 0 0 1-.07-.642 2.8 2.8 0 0 1 4.842-1.913 5.468 5.468 0 0 0 1.777-.677 2.812 2.812 0 0 1-1.213 1.544 5.604 5.604 0 0 0 1.61-.436 5.892 5.892 0 0 1-1.4 1.447h-.02z" fill-rule="nonzero" fill="#FFF"/></svg>