<svg width="9" height="15" xmlns="http://www.w3.org/2000/svg"><path d="M4.147 7.993C4.808 5.53 5.695 3.183 6.459.81c.077-.307.292-.566.585-.704.293-.139.634-.143.93-.011.507.214.179.588.08.852-.549 1.564-1.154 3.114-1.74 4.674-.469 1.29-.938 2.59-1.454 3.875-.111.32-.16.657-.14.994 0 1.295-.024 2.595 0 3.89 0 .492-.17.66-.657.61-.409-.045-.906.124-.873-.583.038-.871-.042-1.75.028-2.622a7.592 7.592 0 0 0-.656-3.588 220.14 220.14 0 0 1-2.28-5.75C.169 2.161-.3 1.65.296 1.495c.469-.123 1.21-.369 1.506.488.6 1.76 1.257 3.502 1.876 5.253.057.3.223.568.469.757z" fill-rule="nonzero" fill="#FFF"/></svg>