<svg width="15" height="16" xmlns="http://www.w3.org/2000/svg"><g fill-rule="nonzero" fill="#FFF"><path d="M14.094.356C13.252.26 13 .8 12.94 1.479c-.331 3.605-.644 7.21-.967 10.877l.547.167c.81-3.634 1.621-7.257 2.414-10.87.153-.729-.195-1.212-.839-1.297zM11.733.572H9.806c-.106.15-.204.305-.291.466-1.16 1.988-2.354 3.94-3.62 6.073-.206-.316-.32-.487-.423-.661C4.352 4.565 3.246 2.677 2.105.814a1.266 1.266 0 0 0-.206-.242H0l.028.06C1.532 3.2 3.061 5.775 4.516 8.38a4.32 4.32 0 0 1 .487 1.91c.064 1.86.021 3.722.021 5.564h1.671v-3.936c-.1-2.09.565-3.932 1.725-5.71C9.579 4.43 10.63 2.488 11.733.572zM11.886 13.781a1.084 1.084 0 1 0 1.067 1.085 1.067 1.067 0 0 0-1.067-1.085z"/></g></svg>