<svg xmlns="http://www.w3.org/2000/svg" viewBox="0 0 83 83"><defs><style>.cls-1{fill:#a8a8ab;}</style></defs><title>yandex</title><g id="Layer_2" data-name="Layer 2"><g id="Layer_1-2" data-name="Layer 1"><path class="cls-1" d="M41.5,0A41.5,41.5,0,1,0,83,41.5,41.5,41.5,0,0,0,41.5,0ZM57.31,14.48C55,20.93,52.59,27.33,50.24,33.76c-2,5.34-3.81,10.71-5.84,16a11.16,11.16,0,0,0-.55,4.1c0,5.36-.1,10.71,0,16.06.05,2-.66,2.73-2.62,2.52-1.64-.17-3.63.51-3.5-2.41.15-3.6-.18-7.23.11-10.81a32.33,32.33,0,0,0-2.67-14.89Q30.44,32.57,26,20.67c-.44-1.2-2.33-3.3.06-3.93,1.95-.52,4.85-1.54,6,2,2.42,7.27,5,14.46,7.58,21.69.37,1.07.55,2.24,1.84,3.13,2.66-10.17,6.21-19.83,9.27-29.65a4.4,4.4,0,0,1,6.16-3C59,11.84,57.7,13.37,57.31,14.48Z"/></g></g></svg>