<svg height="24" viewBox="0 0 24 24" width="24" xmlns="http://www.w3.org/2000/svg"><g fill="none" fill-rule="evenodd"><circle cx="12" cy="12" fill="#3fa047" r="12"/><path d="m16.85 11.75v-2h2v2h2v2h-2v2h-2v-2h-2v-2zm-6.68 5.5h-5.43v-10.005h5.265c1.905 0 2.88 1.215 2.88 2.55 0 1.245-.78 2.1-1.725 2.295 1.08.165 1.92 1.2 1.92 2.445 0 1.515-.99 2.715-2.91 2.715zm-.63-6.03c.72 0 1.17-.405 1.17-1.05 0-.615-.45-1.05-1.17-1.05h-2.67v2.1zm.09 4.155c.795 0 1.275-.42 1.275-1.14 0-.63-.45-1.14-1.275-1.14h-2.76v2.28z" fill="#fff"/></g></svg>