<svg width="20" height="20" viewBox="0 0 20 20" fill="none" xmlns="http://www.w3.org/2000/svg">
<path fill-rule="evenodd" clip-rule="evenodd" d="M1 6.5C1 5.11929 2.11929 4 3.5 4H16.5C17.8807 4 19 5.11929 19 6.5V10.626C18.5438 10.2979 18.0396 10.0321 17.5 9.84141V6.5C17.5 6.48696 17.4998 6.47398 17.4993 6.46106L13.0474 10.0225C12.4235 10.3023 11.856 10.6856 11.3669 11.1506C10.1444 11.629 8.72554 11.4409 7.65738 10.5864L2.50074 6.46108C2.50025 6.47399 2.5 6.48697 2.5 6.5V13.5C2.5 14.0523 2.94772 14.5 3.5 14.5H9.58296C9.5284 14.8252 9.5 15.1593 9.5 15.5C9.5 15.6684 9.50694 15.8351 9.52054 16H3.5C2.11929 16 1 14.8807 1 13.5V6.5ZM3.70057 5.5H16.2994L11.4055 9.41508C10.5838 10.0725 9.41616 10.0725 8.59442 9.41508L3.70057 5.5Z" fill="#333333"/>
<path fill-rule="evenodd" clip-rule="evenodd" d="M15.5 20C17.9853 20 20 17.9853 20 15.5C20 13.0147 17.9853 11 15.5 11C13.0147 11 11 13.0147 11 15.5C11 17.9853 13.0147 20 15.5 20ZM18 15H13V16H18V15Z" fill="#333333"/>
</svg>
