<svg xmlns="http://www.w3.org/2000/svg" xmlns:xlink="http://www.w3.org/1999/xlink" width="53" height="53"><defs><path id="a" d="M0 0h52.754v52.754H0z"/></defs><g fill="none" fill-rule="evenodd"><mask id="b" fill="#fff"><use xlink:href="#a"/></mask><path fill="#DEDFE2" d="M28.15 28.473c0 .61.305 1.259.724 1.602l-4.194 1.22c-.8-.877-1.258-2.059-1.258-3.393 0-4.499 5.605-5.033 5.605-7.663 0-1.182-.916-2.173-3.012-2.173-1.907 0-3.508.915-4.69 2.364l-3.088-3.47c2.02-2.401 5.07-3.698 8.35-3.698 4.918 0 7.93 2.478 7.93 6.024 0 5.566-6.367 5.985-6.367 9.187m-1.64 11.018c-1.677 0-3.088-1.41-3.088-3.088 0-1.677 1.41-3.088 3.088-3.088 1.678 0 3.088 1.41 3.088 3.088 0 1.678-1.41 3.088-3.088 3.088M26.377.001C11.809 0 0 11.808 0 26.376A26.254 26.254 0 0 0 5.352 42.3l-1.88 7 7.807-1.3a26.245 26.245 0 0 0 15.098 4.755c14.567 0 26.377-11.81 26.377-26.377C52.754 11.809 40.944 0 26.377 0" mask="url(#b)"/></g></svg>