<svg width="20" height="20" viewBox="0 0 20 20" fill="none" xmlns="http://www.w3.org/2000/svg">
<g>
<path d="M14.5 0.75C14.5 0.335786 14.1642 0 13.75 0C13.3358 0 13 0.335786 13 0.75V3.25C13 3.66421 13.3358 4 13.75 4C14.1642 4 14.5 3.66421 14.5 3.25V0.75Z" fill="#333333"/>
<path d="M14.5 9.75C14.5 9.33579 14.1642 9 13.75 9C13.3358 9 13 9.33579 13 9.75V12.25C13 12.6642 13.3358 13 13.75 13C14.1642 13 14.5 12.6642 14.5 12.25V9.75Z" fill="#333333"/>
<path d="M20 6.25C20 6.66421 19.6642 7 19.25 7H16.75C16.3358 7 16 6.66421 16 6.25C16 5.83579 16.3358 5.5 16.75 5.5H19.25C19.6642 5.5 20 5.83579 20 6.25Z" fill="#333333"/>
<path d="M10.25 7C10.6642 7 11 6.66421 11 6.25C11 5.83579 10.6642 5.5 10.25 5.5H7.75004C7.33582 5.5 7.00004 5.83579 7.00004 6.25C7.00004 6.66421 7.33582 7 7.75004 7H10.25Z" fill="#333333"/>
<path d="M18.2804 10.7803C17.9875 11.0732 17.5126 11.0732 17.2197 10.7803L15.4697 9.03033C15.1768 8.73744 15.1768 8.26256 15.4697 7.96967C15.7626 7.67678 16.2375 7.67678 16.5304 7.96967L18.2804 9.71967C18.5733 10.0126 18.5733 10.4874 18.2804 10.7803Z" fill="#333333"/>
<path d="M10.7197 4.28033C11.0126 4.57322 11.4875 4.57322 11.7804 4.28033C12.0733 3.98744 12.0733 3.51256 11.7804 3.21967L10.0304 1.46967C9.73747 1.17678 9.26259 1.17678 8.9697 1.46967C8.67681 1.76256 8.67681 2.23744 8.9697 2.53033L10.7197 4.28033Z" fill="#333333"/>
<path d="M15.4697 4.53032C15.1768 4.23743 15.1768 3.76256 15.4697 3.46966L17.2197 1.71966C17.5126 1.42677 17.9875 1.42677 18.2804 1.71966C18.5733 2.01256 18.5733 2.48743 18.2804 2.78032L16.5304 4.53032C16.2375 4.82322 15.7626 4.82322 15.4697 4.53032Z" fill="#333333"/>
<path d="M14.2804 6.78033C14.5733 6.48744 14.5733 6.01256 14.2804 5.71967C13.9875 5.42678 13.5126 5.42678 13.2197 5.71967L4.68937 14.25L5.75003 15.3107L14.2804 6.78033Z" fill="#333333"/>
<path d="M5.31069 15.75L4.25003 14.6893L1.22013 17.7192C0.927238 18.0121 0.926804 18.4874 1.2197 18.7803C1.51259 19.0732 1.98762 19.0731 2.28051 18.7802L2.28147 18.7792L5.31069 15.75Z" fill="#333333"/>
</g>
</svg>
