<svg width="23" height="23" viewBox="0 0 23 23" fill="none" xmlns="http://www.w3.org/2000/svg">
<g clip-path="url(#clip0)">
<rect width="29.3333" height="2.66667" rx="0.5" transform="matrix(-0.707107 0.707107 0.707107 0.707107 21.3376 0.630127)" fill="#454E5F"/>
<rect width="3.5" height="2.66667" rx="0.5" transform="matrix(-0.707107 0.707107 0.707107 0.707107 21.3376 0.630127)" fill="#9FA8B9"/>
<path fill-rule="evenodd" clip-rule="evenodd" d="M6.06065 8.9268C5.59472 8.84208 5.2135 8.46087 5.12879 7.99494L4.66286 5.75H4.28164L3.81571 7.99494C3.731 8.46087 3.34978 8.84208 2.88385 8.9268L0.638916 9.39273V9.77394L2.88385 10.2399C3.34978 10.3246 3.731 10.7058 3.81571 11.1717L4.28164 13.4167H4.66286L5.12879 11.1717C5.2135 10.7058 5.59472 10.3246 6.06065 10.2399L8.30558 9.77394V9.39273L6.06065 8.9268Z" fill="#FDD20A"/>
<path fill-rule="evenodd" clip-rule="evenodd" d="M20.755 16.5935C20.2891 16.5088 19.9078 16.1276 19.8231 15.6617L19.3572 13.4167H18.976L18.51 15.6617C18.4253 16.1276 18.0441 16.5088 17.5782 16.5935L15.3333 17.0595V17.4407L17.5782 17.9066C18.0441 17.9913 18.4253 18.3725 18.51 18.8385L18.976 21.0834H19.3572L19.8231 18.8385C19.9078 18.3725 20.2891 17.9913 20.755 17.9066L22.9999 17.4407V17.0595L20.755 16.5935Z" fill="#FDD20A"/>
<path fill-rule="evenodd" clip-rule="evenodd" d="M11.9199 1.47895C11.6093 1.42247 11.3551 1.16833 11.2987 0.857708L10.988 -0.638916H10.7339L10.4233 0.857708C10.3668 1.16833 10.1127 1.42247 9.80204 1.47895L8.30542 1.78957V2.04371L9.80204 2.35433C10.1127 2.41081 10.3668 2.66495 10.4233 2.97557L10.7339 4.47219H10.988L11.2987 2.97557C11.3551 2.66495 11.6093 2.41081 11.9199 2.35433L13.4165 2.04371V1.78957L11.9199 1.47895Z" fill="#FDD20A"/>
</g>
<defs>
<clipPath id="clip0">
<rect width="23" height="23" fill="white"/>
</clipPath>
</defs>
</svg>
