<svg xmlns="http://www.w3.org/2000/svg" width="140" height="116"><g fill="none" fill-rule="evenodd"><ellipse cx="63.036" cy="57.849" fill="#DDD" fill-rule="nonzero" rx="57.665" ry="57.849"/><path fill="#C7C7C7" fill-rule="nonzero" d="M99.897 18.872L4.242 17.479C1.427 18.875.02 20.586.02 22.613l-.006 66.37a6.89 6.89 0 0 0 6.896 6.89l96.75-.1a57.68 57.68 0 0 0 12.8-36.335 57.725 57.725 0 0 0-16.562-40.566z"/><path fill="#C7C7C7" fill-rule="nonzero" d="M63.036 0a57.342 57.342 0 0 0-22.41 4.532h.862c25.564-.004 48.462 15.864 57.507 39.851 9.044 23.987 2.348 51.085-16.819 68.056 26.525-9.349 42.465-36.522 37.732-64.323C115.176 20.315 91.15-.012 63.036 0z"/><path fill="#FFF" fill-rule="nonzero" d="M120.701 57.85a57.725 57.725 0 0 0-16.561-40.567H5.34a3.735 3.735 0 0 0-3.73 3.74v67.191c0 3.297 2.664 5.97 5.95 5.97H107.9a57.68 57.68 0 0 0 12.801-36.335z"/><path fill="#5F6168" fill-rule="nonzero" d="M104.193 17.336H5.249a3.627 3.627 0 0 0-2.575 1.068 3.65 3.65 0 0 0-1.064 2.582v5.2H111.3a57.73 57.73 0 0 0-7.107-8.85z"/><path fill="#DDD" fill-rule="nonzero" d="M69.13 70.809H49.271a1.206 1.206 0 0 1-1.193-1.197V57.529a1.211 1.211 0 0 1 1.193-1.197h19.875a1.206 1.206 0 0 1 1.194 1.197v12.083a1.15 1.15 0 0 1-1.21 1.197z"/><path fill="#DEE2EA" fill-rule="nonzero" d="M95.291 70.809h-19.88a1.211 1.211 0 0 1-1.193-1.197V57.529a1.211 1.211 0 0 1 1.193-1.197h19.88c.656.008 1.185.54 1.194 1.197v12.083a1.183 1.183 0 0 1-1.194 1.197z"/><path fill="#DDD" fill-rule="nonzero" d="M81.43 78.515H49.927a1.856 1.856 0 0 1-1.321-.548 1.868 1.868 0 0 1-.543-1.328 1.868 1.868 0 0 1 .543-1.328c.35-.352.826-.55 1.321-.548h31.505a1.87 1.87 0 0 1 1.869 1.876 1.931 1.931 0 0 1-1.87 1.876z"/><path fill="#DEE2EA" fill-rule="nonzero" d="M99.596 78.515H87.71a1.856 1.856 0 0 1-1.322-.548 1.868 1.868 0 0 1-.542-1.328 1.868 1.868 0 0 1 .542-1.328c.35-.352.826-.55 1.322-.548h11.885a1.87 1.87 0 0 1 1.869 1.876 1.87 1.87 0 0 1-1.869 1.876z"/><path fill="#DDD" fill-rule="nonzero" d="M61.811 86.04H49.926a1.856 1.856 0 0 1-1.321-.549 1.868 1.868 0 0 1-.543-1.328 1.868 1.868 0 0 1 .543-1.327c.35-.352.826-.55 1.321-.548h11.885a1.86 1.86 0 0 1 1.324.547c.35.353.547.83.546 1.328.001.498-.195.976-.546 1.328a1.86 1.86 0 0 1-1.324.548zm23.62 0h-11.89a1.856 1.856 0 0 1-1.322-.549 1.868 1.868 0 0 1-.542-1.328 1.868 1.868 0 0 1 .542-1.327c.35-.352.826-.55 1.322-.548h11.89c.496-.002.972.196 1.322.548.35.352.545.83.543 1.327a1.926 1.926 0 0 1-1.865 1.876z"/><ellipse cx="67.676" cy="84.137" fill="#DDD" fill-rule="nonzero" rx="1.87" ry="1.876"/><ellipse cx="97.001" cy="84.137" fill="#DEE2EA" fill-rule="nonzero" rx="1.87" ry="1.876"/><ellipse cx="91.605" cy="84.137" fill="#DEE2EA" fill-rule="nonzero" rx="1.87" ry="1.876"/><path fill="#DEE2EA" fill-rule="nonzero" d="M103.234 86.04h10.18a55.938 55.938 0 0 0 1.902-3.742h-12.082a1.873 1.873 0 0 0-1.729 1.87c0 .982.754 1.797 1.73 1.871zm-1.715-15.231h17.728a58.069 58.069 0 0 0 1.454-12.96v-1.517h-19.177a1.211 1.211 0 0 0-1.193 1.197v12.083a1.206 1.206 0 0 0 1.188 1.197z"/><path fill="#DDD" fill-rule="nonzero" d="M120.446 52.372a57.556 57.556 0 0 0-4.885-18.448H50.57c-.66 0-1.293.263-1.76.731a2.5 2.5 0 0 0-.728 1.765v13.51a2.5 2.5 0 0 0 .729 1.764c.466.468 1.1.731 1.759.731h69.55c.11-.01.218-.028.325-.053z"/><ellipse cx="8.78" cy="21.761" fill="#AAA" fill-rule="nonzero" rx="1.715" ry="1.721"/><ellipse cx="14.752" cy="21.761" fill="#AAA" fill-rule="nonzero" rx="1.715" ry="1.721"/><ellipse cx="20.718" cy="21.761" fill="#AAA" fill-rule="nonzero" rx="1.715" ry="1.721"/><path fill="#DDD" fill-rule="nonzero" d="M41.004 94.184H7.444c-3.214-.015-5.816-2.623-5.834-5.847V26.08h39.42l-.026 68.105z"/><path fill="#FFF" fill-rule="nonzero" d="M29.53 67.11H11.155a1.6 1.6 0 0 1-1.598-1.603 1.6 1.6 0 0 1 1.598-1.603H29.53a1.6 1.6 0 0 1 1.598 1.603 1.6 1.6 0 0 1-1.598 1.604zm0 7.707H11.155a1.6 1.6 0 0 1-1.598-1.604 1.6 1.6 0 0 1 1.598-1.603H29.53a1.6 1.6 0 0 1 1.598 1.603 1.6 1.6 0 0 1-1.598 1.604zm-4.673 7.759h-13.7a1.6 1.6 0 0 1-1.599-1.603 1.6 1.6 0 0 1 1.598-1.603h13.701a1.6 1.6 0 0 1 1.598 1.603 1.6 1.6 0 0 1-1.598 1.603zm4.673 0a1.6 1.6 0 0 1-1.599-1.603 1.6 1.6 0 0 1 1.598-1.603 1.6 1.6 0 0 1 1.598 1.603 1.6 1.6 0 0 1-1.598 1.603z" opacity=".59"/><ellipse cx="21.363" cy="45.74" fill="#FFF" fill-rule="nonzero" opacity=".59" rx="13.547" ry="13.59"/><path fill="#9B7A56" fill-rule="nonzero" d="M29.865 56.257a4.116 4.116 0 0 0-.666-1.56c-.677-.936-2.232-.936-3.479-.99a3.882 3.882 0 0 1-1.502-.154c-.783-.316-.937-1.352-.99-1.876-.416-1.299-.986-1.715-1.599-1.56l-.309.31-.314-.31c-.623-.107-.879 0-1.295 1.56-.053.534-.26 1.56-.985 1.876-.488.149-1 .201-1.508.155-1.246 0-2.855.053-3.478.988a3.212 3.212 0 0 0-.693 1.668 13.562 13.562 0 0 0 8.524 3.02 13.096 13.096 0 0 0 8.294-3.127z"/><path fill="#9B7A56" fill-rule="nonzero" d="M26.29 44.858c0 3.49-2.178 7.76-4.927 7.76-2.749 0-4.933-4.324-4.933-7.76s2.179-6.3 4.933-6.3 4.927 2.81 4.927 6.3z"/><path fill="#AF58C4" fill-rule="nonzero" d="M16.329 39.546h9.445v3.645h-9.445z"/><path fill="#CE6CE5" fill-rule="nonzero" d="M21.411 39.546h4.773v3.645h-4.773z"/><path fill="#323335" fill-rule="nonzero" d="M29.407 41.368a2.063 2.063 0 0 0-.06-1.683 2.052 2.052 0 0 0-1.293-1.074 1.832 1.832 0 0 0-.407-1.632 1.819 1.819 0 0 0-1.564-.607 2.125 2.125 0 0 0-3.01-.887 2.293 2.293 0 0 0-3.479 0 2.189 2.189 0 0 0-3.057.887 1.808 1.808 0 0 0-1.574.599 1.821 1.821 0 0 0-.403 1.64c-.568.15-1.043.54-1.302 1.07a2.037 2.037 0 0 0-.046 1.687 2.02 2.02 0 0 0 .677 3.207c-.783 1.069-.623 2.71.831 3.174.15 1.017 1 1.782 2.024 1.822a2.19 2.19 0 0 0 1.45 1.07h.18a8.413 8.413 0 0 1-1.768-5.104 13.37 13.37 0 0 1 .106-1.507c.235-.052.445-.182.597-.37a1 1 0 0 0 1.555-.314.995.995 0 0 0 1.599-.102.995.995 0 0 0 1.662 0 1.027 1.027 0 0 0 1.598.102 1.023 1.023 0 0 0 1.577.315c.148.212.37.36.623.417.064.5.1 1.003.106 1.507a8.425 8.425 0 0 1-1.598 5.103h.101a1.998 1.998 0 0 0 1.401-1.069 2.064 2.064 0 0 0 2.03-1.849c1.348-.416 1.763-1.977.831-3.174a2.014 2.014 0 0 0 .613-3.228zm-11.837.989c1.976-3.49 5.503-3.436 7.458 0a7.04 7.04 0 0 0-7.458 0z"/><path fill="#7B5D3F" fill-rule="nonzero" d="M26.397 45.275a5.611 5.611 0 0 1-.416 2.672c1.295-.802 1.503-2.88.416-2.672z"/><path fill="#8C6E48" fill-rule="nonzero" d="M16.244 45.275c-.084.911.058 1.83.415 2.672-1.321-.802-1.529-2.88-.415-2.672z"/><g fill="#323335"><path d="M19.744 45.413c.257 0 .465.254.465.568 0 .313-.208.567-.465.567s-.465-.254-.465-.567c0-.314.208-.568.465-.568m2.996 0c.258 0 .466.254.466.568 0 .313-.208.567-.465.567s-.465-.254-.465-.567c0-.314.208-.568.465-.568m-.341 4.345h-2.005a.216.216 0 0 1-.215-.215c0-.118.096-.215.215-.215H22.4c.119 0 .216.097.216.215a.216.216 0 0 1-.216.215"/><path d="M20.633 45.176l-1.892.662a.216.216 0 0 1-.274-.132.216.216 0 0 1 .132-.274l1.892-.662c.112-.04.236.02.275.132a.216.216 0 0 1-.133.274m3.374.769l-1.894-.658a.216.216 0 0 1-.132-.274.216.216 0 0 1 .274-.133l1.894.659a.216.216 0 0 1 .132.274.216.216 0 0 1-.274.132"/></g><path fill="#CE6CE5" fill-rule="nonzero" d="M29.199 54.648c-.677-.94-2.232-.94-3.479-.994a3.882 3.882 0 0 1-1.502-.155c-.053 0-.053-.053-.106-.053a3.726 3.726 0 0 1-2.701 1.459 3.545 3.545 0 0 1-2.664-1.46.048.048 0 0 0-.048.054 3.9 3.9 0 0 1-1.507.155c-1.247 0-2.856.054-3.479.994a3.748 3.748 0 0 0-.692 1.817 13.55 13.55 0 0 0 8.523 2.918 13.362 13.362 0 0 0 8.449-3.206 8.598 8.598 0 0 0-.794-1.529z"/><path fill="#7B5D3F" fill-rule="nonzero" d="M23.254 51.923a3.238 3.238 0 0 1-1.843.695 3.03 3.03 0 0 1-1.811-.61 3.214 3.214 0 0 1-.277.962 2.93 2.93 0 0 0 2.088.791 3.191 3.191 0 0 0 2.13-.882 3.412 3.412 0 0 1-.287-.956z"/><ellipse cx="96.78" cy="50.584" fill="#B7783C" fill-rule="nonzero" rx="39.508" ry="39.461"/><ellipse cx="40.209" cy="40.228" rx="40.07" ry="40.198" fill="#EB9F3F" fill-rule="nonzero" transform="translate(59.394 6.886)"/><path fill="#FFF" d="M101.626 61.973c-8.575 0-15.187-5.911-15.187-14.567 0-8.697 6.612-14.566 15.187-14.566 6.228 0 9.854 3.336 11.859 6.882l-5.204 2.533c-1.195-2.28-3.754-4.095-6.655-4.095-5.205 0-8.958 3.927-8.958 9.246 0 5.32 3.753 9.247 8.958 9.247 2.9 0 5.46-1.816 6.655-4.096l5.204 2.491c-2.005 3.505-5.631 6.925-11.86 6.925z"/></g></svg>