<svg width="80" height="80" fill="none" xmlns="http://www.w3.org/2000/svg"><path d="m9.614 20-3.21-2.4M8.004 26.8H3.2" stroke="#AAA" stroke-opacity=".6" stroke-width="3" stroke-linecap="round"/><path fill-rule="evenodd" clip-rule="evenodd" d="M43.796 54.008H33.413c-12.042 0-21.804-9.762-21.804-21.804 0-12.042 9.762-21.804 21.804-21.804h10.383c12.042 0 21.804 9.762 21.804 21.804 0 12.042-9.762 21.804-21.804 21.804" fill="#A696BA"/><path fill-rule="evenodd" clip-rule="evenodd" d="M29.784 46.74 14.209 59.2l5.192-18.69 10.383 6.23z" fill="#A696BA"/><path fill-rule="evenodd" clip-rule="evenodd" d="M53.14 28.29a4.155 4.155 0 0 0-4.153 4.153 4.155 4.155 0 0 0 4.154 4.153 4.155 4.155 0 0 0 4.153-4.153 4.155 4.155 0 0 0-4.153-4.154M38.604 28.29a4.155 4.155 0 0 0-4.153 4.153 4.155 4.155 0 0 0 4.153 4.153 4.155 4.155 0 0 0 4.153-4.153 4.155 4.155 0 0 0-4.153-4.154M24.068 28.29a4.155 4.155 0 0 0-4.153 4.153 4.155 4.155 0 0 0 4.153 4.153 4.155 4.155 0 0 0 4.153-4.153 4.155 4.155 0 0 0-4.153-4.154" fill="#fff"/><circle cx="60.8" cy="56.8" fill="#E2E2E2" r="14.4"/><rect x="51.2" y="54.4" width="19.2" height="4.8" rx="2" fill="silver"/></svg>