<svg width="75" height="75" viewBox="0 0 75 75" fill="none" xmlns="http://www.w3.org/2000/svg">
  <rect x="6.75" y="15.75" width="56.25" height="39" rx="13.5" fill="#DE5833"/>
  <mask id="path-2-outside-1_885_11045" maskUnits="userSpaceOnUse" x="23.75" y="22.5" width="24" height="26" fill="black">
  <rect fill="white" x="23.75" y="22.5" width="24" height="26"/>
  <path d="M41.9425 37.5279C43.6677 36.492 43.6677 33.9914 41.9425 32.9555L31.0394 26.4088C29.262 25.3416 27 26.6218 27 28.695L27 41.7884C27 43.8615 29.262 45.1418 31.0394 44.0746L41.9425 37.5279Z"/>
  </mask>
  <path d="M41.9425 37.5279C43.6677 36.492 43.6677 33.9914 41.9425 32.9555L31.0394 26.4088C29.262 25.3416 27 26.6218 27 28.695L27 41.7884C27 43.8615 29.262 45.1418 31.0394 44.0746L41.9425 37.5279Z" fill="white"/>
  <path d="M30.0296 44.6809L31.5739 47.2529L30.0296 44.6809ZM30.0296 25.8024L31.5739 23.2304L30.0296 25.8024ZM42.8944 36.9563L44.4387 39.5283L42.8944 36.9563ZM41.35 36.099L28.4852 28.3744L31.5739 23.2304L44.4387 30.955L41.35 36.099ZM30 27.5171L30 42.9663L24 42.9663L24 27.5171L30 27.5171ZM28.4852 42.1089L41.35 34.3843L44.4387 39.5283L31.5739 47.2529L28.4852 42.1089ZM30 42.9663C30 42.1888 29.1517 41.7087 28.4852 42.1089L31.5739 47.2529C28.2413 49.2539 24 46.8535 24 42.9663L30 42.9663ZM28.4852 28.3744C29.1517 28.7746 30 28.2945 30 27.5171L24 27.5171C24 23.6299 28.2413 21.2294 31.5739 23.2304L28.4852 28.3744ZM44.4387 30.955C47.6735 32.8974 47.6735 37.586 44.4387 39.5283L41.35 34.3843C40.7031 34.7728 40.7031 35.7105 41.35 36.099L44.4387 30.955Z" fill="#BC4726" mask="url(#path-2-outside-1_885_11045)"/>
  <circle cx="57.75" cy="52.5" r="13.5" fill="#E0E0E0"/>
  <rect x="48.75" y="50.25" width="18" height="4.5" rx="1.5" fill="#666666"/>
  <path fill-rule="evenodd" clip-rule="evenodd" d="M57.9853 15.8781C58.2046 16.1015 58.5052 16.2262 58.8181 16.2238C59.1311 16.2262 59.4316 16.1015 59.6509 15.8781L62.9821 12.5469C63.2974 12.2532 63.4272 11.8107 63.3206 11.3931C63.2139 10.9756 62.8879 10.6495 62.4703 10.5429C62.0528 10.4363 61.6103 10.5661 61.3165 10.8813L57.9853 14.2125C57.7627 14.4325 57.6374 14.7324 57.6374 15.0453C57.6374 15.3583 57.7627 15.6582 57.9853 15.8781ZM61.3598 18.8363C61.388 19.4872 61.9385 19.9919 62.5893 19.9637L62.6915 19.9559L66.7769 19.6023C67.4278 19.5459 67.9097 18.9726 67.8533 18.3217C67.7968 17.6708 67.2235 17.1889 66.5726 17.2453L62.4872 17.6067C61.8363 17.6349 61.3316 18.1854 61.3598 18.8363Z" fill="#AAAAAA" fill-opacity="0.6"/>
  <path fill-rule="evenodd" clip-rule="evenodd" d="M10.6535 15.8781C10.4342 16.1015 10.1336 16.2262 9.82067 16.2238C9.5077 16.2262 9.20717 16.1015 8.98787 15.8781L5.65667 12.5469C5.34138 12.2532 5.2116 11.8107 5.31823 11.3931C5.42487 10.9756 5.75092 10.6495 6.16847 10.5429C6.58602 10.4363 7.02848 10.5661 7.32227 10.8813L10.6535 14.2125C10.8761 14.4325 11.0014 14.7324 11.0014 15.0453C11.0014 15.3583 10.8761 15.6582 10.6535 15.8781ZM7.2791 18.8362C7.25089 19.4871 6.7004 19.9919 6.04954 19.9637L5.9474 19.9558L1.86197 19.6023C1.44093 19.5658 1.07135 19.3074 0.892432 18.9246C0.713515 18.5417 0.752449 18.0924 0.994567 17.7461C1.23669 17.3997 1.6452 17.2088 2.06624 17.2453L6.15167 17.6067C6.80254 17.6349 7.3073 18.1854 7.2791 18.8362Z" fill="#AAAAAA" fill-opacity="0.6"/>
</svg>
