<svg width="80" height="80" fill="none" xmlns="http://www.w3.org/2000/svg"><rect x="7.2" y="16.8" width="60" height="41.6" rx="14.4" fill="#DE5833"/><path d="M46.578 34.39c2.415 1.45 2.415 4.952 0 6.402l-13.723 8.24c-2.488 1.494-5.655-.299-5.655-3.201V29.35c0-2.902 3.167-4.694 5.655-3.2l13.723 8.24z" fill="#fff" stroke="#9C452D" stroke-width="3.2"/><circle cx="61.6" cy="56" r="14.4" fill="#E2E2E2"/><rect x="52" y="53.6" width="19.2" height="4.8" rx="1.6" fill="silver"/><path fill-rule="evenodd" clip-rule="evenodd" d="M61.851 16.937c.234.238.555.371.888.368.334.003.655-.13.889-.368l3.553-3.554a1.257 1.257 0 1 0-1.777-1.776l-3.553 3.553a1.249 1.249 0 0 0 0 1.777zm3.6 3.155c.03.694.617 1.233 1.311 1.203l.109-.009 4.358-.377a1.262 1.262 0 1 0-.218-2.514l-4.358.386a1.258 1.258 0 0 0-1.203 1.311zM11.364 16.937a1.232 1.232 0 0 1-.889.368 1.232 1.232 0 0 1-.888-.368l-3.553-3.554a1.257 1.257 0 1 1 1.776-1.776l3.554 3.553a1.249 1.249 0 0 1 0 1.777zm-3.6 3.155a1.258 1.258 0 0 1-1.311 1.203l-.11-.009-4.357-.377a1.262 1.262 0 1 1 .218-2.514l4.358.386c.694.03 1.232.617 1.202 1.311z" fill="#AAA" fill-opacity=".6"/></svg>