<svg width="28" height="28" viewBox="0 0 28 28" fill="none" xmlns="http://www.w3.org/2000/svg">
<circle cx="14" cy="14" r="13" fill="#F7F7F7"/>
<path d="M25 13.9915C25 7.91725 20.0828 3 14.0085 3C7.93426 3 3 7.91725 3 13.9915C3 19.4872 7.03248 24.0302 12.29 24.8639V17.1732H9.4826V13.9915H12.29V11.5754C12.29 8.81903 13.9234 7.2877 16.4416 7.2877C17.6497 7.2877 18.8917 7.52591 18.8917 7.52591V10.2142H17.5135C16.1524 10.2142 15.71 11.065 15.71 11.9327V13.9915H18.7726L18.2792 17.1732H15.71V24.8639C20.9675 24.0472 25 19.4872 25 13.9915Z" fill="#1877F2"/>
<rect x="1.97919" y="4.80762" width="4" height="30" rx="2" transform="rotate(-45 1.97919 4.80762)" fill="#666666" stroke="#F7F7F7" stroke-width="2"/>
</svg>
