<svg width="80" height="80" fill="none" xmlns="http://www.w3.org/2000/svg"><path fill-rule="evenodd" clip-rule="evenodd" d="M27.6 16c-9.941 0-18 8.059-18 18v12c0 9.311 7.07 16.971 16.135 17.904L24 72l10.857-8H46.8c9.941 0 18-8.059 18-18V34c0-9.941-8.059-18-18-18H27.6z" fill="#6ACCF2"/><g clip-path="url(#a)" fill-rule="evenodd" clip-rule="evenodd"><path d="M32 23.4a1 1 0 0 0-1-1h-8a7 7 0 0 0-7 7v8a1 1 0 0 0 1 1h14a1 1 0 0 0 1-1v-14z" fill="#fff"/><path d="M35.2 23.4a1 1 0 0 1 1-1h15.2a7 7 0 0 1 7 7V31a1 1 0 0 1-1 1H36.2a1 1 0 0 1-1-1v-7.6zm0 12.8a1 1 0 0 1 1-1h21.2a1 1 0 0 1 1 1v1.2a1 1 0 0 1-1 1H36.2a1 1 0 0 1-1-1v-1.2zM17 41.6a1 1 0 0 0-1 1v1.2a1 1 0 0 0 1 1h40.4a1 1 0 0 0 1-1v-1.2a1 1 0 0 0-1-1H17zM16 49a1 1 0 0 1 1-1h40.4a1 1 0 0 1 1 1v1.2a1 1 0 0 1-1 1H17a1 1 0 0 1-1-1V49zm1 5.4a1 1 0 0 0-1 1v1.2a1 1 0 0 0 1 1h40.4a1 1 0 0 0 1-1v-1.2a1 1 0 0 0-1-1H17zM16.8 38.4h14.4a.8.8 0 0 0 .8-.8v-2.296L25.696 29a2.4 2.4 0 0 0-3.392 0L16 35.304V37.6a.8.8 0 0 0 .8.8z" fill="#357DB6"/></g><circle cx="61.6" cy="56" fill="#E2E2E2" r="14.4"/><rect x="52" y="53.6" width="19.2" height="4.8" rx="2" fill="silver"/><path fill-rule="evenodd" clip-rule="evenodd" d="M40.288 2.8a1.2 1.2 0 0 1 1.2 1.2v4.8a1.2 1.2 0 0 1-2.4 0V4a1.2 1.2 0 0 1 1.2-1.2zm12.26 3.481a1.2 1.2 0 0 1 .147 1.69l-2.688 3.2a1.2 1.2 0 1 1-1.838-1.543l2.688-3.2a1.2 1.2 0 0 1 1.69-.147zm-22.83.147a1.2 1.2 0 1 0-1.837 1.544l2.688 3.2a1.2 1.2 0 1 0 1.838-1.544l-2.688-3.2z" fill="#AAA" fill-opacity=".6"/><defs><clipPath id="a"><rect x="16" y="22.4" width="48.8" height="35.2" rx="10" fill="#fff"/></clipPath></defs></svg>