<svg width="12" height="12" viewBox="0 0 12 12" fill="none" xmlns="http://www.w3.org/2000/svg">
<path fill-rule="evenodd" clip-rule="evenodd" d="M5.99998 4.58578L10.2426 0.34314C10.6331 -0.0473839 11.2663 -0.0473839 11.6568 0.34314C12.0474 0.733665 12.0474 1.36683 11.6568 1.75735L7.41419 5.99999L11.6568 10.2426C12.0474 10.6332 12.0474 11.2663 11.6568 11.6568C11.2663 12.0474 10.6331 12.0474 10.2426 11.6568L5.99998 7.41421L1.75734 11.6568C1.36681 12.0474 0.733649 12.0474 0.343125 11.6568C-0.0473991 11.2663 -0.0473991 10.6332 0.343125 10.2426L4.58577 5.99999L0.343125 1.75735C-0.0473991 1.36683 -0.0473991 0.733665 0.343125 0.34314C0.733649 -0.0473839 1.36681 -0.0473839 1.75734 0.34314L5.99998 4.58578Z" fill="#222222"/>
</svg>
