<svg width="334.289px" height="334.289px" viewBox="0 -97.01 334.289 334.289" xmlns="http://www.w3.org/2000/svg" xmlns:xlink="http://www.w3.org/1999/xlink"><path d="M12.266 137.77c-5.385 0-9.766-4.382-9.766-9.768V12.265C2.5 6.88 6.881 2.5 12.266 2.5h309.755c5.386 0 9.768 4.381 9.768 9.765v115.737c0 5.386-4.382 9.768-9.768 9.768H12.266z" fill="#ebecf6"/><path d="M322.021 5a7.267 7.267 0 0 1 7.268 7.265v115.737a7.268 7.268 0 0 1-7.268 7.268H12.266A7.267 7.267 0 0 1 5 128.002V12.265A7.265 7.265 0 0 1 12.266 5h309.755m0-5H12.266C5.502 0 0 5.502 0 12.265v115.737c0 6.765 5.502 12.268 12.266 12.268h309.755c6.765 0 12.268-5.503 12.268-12.268V12.265C334.289 5.502 328.786 0 322.021 0z" fill="#c3c9d9"/><path d="M322.021 6.942a5.33 5.33 0 0 1 5.325 5.323v115.737a5.33 5.33 0 0 1-5.325 5.325H12.266a5.33 5.33 0 0 1-5.324-5.325V12.265a5.329 5.329 0 0 1 5.324-5.322h309.755m0-1.943H12.266A7.265 7.265 0 0 0 5 12.265v115.737a7.267 7.267 0 0 0 7.266 7.268h309.755a7.268 7.268 0 0 0 7.268-7.268V12.265A7.267 7.267 0 0 0 322.021 5z" fill="#fff"/><defs><path id="a" d="M35.346 26.364h93.574v82.758H35.346z"/></defs><clipPath id="b"><use xlink:href="#a" overflow="visible"/></clipPath><g clip-path="url(#b)"><defs><path id="c" d="M35.346 26.364h93.574v82.758H35.346z"/></defs><clipPath id="d"><use xlink:href="#c" overflow="visible"/></clipPath><g clip-path="url(#d)"><defs><path id="e" d="M35.346 26.363h93.574v82.759H35.346z"/></defs><clipPath id="f"><use xlink:href="#e" overflow="visible"/></clipPath><path d="M126.233 71.672c4.741-4.72 3.276-14.267-4.934-14.267l-21.601.016c.817-4.578 2.006-12.159 1.958-12.876-.451-6.78-4.78-15.033-4.963-15.372-.786-1.467-4.768-3.459-8.774-2.603-5.184 1.109-5.712 4.41-5.69 5.321 0 0 .227 9.038.249 11.446-2.474 5.439-11.012 19.73-13.604 20.832a3.94 3.94 0 0 0-2.05-.575H39.527a4.181 4.181 0 0 0-4.181 4.181l.003 37.717a3.962 3.962 0 0 0 3.93 3.629h24.505a3.945 3.945 0 0 0 3.942-3.939v-1.252s.911-.062 1.323.198c1.576 1.001 3.525 2.261 6.065 2.261H111.7c13.668 0 12.203-12.137 10.957-13.797 2.309-2.518 3.738-6.951 1.788-10.459 1.509-1.585 4.148-5.946 1.788-10.461" clip-path="url(#f)" fill="#36383d"/><path d="M120.681 61.362H94.889c.996-3.952 2.833-16.548 2.833-16.548-.417-6.115-4.506-13.788-4.506-13.788-4.86-2.046-7.045.76-7.045.76s.253 9.718.253 11.962c0 2.245-11.108 20.197-13.821 22.509-1.438 1.226-4.02 2.911-6.122 4.219v28.972l1.685.002c1.939 0 4.321 2.996 6.951 2.996l37.207-.017c7.479 0 8.669-8.423 3.734-9.231l.222-.93c4.731-.51 7.609-7.992 1.568-9.526l.222-.933c4.517-.477 7.87-7.738 1.567-9.527l.223-.932c5.93-.935 7.139-9.987.821-9.988" clip-path="url(#f)" fill="#fff"/><path d="M119.634 72.282l.223-.932c5.932-.936 7.142-9.987.824-9.989h-12.459c6.318.002 5.109 9.053-.824 9.989l-.095.554c6.303 1.791 2.821 9.431-1.695 9.905l-.096.556c6.041 1.534 3.036 9.395-1.696 9.904l-.094.552c4.936.808 3.618 9.61-3.86 9.61l-24.822.01c.025 0 .05.006.075.006l37.207-.016c7.478 0 8.669-8.423 3.734-9.232l.222-.93c4.731-.51 7.609-7.991 1.568-9.526l.223-.934c4.514-.474 7.868-7.737 1.565-9.527" clip-path="url(#f)" fill="#eceef7"/><path clip-path="url(#f)" fill="#7082ac" d="M39.28 67.536h24.562v37.644H39.28z"/><path d="M39.28 105.18h24.562V67.536H39.28v37.644zm22.981-1.58h-21.4V72.401l21.4-.035V103.6z" clip-path="url(#f)" fill="#7c8db1"/><g opacity=".5" clip-path="url(#f)"><defs><path id="g" d="M66.479 68.063h3.71v32.134h-3.71z"/></defs><clipPath id="h"><use xlink:href="#g" overflow="visible"/></clipPath><path d="M70.189 100.197V68.064c-.054.038-3.44 2.247-3.711 2.414V99.45l1.685.002c.631-.001 1.308.319 2.026.745" clip-path="url(#h)" fill="#d2d2d1"/></g><path d="M89.757 30.281h-.002c.018.071 3.036 11.257 3.036 12.864 0 1.609-9.158 15.263-7.932 16.991 1.67 2.353 10.03 1.227 10.03 1.227.996-3.953 2.833-16.549 2.833-16.549-.416-6.114-4.505-13.787-4.505-13.787-.165-.069-1.563-.747-3.46-.746" clip-path="url(#f)" fill="#eceef7"/></g></g><g fill="#465b94"><path d="M148 104.26V45.055h8.052v51.626h28.607v7.578H148zM195.638 51.307c-3.505 0-5.115-2.652-5.115-5.589s1.61-5.589 5.115-5.589 5.115 2.652 5.115 5.589-1.61 5.589-5.115 5.589zm-3.884 52.953V60.685l7.768-1.231v44.806h-7.768zM218.26 82.852v21.408h-7.768V40.414l7.768-1.231v41.585h.189l17.902-19.893h9.852L226.311 81.43l19.988 22.83h-9.947L218.45 82.852h-.19zM254.416 83.893c.285 8.525 5.969 14.588 14.305 14.588 4.547 0 9.473-1.23 12.977-3.6l1.422 7.199c-3.885 2.369-9.094 3.6-14.588 3.6-13.072 0-21.977-9.377-21.977-22.639 0-14.02 9.283-23.587 21.408-23.587 10.514 0 16.576 6.631 16.576 16.957 0 2.367-.379 5.02-.947 6.914l-29.176.189v.379zm22.641-6.252v-.662c0-6.442-3.031-10.705-9.852-10.705-7.389 0-11.746 5.873-12.41 11.556l22.262-.189z"/></g></svg>