<svg xmlns="http://www.w3.org/2000/svg" width="22" height="22"><path fill="#3FA047" fill-rule="evenodd" d="M11 0C4.925 0 0 4.925 0 11s4.925 11 11 11 11-4.925 11-11A11 11 0 0 0 11 0zM9.43 15H4.36V6.329h4.914c1.729 0 2.535 1.118 2.535 2.21 0 1.079-.663 1.807-1.482 1.989.923.143 1.651 1.027 1.651 2.119 0 1.261-.845 2.353-2.548 2.353zm-.663-5.369c.455 0 .767-.247.767-.676 0-.416-.312-.676-.767-.676H6.596v1.352h2.171zm6.727.369V8.5h2V10H19v2h-1.506v1.5h-2V12H14v-2h1.494zm-6.649 3.05H6.596v-1.469h2.249c.546 0 .858.299.858.728 0 .468-.325.741-.858.741z"/></svg>