<svg width="24" height="24" viewBox="0 0 24 24" fill="none" xmlns="http://www.w3.org/2000/svg">
    <g clip-path="url(#clip0_1006_51166)">
        <path d="M24 12C24 18.6274 18.6274 24 12 24C5.37258 24 0 18.6274 0 12C0 5.37258 5.37258 0 12 0C18.6274 0 24 5.37258 24 12Z" fill="white"/>
        <path fill-rule="evenodd" clip-rule="evenodd" d="M12 23.5C18.3513 23.5 23.5 18.3513 23.5 12C23.5 5.64873 18.3513 0.5 12 0.5C5.64873 0.5 0.5 5.64873 0.5 12C0.5 18.3513 5.64873 23.5 12 23.5ZM12 24C18.6274 24 24 18.6274 24 12C24 5.37258 18.6274 0 12 0C5.37258 0 0 5.37258 0 12C0 18.6274 5.37258 24 12 24Z" fill="black" fill-opacity="0.12"/>
        <path fill-rule="evenodd" clip-rule="evenodd" d="M12 20C16.4183 20 20 16.4183 20 12C20 7.58172 16.4183 4 12 4C7.58172 4 4 7.58172 4 12C4 16.4183 7.58172 20 12 20Z" fill="black" fill-opacity="0.09"/>
        <path fill-rule="evenodd" clip-rule="evenodd" d="M4 12C4 7.58172 7.58172 4 12 4C16.4183 4 20 7.58172 20 12C20 16.4183 16.4183 20 12 20C7.58172 20 4 16.4183 4 12ZM11.9964 5.52381C11.8007 5.52478 11.5575 5.61165 11.2727 5.88262C10.9825 6.15886 10.6864 6.5946 10.4212 7.19133C9.96292 8.22245 9.64137 9.63397 9.56311 11.2381H14.4362C14.358 9.63397 14.0364 8.22245 13.5781 7.19133C13.3129 6.5946 13.0169 6.15886 12.7266 5.88262C12.4415 5.61126 12.198 5.52453 12.0021 5.52381L11.9964 5.52381ZM14.4362 12.7619H9.56311C9.64138 14.366 9.96292 15.7775 10.4212 16.8087C10.6864 17.4054 10.9825 17.8411 11.2727 18.1174C11.5591 18.3899 11.8034 18.4762 11.9997 18.4762C12.1959 18.4762 12.4403 18.3899 12.7266 18.1174C13.0169 17.8411 13.3129 17.4054 13.5781 16.8087C14.0364 15.7775 14.358 14.366 14.4362 12.7619ZM8.03767 11.2381C8.1169 9.45396 8.4723 7.82439 9.02872 6.57245C9.09434 6.42479 9.1634 6.28095 9.23592 6.14162C7.26032 7.07537 5.8329 8.97903 5.56815 11.2381H8.03767ZM5.56815 12.7619H8.03767C8.1169 14.546 8.4723 16.1756 9.02872 17.4275C9.09435 17.5752 9.16341 17.7191 9.23593 17.8584C7.26033 16.9246 5.8329 15.021 5.56815 12.7619ZM15.9617 12.7619H18.4318C18.1671 15.0213 16.7393 16.9252 14.7632 17.8588C14.8358 17.7193 14.9049 17.5753 14.9706 17.4275C15.527 16.1756 15.8824 14.546 15.9617 12.7619ZM18.4318 11.2381H15.9617C15.8824 9.45396 15.527 7.82439 14.9706 6.57245C14.9049 6.42465 14.8358 6.28066 14.7632 6.1412C16.7393 7.07481 18.1671 8.9787 18.4318 11.2381Z" fill="black" fill-opacity="0.84"/>
    </g>
    <defs>
        <clipPath id="clip0_1006_51166">
            <rect width="24" height="24" rx="2.97508" fill="white"/>
        </clipPath>
    </defs>
</svg>
