<svg width="14" height="11" viewBox="0 0 14 11" version="1.1" xmlns="http://www.w3.org/2000/svg" xmlns:xlink="http://www.w3.org/1999/xlink">
<title>eye-dont-see</title>
<desc>Created using Figma</desc>
<g id="Canvas" transform="translate(-12019 -97)">
<rect x="12019" y="97" width="14" height="11" fill="#E5E5E5"/>
<clipPath id="clip-0" clip-rule="evenodd">
<path d="M 11994 -230L 12302 -230L 12302 410L 11994 410L 11994 -230Z" fill="#FFFFFF"/>
</clipPath>
<g id="Extension v17c-on" clip-path="url(#clip-0)">
<path d="M 11994 -230L 12302 -230L 12302 410L 11994 410L 11994 -230Z" fill="#4F4F4F"/>
<g id="base" filter="url(#filter0_d)">
<use xlink:href="#path0_fill" transform="translate(11999 -222.971)" fill="#F1F2F6"/>
<mask id="mask0_outline_out">
<rect id="mask0_outline_inv" fill="white" x="-1" y="-2" width="300" height="611" transform="translate(11999 -222.971)"/>
<use xlink:href="#path0_fill" fill="black" transform="translate(11999 -222.971)"/>
</mask>
<g mask="url(#mask0_outline_out)">
<use xlink:href="#path1_stroke_2x" transform="translate(11999 -222.971)" fill="#000000" fill-opacity="0.05"/>
</g>
</g>
<g id="Local v17c">
<g id="card" filter="url(#filter1_d)">
<use xlink:href="#path2_fill" transform="translate(11999 -148)" fill="#FFFFFF"/>
<mask id="mask1_outline_out">
<rect id="mask1_outline_inv" fill="white" x="-1" y="-1" width="300" height="358" transform="translate(11999 -148)"/>
<use xlink:href="#path2_fill" fill="black" transform="translate(11999 -148)"/>
</mask>
<g mask="url(#mask1_outline_out)">
<use xlink:href="#path3_stroke_2x" transform="translate(11999 -148)" fill="#000000" fill-opacity="0.04"/>
</g>
</g>
<g id="networks v17">
<g id="eye-dont-see">
<use xlink:href="#path4_fill" transform="translate(12019 95)" fill="#CCCCCC"/>
</g>
</g>
</g>
</g>
</g>
<defs>
<filter id="filter0_d" filterUnits="userSpaceOnUse" x="11996" y="-226" width="304" height="616" color-interpolation-filters="sRGB">
<feFlood flood-opacity="0" result="BackgroundImageFix"/>
<feColorMatrix in="SourceAlpha" type="matrix" values="0 0 0 0 0 0 0 0 0 0 0 0 0 0 0 0 0 0 255 0"/>
<feOffset dx="0" dy="1"/>
<feGaussianBlur stdDeviation="1"/>
<feColorMatrix type="matrix" values="0 0 0 0 0 0 0 0 0 0 0 0 0 0 0 0 0 0 0.15 0"/>
<feBlend mode="normal" in2="BackgroundImageFix" result="effect1_dropShadow"/>
<feBlend mode="normal" in="SourceGraphic" in2="effect1_dropShadow" result="shape"/>
</filter>
<filter id="filter1_d" filterUnits="userSpaceOnUse" x="11995" y="-150" width="306" height="364" color-interpolation-filters="sRGB">
<feFlood flood-opacity="0" result="BackgroundImageFix"/>
<feColorMatrix in="SourceAlpha" type="matrix" values="0 0 0 0 0 0 0 0 0 0 0 0 0 0 0 0 0 0 255 0"/>
<feOffset dx="0" dy="2"/>
<feGaussianBlur stdDeviation="1.5"/>
<feColorMatrix type="matrix" values="0 0 0 0 0 0 0 0 0 0 0 0 0 0 0 0 0 0 0.06 0"/>
<feBlend mode="normal" in2="BackgroundImageFix" result="effect1_dropShadow"/>
<feBlend mode="normal" in="SourceGraphic" in2="effect1_dropShadow" result="shape"/>
</filter>
<path id="path0_fill" fill-rule="evenodd" d="M 160.171 13.9706L 149 0L 137.829 13.9706L 3 13.9706C 1.34277 13.9706 0 15.3137 0 16.9706L 0 604.971C 0 606.627 1.34277 607.971 3 607.971L 295 607.971C 296.657 607.971 298 606.627 298 604.971L 298 16.9706C 298 15.3137 296.657 13.9706 295 13.9706L 160.171 13.9706Z"/>
<path id="path1_stroke_2x" d="M 149 0L 149.781 -0.624506L 149 -1.60127L 148.219 -0.624506L 149 0ZM 160.171 13.9706L 159.39 14.5951L 159.69 14.9706L 160.171 14.9706L 160.171 13.9706ZM 137.829 13.9706L 137.829 14.9706L 138.31 14.9706L 138.61 14.5951L 137.829 13.9706ZM 148.219 0.624506L 159.39 14.5951L 160.952 13.3461L 149.781 -0.624506L 148.219 0.624506ZM 138.61 14.5951L 149.781 0.624506L 148.219 -0.624506L 137.048 13.3461L 138.61 14.5951ZM 3 14.9706L 137.829 14.9706L 137.829 12.9706L 3 12.9706L 3 14.9706ZM 1 16.9706C 1 15.8659 1.89514 14.9706 3 14.9706L 3 12.9706C 0.790409 12.9706 -1 14.7615 -1 16.9706L 1 16.9706ZM 1 604.971L 1 16.9706L -1 16.9706L -1 604.971L 1 604.971ZM 3 606.971C 1.89514 606.971 1 606.075 1 604.971L -1 604.971C -1 607.18 0.790409 608.971 3 608.971L 3 606.971ZM 295 606.971L 3 606.971L 3 608.971L 295 608.971L 295 606.971ZM 297 604.971C 297 606.075 296.105 606.971 295 606.971L 295 608.971C 297.21 608.971 299 607.18 299 604.971L 297 604.971ZM 297 16.9706L 297 604.971L 299 604.971L 299 16.9706L 297 16.9706ZM 295 14.9706C 296.105 14.9706 297 15.8659 297 16.9706L 299 16.9706C 299 14.7615 297.21 12.9706 295 12.9706L 295 14.9706ZM 160.171 14.9706L 295 14.9706L 295 12.9706L 160.171 12.9706L 160.171 14.9706Z"/>
<path id="path2_fill" d="M 0 0L 298 0L 298 356L 0 356L 0 0Z"/>
<path id="path3_stroke_2x" d="M 0 0L 0 -1L -1 -1L -1 0L 0 0ZM 298 0L 299 0L 299 -1L 298 -1L 298 0ZM 298 356L 298 357L 299 357L 299 356L 298 356ZM 0 356L -1 356L -1 357L 0 357L 0 356ZM 0 1L 298 1L 298 -1L 0 -1L 0 1ZM 297 0L 297 356L 299 356L 299 0L 297 0ZM 298 355L 0 355L 0 357L 298 357L 298 355ZM 1 356L 1 0L -1 0L -1 356L 1 356Z"/>
<path id="path4_fill" d="M 4.33594 10.4297L 4.94531 9.32812C 4.49219 9 4.13802 8.58594 3.88281 8.08594C 3.6276 7.58594 3.5 7.05729 3.5 6.5C 3.5 5.86979 3.65885 5.28385 3.97656 4.74219C 2.78385 5.35156 1.79167 6.27083 1 7.5C 1.86979 8.84375 2.98177 9.82031 4.33594 10.4297ZM 7.26563 4.76562C 7.33854 4.69271 7.375 4.60417 7.375 4.5C 7.375 4.39583 7.33854 4.30729 7.26563 4.23438C 7.19271 4.16146 7.10417 4.125 7 4.125C 6.34896 4.125 5.78906 4.35938 5.32031 4.82813C 4.85677 5.29167 4.625 5.84896 4.625 6.5C 4.625 6.60417 4.66146 6.69271 4.73437 6.76562C 4.80729 6.83854 4.89583 6.875 5 6.875C 5.10417 6.875 5.19271 6.83854 5.26562 6.76562C 5.33854 6.69271 5.375 6.60417 5.375 6.5C 5.375 6.05208 5.53385 5.66927 5.85156 5.35156C 6.16927 5.03385 6.55208 4.875 7 4.875C 7.10417 4.875 7.19271 4.83854 7.26563 4.76562ZM 10.2109 3.00781C 10.2109 3.04427 10.2083 3.06771 10.2031 3.07813C 9.65625 4.05729 8.83594 5.53125 7.74219 7.5C 6.64844 9.46875 5.82552 10.9453 5.27344 11.9297L 4.89063 12.625C 4.83854 12.7083 4.76563 12.75 4.67188 12.75C 4.60937 12.75 4.26042 12.5677 3.625 12.2031C 3.54167 12.151 3.5 12.0781 3.5 11.9844C 3.5 11.9219 3.61458 11.6953 3.84375 11.3047C 3.09896 10.9661 2.41146 10.5156 1.78125 9.95313C 1.15625 9.39062 0.614583 8.7526 0.15625 8.03906C 0.0520833 7.8776 0 7.69792 0 7.5C 0 7.30208 0.0520833 7.1224 0.15625 6.96094C 0.953125 5.73698 1.94271 4.77083 3.125 4.0625C 4.30729 3.35417 5.59896 3 7 3C 7.46354 3 7.93229 3.04427 8.40625 3.13281L 8.82813 2.375C 8.88021 2.29167 8.95312 2.25 9.04688 2.25C 9.07292 2.25 9.11979 2.26562 9.1875 2.29687C 9.25521 2.32812 9.33594 2.36979 9.42969 2.42188C 9.52344 2.46875 9.60937 2.51562 9.6875 2.5625C 9.76562 2.60938 9.84635 2.65885 9.92969 2.71094C 10.0182 2.75781 10.0703 2.78646 10.0859 2.79687C 10.1693 2.84896 10.2109 2.91927 10.2109 3.00781ZM 10.5 6.5C 10.5 7.22396 10.2943 7.88542 9.88281 8.48438C 9.47135 9.07813 8.92708 9.50521 8.25 9.76562L 10.4375 5.84375C 10.4792 6.07813 10.5 6.29688 10.5 6.5ZM 13.8437 6.96094C 13.9479 7.13802 14 7.31771 14 7.5C 14 7.68229 13.9479 7.86198 13.8437 8.03906C 13.6406 8.3724 13.3568 8.75 12.9922 9.17187C 12.2109 10.0677 11.3047 10.763 10.2734 11.2578C 9.2474 11.7526 8.15625 12 7 12L 7.57812 10.9687C 8.68229 10.875 9.70313 10.5182 10.6406 9.89844C 11.5833 9.27865 12.3698 8.47917 13 7.5C 12.401 6.56771 11.6667 5.80208 10.7969 5.20313L 11.2891 4.32812C 11.7839 4.66146 12.2578 5.0599 12.7109 5.52344C 13.1693 5.98698 13.5469 6.46615 13.8437 6.96094Z"/>
</defs>
</svg>
