<svg width="10" height="12" viewBox="0 0 10 12" version="1.1" xmlns="http://www.w3.org/2000/svg" xmlns:xlink="http://www.w3.org/1999/xlink">
<title>unlock</title>
<desc>Created using Figma</desc>
<g id="Canvas" transform="translate(-12367 -60)">
<g id="unlock">
<use xlink:href="#path0_fill" transform="translate(12367 60)" fill="#CCCCCC"/>
</g>
</g>
<defs>
<path id="path0_fill" d="M 8.25195 6C 8.46029 6 8.63737 6.07292 8.7832 6.21875C 8.92904 6.36458 9.00195 6.54167 9.00195 6.75L 9.00195 11.25C 9.00195 11.4583 8.92904 11.6354 8.7832 11.7812C 8.63737 11.9271 8.46029 12 8.25195 12L 0.751953 12C 0.54362 12 0.366536 11.9271 0.220703 11.7812C 0.0748698 11.6354 0.00195312 11.4583 0.00195312 11.25L 0.00195312 6.75C 0.00195312 6.54167 0.0748698 6.36458 0.220703 6.21875C 0.366536 6.07292 0.54362 6 0.751953 6L 1.00195 6L 1.00195 3.5C 1.00195 2.53646 1.3431 1.71354 2.02539 1.03125C 2.71289 0.34375 3.53841 -1.19209e-07 4.50195 -1.19209e-07C 5.46549 -1.19209e-07 6.28841 0.34375 6.9707 1.03125C 7.6582 1.71354 8.00195 2.53646 8.00195 3.5C 8.00195 3.63542 7.95247 3.7526 7.85352 3.85156C 7.75456 3.95052 7.63737 4 7.50195 4L 7.00195 4C 6.86654 4 6.74935 3.95052 6.65039 3.85156C 6.55143 3.7526 6.50195 3.63542 6.50195 3.5C 6.50195 2.94792 6.30664 2.47656 5.91602 2.08594C 5.52539 1.69531 5.05404 1.5 4.50195 1.5C 3.94987 1.5 3.47852 1.69531 3.08789 2.08594C 2.69727 2.47656 2.50195 2.94792 2.50195 3.5L 2.50195 6L 8.25195 6Z"/>
</defs>
</svg>
