<svg width="10" height="11" viewBox="0 0 10 11" version="1.1" xmlns="http://www.w3.org/2000/svg" xmlns:xlink="http://www.w3.org/1999/xlink">
<title>lock</title>
<desc>Created using Figma</desc>
<g id="Canvas" transform="translate(-12019 -61)">
<g id="lock">
<use xlink:href="#path0_fill" transform="translate(12019 60)" fill="#CCCCCC"/>
</g>
</g>
<defs>
<path id="path0_fill" d="M 2.50195 6L 6.50195 6L 6.50195 4.5C 6.50195 3.94792 6.30664 3.47656 5.91602 3.08594C 5.52539 2.69531 5.05404 2.5 4.50195 2.5C 3.94987 2.5 3.47852 2.69531 3.08789 3.08594C 2.69727 3.47656 2.50195 3.94792 2.50195 4.5L 2.50195 6ZM 9.00195 6.75L 9.00195 11.25C 9.00195 11.4583 8.92904 11.6354 8.7832 11.7812C 8.63737 11.9271 8.46029 12 8.25195 12L 0.751953 12C 0.54362 12 0.366536 11.9271 0.220703 11.7812C 0.0748698 11.6354 0.00195312 11.4583 0.00195312 11.25L 0.00195312 6.75C 0.00195312 6.54167 0.0748698 6.36458 0.220703 6.21875C 0.366536 6.07292 0.54362 6 0.751953 6L 1.00195 6L 1.00195 4.5C 1.00195 3.54167 1.3457 2.71875 2.0332 2.03125C 2.7207 1.34375 3.54362 1 4.50195 1C 5.46029 1 6.2832 1.34375 6.9707 2.03125C 7.6582 2.71875 8.00195 3.54167 8.00195 4.5L 8.00195 6L 8.25195 6C 8.46029 6 8.63737 6.07292 8.7832 6.21875C 8.92904 6.36458 9.00195 6.54167 9.00195 6.75Z"/>
</defs>
</svg>
