<svg width="24" height="24" viewBox="0 0 24 24" version="1.1" xmlns="http://www.w3.org/2000/svg" xmlns:xlink="http://www.w3.org/1999/xlink">
<title>tn-amazon</title>
<desc>Created using Figma</desc>
<g id="Canvas" transform="translate(-11454 -1013)">
<g id="tn-amazon">
<g id="dot">
<use xlink:href="#path0_fill" transform="translate(11454 1013)" fill="#de5833"/>
</g>
<g id="amazon">
<use xlink:href="#path1_fill" transform="translate(11459 1020)" fill="#FFFFFF"/>
</g>
</g>
</g>
<defs>
<path id="path0_fill" d="M 24 12C 24 18.6274 18.6274 24 12 24C 5.37258 24 0 18.6274 0 12C 0 5.37258 5.37258 0 12 0C 18.6274 0 24 5.37258 24 12Z"/>
<path id="path1_fill" d="M 0.024 9.312C 0.063996 9.248 0.127992 9.244 0.216 9.3C 2.21599 10.46 4.392 11.04 6.744 11.04C 8.31199 11.04 9.85999 10.748 11.388 10.164C 11.428 10.148 11.486 10.124 11.562 10.092C 11.638 10.06 11.692 10.036 11.724 10.02C 11.844 9.972 11.938 9.996 12.006 10.092C 12.074 10.188 12.052 10.276 11.94 10.356C 11.796 10.46 11.612 10.58 11.388 10.716C 10.7 11.124 9.93199 11.44 9.084 11.664C 8.236 11.888 7.408 12 6.6 12C 5.352 12 4.17199 11.782 3.06 11.346C 1.948 10.91 0.951996 10.296 0.072 9.504C 0.024 9.464 0 9.424 0 9.384C 0 9.36 0.007992 9.336 0.024 9.312ZM 3.636 5.892C 3.636 5.34 3.772 4.868 4.044 4.476C 4.31599 4.084 4.68799 3.788 5.16 3.588C 5.592 3.404 6.124 3.272 6.756 3.192C 6.972 3.168 7.324 3.136 7.812 3.096L 7.812 2.892C 7.812 2.38 7.756 2.036 7.644 1.86C 7.476 1.62 7.212 1.5 6.852 1.5L 6.756 1.5C 6.492 1.524 6.264 1.608 6.072 1.752C 5.88 1.896 5.75599 2.096 5.7 2.352C 5.668 2.512 5.58799 2.604 5.46 2.628L 4.08 2.46C 3.94399 2.428 3.876 2.356 3.876 2.244C 3.876 2.22 3.88 2.192 3.888 2.16C 4.024 1.448 4.35799 0.920004 4.89 0.576C 5.422 0.231996 6.04399 0.039996 6.756 0L 7.056 0C 7.968 0 8.68 0.236004 9.192 0.708C 9.27231 0.788364 9.34651 0.874603 9.414 0.966C 9.48199 1.058 9.53599 1.14 9.576 1.212C 9.616 1.284 9.652 1.388 9.684 1.524C 9.71599 1.66 9.73999 1.754 9.756 1.806C 9.772 1.858 9.784 1.97 9.792 2.142C 9.79999 2.314 9.804 2.416 9.804 2.448L 9.804 5.352C 9.804 5.56 9.834 5.75 9.894 5.922C 9.954 6.094 10.012 6.218 10.068 6.294C 10.124 6.37 10.216 6.492 10.344 6.66C 10.392 6.732 10.416 6.796 10.416 6.852C 10.416 6.916 10.384 6.972 10.32 7.02C 9.65599 7.596 9.29599 7.908 9.24 7.956C 9.144 8.028 9.028 8.036 8.892 7.98C 8.77999 7.884 8.682 7.792 8.598 7.704C 8.514 7.616 8.454 7.552 8.418 7.512C 8.382 7.472 8.32399 7.394 8.244 7.278C 8.164 7.162 8.10799 7.084 8.076 7.044C 7.62799 7.532 7.188 7.836 6.756 7.956C 6.484 8.036 6.148 8.076 5.748 8.076C 5.13199 8.076 4.626 7.886 4.23 7.506C 3.834 7.126 3.636 6.588 3.636 5.892ZM 5.7 5.652C 5.7 5.964 5.778 6.214 5.934 6.402C 6.09 6.59 6.3 6.684 6.564 6.684C 6.588 6.684 6.622 6.68 6.666 6.672C 6.70999 6.664 6.73999 6.66 6.756 6.66C 7.092 6.572 7.35199 6.356 7.536 6.012C 7.624 5.86 7.69 5.694 7.734 5.514C 7.77799 5.334 7.80199 5.188 7.806 5.076C 7.81 4.964 7.812 4.78 7.812 4.524L 7.812 4.224C 7.348 4.224 6.996 4.256 6.756 4.32C 6.052 4.52 5.7 4.964 5.7 5.652ZM 10.74 9.516C 10.756 9.484 10.78 9.452 10.812 9.42C 11.012 9.284 11.204 9.192 11.388 9.144C 11.692 9.064 11.988 9.02 12.276 9.012C 12.356 9.004 12.432 9.008 12.504 9.024C 12.864 9.056 13.08 9.116 13.152 9.204C 13.184 9.252 13.2 9.324 13.2 9.42L 13.2 9.504C 13.2 9.784 13.124 10.114 12.972 10.494C 12.82 10.874 12.608 11.18 12.336 11.412C 12.296 11.444 12.26 11.46 12.228 11.46C 12.212 11.46 12.196 11.456 12.18 11.448C 12.132 11.424 12.12 11.38 12.144 11.316C 12.44 10.62 12.588 10.136 12.588 9.864C 12.588 9.776 12.572 9.712 12.54 9.672C 12.46 9.576 12.236 9.528 11.868 9.528C 11.732 9.528 11.572 9.536 11.388 9.552C 11.188 9.576 11.004 9.6 10.836 9.624C 10.788 9.624 10.756 9.616 10.74 9.6C 10.724 9.584 10.72 9.568 10.728 9.552C 10.728 9.544 10.732 9.532 10.74 9.516Z"/>
</defs>
</svg>
