<svg width="24" height="24" viewBox="0 0 24 24" version="1.1" xmlns="http://www.w3.org/2000/svg" xmlns:xlink="http://www.w3.org/1999/xlink">
<title>tn-appnexus</title>
<desc>Created using Figma</desc>
<g id="Canvas" transform="translate(-11390 -1045)">
<g id="tn-appnexus">
<g id="dot">
<use xlink:href="#path0_fill" transform="translate(11390 1045)" fill="#5B9E4D"/>
</g>
<g id="appnexus">
<use xlink:href="#path1_fill" transform="translate(11397 1052)" fill="#FFFFFF"/>
</g>
</g>
</g>
<defs>
<path id="path0_fill" d="M 24 12C 24 18.6274 18.6274 24 12 24C 5.37258 24 0 18.6274 0 12C 0 5.37258 5.37258 0 12 0C 18.6274 0 24 5.37258 24 12Z"/>
<path id="path1_fill" d="M 9.12831 5.90922e-12L 0.871751 5.90922e-12C 0.390216 6.22057e-05 0.000124411 0.390154 -2.95461e-12 0.871751L -2.95461e-12 9.12837C 0.000124411 9.60978 0.390216 9.99988 0.871751 10L 9.12831 10C 9.60978 9.99988 9.99994 9.60985 10.0001 9.12837L 10.0001 0.871751C 9.99994 0.390154 9.60978 6.22057e-05 9.12831 5.90922e-12ZM 0.335351 3.42896C 2.02374 3.46666 3.54566 4.16504 4.65852 5.27734C 5.78482 6.4042 6.4865 7.95082 6.50777 9.66477L 3.77458 9.66477C 3.73315 7.7698 2.2218 6.23792 0.335351 6.1634L 0.335351 3.42896L 0.335351 3.42896ZM 3.49241 0.335289L 6.22561 0.335289C 6.26704 2.23026 7.77832 3.76208 9.66477 3.83672L 9.66477 6.57116C 7.97645 6.5334 6.45452 5.83502 5.34167 4.72272C 4.21531 3.59586 3.51363 2.04924 3.49241 0.335289ZM 9.66471 0.871751L 9.66471 3.09853C 8.93516 3.06232 8.28039 2.75266 7.7958 2.26858C 7.2976 1.76981 6.98502 1.09059 6.96418 0.335289L 9.12831 0.335289C 9.42447 0.335786 9.66421 0.575527 9.66471 0.871751ZM 0.871751 0.335289L 2.75478 0.335289C 2.76772 1.49518 3.06033 2.58782 3.56855 3.5489C 2.60499 3.02257 1.50513 2.71472 0.335351 2.69127L 0.335351 0.871751C 0.335724 0.575527 0.575527 0.335786 0.871751 0.335289ZM 0.335351 9.12837L 0.335351 6.90153C 1.06496 6.93774 1.71968 7.2474 2.20432 7.73148C 2.70253 8.23025 3.01511 8.90947 3.03595 9.66477L 0.871751 9.66477C 0.575527 9.66421 0.335724 9.42453 0.335351 9.12837ZM 9.12831 9.66477L 7.24535 9.66477C 7.23247 8.50489 6.93985 7.41231 6.43157 6.45123C 7.39514 6.97749 8.495 7.28534 9.66471 7.3088L 9.66471 9.12837C 9.66421 9.42453 9.42447 9.66421 9.12831 9.66477Z"/>
</defs>
</svg>
