<svg xmlns="http://www.w3.org/2000/svg" viewBox="0 0 83 83"><defs><style>.cls-1{fill:#a8a8ab;}</style></defs><title>amazon</title><g id="Layer_2" data-name="Layer 2"><g id="Layer_1-2" data-name="Layer 1"><path class="cls-1" d="M35.5,42.76c0,6,9.9,7.38,9.9-2V36C41.44,36.09,35.5,37.21,35.5,42.76Z"/><path class="cls-1" d="M41.5,0A41.5,41.5,0,1,0,83,41.5,41.5,41.5,0,0,0,41.5,0Zm-.27,22.4s-4.46,0-6.37,5.82l-8.65-.8c0-5.79,5.5-12.26,15.84-12.26s13.21,6.7,13.21,9.68v17.3c0,3.23,3.8,6.2,3.8,6.2l-6.68,6.59a54.8,54.8,0,0,1-5.33-5.5c-5.31,8.32-21.58,7.79-21.58-5.08,0-12,14.21-13.61,19.93-13.82C45.4,25.91,46,22.39,41.23,22.4ZM61.4,60c-.91,1.18-8.24,7.88-20.52,7.88S19.18,59.43,16.3,56c-.8-.9.12-1.33.65-1,8.62,5.23,22.08,13.85,43.8,3.56C61.63,58.12,62.31,58.79,61.4,60Zm4.68.26a10,10,0,0,1-2.5,3.65c-.64.52-1.11.31-.76-.45S65.09,58,64.31,57s-4.35-.5-5.64-.38-1.53.24-1.65,0c-.27-.67,2.55-1.82,4.41-2.06s4.82-.09,5.41.67C67.28,55.75,66.84,58.34,66.08,60.22Z"/></g></g></svg>