<svg xmlns="http://www.w3.org/2000/svg" viewBox="0 0 83 83"><defs><style>.cls-1{fill:#a8a8ab;}</style></defs><title>aol</title><g id="Layer_2" data-name="Layer 2"><g id="Layer_1-2" data-name="Layer 1"><path class="cls-1" d="M20.35,35.17c-.9,3-1.81,6-2.73,9.07h5.54c-.92-3.06-1.82-6.07-2.73-9.08Z"/><path class="cls-1" d="M41.5,0A41.5,41.5,0,1,0,83,41.5,41.5,41.5,0,0,0,41.5,0ZM26.25,53.47c-.42-1.24-.85-2.5-1.28-3.78H15.74c-.46,1.26-.92,2.52-1.39,3.79h-7c0-.33,10.09-26,10.42-26.55h5.33L33.4,53.41C33.09,53.53,27.2,53.57,26.25,53.47ZM53,50.2A9.72,9.72,0,0,1,46,54,11.56,11.56,0,0,1,41,53.5a10,10,0,0,1-6.55-6.84,10.32,10.32,0,0,1-.5-3.22A10.78,10.78,0,0,1,38,35a9.7,9.7,0,0,1,4.27-1.89,11.89,11.89,0,0,1,6,.32,9.72,9.72,0,0,1,6.27,6A10.67,10.67,0,0,1,53,50.2Zm11.65,3.27h-6V26.94H64.6C64.69,27.24,64.72,52.9,64.62,53.47Zm7.11.11a3.94,3.94,0,1,1,3.94-3.93A3.93,3.93,0,0,1,71.73,53.58Z"/><path class="cls-1" d="M41,40.13A5.37,5.37,0,0,0,40.48,46a4.64,4.64,0,0,0,6.46,1.84,5.29,5.29,0,0,0,2-6.54A4.65,4.65,0,0,0,41,40.13Z"/></g></g></svg>