<?xml version="1.0" encoding="UTF-8"?>
<svg width="12px" height="13px" viewBox="0 0 12 13" version="1.1" xmlns="http://www.w3.org/2000/svg" xmlns:xlink="http://www.w3.org/1999/xlink">
    <!-- Generator: sketchtool 47.1 (45422) - http://www.bohemiancoding.com/sketch -->
    <title>8709DC29-C496-41F9-8301-42EC50E35983</title>
    <desc>Created with sketchtool.</desc>
    <defs></defs>
    <g id="V4--RC-Updates" stroke="none" stroke-width="1" fill="none" fill-rule="evenodd">
        <g id="ASSETS--Pill-Icons" transform="translate(-182.000000, -410.000000)" fill-rule="nonzero" fill="#FFFFFF">
            <g id="appnexus" transform="translate(182.000000, 410.000000)">
                <path d="M5.2,6.42 C3.78361449,5.12995338 1.93581734,4.41651818 0.02,4.42 L0.02,8.236 C2.484,8.528 3.82,9.9 4.1,12.332 L7.936,12.332 C7.92096328,10.0586017 6.92330118,7.90283477 5.2,6.42 Z" id="Shape"></path>
                <path d="M11.796,4.42 C11.536,4.36 11.264,4.34 10.996,4.276 C9.31912983,3.83163085 8.10532199,2.37730627 7.968,0.648 C7.94420141,0.530641924 7.85833884,0.435579789 7.744,0.4 C6.58133333,0.4 5.42533333,0.4 4.276,0.4 C4.17888235,0.430437812 4.10461987,0.509246976 4.08,0.608 C4.08177585,0.886809558 4.10585264,1.16503028 4.152,1.44 C4.56460383,4.22626555 6.41204241,6.59025769 9.016,7.664 C9.96122735,8.06314219 10.9741183,8.2776687 12,8.296 C12,7.032 12,5.808 12,4.584 C12,4.528 11.872,4.44 11.796,4.42 Z" id="Shape"></path>
                <path d="M8.288,8.7 C8.76923946,9.78400533 9.0263891,10.9541042 9.044,12.14 C9.044,12.336 9.14,12.364 9.304,12.364 C10.132,12.364 10.96,12.364 11.784,12.364 C11.8499538,12.3575615 11.9154232,12.3468726 11.98,12.332 L11.98,9.412 C10.6976549,9.3830621 9.43411136,9.0974387 8.264,8.572 C8.26730049,8.61541523 8.27534853,8.65833808 8.288,8.7 L8.288,8.7 Z" id="Shape"></path>
                <path d="M2.964,0.604 C2.964,0.412 2.844,0.404 2.704,0.404 L0.252,0.404 C0.056,0.4 0,0.476 0,0.668 C0,1.2 0,1.744 0,2.284 L0,3.288 C1.31516599,3.31548173 2.61037945,3.6151105 3.804,4.168 C3.28802491,3.04828432 3.00236803,1.836283 2.964,0.604 L2.964,0.604 Z" id="Shape"></path>
                <path d="M0.028,9.456 L0.028,12.348 L2.932,12.348 C3.084,10.868 1.272,9.092 0.028,9.456 Z" id="Shape"></path>
                <path d="M11.7,3.28 C11.884,3.28 12.004,3.28 12,3.044 C12,2.244 12,1.444 12,0.644 C12,0.436 11.908,0.392 11.728,0.392 L9.276,0.392 C9.136,0.392 9.044,0.428 9.064,0.6 C9.20028908,2.00338071 10.2990675,3.1204999 11.7,3.28 L11.7,3.28 Z" id="Shape"></path>
            </g>
        </g>
    </g>
</svg>