<svg xmlns="http://www.w3.org/2000/svg" viewBox="0 0 83 83"><defs><style>.cls-1{fill:#a8a8ab;}</style></defs><title>comscore</title><g id="Layer_2" data-name="Layer 2"><g id="Layer_1-2" data-name="Layer 1"><path class="cls-1" d="M45.3,54.43a15.12,15.12,0,0,1-2-.13l-5.52-.46-5.17-.44c-1.44-.13-2.89-.23-4.33-.36-.9-.08-1.8-.13-2.7-.24a2.38,2.38,0,0,1-2.16-2.24c0-.15,0-.29,0-.44V39.74a1.7,1.7,0,0,1,.06-.67l.07-.08,0-.24c-.91.09-1.83.16-2.74.22-.4,0-.79.09-1.2.09-.24,0-.33.15-.32.36,0,.64-.08,1.28-.08,1.92,0,4.15,0,8.31,0,12.47,0,.78.09,1.56.08,2.35,0,.43.06.49.51.56,1.42.2,2.85.4,4.27.62,2.67.4,5.35.76,8,1.16,3.17.47,6.36.89,9.53,1.37,1.1.17,2.21.34,3.32.47.49.06.56,0,.56-.49,0-1.6,0-3.2,0-4.8a1.16,1.16,0,0,1,.08-.61.18.18,0,0,1-.16,0Z"/><path class="cls-1" d="M27.28,38.86h0v0S27.31,38.83,27.28,38.86Z"/><path class="cls-1" d="M27.47,39.17q0,4.55,0,9.07v.4c0,.27.1.37.37.4,1,.11,1.91.09,2.87.15,1.77.1,3.54.15,5.3.23l2.51.11q2.17.06,4.35.21c.21,0,.42,0,.64,0,.66,0,1.33,0,2,0a1.31,1.31,0,0,1-.06-.59V37.76c0-.79,0-.81-.8-.78s-1.86.15-2.78.24c-1.36.12-2.71.19-4.06.32-1.76.17-3.53.3-5.29.45l-3.11.26a4.61,4.61,0,0,1-.83,0l-.06,0c-.09.14-.26.14-.41.16a3.39,3.39,0,0,1-.78,0h0v.1h.11A1.54,1.54,0,0,1,27.47,39.17Z"/><path class="cls-1" d="M61.05,23.66c-2.62.45-5.23,1-7.85,1.42-2.07.36-4.14.75-6.21,1.13a2.66,2.66,0,0,1-.63.09,2.32,2.32,0,0,0-.38-.05c-1.14.24-2.29.42-3.44.62s-2.39.44-3.58.66l-.69.09a.79.79,0,0,0,0,.09,2,2,0,0,1-.95.26c-1.25.22-2.5.47-3.76.68s-2.35.43-3.53.63c-.66.11-1.3.26-2,.35-.49.07-.56.16-.56.64,0,1.24,0,2.48,0,3.71,0,.2,0,.41-.12.57h0a.24.24,0,0,1,0,.08l0,0c1-.18,2.06-.31,3.09-.41,1.28-.14,2.56-.32,3.84-.47l7.53-.89L47,32.22a5.39,5.39,0,0,1,1.39,0,2.11,2.11,0,0,1,1.78,1.41,3,3,0,0,1,.2,1.14q0,7.34,0,14.66c0,.2,0,.43-.12.59a8.6,8.6,0,0,0,2,.15c2.39,0,4.78.25,7.17.28.7,0,1.41,0,2.11.1.36,0,.45-.06.47-.42,0-.12,0-.24,0-.36V24.37C61.92,23.49,61.92,23.5,61.05,23.66Z"/><path class="cls-1" d="M41.5,0A41.5,41.5,0,1,0,83,41.5,41.5,41.5,0,0,0,41.5,0ZM67.12,53.54A2.37,2.37,0,0,1,64.32,56c-1.09-.16-2.2-.18-3.29-.29-1.46-.14-2.92-.22-4.37-.38-.81-.08-1.62-.12-2.43-.19-1.31-.12-2.62-.16-3.93-.35h0l-.11.11c0,.21,0,.42,0,.64,0,2.39,0,4.79,0,7.19a2.34,2.34,0,0,1-3,2.46c-2.22-.45-4.45-.8-6.67-1.19l-4.78-.87-6.63-1.19-7.22-1.27-4.36-.76A2.26,2.26,0,0,1,15.9,58c0-.69,0-1.38,0-2.08V38.42a2.67,2.67,0,0,1,.47-1.77,1.49,1.49,0,0,1,.82-.59,4,4,0,0,1,1.59-.33c1.55-.2,3.1-.38,4.65-.56l.11-.05,0-.91c0-2,0-3.91,0-5.87a2.19,2.19,0,0,1,1.53-1.87c1.36-.33,2.72-.61,4.08-.91l3-.67,3.73-.83,5.64-1.23,6.22-1.35,5.47-1.23,5.45-1.17c1.06-.23,2.11-.53,3.17-.72a22.71,22.71,0,0,1,3-.56,2.25,2.25,0,0,1,2.24,2.45c0,.17,0,.34,0,.52Q67.1,37.15,67.12,53.54Z"/></g></g></svg>