<svg xmlns="http://www.w3.org/2000/svg" viewBox="0 0 83 83"><defs><style>.cls-1{fill:#a8a8ab;}</style></defs><title>chartbeat</title><g id="Layer_2" data-name="Layer 2"><g id="Layer_1-2" data-name="Layer 1"><path class="cls-1" d="M41.5,0A41.5,41.5,0,1,0,83,41.5,41.5,41.5,0,0,0,41.5,0ZM16.25,23.16H67.43l-9.08,8H16.25Zm-9.6,19.6v-8h47.8l-9.08,8Zm11.08,3.66H40.84l-9.07,8h-14Zm19,20.6-.07,0a1.63,1.63,0,0,1-.17.2c-1,1-3,.64-4.49-.82S30.1,63,31.09,62a1.54,1.54,0,0,1,.19-.17.56.56,0,0,1,0-.08l40.9-38.2A1.24,1.24,0,1,1,74,25.26Z"/></g></g></svg>