<svg xmlns="http://www.w3.org/2000/svg" viewBox="0 0 83 83"><defs><style>.cls-1{fill:#a8a8ab;}</style></defs><title>critero</title><g id="Layer_2" data-name="Layer 2"><g id="Layer_1-2" data-name="Layer 1"><path class="cls-1" d="M-1152.5-1396a41.5,41.5,0,0,0-41.5,41.5,41.5,41.5,0,0,0,41.5,41.5,41.5,41.5,0,0,0,41.5-41.5A41.5,41.5,0,0,0-1152.5-1396Zm-31.64,34a3.47,3.47,0,0,1-3.47-3.47,3.47,3.47,0,0,1,3.47-3.48,3.47,3.47,0,0,1,3.46,3.48A3.47,3.47,0,0,1-1184.14-1361.95Zm57.19,20.72h-7a5.52,5.52,0,0,1-5.51-5.51v-15.39a1,1,0,0,0-.94-.95H-1178v-4.77h37.9a5.51,5.51,0,0,1,5.51,5.5V-1347a.94.94,0,0,0,.94,1h6.73Zm6.1,1.13a3.48,3.48,0,0,1-3.47-3.48,3.48,3.48,0,0,1,3.47-3.48,3.47,3.47,0,0,1,3.46,3.48A3.47,3.47,0,0,1-1120.85-1340.1Z" transform="translate(1194 1396)"/></g></g></svg>