<svg xmlns="http://www.w3.org/2000/svg" viewBox="0 0 83 83"><defs><style>.cls-1{fill:#a8a8ab;}</style></defs><title>fox</title><g id="Layer_2" data-name="Layer 2"><g id="Layer_1-2" data-name="Layer 1"><path class="cls-1" d="M-1154.24-1362.65a2.4,2.4,0,0,0-2.57,2.39c0,1.91,0,3.81,0,5.72s0,3.84,0,5.77a2.37,2.37,0,0,0,1.76,2.3,2.45,2.45,0,0,0,2.68-1.14,2.66,2.66,0,0,0,.33-1.19c0-3.78,0-7.56,0-11.34A2.53,2.53,0,0,0-1154.24-1362.65Z" transform="translate(1194 1396)"/><path class="cls-1" d="M-1152.5-1396a41.5,41.5,0,0,0-41.5,41.5,41.5,41.5,0,0,0,41.5,41.5,41.5,41.5,0,0,0,41.5-41.5A41.5,41.5,0,0,0-1152.5-1396Zm-24.7,38.81h.66c2.18,0,4.35,0,6.53,0,.46,0,.61.14.61.6q0,3.19,0,6.39c0,.47-.12.64-.62.64-2.15,0-4.3,0-6.44,0-.83,0-.83,0-.83.81,0,2.61,0,5.22,0,7.83,0,.47-.13.59-.59.59-2.26,0-4.52,0-6.78,0h-.57v-.72q0-13.52,0-27c0-.5.14-.62.62-.62h15.91c.41,0,.53.13.55.55q.2,3.21.44,6.42c0,.66,0,.69-.6.69-2.77,0-5.55,0-8.32,0-.44,0-.62.11-.6.59C-1177.18-1359.37-1177.2-1358.32-1177.2-1357.19Zm11.78,10.85a13.86,13.86,0,0,1-2.44-6.08,13.8,13.8,0,0,1,9.14-15.14,12,12,0,0,1,4.22-.67,13.26,13.26,0,0,1,12.1,7.71,12.91,12.91,0,0,1,1.2,8.31,13.33,13.33,0,0,1-9.71,11A13.37,13.37,0,0,1-1165.42-1346.34Zm37.22,6a.69.69,0,0,1-.7-.44c-1.16-2.14-2.35-4.26-3.52-6.38l-.23-.36c-.11.18-.22.3-.29.45q-1.74,3.16-3.47,6.35a.63.63,0,0,1-.64.39c-2.56,0-5.13,0-7.69,0-.15,0-.3,0-.53-.06l1.49-2.61c2.21-3.85,4.41-7.71,6.64-11.56a.75.75,0,0,0-.07-.87l-7.32-12.62c-.08-.13-.14-.28-.26-.5l.55,0h7.83a.77.77,0,0,1,.81.5c.9,1.73,1.83,3.44,2.76,5.16.06.12.15.24.26.42.13-.19.24-.32.32-.47l2.82-5.18c.14-.25.27-.43.61-.43h7.93l.32,0c-.32.58-.61,1.11-.92,1.64q-3.27,5.73-6.57,11.43a.73.73,0,0,0,0,.8q4,6.9,8,13.81c.08.13.14.27.25.48-.23,0-.38,0-.53,0C-1122.95-1340.35-1125.57-1340.36-1128.2-1340.34Z" transform="translate(1194 1396)"/></g></g></svg>