<svg xmlns="http://www.w3.org/2000/svg" viewBox="0 0 83 83"><defs><style>.cls-1{fill:#a8a8ab;}</style></defs><title>google</title><g id="Layer_2" data-name="Layer 2"><g id="Layer_1-2" data-name="Layer 1"><path class="cls-1" d="M41.5,0A41.5,41.5,0,1,0,83,41.5,41.5,41.5,0,0,0,41.5,0Zm.41,67a25.53,25.53,0,0,1,0-51.06A24.55,24.55,0,0,1,59,22.65l-7,6.68c-9.09-8.77-26-2.18-26,12.17A16,16,0,0,0,41.91,57.62c10.11,0,13.9-7.25,14.5-11H41.91V37.84H66.22a22.86,22.86,0,0,1,.4,4.26C66.62,56.66,56.64,67,41.91,67Z"/></g></g></svg>