<?xml version="1.0" encoding="UTF-8"?>
<svg width="14px" height="15px" viewBox="0 0 14 15" version="1.1" xmlns="http://www.w3.org/2000/svg" xmlns:xlink="http://www.w3.org/1999/xlink">
    <!-- Generator: sketchtool 47.1 (45422) - http://www.bohemiancoding.com/sketch -->
    <title>F7591EC4-E0E7-442A-AA82-0E04E5BCBD8B</title>
    <desc>Created with sketchtool.</desc>
    <defs></defs>
    <g id="V4--RC-Updates" stroke="none" stroke-width="1" fill="none" fill-rule="evenodd">
        <g id="ASSETS--Pill-Icons" transform="translate(-180.000000, -606.000000)" fill="#FFFFFF">
            <g id="generic" transform="translate(180.000000, 606.000000)">
                <path d="M6.27686667,8.29303333 L7.2582,11.2837 L9.43886667,4.0567 L3.13053333,8.19936667 L6.27686667,8.29303333 Z M6.97773333,0.3334 C3.1464,0.3334 6.66666667e-05,3.48006667 6.66666667e-05,7.31173333 C6.66666667e-05,11.1747333 3.1464,14.2900667 6.9784,14.2900667 C10.8104,14.2900667 13.9567333,11.1747333 13.9567333,7.31173333 C13.9560667,3.48006667 10.8100667,0.3334 6.97773333,0.3334 M6.97773333,13.1997333 C3.7224,13.1997333 1.08973333,10.5517333 1.08973333,7.31173333 C1.08973333,4.07173333 3.73773333,1.42373333 6.97773333,1.42373333 C10.2177333,1.42373333 12.8657333,4.07173333 12.8657333,7.31173333 C12.8657333,10.5517333 10.2177333,13.1997333 6.97773333,13.1997333"></path>
            </g>
        </g>
    </g>
</svg>