<?xml version="1.0" encoding="UTF-8"?>
<svg width="16px" height="5px" viewBox="0 0 16 5" version="1.1" xmlns="http://www.w3.org/2000/svg" xmlns:xlink="http://www.w3.org/1999/xlink">
    <!-- Generator: sketchtool 47.1 (45422) - http://www.bohemiancoding.com/sketch -->
    <title>DCC41D60-0C5F-42DF-9D57-3925888FFC2B</title>
    <desc>Created with sketchtool.</desc>
    <defs></defs>
    <g id="V4--RC-Updates" stroke="none" stroke-width="1" fill="none" fill-rule="evenodd">
        <g id="ASSETS--Pill-Icons" transform="translate(-180.000000, -153.000000)" fill-rule="nonzero" fill="#F6F7F9">
            <g id="mixpanel" transform="translate(180.000000, 153.000000)">
                <path d="M2.62222222,-5.79319172e-14 C1.43099014,-0.00986734224 0.456659473,0.946567458 0.444444444,2.13777778 C0.436003205,2.72184897 0.663994533,3.28453577 1.07661967,3.69799787 C1.4892448,4.11145997 2.05146846,4.34059103 2.63555556,4.33333333 C3.82644408,4.31870053 4.78274873,3.3465236 4.77777778,2.15555556 C4.77290699,0.967098488 3.81067929,0.00487078696 2.62222222,-5.79319172e-14 Z" id="Shape"></path>
                <path d="M9.51555556,0.72 C8.68470866,0.722372597 8.00971416,1.39142873 8,2.22222222 C7.99513046,2.63308831 8.15681011,3.02842297 8.44819281,3.31813106 C8.73957551,3.60783915 9.13583547,3.76723754 9.54666667,3.76 C10.376398,3.73823696 11.0362362,3.05666751 11.0311111,2.22666667 C11.0214272,1.39514095 10.3471238,0.724792488 9.51555556,0.72 L9.51555556,0.72 Z" id="Shape"></path>
                <path d="M15.1111111,1.44 C14.6666667,1.50222222 14.3955556,1.73333333 14.4088889,2.19111111 C14.3999867,2.37444069 14.4686117,2.55305931 14.5979746,2.68326771 C14.7273374,2.81347611 14.9055052,2.88326322 15.0888889,2.87555556 C15.2835612,2.89827547 15.4782977,2.833595 15.6206925,2.69892043 C15.7630873,2.56424587 15.8385111,2.3734132 15.8266667,2.17777778 C15.8355556,1.72444444 15.5555556,1.49777778 15.1111111,1.44 Z" id="Shape"></path>
            </g>
        </g>
    </g>
</svg>