<svg xmlns="http://www.w3.org/2000/svg" viewBox="0 0 83 83"><defs><style>.cls-1{fill:#a8a8ab;}</style></defs><title>moat</title><g id="Layer_2" data-name="Layer 2"><g id="Layer_1-2" data-name="Layer 1"><path class="cls-1" d="M41.5,0A41.5,41.5,0,1,0,83,41.5,41.5,41.5,0,0,0,41.5,0ZM60.81,59.77c-1.29,0-2.25.08-2.46-1.78-.84-7.39-1.9-14.75-2.88-22.12,0-.23-.12-.46-.27-1-4.55,8.44-9,16.58-13.56,25.11-4.47-8.5-8.75-16.66-13.25-25.21-.43,2.73-.79,5-1.15,7.33-.81,5.3-1.64,10.6-2.39,15.92-.2,1.38-.74,2-2.19,1.79a13.83,13.83,0,0,0-2.05,0c1.84-12.25,3.65-24.28,5.46-36.3l.46-.16L41.72,51.85C47,42.17,52.16,32.77,57.47,23.07a6.68,6.68,0,0,1,.47,1.17c1.13,8.7,2.23,17.4,3.35,26.09.33,2.59.59,5.19,1,7.76C62.58,59.49,62.11,59.81,60.81,59.77Z"/></g></g></svg>