<svg xmlns="http://www.w3.org/2000/svg" viewBox="0 0 83 83"><defs><style>.cls-1{fill:#a8a8ab;}</style></defs><title>nielsen</title><g id="Layer_2" data-name="Layer 2"><g id="Layer_1-2" data-name="Layer 1"><path class="cls-1" d="M41.5,0A41.5,41.5,0,1,0,83,41.5,41.5,41.5,0,0,0,41.5,0Zm-6,64.52a1.33,1.33,0,0,1-1.07.25c-5.46,0-10.93,0-16.39,0-.58,0-1.59.22-1-1,1.09-.28,2.2-.49,3.26-.85,1.76-.6,2.1-1.12,2.11-3q0-10.92,0-21.84c0-3.45,0-6.91,0-10.36A2.37,2.37,0,0,0,21,25.24c-1-.42-1.88-.94-2.79-1.44-.35-.19-.93-.23-.92-.74s.6-.54,1-.67c3-1.07,5.93-2.1,8.89-3.15.76-.26,1.53-.49,2.26-.81s1.11-.09,1.1.79c0,4,0,8.08,0,12.12q0,14.4,0,28.79c0,2.12.79,3,2.9,3.13.55,0,1.09.15,1.63.21C35.76,63.56,35.85,63.94,35.54,64.52Zm30.36,0h0a1.65,1.65,0,0,1-1.2.24H47.84a1.57,1.57,0,0,1-1.19-.24c-.39-.64-.24-1,.52-1.12a29.52,29.52,0,0,0,3-.46c1.58-.38,2-1,2-2.59,0-3.29,0-6.57,0-9.86,0-5.34.18-10.69-.14-16A15.56,15.56,0,0,0,50.66,29a7.33,7.33,0,0,0-6-4.48,10.76,10.76,0,0,0-9.22,2.73c-.77.69-1.55,1.36-2.35,2.07a.91.91,0,0,1,.1-1c2.81-4.11,6.25-7.47,11-9.22,6.88-2.51,13.19.75,15.15,7.81a25.05,25.05,0,0,1,.87,6.61V60.14c0,1.94.41,2.5,2.33,3,.9.22,1.82.34,2.73.47C66,63.66,66.35,63.84,65.9,64.53Z"/></g></g></svg>