<svg xmlns="http://www.w3.org/2000/svg" viewBox="0 0 83 83"><defs><style>.cls-1{fill:#a8a8ab;}</style></defs><title>salesforce</title><g id="Layer_2" data-name="Layer 2"><g id="Layer_1-2" data-name="Layer 1"><path class="cls-1" d="M41.5,0A41.5,41.5,0,1,0,83,41.5,41.5,41.5,0,0,0,41.5,0ZM62.81,53.52a14.09,14.09,0,0,1-4.76-.08.29.29,0,0,0-.36.17,10.6,10.6,0,0,1-13.52,4.3c-.23-.1-.3-.07-.41.16a11.87,11.87,0,0,1-9.06,7,12.06,12.06,0,0,1-13.25-7.52c-.09-.23-.19-.27-.41-.23A10.86,10.86,0,0,1,12,55a10.93,10.93,0,0,1-4.11-7,11.28,11.28,0,0,1,2.3-9,10.56,10.56,0,0,1,2.92-2.61c.19-.12.22-.22.13-.43a13.17,13.17,0,0,1,2.27-13.59,12.59,12.59,0,0,1,7.08-4.19,12.83,12.83,0,0,1,11,2.59,11.59,11.59,0,0,1,2,2c.16.21.24.16.39,0a11.74,11.74,0,0,1,14.81-1.53,11.86,11.86,0,0,1,3.78,4c.14.24.25.24.47.15a14.2,14.2,0,0,1,11.31.07,14.51,14.51,0,0,1,8.51,10.51,13.89,13.89,0,0,1,.31,3,14.68,14.68,0,0,1-4,10.19A14.24,14.24,0,0,1,62.81,53.52Z"/></g></g></svg>