<svg width="24" height="24" viewBox="0 0 24 24" version="1.1" xmlns="http://www.w3.org/2000/svg" xmlns:xlink="http://www.w3.org/1999/xlink">
<title>tn-twitter</title>
<desc>Created using Figma</desc>
<g id="Canvas" transform="translate(-11422 -1045)">
<g id="tn-twitter">
<g id="dot">
<use xlink:href="#path0_fill" transform="translate(11422 1045)" fill="#5B9E4D"/>
</g>
<g id="twitter">
<use xlink:href="#path1_fill" transform="translate(11428 1052)" fill="#FFFFFF"/>
</g>
</g>
</g>
<defs>
<path id="path0_fill" d="M 24 12C 24 18.6274 18.6274 24 12 24C 5.37258 24 0 18.6274 0 12C 0 5.37258 5.37258 0 12 0C 18.6274 0 24 5.37258 24 12Z"/>
<path id="path1_fill" d="M 3.86963 10C 8.51308 10 11.0524 6.15311 11.0524 2.81722C 11.0524 2.70796 11.0502 2.59919 11.0453 2.49091C 11.5382 2.13457 11.9666 1.68989 12.3045 1.18368C 11.8522 1.38473 11.3654 1.52008 10.8548 1.58111C 11.376 1.26858 11.7761 0.774184 11.9649 0.184813C 11.4772 0.47397 10.937 0.684131 10.3619 0.797595C 9.90122 0.306907 9.24537 -5.24187e-07 8.51916 -5.24187e-07C 7.12506 -5.24187e-07 5.99454 1.13056 5.99454 2.52413C 5.99454 2.72223 6.01669 2.91492 6.06 3.09975C 3.96186 2.99418 2.10138 1.98963 0.856248 0.462156C 0.639444 0.835226 0.514431 1.26859 0.514431 1.73099C 0.514431 2.60683 0.960113 3.38003 1.63784 3.83236C 1.22367 3.81956 0.834592 3.70586 0.494529 3.51662C 0.494157 3.52721 0.494156 3.53754 0.494156 3.54886C 0.494156 4.77145 1.36434 5.79222 2.51946 6.02352C 2.30733 6.08135 2.08414 6.11236 1.85379 6.11236C 1.69137 6.11236 1.53313 6.09637 1.37933 6.06683C 1.70072 7.06989 2.63268 7.79981 3.73759 7.82021C 2.87356 8.49744 1.78512 8.9008 0.602171 8.9008C 0.398654 8.9008 0.1976 8.88923 -1.05644e-06 8.86586C 1.11726 9.58199 2.4439 9.99984 3.86976 9.99984"/>
</defs>
</svg>
