<svg xmlns="http://www.w3.org/2000/svg" viewBox="0 0 83 83"><defs><style>.cls-1{fill:#a8a8ab;}</style></defs><title>taboola</title><g id="Layer_2" data-name="Layer 2"><g id="Layer_1-2" data-name="Layer 1"><path class="cls-1" d="M56.22,26.28c-2.81-.1-4.42,1.07-5.08,3.83a14.73,14.73,0,0,0,.11,7.63,4.35,4.35,0,0,0,4.45,3.43,4.23,4.23,0,0,0,4.4-3.34,29.88,29.88,0,0,0,.66-3.8c-.13-1.44-.16-2.51-.34-3.55C60,27.92,58.36,26.36,56.22,26.28Z"/><path class="cls-1" d="M41.5,0A41.5,41.5,0,1,0,83,41.5,41.5,41.5,0,0,0,41.5,0ZM66.37,59.65a56.46,56.46,0,0,1-18.79,5.2c-11,1-21.59-.51-31.55-5.51-.32-.16-.76-.54-.76-.83-.06-3.06,0-6.12,0-9.29,17.37,6.94,34.54,6.83,51.9.24v1.29c0,2.55,0,5.1,0,7.64A1.16,1.16,0,0,1,66.37,59.65Zm-5.17-11a21,21,0,0,1-11.55-.19,13.77,13.77,0,0,1-8.11-6.28,2.37,2.37,0,0,0-.39.33,14.15,14.15,0,0,1-10,6.3,20.33,20.33,0,0,1-11.21-1,13.65,13.65,0,0,1-8.65-10.93,17.25,17.25,0,0,1,1.37-11c2.38-4.77,6.45-7.12,11.59-7.81a21.23,21.23,0,0,1,9.27.73,14,14,0,0,1,8,6.23c.67-.83,1.22-1.58,1.85-2.27a14.5,14.5,0,0,1,8.89-4.45,20.52,20.52,0,0,1,10.48.94c5.23,2,8.14,5.92,9,11.37a17.81,17.81,0,0,1-.66,8.87A13.64,13.64,0,0,1,61.2,48.68Z"/><path class="cls-1" d="M27.55,26.08c-2.4,0-3.9.9-4.61,3.16a13.94,13.94,0,0,0,0,8.64A4.19,4.19,0,0,0,27.22,41a4.13,4.13,0,0,0,4.33-3,35.83,35.83,0,0,0,.88-4.41,41.79,41.79,0,0,0-.69-4.13A4.19,4.19,0,0,0,27.55,26.08Z"/></g></g></svg>