<svg width="100" height="100" fill="none" xmlns="http://www.w3.org/2000/svg"><path fill-rule="evenodd" clip-rule="evenodd" d="M50 100c27.614 0 50-22.386 50-50S77.614 0 50 0 0 22.386 0 50s22.386 50 50 50z" fill="#fff"/><mask id="a" maskUnits="userSpaceOnUse" x="1" y="1" width="98" height="98"><path fill-rule="evenodd" clip-rule="evenodd" d="M1.504 1.56h96.868v96.868H1.504V1.56z" fill="#fff"/></mask><g mask="url(#a)"><path fill-rule="evenodd" clip-rule="evenodd" d="M98.372 49.993c0 26.75-21.685 48.435-48.435 48.435-26.748 0-48.433-21.685-48.433-48.434 0-26.75 21.685-48.435 48.433-48.435 26.75 0 48.435 21.686 48.435 48.434z" fill="#DE5833"/></g><path fill-rule="evenodd" clip-rule="evenodd" d="M59.629 90.012c-2.584-4.367-9.347-16.562-9.347-25.583 0-20.862 13.998-3.008 13.998-19.64 0-3.992-1.978-17.863-14.066-20.756-2.987-3.939-10.014-7.783-21.163-6.215 0 0 1.884.543 3.975 1.615 0 0-4.021.536-4.235 3.324 0 0 7.989-.436 12.555 1.04-10.427 1.352-15.807 6.79-14.832 16.763 1.38 14.114 7.33 39.37 9.47 48.175-15.87-5.717-27.215-20.904-27.215-38.742 0-22.737 18.432-41.169 41.168-41.169 22.738 0 41.17 18.432 41.17 41.17 0 19.398-13.418 35.66-31.478 40.018zm31.365-57.364a44.403 44.403 0 00-9.548-14.162 44.407 44.407 0 00-14.163-9.548 44.281 44.281 0 00-17.346-3.504 44.277 44.277 0 00-17.345 3.504 44.39 44.39 0 00-14.162 9.548 44.405 44.405 0 00-9.548 14.162 44.274 44.274 0 00-3.504 17.345A44.28 44.28 0 008.882 67.34a44.422 44.422 0 009.548 14.163 44.417 44.417 0 0014.162 9.548 44.29 44.29 0 0017.345 3.503 44.433 44.433 0 0031.508-13.05 44.42 44.42 0 009.55-14.164 44.295 44.295 0 003.502-17.346c0-6.014-1.179-11.85-3.503-17.345z" fill="#fff"/><path fill-rule="evenodd" clip-rule="evenodd" d="M47.727 56.692c0-5.34 7.29-7.035 10.001-7.035 7.446 0 17.907-4.765 20.535-4.683 2.629.082 4.323 1.14 4.323 2.373 0 1.798-14.832 8.453-20.638 7.906-5.472-.515-6.766.092-6.766 2.372 0 1.972 3.942 3.697 8.296 3.697 6.515 0 12.926-2.943 14.883-1.501 1.67 1.23-4.48 5.559-11.48 5.559-7.001 0-19.154-3.348-19.154-8.688z" fill="#FED30A"/><path fill-rule="evenodd" clip-rule="evenodd" d="M60.615 34.082c-1.939-2.512-5.434-2.594-6.608.328 1.857-1.475 4.123-1.775 6.608-.328zM39.016 34.164c-2.649-1.611-7.127-1.748-6.827 3.278 1.311-3.087 3.058-3.687 6.827-3.278zM59.96 41.329a.779.779 0 11.001-1.557.779.779 0 010 1.557zm-.99-2.478a2.669 2.669 0 100 5.338 2.669 2.669 0 000-5.338zM39.468 43.16a.898.898 0 110-1.796.898.898 0 010 1.796zM38.327 40.3a3.08 3.08 0 100 6.16 3.08 3.08 0 000-6.16z" fill="#2D4F8D"/><path fill-rule="evenodd" clip-rule="evenodd" d="M31.595 27.228c-3.882 2.809-5.679 7.217-5.08 13.333 1.38 14.125 7.338 39.41 9.473 48.197.722.258 1.453.497 2.192.716-1.302-5.36-7.496-31.32-10.253-51.305-.733-5.319 1.314-8.412 3.668-10.94zM41.205 23.755c.303-.03.55-.044.55-.044-4.24-2.04-10.85-2.096-12.63-2.072-.18.325-.302.696-.334 1.12 0 0 7.827-.426 12.414.996zM33.664 19.43a29.207 29.207 0 00-2.98-1.802c-.535.052-1.077.113-1.633.191 0 0 1.884.543 3.975 1.615 0 0-.049.007-.131.022.463-.034.77-.025.77-.025z" fill="#D5D7D8"/><path fill-rule="evenodd" clip-rule="evenodd" d="M66.168 73.142c-1.398-.33-6.713 3.464-8.705 4.935-.091-.389-.18-.693-.254-.857-.268-.806-5.404-.354-6.65.943-3.205-1.574-9.663-4.516-9.74-2.676-.204 2.447 0 12.54 1.323 13.254.985.53 6.47-2.432 9.219-3.987.016.002.029.008.046.011 1.73.408 4.886 0 6.006-.714.126-.08.225-.22.303-.401 2.527.969 7.904 2.93 9.063 2.542 1.425-.51 1.12-12.642-.611-13.05z" fill="#67BD47"/><path fill-rule="evenodd" clip-rule="evenodd" d="M51.407 84.765c-1.731-.305-1.12-2.039-1.12-6.016v-.005c-.438.263-.713.572-.713.923 0 3.977-.61 5.71 1.12 6.016 1.73.407 4.887 0 6.108-.715.21-.133.348-.424.432-.817-1.244.65-4.18 1.002-5.827.614z" fill="#43A347"/><path fill-rule="evenodd" clip-rule="evenodd" d="M88.14 87.234c-.596 0-1.031-.468-1.031-1.055 0-.58.435-1.055 1.022-1.055.588 0 1.016.475 1.016 1.063 0 .58-.428 1.047-1.008 1.047zm-.009-2.376c-.756 0-1.36.588-1.36 1.321 0 .749.604 1.336 1.36 1.336.765 0 1.353-.587 1.353-1.336 0-.733-.588-1.32-1.353-1.32z" fill="#4C4C4C"/><path fill-rule="evenodd" clip-rule="evenodd" d="M88.212 85.675c.148 0 .277.1.337.227l.265-.141c-.101-.196-.285-.382-.602-.382-.436 0-.772.325-.772.808 0 .48.337.808.772.808.316 0 .5-.19.602-.384l-.264-.138a.388.388 0 01-.338.228c-.264 0-.455-.219-.455-.514 0-.294.19-.512.455-.512z" fill="#4C4C4C"/></svg>