<svg width="89" height="81" viewBox="0 0 89 81" fill="none" xmlns="http://www.w3.org/2000/svg">
<path fill-rule="evenodd" clip-rule="evenodd" d="M40 81C62.0914 81 80 63.0914 80 41C80 18.9086 62.0914 1 40 1C17.9086 1 0 18.9086 0 41C0 63.0914 17.9086 81 40 81Z" fill="white"/>
<mask id="mask0" mask-type="alpha" maskUnits="userSpaceOnUse" x="1" y="2" width="78" height="78">
<path fill-rule="evenodd" clip-rule="evenodd" d="M1.20306 2.2478H78.6973V79.7421H1.20306V2.2478Z" fill="white"/>
</mask>
<g mask="url(#mask0)">
<path fill-rule="evenodd" clip-rule="evenodd" d="M78.6974 40.9948C78.6974 62.3945 61.3496 79.7423 39.9499 79.7423C18.5508 79.7423 1.20306 62.3945 1.20306 40.9948C1.20306 19.5957 18.5508 2.24731 39.9499 2.24731C61.3496 2.24731 78.6974 19.5957 78.6974 40.9948Z" fill="#DE5833"/>
</g>
<path fill-rule="evenodd" clip-rule="evenodd" d="M47.7029 73.0098C45.6362 69.5162 40.2259 59.7598 40.2259 52.5432C40.2259 35.8533 51.424 50.1373 51.424 36.8311C51.424 33.638 49.8413 22.5407 40.1709 20.2265C37.7818 17.0754 32.1601 14 23.2406 15.2543C23.2406 15.2543 24.7477 15.6886 26.4208 16.5462C26.4208 16.5462 23.2038 16.9753 23.0325 19.2055C23.0325 19.2055 29.4239 18.8571 33.0771 20.0372C24.7354 21.1196 20.4314 25.4701 21.2114 33.448C22.3159 44.7392 27.0748 64.9434 28.7867 71.9881C16.0919 67.4146 7.01539 55.2652 7.01539 40.9949C7.01539 22.805 21.7607 8.0597 39.9499 8.0597C58.1397 8.0597 72.8851 22.805 72.8851 40.9949C72.8851 56.5138 62.151 69.5233 47.7029 73.0098ZM72.7952 27.1187C70.9993 22.8735 68.4299 19.0613 65.1566 15.7888C61.8834 12.5155 58.0712 9.94544 53.8267 8.15017C49.4297 6.29028 44.7612 5.34741 39.9499 5.34741C35.1393 5.34741 30.4702 6.29028 26.0738 8.15017C21.8286 9.94544 18.0164 12.5155 14.7438 15.7888C11.4706 19.0613 8.90113 22.8735 7.10522 27.1187C5.24533 31.5151 4.30246 36.1836 4.30246 40.9949C4.30246 45.8061 5.24533 50.4746 7.10522 54.8717C8.90113 59.1162 11.4706 62.9284 14.7438 66.2016C18.0164 69.4742 21.8286 72.0443 26.0738 73.8402C30.4702 75.6994 35.1393 76.6423 39.9499 76.6423C44.7612 76.6423 49.4297 75.6994 53.8267 73.8402C58.0712 72.0443 61.8834 69.4742 65.1566 66.2016C68.4299 62.9284 70.9993 59.1162 72.7952 54.8717C74.6545 50.4746 75.5974 45.8061 75.5974 40.9949C75.5974 36.1836 74.6545 31.5151 72.7952 27.1187Z" fill="white"/>
<path fill-rule="evenodd" clip-rule="evenodd" d="M38.1818 46.3538C38.1818 42.0821 44.0135 40.7256 46.1823 40.7256C52.1394 40.7256 60.5076 36.9134 62.6105 36.9794C64.7134 37.0446 66.0692 37.8912 66.0692 38.8774C66.0692 40.3159 54.2035 45.6397 49.5583 45.2022C45.1806 44.7905 44.1454 45.2758 44.1454 47.1002C44.1454 48.6777 47.299 50.0574 50.7823 50.0574C55.9942 50.0574 61.1235 47.7031 62.6887 48.8567C64.0251 49.8409 59.1053 53.3041 53.5049 53.3041C47.9039 53.3041 38.1818 50.6254 38.1818 46.3538Z" fill="#FED30A"/>
<path fill-rule="evenodd" clip-rule="evenodd" d="M48.4921 28.2659C46.9411 26.2561 44.1448 26.1908 43.2058 28.5282C44.6909 27.3482 46.5042 27.1078 48.4921 28.2659Z" fill="#2D4F8D"/>
<path fill-rule="evenodd" clip-rule="evenodd" d="M31.2126 28.3315C29.0936 27.0422 25.5115 26.933 25.7512 30.9533C26.8001 28.484 28.1979 28.0039 31.2126 28.3315Z" fill="#2D4F8D"/>
<path fill-rule="evenodd" clip-rule="evenodd" d="M47.968 34.0632C47.6242 34.0632 47.3456 33.784 47.3456 33.4402C47.3456 33.0964 47.6242 32.8179 47.968 32.8179C48.3118 32.8179 48.591 33.0964 48.591 33.4402C48.591 33.784 48.3118 34.0632 47.968 34.0632ZM47.1763 32.0812C45.9969 32.0812 45.0411 33.037 45.0411 34.2164C45.0411 35.3964 45.9969 36.3522 47.1763 36.3522C48.3557 36.3522 49.3122 35.3964 49.3122 34.2164C49.3122 33.037 48.3557 32.0812 47.1763 32.0812Z" fill="#2D4F8D"/>
<path fill-rule="evenodd" clip-rule="evenodd" d="M31.5746 35.5279C31.1778 35.5279 30.8566 35.2061 30.8566 34.8093C30.8566 34.4125 31.1778 34.0907 31.5746 34.0907C31.9714 34.0907 32.2932 34.4125 32.2932 34.8093C32.2932 35.2061 31.9714 35.5279 31.5746 35.5279ZM30.6614 33.2408C29.3004 33.2408 28.1973 34.344 28.1973 35.705C28.1973 37.066 29.3004 38.1691 30.6614 38.1691C32.0218 38.1691 33.1249 37.066 33.1249 35.705C33.1249 34.344 32.0218 33.2408 30.6614 33.2408Z" fill="#2D4F8D"/>
<path fill-rule="evenodd" clip-rule="evenodd" d="M25.2756 22.7826C22.1704 25.0296 20.7331 28.5561 21.2113 33.4488C22.3164 44.7491 27.0825 64.9771 28.7905 72.0063C29.3682 72.2131 29.9524 72.4044 30.5437 72.5789C29.5026 68.2917 24.5473 47.5227 22.3416 31.5353C21.7548 27.2804 23.3924 24.806 25.2756 22.7826Z" fill="#D5D7D8"/>
<path fill-rule="evenodd" clip-rule="evenodd" d="M32.9642 20.0041C33.2066 19.9802 33.4037 19.9686 33.4037 19.9686C30.0116 18.3368 24.7246 18.2916 23.3003 18.311C23.1556 18.5714 23.0586 18.868 23.0328 19.2067C23.0328 19.2067 29.2942 18.8661 32.9642 20.0041Z" fill="#D5D7D8"/>
<path fill-rule="evenodd" clip-rule="evenodd" d="M26.9316 16.5446C25.9215 15.8505 25.0523 15.3658 24.5476 15.1028C24.1191 15.1441 23.6855 15.1933 23.2409 15.2553C23.2409 15.2553 24.7479 15.6896 26.4204 16.5471C26.4204 16.5471 26.3816 16.553 26.3157 16.5646C26.686 16.5374 26.9316 16.5446 26.9316 16.5446Z" fill="#D5D7D8"/>
<path fill-rule="evenodd" clip-rule="evenodd" d="M52.9344 59.5133C51.8164 59.2497 47.5641 62.2844 45.9704 63.4619C45.8974 63.1504 45.8257 62.9074 45.7675 62.7762C45.553 62.1313 41.4442 62.4932 40.447 63.5304C37.8834 62.2709 32.7166 59.9179 32.6552 61.3894C32.4924 63.3469 32.6552 71.4223 33.7138 71.993C34.5016 72.4175 38.8889 70.0471 41.0887 68.8031C41.1016 68.805 41.112 68.8096 41.1256 68.8121C42.5098 69.1385 45.034 68.8121 45.9304 68.2409C46.0312 68.1769 46.11 68.0651 46.1727 67.9197C48.1948 68.6952 52.4956 70.2636 53.4229 69.9541C54.5635 69.5463 54.3186 59.8397 52.9344 59.5133Z" fill="#49D714"/>
<path fill-rule="evenodd" clip-rule="evenodd" d="M41.1253 68.812C39.7404 68.5677 40.2296 67.1809 40.2296 63.9994C40.2296 63.9981 40.2296 63.9968 40.2296 63.9949C39.8793 64.2055 39.659 64.4524 39.659 64.7335C39.659 67.915 39.1711 69.3012 40.5553 69.5461C41.9396 69.8725 44.4644 69.5461 45.4416 68.9748C45.6096 68.8682 45.7201 68.6349 45.7873 68.3208C44.7921 68.8411 42.4436 69.1228 41.1253 68.812Z" fill="#43A347"/>
<path fill-rule="evenodd" clip-rule="evenodd" d="M70.5114 70.7873C70.0351 70.7873 69.6868 70.4131 69.6868 69.9433C69.6868 69.4793 70.0351 69.0993 70.505 69.0993C70.9754 69.0993 71.3173 69.4793 71.3173 69.9498C71.3173 70.4131 70.9754 70.7873 70.5114 70.7873ZM70.505 68.8867C69.9001 68.8867 69.4167 69.3572 69.4167 69.9433C69.4167 70.5424 69.9001 71.0122 70.505 71.0122C71.117 71.0122 71.5874 70.5424 71.5874 69.9433C71.5874 69.3572 71.117 68.8867 70.505 68.8867Z" fill="#4C4C4C"/>
<path fill-rule="evenodd" clip-rule="evenodd" d="M70.5694 69.5396C70.6877 69.5396 70.7911 69.6204 70.8396 69.7212L71.0515 69.6088C70.9701 69.4517 70.8228 69.3031 70.5694 69.3031C70.2211 69.3031 69.9523 69.5635 69.9523 69.9493C69.9523 70.3339 70.2211 70.5956 70.5694 70.5956C70.8228 70.5956 70.9701 70.4444 71.0515 70.2886L70.8396 70.1781C70.7911 70.2796 70.6877 70.3604 70.5694 70.3604C70.3581 70.3604 70.2056 70.1859 70.2056 69.9493C70.2056 69.7141 70.3581 69.5396 70.5694 69.5396Z" fill="#4C4C4C"/>
<g filter="url(#filter0_d)">
<path fill-rule="evenodd" clip-rule="evenodd" d="M71 31C78.732 31 85 24.732 85 17C85 9.26801 78.732 3 71 3C63.268 3 57 9.26801 57 17C57 24.732 63.268 31 71 31Z" fill="#678FFF"/>
<path d="M71 32C79.2843 32 86 25.2843 86 17C86 8.71573 79.2843 2 71 2C62.7157 2 56 8.71573 56 17C56 25.2843 62.7157 32 71 32Z" stroke="white" stroke-width="2"/>
</g>
<rect x="70" y="8" width="2" height="11" rx="1" fill="white"/>
<path fill-rule="evenodd" clip-rule="evenodd" d="M71 24C71.5523 24 72 23.5523 72 23C72 22.4477 71.5523 22 71 22C70.4477 22 70 22.4477 70 23C70 23.5523 70.4477 24 71 24Z" fill="white" stroke="white"/>
<defs>
<filter id="filter0_d" x="53" y="0" width="36" height="36" filterUnits="userSpaceOnUse" color-interpolation-filters="sRGB">
<feFlood flood-opacity="0" result="BackgroundImageFix"/>
<feColorMatrix in="SourceAlpha" type="matrix" values="0 0 0 0 0 0 0 0 0 0 0 0 0 0 0 0 0 0 127 0"/>
<feOffset dy="1"/>
<feGaussianBlur stdDeviation="1"/>
<feColorMatrix type="matrix" values="0 0 0 0 0 0 0 0 0 0 0 0 0 0 0 0 0 0 0.202306 0"/>
<feBlend mode="normal" in2="BackgroundImageFix" result="effect1_dropShadow"/>
<feBlend mode="normal" in="SourceGraphic" in2="effect1_dropShadow" result="shape"/>
</filter>
</defs>
</svg>
