<svg width="89" height="81" fill="none" xmlns="http://www.w3.org/2000/svg"><path fill-rule="evenodd" clip-rule="evenodd" d="M40 81c22.091 0 40-17.909 40-40S62.091 1 40 1 0 18.909 0 41s17.909 40 40 40z" fill="#fff"/><mask id="a" maskUnits="userSpaceOnUse" x="1" y="2" width="78" height="78"><path fill-rule="evenodd" clip-rule="evenodd" d="M1.203 2.248h77.494v77.494H1.203V2.248z" fill="#fff"/></mask><g mask="url(#a)"><path fill-rule="evenodd" clip-rule="evenodd" d="M78.697 40.995c0 21.4-17.347 38.747-38.747 38.747S1.203 62.394 1.203 40.995c0-21.4 17.348-38.748 38.747-38.748 21.4 0 38.747 17.349 38.747 38.748z" fill="#DE5833"/></g><path fill-rule="evenodd" clip-rule="evenodd" d="M47.703 73.01c-2.067-3.494-7.477-13.25-7.477-20.467 0-16.69 11.198-2.406 11.198-15.712 0-3.193-1.583-14.29-11.253-16.605-2.39-3.15-8.01-6.226-16.93-4.972 0 0 1.507.435 3.18 1.292 0 0-3.217.43-3.389 2.66 0 0 6.392-.349 10.045.831-8.342 1.083-12.646 5.433-11.866 13.411 1.105 11.291 5.864 31.495 7.576 38.54C16.092 67.415 7.015 55.265 7.015 40.995c0-18.19 14.746-32.935 32.935-32.935 18.19 0 32.935 14.745 32.935 32.935 0 15.519-10.734 28.528-25.182 32.015zm25.092-45.891a35.52 35.52 0 00-7.638-11.33 35.525 35.525 0 00-11.33-7.639A35.425 35.425 0 0039.95 5.347c-4.81 0-9.48.943-13.876 2.803a35.51 35.51 0 00-11.33 7.639 35.521 35.521 0 00-7.639 11.33 35.42 35.42 0 00-2.803 13.876c0 4.811.943 9.48 2.803 13.877a35.536 35.536 0 007.639 11.33 35.532 35.532 0 0011.33 7.638 35.433 35.433 0 0013.876 2.802 35.546 35.546 0 0025.207-10.44 35.535 35.535 0 007.638-11.33 35.435 35.435 0 002.802-13.877c0-4.811-.942-9.48-2.802-13.876z" fill="#fff"/><path fill-rule="evenodd" clip-rule="evenodd" d="M38.182 46.354c0-4.272 5.831-5.628 8-5.628 5.957 0 14.326-3.813 16.428-3.747 2.103.066 3.46.912 3.46 1.898 0 1.439-11.866 6.763-16.512 6.325-4.377-.411-5.413.074-5.413 1.898 0 1.578 3.154 2.957 6.637 2.957 5.212 0 10.342-2.354 11.907-1.2 1.336.984-3.584 4.447-9.184 4.447-5.601 0-15.323-2.679-15.323-6.95z" fill="#FED30A"/><path fill-rule="evenodd" clip-rule="evenodd" d="M48.492 28.266c-1.55-2.01-4.347-2.075-5.286.262 1.485-1.18 3.298-1.42 5.286-.262zM31.213 28.331c-2.12-1.289-5.701-1.398-5.462 2.622 1.05-2.469 2.447-2.95 5.462-2.622zM47.968 34.063a.623.623 0 110-1.245.623.623 0 010 1.245zm-.792-1.982a2.135 2.135 0 100 4.27 2.135 2.135 0 000-4.27zM31.575 35.528a.718.718 0 110-1.436.718.718 0 010 1.436zm-.914-2.287a2.464 2.464 0 100 4.928 2.464 2.464 0 000-4.928z" fill="#2D4F8D"/><path fill-rule="evenodd" clip-rule="evenodd" d="M25.276 22.783c-3.106 2.247-4.543 5.773-4.065 10.666 1.105 11.3 5.872 31.528 7.58 38.557.577.207 1.161.398 1.753.573-1.041-4.287-5.997-25.056-8.202-41.044-.587-4.255 1.05-6.729 2.934-8.752zM32.964 20.004c.243-.024.44-.035.44-.035-3.392-1.632-8.68-1.677-10.104-1.658a2.16 2.16 0 00-.267.896s6.261-.34 9.931.797zM26.932 16.545a23.376 23.376 0 00-2.384-1.442c-.429.041-.862.09-1.307.152 0 0 1.507.435 3.18 1.292l-.105.018c.37-.028.616-.02.616-.02z" fill="#D5D7D8"/><path fill-rule="evenodd" clip-rule="evenodd" d="M52.934 59.513c-1.118-.263-5.37 2.771-6.964 3.949a4.46 4.46 0 00-.203-.686c-.214-.645-4.323-.283-5.32.754-2.564-1.26-7.73-3.612-7.792-2.14-.163 1.957 0 10.032 1.059 10.603.788.425 5.175-1.946 7.375-3.19.013.002.023.007.037.01 1.384.325 3.908 0 4.804-.572a.69.69 0 00.243-.321c2.022.775 6.323 2.344 7.25 2.034 1.14-.408.896-10.114-.489-10.44z" fill="#49D714"/><path fill-rule="evenodd" clip-rule="evenodd" d="M41.125 68.812c-1.385-.244-.895-1.631-.895-4.813v-.004c-.35.21-.571.457-.571.739 0 3.181-.488 4.567.896 4.812 1.385.326 3.91 0 4.887-.571.168-.107.278-.34.345-.654-.995.52-3.343.802-4.662.491z" fill="#43A347"/><path fill-rule="evenodd" clip-rule="evenodd" d="M70.511 70.787c-.476 0-.824-.374-.824-.844 0-.464.348-.844.818-.844s.812.38.812.85c0 .464-.342.838-.806.838zm-.006-1.9c-.605 0-1.088.47-1.088 1.056 0 .6.483 1.07 1.088 1.07.612 0 1.082-.47 1.082-1.07 0-.586-.47-1.056-1.082-1.056z" fill="#4C4C4C"/><path fill-rule="evenodd" clip-rule="evenodd" d="M70.57 69.54c.118 0 .221.08.27.181l.212-.112a.523.523 0 00-.483-.306c-.348 0-.617.26-.617.646 0 .385.27.647.617.647.254 0 .401-.152.483-.307l-.212-.11a.31.31 0 01-.27.181c-.212 0-.364-.174-.364-.41s.152-.41.363-.41z" fill="#4C4C4C"/><g filter="url(#filter0_d)"><path fill-rule="evenodd" clip-rule="evenodd" d="M71 31c7.732 0 14-6.268 14-14S78.732 3 71 3 57 9.268 57 17s6.268 14 14 14z" fill="#678FFF"/><path d="M71 32c8.284 0 15-6.716 15-15 0-8.284-6.716-15-15-15-8.284 0-15 6.716-15 15 0 8.284 6.716 15 15 15z" stroke="#fff" stroke-width="2"/></g><rect x="70" y="8" width="2" height="11" rx="1" fill="#fff"/><path fill-rule="evenodd" clip-rule="evenodd" d="M71 24a1 1 0 100-2 1 1 0 000 2z" fill="#fff" stroke="#fff"/><defs><filter id="filter0_d" x="53" y="0" width="36" height="36" filterUnits="userSpaceOnUse" color-interpolation-filters="sRGB"><feFlood flood-opacity="0" result="BackgroundImageFix"/><feColorMatrix in="SourceAlpha" values="0 0 0 0 0 0 0 0 0 0 0 0 0 0 0 0 0 0 127 0"/><feOffset dy="1"/><feGaussianBlur stdDeviation="1"/><feColorMatrix values="0 0 0 0 0 0 0 0 0 0 0 0 0 0 0 0 0 0 0.202306 0"/><feBlend in2="BackgroundImageFix" result="effect1_dropShadow"/><feBlend in="SourceGraphic" in2="effect1_dropShadow" result="shape"/></filter></defs></svg>